<svg width="32" height="32" viewBox="0 0 32 32" fill="none" xmlns="http://www.w3.org/2000/svg">
<path fill-rule="evenodd" clip-rule="evenodd" d="M27.6818 2V9.0362C28.0199 9.09849 28.3432 9.2299 28.6312 9.42386C29.0461 9.70338 29.3686 10.1 29.5588 10.5629C29.749 11.0258 29.7986 11.5348 29.7018 12.0258C29.6049 12.5168 29.3656 12.9686 29.0133 13.3238C28.6609 13.6791 28.2111 13.9218 27.7206 14.0202C27.23 14.1185 26.7216 14.068 26.2599 13.8752C25.7982 13.6824 25.4046 13.3563 25.1281 12.9392C24.8517 12.5221 24.7045 12.0324 24.7045 11.5319H26.2045C26.2045 11.7384 26.2653 11.9398 26.3785 12.1105C26.4916 12.2812 26.6517 12.4133 26.8379 12.491C27.024 12.5688 27.2285 12.589 27.4256 12.5494C27.6229 12.5099 27.8049 12.4121 27.9483 12.2675C28.0918 12.1228 28.1902 11.9378 28.2301 11.7354C28.2701 11.533 28.2495 11.3233 28.1713 11.133C28.0932 10.9428 27.9612 10.7812 27.7931 10.6679C27.6251 10.5547 27.4282 10.4947 27.2273 10.4947H26.9148L26.1818 9.75568V2H27.6818ZM4.30751 2.44149H5.634L5.84107 2.61308L5.84303 2.61468L5.85593 2.62505C5.86847 2.63505 5.88881 2.65105 5.91652 2.67221C5.97197 2.71456 6.05669 2.77735 6.1673 2.85382C6.38906 3.00712 6.71186 3.21329 7.10897 3.41949C7.89278 3.82647 8.91998 4.2095 10.0087 4.22802C11.1777 3.83284 12.4031 3.63175 13.6368 3.63298C13.6367 3.63298 13.6369 3.63298 13.6368 3.63298H14.5818C17.9035 3.63298 20.8673 5.21099 22.8055 7.80658L22.9545 8.00619V9.11765L22.4121 9.27389C21.4738 9.54418 20.5817 10.0249 19.9114 10.4518C19.8245 10.5071 19.7419 10.5612 19.6639 10.6134C20.2106 10.7744 20.9902 10.958 22.0029 11.0857L22.6591 11.1684V12.4365L22.4416 12.6558C21.2059 13.9017 20.0319 14.7167 18.7442 15.2108C17.4609 15.7033 16.1181 15.8564 14.5818 15.8564H13.6364C11.5249 15.8564 9.65909 17.8298 9.65909 20.4681C9.65909 22.9323 11.2868 24.8165 13.2221 25.0544C14.6381 22.7743 17.1149 20.9096 20.0182 20.9096H20.7682V22.36L20.4347 22.5811L20.4336 22.5819L20.4327 22.5825L20.4225 22.5896C20.4112 22.5974 20.3925 22.6107 20.3675 22.6292C20.3172 22.6664 20.2419 22.7242 20.1498 22.8016C19.9646 22.9572 19.7169 23.1873 19.4704 23.4816C18.9707 24.0781 18.5227 24.8806 18.5227 25.8298C18.5227 26.779 18.9707 27.5814 19.4704 28.178C19.7169 28.4723 19.9646 28.7024 20.1498 28.8579C20.2419 28.9353 20.3172 28.9932 20.3675 29.0303C20.3925 29.0489 20.4112 29.0621 20.4225 29.07L20.4327 29.0771L20.4336 29.0777L20.4347 29.0785L20.7682 29.2996V30.75H20.0182C17.1005 30.75 14.6136 28.8668 13.2013 26.5714C10.3376 26.4612 7.61502 25.266 5.58283 23.2171C3.44816 21.065 2.25 18.1474 2.25 15.1064C2.25 15.1064 2.25 15.1064 2.25 15.1064C2.25 10.8827 2.69892 7.84765 3.15527 5.85393C3.38341 4.85723 3.61326 4.12144 3.78942 3.62811C3.87749 3.38147 3.9521 3.19552 4.00633 3.06796C4.03344 3.00418 4.05545 2.95501 4.07149 2.92015C4.07951 2.90273 4.08604 2.88888 4.09096 2.87858L4.09713 2.86577L4.09929 2.86136L4.10014 2.85965C4.1003 2.85931 4.10082 2.85826 4.77273 3.19149L4.10082 2.85826L4.30751 2.44149ZM5.2377 4.03414C5.22619 4.06546 5.2143 4.09825 5.20206 4.13253C5.04583 4.57005 4.8325 5.24915 4.61746 6.18862C4.45598 6.89409 4.29345 7.74677 4.15343 8.75461C4.21784 8.65693 4.28381 8.56013 4.35133 8.46427C5.25103 7.18671 6.39571 6.11516 7.7093 5.30777C7.2258 5.14139 6.78994 4.94399 6.41774 4.75073C5.95434 4.51011 5.57728 4.26947 5.3143 4.08767C5.28762 4.06922 5.26207 4.05136 5.2377 4.03414ZM3.75 15.1064C3.75 17.7535 4.79307 20.2909 6.64781 22.1608C7.39351 22.9126 8.24585 23.5318 9.16883 24.0034C8.52904 22.994 8.15909 21.7666 8.15909 20.4681C8.15909 17.1847 10.5242 14.3564 13.6364 14.3564H14.5818C16.0225 14.3564 17.1615 14.2116 18.2067 13.8104C18.9865 13.5112 19.7441 13.0576 20.5494 12.3706C19.9259 12.2475 19.4176 12.1104 19.0246 11.9866C18.7087 11.8871 18.4674 11.7961 18.301 11.728C18.2177 11.6939 18.1532 11.6655 18.1074 11.6445C18.0845 11.6341 18.0662 11.6255 18.0527 11.619L18.0359 11.6108L18.0301 11.6079L18.0278 11.6068L18.0269 11.6063C18.0267 11.6062 18.026 11.6059 18.3636 10.9362L18.0269 11.6063L17.6136 11.398V10.2888L17.8812 10.0641L18.3636 10.6383C17.8812 10.0641 17.8811 10.0642 17.8812 10.0641L17.8824 10.0631L17.8842 10.0615L17.8898 10.0569L17.9087 10.0413C17.9246 10.0283 17.9472 10.0099 17.9762 9.98682C18.034 9.94069 18.1172 9.87562 18.2228 9.79636C18.4339 9.63803 18.7359 9.42195 19.1057 9.18651C19.6478 8.84133 20.3514 8.44419 21.1381 8.12909C19.4827 6.24208 17.1564 5.13298 14.5818 5.13298H13.6364C12.5285 5.13184 11.4275 5.31885 10.3811 5.68624C8.44511 6.36804 6.76622 7.64031 5.57773 9.32794C4.38912 11.0157 3.75009 13.0351 3.75 15.1064ZM18.1311 28.9043C17.5682 28.1655 17.0227 27.1189 17.0227 25.8298C17.0227 24.5406 17.5682 23.494 18.1311 22.7553C16.6571 23.2998 15.3719 24.4396 14.5061 25.8298C15.3719 27.22 16.6571 28.3598 18.1311 28.9043ZM16.75 6.76596V9.14894H15.25V6.76596H16.75Z" fill="#F0F0F0"/>
</svg>
