<svg width="16" height="16" viewBox="0 0 16 16" fill="none" xmlns="http://www.w3.org/2000/svg">
<g id="Compass icon">
<path id="Vector" d="M13.4659 4.57447V1M12.7273 5.76596C12.7273 5.9427 12.7793 6.11547 12.8767 6.26242C12.974 6.40938 13.1125 6.52392 13.2744 6.59155C13.4364 6.65919 13.6146 6.67688 13.7866 6.6424C13.9585 6.60792 14.1164 6.52281 14.2404 6.39784C14.3643 6.27287 14.4488 6.11364 14.483 5.94029C14.5172 5.76695 14.4996 5.58727 14.4325 5.42398C14.3654 5.2607 14.2518 5.12113 14.1061 5.02294C13.9897 4.94452 13.8569 4.8953 13.7189 4.87866C13.6518 4.87058 13.5869 4.84538 13.5393 4.79744V4.79744C13.4923 4.75002 13.4659 4.68592 13.4659 4.61912V4.2766M6.81818 12.9149C5.51227 12.9149 4.45455 11.7145 4.45455 10.234C4.45455 8.75362 5.51227 7.55319 6.81818 7.55319H7.29091C8.76519 7.55319 9.75371 7.26098 10.9207 6.09773C10.9422 6.07629 10.9545 6.04679 10.9545 6.01642V6.01642C10.9545 5.9584 10.9112 5.90952 10.8538 5.90165C9.97817 5.78175 9.44648 5.58268 9.25871 5.50281C9.21087 5.48246 9.18182 5.43529 9.18182 5.3833V5.3833C9.18182 5.34263 9.19927 5.3045 9.23114 5.27924C9.42347 5.12679 10.1545 4.57623 11.0034 4.30656C11.0617 4.28803 11.1023 4.23446 11.1023 4.17327V4.17327C11.1023 4.14366 11.0927 4.11475 11.0748 4.09119C10.1728 2.90543 8.81233 2.19149 7.29091 2.19149H6.81818C6.22172 2.19088 5.62941 2.29158 5.06614 2.48936M6.81818 12.9149C5.40771 12.9149 4.05501 12.35 3.05766 11.3445C2.06031 10.339 1.5 8.9752 1.5 7.55319M6.81818 12.9149C7.44003 11.7919 8.58953 10.8744 9.9121 10.8314C9.9656 10.8296 10.0091 10.8732 10.0091 10.9267V10.9267C10.0091 10.9592 9.99338 10.9892 9.96718 11.0084C9.76346 11.1577 8.88636 11.8618 8.88636 12.9149C8.88636 13.968 9.76346 14.6721 9.96718 14.8214C9.99338 14.8406 10.0091 14.8706 10.0091 14.9031V14.9031C10.0091 14.9566 9.9656 15.0002 9.9121 14.9984C8.58953 14.9554 7.44003 14.0379 6.81818 12.9149ZM5.06614 2.48936H5.04545C3.97391 2.48936 3.04613 1.86819 2.76724 1.66164C2.71084 1.61986 2.64341 1.59574 2.57322 1.59574V1.59574C2.45877 1.59574 2.35541 1.65983 2.3132 1.76622C2.10096 2.30127 1.5 4.11939 1.5 7.55319M5.06614 2.48936C4.02419 2.85627 3.1212 3.54077 2.48226 4.44805C1.84332 5.35533 1.50005 6.44049 1.5 7.55319M8 4.57447V3.38298" stroke="#562C2C"/>
</g>
</svg>
