<svg width="16" height="16" viewBox="0 0 16 16" fill="none" xmlns="http://www.w3.org/2000/svg">
<g id="Adventure tourism icon">
<path id="Vector" d="M10.25 5C10.5962 5 10.9345 4.89737 11.2223 4.70507C11.5101 4.51278 11.7344 4.23947 11.8668 3.9197C11.9993 3.59993 12.0339 3.24806 11.9664 2.90859C11.8989 2.56913 11.7322 2.25731 11.4875 2.01256C11.2427 1.76782 10.9309 1.60115 10.5915 1.53363C10.252 1.4661 9.90012 1.50076 9.58035 1.63321C9.26058 1.76566 8.98726 1.98997 8.79497 2.27775C8.60268 2.56554 8.50004 2.90388 8.50004 3.25C8.50004 3.71413 8.68442 4.15925 9.01261 4.48744C9.34079 4.81563 9.78591 5 10.25 5ZM10.25 2.5C10.3984 2.5 10.5434 2.54399 10.6667 2.6264C10.7901 2.70881 10.8862 2.82594 10.943 2.96299C10.9997 3.10003 11.0146 3.25083 10.9856 3.39632C10.9567 3.5418 10.8853 3.67544 10.7804 3.78033C10.6755 3.88522 10.5418 3.95665 10.3964 3.98559C10.2509 4.01453 10.1001 3.99968 9.96303 3.94291C9.82599 3.88614 9.70885 3.79002 9.62644 3.66668C9.54403 3.54334 9.50004 3.39834 9.50004 3.25C9.50004 3.05109 9.57906 2.86032 9.71971 2.71967C9.86037 2.57902 10.0511 2.5 10.25 2.5ZM15.93 12.245L12.52 6.49C12.4321 6.34008 12.3063 6.2159 12.1553 6.1299C12.0042 6.04391 11.8332 5.99911 11.6594 6C11.4857 5.99909 11.3148 6.04389 11.1638 6.12989C11.0129 6.2159 10.8872 6.34009 10.7994 6.49L9.16442 9.25L6.36192 4.49375C6.27361 4.34366 6.14764 4.21924 5.99647 4.13279C5.8453 4.04635 5.67418 4.00087 5.50004 4.00087C5.3259 4.00087 5.15478 4.04635 5.00362 4.13279C4.85245 4.21924 4.72648 4.34366 4.63817 4.49375L0.0694183 12.2463C0.0246977 12.3222 0.000837722 12.4086 0.000255074 12.4967C-0.000327575 12.5848 0.0223878 12.6715 0.0661004 12.748C0.109813 12.8245 0.17297 12.8881 0.249175 12.9324C0.325379 12.9766 0.411924 13 0.500043 13H15.5C15.5883 13 15.675 12.9766 15.7513 12.9323C15.8276 12.8879 15.8908 12.8241 15.9344 12.7475C15.9781 12.6708 16.0007 12.5839 15.9999 12.4956C15.9992 12.4074 15.9751 12.3209 15.93 12.245ZM5.50004 5L6.97317 7.5H4.02692L5.50004 5ZM1.37504 12L3.43754 8.5H7.56254L8.73379 10.4875L9.62504 12H1.37504ZM10.7857 12L9.74442 10.2325L11.6594 7L14.625 12H10.7857Z" fill="#562C2C"/>
</g>
</svg>
