<svg width="305" height="120" viewBox="0 0 305 120" fill="none" xmlns="http://www.w3.org/2000/svg">
<rect x="0.5" y="0.5" width="304" height="119" rx="4.5" stroke="#9747FF" stroke-dasharray="10 5"/>
<rect x="16" y="16" width="156" height="44" rx="22" fill="#FAFAFA"/>
<rect x="16.75" y="16.75" width="154.5" height="42.5" rx="21.25" stroke="#F2542D" stroke-opacity="0.5" stroke-width="1.5"/>
<path d="M46 26.625C43.7502 26.625 41.551 27.2921 39.6804 28.542C37.8098 29.7919 36.3518 31.5685 35.4909 33.647C34.6299 35.7255 34.4047 38.0126 34.8436 40.2192C35.2825 42.4257 36.3658 44.4525 37.9567 46.0433C39.5475 47.6342 41.5743 48.7175 43.7809 49.1564C45.9874 49.5953 48.2745 49.3701 50.353 48.5091C52.4315 47.6482 54.2081 46.1902 55.458 44.3196C56.7079 42.449 57.375 40.2498 57.375 38C57.3718 34.9841 56.1724 32.0927 54.0398 29.9602C51.9073 27.8276 49.0159 26.6282 46 26.625ZM46 47.625C44.0964 47.625 42.2355 47.0605 40.6526 46.0029C39.0698 44.9453 37.8362 43.4421 37.1077 41.6833C36.3792 39.9246 36.1886 37.9893 36.5599 36.1223C36.9313 34.2552 37.848 32.5402 39.1941 31.1941C40.5402 29.848 42.2552 28.9313 44.1223 28.5599C45.9893 28.1886 47.9246 28.3792 49.6833 29.1077C51.4421 29.8362 52.9453 31.0698 54.0029 32.6526C55.0605 34.2355 55.625 36.0964 55.625 38C55.6221 40.5518 54.6071 42.9983 52.8027 44.8027C50.9983 46.6071 48.5518 47.6221 46 47.625ZM50.8584 31.9669L43.8584 35.4669C43.6892 35.5519 43.5519 35.6892 43.4669 35.8584L39.9669 42.8584C39.9001 42.9919 39.8686 43.1402 39.8753 43.2893C39.882 43.4384 39.9267 43.5832 40.0051 43.7102C40.0836 43.8371 40.1933 43.9418 40.3236 44.0144C40.454 44.087 40.6008 44.1251 40.75 44.125C40.8858 44.1248 41.0198 44.0934 41.1416 44.0331L48.1416 40.5331C48.3108 40.4481 48.4481 40.3108 48.5331 40.1416L52.0331 33.1416C52.1157 32.9772 52.1444 32.791 52.1151 32.6094C52.0858 32.4278 52 32.2601 51.87 32.13C51.7399 32 51.5722 31.9142 51.3906 31.8849C51.209 31.8556 51.0228 31.8843 50.8584 31.9669ZM47.0938 39.0938L42.7067 41.2933L44.9063 36.9062L49.2977 34.7111L47.0938 39.0938Z" fill="#562C2C"/>
<path d="M77.88 42.16H72.06L71.06 45H68.68L73.66 31.08H76.3L81.28 45H78.88L77.88 42.16ZM77.24 40.3L74.98 33.84L72.7 40.3H77.24ZM82.6853 39.48C82.6853 38.3467 82.912 37.3533 83.3653 36.5C83.832 35.6333 84.472 34.9667 85.2853 34.5C86.0986 34.0333 87.032 33.8 88.0853 33.8C89.4186 33.8 90.5186 34.12 91.3853 34.76C92.2653 35.3867 92.8586 36.2867 93.1653 37.46H90.7053C90.5053 36.9133 90.1853 36.4867 89.7453 36.18C89.3053 35.8733 88.752 35.72 88.0853 35.72C87.152 35.72 86.4053 36.0533 85.8453 36.72C85.2986 37.3733 85.0253 38.2933 85.0253 39.48C85.0253 40.6667 85.2986 41.5933 85.8453 42.26C86.4053 42.9267 87.152 43.26 88.0853 43.26C89.4053 43.26 90.2786 42.68 90.7053 41.52H93.1653C92.8453 42.64 92.2453 43.5333 91.3653 44.2C90.4853 44.8533 89.392 45.18 88.0853 45.18C87.032 45.18 86.0986 44.9467 85.2853 44.48C84.472 44 83.832 43.3333 83.3653 42.48C82.912 41.6133 82.6853 40.6133 82.6853 39.48ZM98.0975 35.84V41.94C98.0975 42.3533 98.1908 42.6533 98.3775 42.84C98.5775 43.0133 98.9108 43.1 99.3775 43.1H100.778V45H98.9775C97.9508 45 97.1642 44.76 96.6175 44.28C96.0708 43.8 95.7975 43.02 95.7975 41.94V35.84H94.4975V33.98H95.7975V31.24H98.0975V33.98H100.778V35.84H98.0975ZM104.039 32.52C103.626 32.52 103.279 32.38 102.999 32.1C102.719 31.82 102.579 31.4733 102.579 31.06C102.579 30.6467 102.719 30.3 102.999 30.02C103.279 29.74 103.626 29.6 104.039 29.6C104.439 29.6 104.779 29.74 105.059 30.02C105.339 30.3 105.479 30.6467 105.479 31.06C105.479 31.4733 105.339 31.82 105.059 32.1C104.779 32.38 104.439 32.52 104.039 32.52ZM105.159 33.98V45H102.879V33.98H105.159ZM112.412 42.96L115.532 33.98H117.952L113.752 45H111.032L106.852 33.98H109.292L112.412 42.96ZM120.836 32.52C120.422 32.52 120.076 32.38 119.796 32.1C119.516 31.82 119.376 31.4733 119.376 31.06C119.376 30.6467 119.516 30.3 119.796 30.02C120.076 29.74 120.422 29.6 120.836 29.6C121.236 29.6 121.576 29.74 121.856 30.02C122.136 30.3 122.276 30.6467 122.276 31.06C122.276 31.4733 122.136 31.82 121.856 32.1C121.576 32.38 121.236 32.52 120.836 32.52ZM121.956 33.98V45H119.676V33.98H121.956ZM127.609 35.84V41.94C127.609 42.3533 127.703 42.6533 127.889 42.84C128.089 43.0133 128.423 43.1 128.889 43.1H130.289V45H128.489C127.463 45 126.676 44.76 126.129 44.28C125.583 43.8 125.309 43.02 125.309 41.94V35.84H124.009V33.98H125.309V31.24H127.609V33.98H130.289V35.84H127.609ZM142.491 39.22C142.491 39.6333 142.464 40.0067 142.411 40.34H133.991C134.057 41.22 134.384 41.9267 134.971 42.46C135.557 42.9933 136.277 43.26 137.131 43.26C138.357 43.26 139.224 42.7467 139.731 41.72H142.191C141.857 42.7333 141.251 43.5667 140.371 44.22C139.504 44.86 138.424 45.18 137.131 45.18C136.077 45.18 135.131 44.9467 134.291 44.48C133.464 44 132.811 43.3333 132.331 42.48C131.864 41.6133 131.631 40.6133 131.631 39.48C131.631 38.3467 131.857 37.3533 132.311 36.5C132.777 35.6333 133.424 34.9667 134.251 34.5C135.091 34.0333 136.051 33.8 137.131 33.8C138.171 33.8 139.097 34.0267 139.911 34.48C140.724 34.9333 141.357 35.5733 141.811 36.4C142.264 37.2133 142.491 38.1533 142.491 39.22ZM140.111 38.5C140.097 37.66 139.797 36.9867 139.211 36.48C138.624 35.9733 137.897 35.72 137.031 35.72C136.244 35.72 135.571 35.9733 135.011 36.48C134.451 36.9733 134.117 37.6467 134.011 38.5H140.111ZM139.131 31.02L134.711 33.2V31.52L139.131 29.08V31.02ZM149.33 32.5V30.42H153.49V45H151.19V32.5H149.33Z" fill="#562C2C"/>
<rect x="16" y="68" width="160" height="44" rx="22" fill="#FFEDE8"/>
<rect x="16.75" y="68.75" width="158.5" height="42.5" rx="21.25" stroke="#F2542D" stroke-opacity="0.5" stroke-width="1.5"/>
<path d="M46 78.625C43.7502 78.625 41.551 79.2921 39.6804 80.542C37.8098 81.7919 36.3518 83.5685 35.4909 85.647C34.6299 87.7255 34.4047 90.0126 34.8436 92.2192C35.2825 94.4257 36.3658 96.4525 37.9567 98.0433C39.5475 99.6342 41.5743 100.718 43.7809 101.156C45.9874 101.595 48.2745 101.37 50.353 100.509C52.4315 99.6482 54.2081 98.1902 55.458 96.3196C56.7079 94.449 57.375 92.2498 57.375 90C57.3718 86.9841 56.1724 84.0927 54.0398 81.9602C51.9073 79.8276 49.0159 78.6282 46 78.625ZM46 99.625C44.0964 99.625 42.2355 99.0605 40.6526 98.0029C39.0698 96.9453 37.8362 95.4421 37.1077 93.6833C36.3792 91.9246 36.1886 89.9893 36.5599 88.1223C36.9313 86.2552 37.848 84.5402 39.1941 83.1941C40.5402 81.848 42.2552 80.9313 44.1223 80.5599C45.9893 80.1886 47.9246 80.3792 49.6833 81.1077C51.4421 81.8362 52.9453 83.0698 54.0029 84.6526C55.0605 86.2355 55.625 88.0964 55.625 90C55.6221 92.5518 54.6071 94.9983 52.8027 96.8027C50.9983 98.6071 48.5518 99.6221 46 99.625ZM50.8584 83.9669L43.8584 87.4669C43.6892 87.5519 43.5519 87.6892 43.4669 87.8584L39.9669 94.8584C39.9001 94.9919 39.8686 95.1402 39.8753 95.2893C39.882 95.4384 39.9267 95.5832 40.0051 95.7102C40.0836 95.8371 40.1933 95.9418 40.3236 96.0144C40.454 96.087 40.6008 96.1251 40.75 96.125C40.8858 96.1248 41.0198 96.0934 41.1416 96.0331L48.1416 92.5331C48.3108 92.4481 48.4481 92.3108 48.5331 92.1416L52.0331 85.1416C52.1157 84.9772 52.1444 84.791 52.1151 84.6094C52.0858 84.4278 52 84.2601 51.87 84.13C51.7399 84 51.5722 83.9142 51.3906 83.8849C51.209 83.8556 51.0228 83.8843 50.8584 83.9669ZM47.0938 91.0938L42.7067 93.2933L44.9063 88.9062L49.2977 86.7111L47.0938 91.0938Z" fill="#562C2C"/>
<path d="M77.88 94.16H72.06L71.06 97H68.68L73.66 83.08H76.3L81.28 97H78.88L77.88 94.16ZM77.24 92.3L74.98 85.84L72.7 92.3H77.24ZM82.6853 91.48C82.6853 90.3467 82.912 89.3533 83.3653 88.5C83.832 87.6333 84.472 86.9667 85.2853 86.5C86.0986 86.0333 87.032 85.8 88.0853 85.8C89.4186 85.8 90.5186 86.12 91.3853 86.76C92.2653 87.3867 92.8586 88.2867 93.1653 89.46H90.7053C90.5053 88.9133 90.1853 88.4867 89.7453 88.18C89.3053 87.8733 88.752 87.72 88.0853 87.72C87.152 87.72 86.4053 88.0533 85.8453 88.72C85.2986 89.3733 85.0253 90.2933 85.0253 91.48C85.0253 92.6667 85.2986 93.5933 85.8453 94.26C86.4053 94.9267 87.152 95.26 88.0853 95.26C89.4053 95.26 90.2786 94.68 90.7053 93.52H93.1653C92.8453 94.64 92.2453 95.5333 91.3653 96.2C90.4853 96.8533 89.392 97.18 88.0853 97.18C87.032 97.18 86.0986 96.9467 85.2853 96.48C84.472 96 83.832 95.3333 83.3653 94.48C82.912 93.6133 82.6853 92.6133 82.6853 91.48ZM98.0975 87.84V93.94C98.0975 94.3533 98.1908 94.6533 98.3775 94.84C98.5775 95.0133 98.9108 95.1 99.3775 95.1H100.778V97H98.9775C97.9508 97 97.1642 96.76 96.6175 96.28C96.0708 95.8 95.7975 95.02 95.7975 93.94V87.84H94.4975V85.98H95.7975V83.24H98.0975V85.98H100.778V87.84H98.0975ZM104.039 84.52C103.626 84.52 103.279 84.38 102.999 84.1C102.719 83.82 102.579 83.4733 102.579 83.06C102.579 82.6467 102.719 82.3 102.999 82.02C103.279 81.74 103.626 81.6 104.039 81.6C104.439 81.6 104.779 81.74 105.059 82.02C105.339 82.3 105.479 82.6467 105.479 83.06C105.479 83.4733 105.339 83.82 105.059 84.1C104.779 84.38 104.439 84.52 104.039 84.52ZM105.159 85.98V97H102.879V85.98H105.159ZM112.412 94.96L115.532 85.98H117.952L113.752 97H111.032L106.852 85.98H109.292L112.412 94.96ZM120.836 84.52C120.422 84.52 120.076 84.38 119.796 84.1C119.516 83.82 119.376 83.4733 119.376 83.06C119.376 82.6467 119.516 82.3 119.796 82.02C120.076 81.74 120.422 81.6 120.836 81.6C121.236 81.6 121.576 81.74 121.856 82.02C122.136 82.3 122.276 82.6467 122.276 83.06C122.276 83.4733 122.136 83.82 121.856 84.1C121.576 84.38 121.236 84.52 120.836 84.52ZM121.956 85.98V97H119.676V85.98H121.956ZM127.609 87.84V93.94C127.609 94.3533 127.703 94.6533 127.889 94.84C128.089 95.0133 128.423 95.1 128.889 95.1H130.289V97H128.489C127.463 97 126.676 96.76 126.129 96.28C125.583 95.8 125.309 95.02 125.309 93.94V87.84H124.009V85.98H125.309V83.24H127.609V85.98H130.289V87.84H127.609ZM142.491 91.22C142.491 91.6333 142.464 92.0067 142.411 92.34H133.991C134.057 93.22 134.384 93.9267 134.971 94.46C135.557 94.9933 136.277 95.26 137.131 95.26C138.357 95.26 139.224 94.7467 139.731 93.72H142.191C141.857 94.7333 141.251 95.5667 140.371 96.22C139.504 96.86 138.424 97.18 137.131 97.18C136.077 97.18 135.131 96.9467 134.291 96.48C133.464 96 132.811 95.3333 132.331 94.48C131.864 93.6133 131.631 92.6133 131.631 91.48C131.631 90.3467 131.857 89.3533 132.311 88.5C132.777 87.6333 133.424 86.9667 134.251 86.5C135.091 86.0333 136.051 85.8 137.131 85.8C138.171 85.8 139.097 86.0267 139.911 86.48C140.724 86.9333 141.357 87.5733 141.811 88.4C142.264 89.2133 142.491 90.1533 142.491 91.22ZM140.111 90.5C140.097 89.66 139.797 88.9867 139.211 88.48C138.624 87.9733 137.897 87.72 137.031 87.72C136.244 87.72 135.571 87.9733 135.011 88.48C134.451 88.9733 134.117 89.6467 134.011 90.5H140.111ZM139.131 83.02L134.711 85.2V83.52L139.131 81.08V83.02ZM150.89 93.9C152.17 92.7933 153.176 91.8867 153.91 91.18C154.656 90.46 155.276 89.7133 155.77 88.94C156.263 88.1667 156.51 87.3933 156.51 86.62C156.51 85.82 156.316 85.1933 155.93 84.74C155.556 84.2867 154.963 84.06 154.15 84.06C153.363 84.06 152.75 84.3133 152.31 84.82C151.883 85.3133 151.656 85.98 151.63 86.82H149.43C149.47 85.3 149.923 84.14 150.79 83.34C151.67 82.5267 152.783 82.12 154.13 82.12C155.583 82.12 156.716 82.52 157.53 83.32C158.356 84.12 158.77 85.1867 158.77 86.52C158.77 87.48 158.523 88.4067 158.03 89.3C157.55 90.18 156.97 90.9733 156.29 91.68C155.623 92.3733 154.77 93.18 153.73 94.1L152.83 94.9H159.17V96.8H149.45V95.14L150.89 93.9Z" fill="#562C2C"/>
</svg>
