<svg width="814" height="60" viewBox="0 0 814 60" fill="none" xmlns="http://www.w3.org/2000/svg">
<rect y="8" width="155" height="44" rx="22" fill="#FAFAFA"/>
<rect x="0.75" y="8.75" width="153.5" height="42.5" rx="21.25" stroke="#F2542D" stroke-opacity="0.5" stroke-width="1.5"/>
<path d="M33.9374 24.75C34.5431 24.75 35.1352 24.5704 35.6388 24.2339C36.1425 23.8974 36.535 23.4191 36.7668 22.8595C36.9986 22.2999 37.0592 21.6841 36.941 21.09C36.8229 20.496 36.5312 19.9503 36.1029 19.522C35.6746 19.0937 35.1289 18.802 34.5349 18.6838C33.9408 18.5657 33.325 18.6263 32.7654 18.8581C32.2058 19.0899 31.7275 19.4824 31.391 19.9861C31.0545 20.4897 30.8749 21.0818 30.8749 21.6875C30.8749 22.4997 31.1975 23.2787 31.7719 23.853C32.3462 24.4273 33.1252 24.75 33.9374 24.75ZM33.9374 20.375C34.197 20.375 34.4507 20.452 34.6666 20.5962C34.8824 20.7404 35.0506 20.9454 35.15 21.1852C35.2493 21.4251 35.2753 21.689 35.2247 21.9436C35.174 22.1982 35.049 22.432 34.8655 22.6156C34.6819 22.7991 34.448 22.9241 34.1934 22.9748C33.9388 23.0254 33.6749 22.9994 33.4351 22.9001C33.1953 22.8008 32.9903 22.6325 32.8461 22.4167C32.7019 22.2008 32.6249 21.9471 32.6249 21.6875C32.6249 21.3394 32.7632 21.0056 33.0093 20.7594C33.2555 20.5133 33.5893 20.375 33.9374 20.375ZM43.8774 37.4288L37.9099 27.3575C37.756 27.0951 37.5359 26.8778 37.2715 26.7273C37.0072 26.5768 36.708 26.4984 36.4038 26.5C36.0998 26.4984 35.8007 26.5768 35.5365 26.7273C35.2724 26.8778 35.0524 27.0952 34.8988 27.3575L32.0375 32.1875L27.1332 23.8641C26.9786 23.6014 26.7582 23.3837 26.4936 23.2324C26.2291 23.0811 25.9296 23.0015 25.6249 23.0015C25.3201 23.0015 25.0207 23.0811 24.7561 23.2324C24.4916 23.3837 24.2712 23.6014 24.1166 23.8641L16.1213 37.4309C16.043 37.5638 16.0013 37.715 16.0003 37.8692C15.9992 38.0234 16.039 38.1752 16.1155 38.3091C16.192 38.443 16.3025 38.5543 16.4359 38.6317C16.5692 38.7091 16.7207 38.7499 16.8749 38.75H43.1249C43.2793 38.75 43.431 38.7091 43.5645 38.6314C43.698 38.5538 43.8086 38.4422 43.8851 38.308C43.9615 38.1738 44.0011 38.0218 43.9997 37.8674C43.9984 37.7129 43.9562 37.5616 43.8774 37.4288ZM25.6249 24.75L28.2029 29.125H23.0469L25.6249 24.75ZM18.4061 37L22.0155 30.875H29.2343L31.284 34.3531L32.8436 37H18.4061ZM34.8747 37L33.0525 33.9069L36.4038 28.25L41.5936 37H34.8747Z" fill="#562C2C"/>
<path d="M61.8 33.94H55.84L54.76 37H52.32L57.52 23.1H60.14L65.32 37H62.88L61.8 33.94ZM61.16 32.18L58.82 25.58L56.48 32.18H61.16ZM71.9128 25.84C73.3395 25.84 74.5195 26.22 75.4528 26.98C76.3861 27.7267 76.9661 28.7467 77.1928 30.04H74.7728C74.6395 29.3467 74.3128 28.8067 73.7928 28.42C73.2861 28.02 72.6461 27.82 71.8728 27.82C70.9928 27.82 70.2595 28.1333 69.6728 28.76C69.0861 29.3733 68.7928 30.28 68.7928 31.48C68.7928 32.68 69.0861 33.5933 69.6728 34.22C70.2595 34.8467 70.9928 35.16 71.8728 35.16C72.6461 35.16 73.2861 34.96 73.7928 34.56C74.3128 34.16 74.6395 33.6133 74.7728 32.92H77.1928C76.9661 34.2133 76.3861 35.24 75.4528 36C74.5195 36.76 73.3395 37.14 71.9128 37.14C70.8461 37.14 69.8995 36.9133 69.0728 36.46C68.2595 36.0067 67.6195 35.3533 67.1528 34.5C66.6861 33.6467 66.4528 32.64 66.4528 31.48C66.4528 30.3333 66.6861 29.3333 67.1528 28.48C67.6195 27.6267 68.2595 26.9733 69.0728 26.52C69.8995 26.0667 70.8461 25.84 71.9128 25.84ZM84.9356 35.02V37H83.5356C82.3623 37 81.469 36.72 80.8556 36.16C80.2556 35.5867 79.9556 34.64 79.9556 33.32V27.92H78.3756V25.98H79.9556V23.24H82.2556V25.98H84.9156V27.92H82.2556V33.36C82.2556 33.9867 82.369 34.42 82.5956 34.66C82.8356 34.9 83.249 35.02 83.8356 35.02H84.9356ZM86.7514 22.78C86.7514 22.3933 86.8847 22.0733 87.1514 21.82C87.4181 21.5667 87.7714 21.44 88.2114 21.44C88.6514 21.44 89.0047 21.5667 89.2714 21.82C89.5514 22.0733 89.6914 22.3933 89.6914 22.78C89.6914 23.1667 89.5514 23.48 89.2714 23.72C89.0047 23.96 88.6514 24.08 88.2114 24.08C87.7714 24.08 87.4181 23.96 87.1514 23.72C86.8847 23.48 86.7514 23.1667 86.7514 22.78ZM89.3514 25.98V37H87.0714V25.98H89.3514ZM96.6305 34.64L99.7505 25.98H102.19L97.9905 37H95.2305L91.0305 25.98H93.4705L96.6305 34.64ZM103.548 22.78C103.548 22.3933 103.682 22.0733 103.948 21.82C104.215 21.5667 104.568 21.44 105.008 21.44C105.448 21.44 105.802 21.5667 106.068 21.82C106.348 22.0733 106.488 22.3933 106.488 22.78C106.488 23.1667 106.348 23.48 106.068 23.72C105.802 23.96 105.448 24.08 105.008 24.08C104.568 24.08 104.215 23.96 103.948 23.72C103.682 23.48 103.548 23.1667 103.548 22.78ZM106.148 25.98V37H103.868V25.98H106.148ZM114.447 35.02V37H113.047C111.874 37 110.981 36.72 110.367 36.16C109.767 35.5867 109.467 34.64 109.467 33.32V27.92H107.887V25.98H109.467V23.24H111.767V25.98H114.427V27.92H111.767V33.36C111.767 33.9867 111.881 34.42 112.107 34.66C112.347 34.9 112.761 35.02 113.347 35.02H114.447ZM126.823 30.96C126.823 31.3333 126.796 31.66 126.743 31.94H118.263C118.303 33.0733 118.616 33.9133 119.203 34.46C119.79 35.0067 120.516 35.28 121.383 35.28C122.143 35.28 122.783 35.0867 123.303 34.7C123.836 34.3133 124.163 33.8 124.283 33.16H126.723C126.576 33.9333 126.27 34.62 125.803 35.22C125.336 35.82 124.73 36.2933 123.983 36.64C123.236 36.9733 122.403 37.14 121.483 37.14C120.416 37.14 119.47 36.9133 118.643 36.46C117.83 36.0067 117.19 35.3533 116.723 34.5C116.256 33.6467 116.023 32.64 116.023 31.48C116.023 30.3333 116.256 29.3333 116.723 28.48C117.19 27.6267 117.83 26.9733 118.643 26.52C119.47 26.0667 120.416 25.84 121.483 25.84C122.563 25.84 123.503 26.0667 124.303 26.52C125.116 26.96 125.736 27.5733 126.163 28.36C126.603 29.1333 126.823 30 126.823 30.96ZM124.523 30.9C124.55 30.18 124.423 29.58 124.143 29.1C123.876 28.6067 123.503 28.2467 123.023 28.02C122.556 27.78 122.043 27.66 121.483 27.66C120.59 27.66 119.843 27.9333 119.243 28.48C118.643 29.0267 118.316 29.8333 118.263 30.9H124.523ZM124.603 22.86L120.183 25.12V23.52L124.603 21.08V22.86ZM132.592 25.02V22.88H137.112V37H134.712V25.02H132.592Z" fill="#562C2C"/>
<rect x="175" y="8" width="161" height="44" rx="22" fill="#FAFAFA"/>
<rect x="175.75" y="8.75" width="159.5" height="42.5" rx="21.25" stroke="#F2542D" stroke-opacity="0.5" stroke-width="1.5"/>
<path d="M214.565 24.0053V17.75M213.273 26.0904C213.273 26.3997 213.364 26.7021 213.534 26.9592C213.705 27.2164 213.947 27.4169 214.23 27.5352C214.514 27.6536 214.826 27.6845 215.126 27.6242C215.427 27.5639 215.704 27.4149 215.921 27.1962C216.138 26.9775 216.285 26.6989 216.345 26.3955C216.405 26.0922 216.374 25.7777 216.257 25.492C216.14 25.2062 215.941 24.962 215.686 24.7901C215.482 24.6529 215.25 24.5668 215.008 24.5377C214.891 24.5235 214.777 24.4794 214.694 24.3955V24.3955C214.612 24.3125 214.565 24.2004 214.565 24.0835V23.484M202.932 38.6011C200.646 38.6011 198.795 36.5003 198.795 33.9096C198.795 31.3188 200.646 29.2181 202.932 29.2181H203.759C206.339 29.2181 208.069 28.7067 210.111 26.671C210.149 26.6335 210.17 26.5819 210.17 26.5287V26.5287C210.17 26.4272 210.095 26.3417 209.994 26.3279C208.462 26.1181 207.531 25.7697 207.203 25.6299C207.119 25.5943 207.068 25.5118 207.068 25.4208V25.4208C207.068 25.3496 207.099 25.2829 207.154 25.2387C207.491 24.9719 208.77 24.0084 210.256 23.5365C210.358 23.5041 210.429 23.4103 210.429 23.3032V23.3032C210.429 23.2514 210.412 23.2008 210.381 23.1596C208.802 21.0845 206.422 19.8351 203.759 19.8351H202.932C201.888 19.834 200.851 20.0103 199.866 20.3564M202.932 38.6011C200.463 38.6011 198.096 37.6125 196.351 35.8529C194.606 34.0932 193.625 31.7066 193.625 29.2181M202.932 38.6011C204.02 36.6358 206.032 35.0302 208.346 34.9549C208.44 34.9518 208.516 35.0281 208.516 35.1217V35.1217C208.516 35.1786 208.488 35.2311 208.443 35.2647C208.086 35.526 206.551 36.7581 206.551 38.6011C206.551 40.444 208.086 41.6761 208.443 41.9375C208.488 41.9711 208.516 42.0235 208.516 42.0804V42.0804C208.516 42.1741 208.44 42.2503 208.346 42.2472C206.032 42.172 204.02 40.5663 202.932 38.6011ZM199.866 20.3564H199.83C197.954 20.3564 196.331 19.2693 195.843 18.9079C195.744 18.8348 195.626 18.7926 195.503 18.7926V18.7926C195.303 18.7926 195.122 18.9047 195.048 19.0909C194.677 20.0272 193.625 23.2089 193.625 29.2181M199.866 20.3564C198.042 20.9985 196.462 22.1963 195.344 23.7841C194.226 25.3718 193.625 27.2708 193.625 29.2181M205 24.0053V21.9202" stroke="#562C2C" stroke-width="1.25"/>
<path d="M236.8 33.94H230.84L229.76 37H227.32L232.52 23.1H235.14L240.32 37H237.88L236.8 33.94ZM236.16 32.18L233.82 25.58L231.48 32.18H236.16ZM246.913 25.84C248.339 25.84 249.519 26.22 250.453 26.98C251.386 27.7267 251.966 28.7467 252.193 30.04H249.773C249.639 29.3467 249.313 28.8067 248.793 28.42C248.286 28.02 247.646 27.82 246.873 27.82C245.993 27.82 245.259 28.1333 244.673 28.76C244.086 29.3733 243.793 30.28 243.793 31.48C243.793 32.68 244.086 33.5933 244.673 34.22C245.259 34.8467 245.993 35.16 246.873 35.16C247.646 35.16 248.286 34.96 248.793 34.56C249.313 34.16 249.639 33.6133 249.773 32.92H252.193C251.966 34.2133 251.386 35.24 250.453 36C249.519 36.76 248.339 37.14 246.913 37.14C245.846 37.14 244.899 36.9133 244.073 36.46C243.259 36.0067 242.619 35.3533 242.153 34.5C241.686 33.6467 241.453 32.64 241.453 31.48C241.453 30.3333 241.686 29.3333 242.153 28.48C242.619 27.6267 243.259 26.9733 244.073 26.52C244.899 26.0667 245.846 25.84 246.913 25.84ZM259.936 35.02V37H258.536C257.362 37 256.469 36.72 255.856 36.16C255.256 35.5867 254.956 34.64 254.956 33.32V27.92H253.376V25.98H254.956V23.24H257.256V25.98H259.916V27.92H257.256V33.36C257.256 33.9867 257.369 34.42 257.596 34.66C257.836 34.9 258.249 35.02 258.836 35.02H259.936ZM261.751 22.78C261.751 22.3933 261.885 22.0733 262.151 21.82C262.418 21.5667 262.771 21.44 263.211 21.44C263.651 21.44 264.005 21.5667 264.271 21.82C264.551 22.0733 264.691 22.3933 264.691 22.78C264.691 23.1667 264.551 23.48 264.271 23.72C264.005 23.96 263.651 24.08 263.211 24.08C262.771 24.08 262.418 23.96 262.151 23.72C261.885 23.48 261.751 23.1667 261.751 22.78ZM264.351 25.98V37H262.071V25.98H264.351ZM271.63 34.64L274.75 25.98H277.19L272.99 37H270.23L266.03 25.98H268.47L271.63 34.64ZM278.548 22.78C278.548 22.3933 278.682 22.0733 278.948 21.82C279.215 21.5667 279.568 21.44 280.008 21.44C280.448 21.44 280.802 21.5667 281.068 21.82C281.348 22.0733 281.488 22.3933 281.488 22.78C281.488 23.1667 281.348 23.48 281.068 23.72C280.802 23.96 280.448 24.08 280.008 24.08C279.568 24.08 279.215 23.96 278.948 23.72C278.682 23.48 278.548 23.1667 278.548 22.78ZM281.148 25.98V37H278.868V25.98H281.148ZM289.447 35.02V37H288.047C286.874 37 285.981 36.72 285.367 36.16C284.767 35.5867 284.467 34.64 284.467 33.32V27.92H282.887V25.98H284.467V23.24H286.767V25.98H289.427V27.92H286.767V33.36C286.767 33.9867 286.881 34.42 287.107 34.66C287.347 34.9 287.761 35.02 288.347 35.02H289.447ZM301.823 30.96C301.823 31.3333 301.796 31.66 301.743 31.94H293.263C293.303 33.0733 293.616 33.9133 294.203 34.46C294.79 35.0067 295.516 35.28 296.383 35.28C297.143 35.28 297.783 35.0867 298.303 34.7C298.836 34.3133 299.163 33.8 299.283 33.16H301.723C301.576 33.9333 301.27 34.62 300.803 35.22C300.336 35.82 299.73 36.2933 298.983 36.64C298.236 36.9733 297.403 37.14 296.483 37.14C295.416 37.14 294.47 36.9133 293.643 36.46C292.83 36.0067 292.19 35.3533 291.723 34.5C291.256 33.6467 291.023 32.64 291.023 31.48C291.023 30.3333 291.256 29.3333 291.723 28.48C292.19 27.6267 292.83 26.9733 293.643 26.52C294.47 26.0667 295.416 25.84 296.483 25.84C297.563 25.84 298.503 26.0667 299.303 26.52C300.116 26.96 300.736 27.5733 301.163 28.36C301.603 29.1333 301.823 30 301.823 30.96ZM299.523 30.9C299.55 30.18 299.423 29.58 299.143 29.1C298.876 28.6067 298.503 28.2467 298.023 28.02C297.556 27.78 297.043 27.66 296.483 27.66C295.59 27.66 294.843 27.9333 294.243 28.48C293.643 29.0267 293.316 29.8333 293.263 30.9H299.523ZM299.603 22.86L295.183 25.12V23.52L299.603 21.08V22.86ZM313.332 22.44C314.265 22.44 315.065 22.6067 315.732 22.94C316.399 23.26 316.899 23.7067 317.232 24.28C317.579 24.8533 317.752 25.4933 317.752 26.2C317.752 27.0933 317.499 27.84 316.992 28.44C316.499 29.0267 315.799 29.38 314.892 29.5V29.6C315.865 29.88 316.625 30.3 317.172 30.86C317.732 31.4067 318.012 32.1667 318.012 33.14C318.012 34.3267 317.619 35.2933 316.832 36.04C316.045 36.7733 314.919 37.14 313.452 37.14C311.945 37.14 310.732 36.76 309.812 36C308.892 35.2267 308.365 34.0867 308.232 32.58H310.492C310.572 33.38 310.859 34.02 311.352 34.5C311.845 34.9667 312.512 35.2 313.352 35.2C314.139 35.2 314.739 34.9933 315.152 34.58C315.579 34.1667 315.792 33.6333 315.792 32.98C315.792 32.1933 315.485 31.5933 314.872 31.18C314.272 30.7667 313.399 30.56 312.252 30.56H311.712V28.68H312.252C314.425 28.7067 315.512 27.9667 315.512 26.46C315.512 25.8067 315.312 25.2933 314.912 24.92C314.512 24.5467 313.965 24.36 313.272 24.36C312.579 24.36 311.999 24.5733 311.532 25C311.065 25.4133 310.785 26.02 310.692 26.82H308.452C308.545 25.4333 309.012 24.36 309.852 23.6C310.692 22.8267 311.852 22.44 313.332 22.44Z" fill="#562C2C"/>
<rect x="356" y="8" width="162" height="44" rx="22" fill="#FAFAFA"/>
<rect x="356.75" y="8.75" width="160.5" height="42.5" rx="21.25" stroke="#F2542D" stroke-opacity="0.5" stroke-width="1.5"/>
<path d="M397.375 29.125H396.463C396.253 26.6525 395.175 24.3339 393.421 22.5793C391.666 20.8247 389.347 19.7472 386.875 19.5372V18.625C386.875 18.3929 386.783 18.1704 386.619 18.0063C386.455 17.8422 386.232 17.75 386 17.75C385.768 17.75 385.545 17.8422 385.381 18.0063C385.217 18.1704 385.125 18.3929 385.125 18.625V19.5372C382.653 19.7472 380.334 20.8247 378.579 22.5793C376.825 24.3339 375.747 26.6525 375.537 29.125H374.625C374.393 29.125 374.17 29.2172 374.006 29.3813C373.842 29.5454 373.75 29.7679 373.75 30C373.75 30.2321 373.842 30.4546 374.006 30.6187C374.17 30.7828 374.393 30.875 374.625 30.875H375.537C375.747 33.3475 376.825 35.6661 378.579 37.4207C380.334 39.1753 382.653 40.2528 385.125 40.4628V41.375C385.125 41.6071 385.217 41.8296 385.381 41.9937C385.545 42.1578 385.768 42.25 386 42.25C386.232 42.25 386.455 42.1578 386.619 41.9937C386.783 41.8296 386.875 41.6071 386.875 41.375V40.4628C389.347 40.2528 391.666 39.1753 393.421 37.4207C395.175 35.6661 396.253 33.3475 396.463 30.875H397.375C397.607 30.875 397.83 30.7828 397.994 30.6187C398.158 30.4546 398.25 30.2321 398.25 30C398.25 29.7679 398.158 29.5454 397.994 29.3813C397.83 29.2172 397.607 29.125 397.375 29.125ZM386.875 38.7063V37.875C386.875 37.6429 386.783 37.4204 386.619 37.2563C386.455 37.0922 386.232 37 386 37C385.768 37 385.545 37.0922 385.381 37.2563C385.217 37.4204 385.125 37.6429 385.125 37.875V38.7063C383.118 38.5014 381.243 37.6106 379.816 36.1839C378.389 34.7573 377.499 32.8822 377.294 30.875H378.125C378.357 30.875 378.58 30.7828 378.744 30.6187C378.908 30.4546 379 30.2321 379 30C379 29.7679 378.908 29.5454 378.744 29.3813C378.58 29.2172 378.357 29.125 378.125 29.125H377.294C377.499 27.1178 378.389 25.2427 379.816 23.8161C381.243 22.3894 383.118 21.4986 385.125 21.2938V22.125C385.125 22.3571 385.217 22.5796 385.381 22.7437C385.545 22.9078 385.768 23 386 23C386.232 23 386.455 22.9078 386.619 22.7437C386.783 22.5796 386.875 22.3571 386.875 22.125V21.2938C388.882 21.4986 390.757 22.3894 392.184 23.8161C393.611 25.2427 394.501 27.1178 394.706 29.125H393.875C393.643 29.125 393.42 29.2172 393.256 29.3813C393.092 29.5454 393 29.7679 393 30C393 30.2321 393.092 30.4546 393.256 30.6187C393.42 30.7828 393.643 30.875 393.875 30.875H394.706C394.501 32.8822 393.611 34.7573 392.184 36.1839C390.757 37.6106 388.882 38.5014 386.875 38.7063ZM386 25.625C385.135 25.625 384.289 25.8816 383.569 26.3623C382.85 26.8431 382.289 27.5263 381.958 28.3258C381.627 29.1252 381.54 30.0049 381.709 30.8535C381.878 31.7022 382.295 32.4817 382.906 33.0936C383.518 33.7054 384.298 34.1221 385.146 34.2909C385.995 34.4597 386.875 34.3731 387.674 34.042C388.474 33.7108 389.157 33.1501 389.638 32.4306C390.118 31.7112 390.375 30.8653 390.375 30C390.375 28.8397 389.914 27.7269 389.094 26.9064C388.273 26.0859 387.16 25.625 386 25.625ZM386 32.625C385.481 32.625 384.973 32.471 384.542 32.1826C384.11 31.8942 383.773 31.4842 383.575 31.0045C383.376 30.5249 383.324 29.9971 383.425 29.4879C383.527 28.9787 383.777 28.511 384.144 28.1438C384.511 27.7767 384.979 27.5267 385.488 27.4254C385.997 27.3242 386.525 27.3761 387.005 27.5748C387.484 27.7735 387.894 28.1099 388.183 28.5416C388.471 28.9733 388.625 29.4808 388.625 30C388.625 30.6962 388.348 31.3639 387.856 31.8562C387.364 32.3484 386.696 32.625 386 32.625Z" fill="#562C2C"/>
<path d="M417.8 33.94H411.84L410.76 37H408.32L413.52 23.1H416.14L421.32 37H418.88L417.8 33.94ZM417.16 32.18L414.82 25.58L412.48 32.18H417.16ZM427.913 25.84C429.339 25.84 430.519 26.22 431.453 26.98C432.386 27.7267 432.966 28.7467 433.193 30.04H430.773C430.639 29.3467 430.313 28.8067 429.793 28.42C429.286 28.02 428.646 27.82 427.873 27.82C426.993 27.82 426.259 28.1333 425.673 28.76C425.086 29.3733 424.793 30.28 424.793 31.48C424.793 32.68 425.086 33.5933 425.673 34.22C426.259 34.8467 426.993 35.16 427.873 35.16C428.646 35.16 429.286 34.96 429.793 34.56C430.313 34.16 430.639 33.6133 430.773 32.92H433.193C432.966 34.2133 432.386 35.24 431.453 36C430.519 36.76 429.339 37.14 427.913 37.14C426.846 37.14 425.899 36.9133 425.073 36.46C424.259 36.0067 423.619 35.3533 423.153 34.5C422.686 33.6467 422.453 32.64 422.453 31.48C422.453 30.3333 422.686 29.3333 423.153 28.48C423.619 27.6267 424.259 26.9733 425.073 26.52C425.899 26.0667 426.846 25.84 427.913 25.84ZM440.936 35.02V37H439.536C438.362 37 437.469 36.72 436.856 36.16C436.256 35.5867 435.956 34.64 435.956 33.32V27.92H434.376V25.98H435.956V23.24H438.256V25.98H440.916V27.92H438.256V33.36C438.256 33.9867 438.369 34.42 438.596 34.66C438.836 34.9 439.249 35.02 439.836 35.02H440.936ZM442.751 22.78C442.751 22.3933 442.885 22.0733 443.151 21.82C443.418 21.5667 443.771 21.44 444.211 21.44C444.651 21.44 445.005 21.5667 445.271 21.82C445.551 22.0733 445.691 22.3933 445.691 22.78C445.691 23.1667 445.551 23.48 445.271 23.72C445.005 23.96 444.651 24.08 444.211 24.08C443.771 24.08 443.418 23.96 443.151 23.72C442.885 23.48 442.751 23.1667 442.751 22.78ZM445.351 25.98V37H443.071V25.98H445.351ZM452.63 34.64L455.75 25.98H458.19L453.99 37H451.23L447.03 25.98H449.47L452.63 34.64ZM459.548 22.78C459.548 22.3933 459.682 22.0733 459.948 21.82C460.215 21.5667 460.568 21.44 461.008 21.44C461.448 21.44 461.802 21.5667 462.068 21.82C462.348 22.0733 462.488 22.3933 462.488 22.78C462.488 23.1667 462.348 23.48 462.068 23.72C461.802 23.96 461.448 24.08 461.008 24.08C460.568 24.08 460.215 23.96 459.948 23.72C459.682 23.48 459.548 23.1667 459.548 22.78ZM462.148 25.98V37H459.868V25.98H462.148ZM470.447 35.02V37H469.047C467.874 37 466.981 36.72 466.367 36.16C465.767 35.5867 465.467 34.64 465.467 33.32V27.92H463.887V25.98H465.467V23.24H467.767V25.98H470.427V27.92H467.767V33.36C467.767 33.9867 467.881 34.42 468.107 34.66C468.347 34.9 468.761 35.02 469.347 35.02H470.447ZM482.823 30.96C482.823 31.3333 482.796 31.66 482.743 31.94H474.263C474.303 33.0733 474.616 33.9133 475.203 34.46C475.79 35.0067 476.516 35.28 477.383 35.28C478.143 35.28 478.783 35.0867 479.303 34.7C479.836 34.3133 480.163 33.8 480.283 33.16H482.723C482.576 33.9333 482.27 34.62 481.803 35.22C481.336 35.82 480.73 36.2933 479.983 36.64C479.236 36.9733 478.403 37.14 477.483 37.14C476.416 37.14 475.47 36.9133 474.643 36.46C473.83 36.0067 473.19 35.3533 472.723 34.5C472.256 33.6467 472.023 32.64 472.023 31.48C472.023 30.3333 472.256 29.3333 472.723 28.48C473.19 27.6267 473.83 26.9733 474.643 26.52C475.47 26.0667 476.416 25.84 477.483 25.84C478.563 25.84 479.503 26.0667 480.303 26.52C481.116 26.96 481.736 27.5733 482.163 28.36C482.603 29.1333 482.823 30 482.823 30.96ZM480.523 30.9C480.55 30.18 480.423 29.58 480.143 29.1C479.876 28.6067 479.503 28.2467 479.023 28.02C478.556 27.78 478.043 27.66 477.483 27.66C476.59 27.66 475.843 27.9333 475.243 28.48C474.643 29.0267 474.316 29.8333 474.263 30.9H480.523ZM480.603 22.86L476.183 25.12V23.52L480.603 21.08V22.86ZM489.032 33.96V32.04L496.052 22.76H498.492V31.96H500.472V33.96H498.492V37H496.192V33.96H489.032ZM496.352 25.48L491.392 31.96H496.352V25.48Z" fill="#562C2C"/>
<rect x="774" y="10" width="40" height="40" rx="20" fill="#562C2C" fill-opacity="0.5"/>
<path d="M788 36L800.728 23.2721" stroke="white" stroke-width="1.5" stroke-linecap="round"/>
<path d="M788 22.7998L800.728 35.5277" stroke="white" stroke-width="1.5" stroke-linecap="round"/>
</svg>
