<svg width="25" height="24" viewBox="0 0 25 24" fill="none" xmlns="http://www.w3.org/2000/svg">
<path d="M19.2504 6V15.75C19.2504 15.9489 19.1714 16.1397 19.0307 16.2803C18.8901 16.421 18.6993 16.5 18.5004 16.5C18.3015 16.5 18.1107 16.421 17.9701 16.2803C17.8294 16.1397 17.7504 15.9489 17.7504 15.75V7.81031L7.03104 18.5306C6.89031 18.6714 6.69944 18.7504 6.50042 18.7504C6.30139 18.7504 6.11052 18.6714 5.96979 18.5306C5.82906 18.3899 5.75 18.199 5.75 18C5.75 17.801 5.82906 17.6101 5.96979 17.4694L16.6901 6.75H8.75042C8.5515 6.75 8.36074 6.67098 8.22009 6.53033C8.07943 6.38968 8.00042 6.19891 8.00042 6C8.00042 5.80109 8.07943 5.61032 8.22009 5.46967C8.36074 5.32902 8.5515 5.25 8.75042 5.25H18.5004C18.6993 5.25 18.8901 5.32902 19.0307 5.46967C19.1714 5.61032 19.2504 5.80109 19.2504 6Z" fill="#0E9594"/>
</svg>
