<svg width="520" height="104" viewBox="0 0 520 104" fill="none" xmlns="http://www.w3.org/2000/svg">
<rect x="0.5" y="0.5" width="519" height="103" rx="4.5" stroke="#9747FF" stroke-dasharray="10 5"/>
<rect x="145.5" y="16.5" width="109" height="71" rx="7.5" fill="#FFF4F1"/>
<rect x="145.5" y="16.5" width="109" height="71" rx="7.5" stroke="#F2542D"/>
<path d="M189.111 40.78C193.631 37.6467 195.891 35.0467 195.891 32.98C195.891 32.3533 195.737 31.86 195.431 31.5C195.137 31.14 194.671 30.96 194.031 30.96C192.711 30.96 192.011 31.86 191.931 33.66H189.191C189.271 31.9933 189.777 30.7333 190.711 29.88C191.644 29.0133 192.824 28.58 194.251 28.58C195.704 28.58 196.817 28.96 197.591 29.72C198.377 30.4667 198.771 31.4667 198.771 32.72C198.771 33.7067 198.477 34.7 197.891 35.7C197.317 36.6867 196.584 37.6 195.691 38.44C194.797 39.2667 193.857 39.98 192.871 40.58H199.051V42.88H189.111V40.78ZM203.479 38.8C203.692 40.1867 204.412 40.88 205.639 40.88C206.572 40.88 207.246 40.4733 207.659 39.66C208.072 38.8333 208.252 37.5467 208.199 35.8C207.986 36.44 207.566 36.9533 206.939 37.34C206.326 37.7133 205.606 37.9 204.779 37.9C203.419 37.9 202.346 37.4933 201.559 36.68C200.786 35.8533 200.399 34.6867 200.399 33.18C200.399 32.26 200.586 31.44 200.959 30.72C201.332 29.9867 201.886 29.4133 202.619 29C203.366 28.5867 204.266 28.38 205.319 28.38C207.372 28.38 208.786 29.0067 209.559 30.26C210.332 31.5 210.719 33.2267 210.719 35.44C210.719 37.96 210.326 39.8733 209.539 41.18C208.766 42.4867 207.466 43.14 205.639 43.14C204.666 43.14 203.826 42.9467 203.119 42.56C202.426 42.1733 201.886 41.6533 201.499 41C201.126 40.3333 200.906 39.6 200.839 38.8H203.479ZM207.959 33.38C207.959 32.6333 207.739 32.02 207.299 31.54C206.872 31.0467 206.239 30.8 205.399 30.8C204.679 30.8 204.106 31.0133 203.679 31.44C203.252 31.8667 203.039 32.46 203.039 33.22C203.039 34.02 203.252 34.64 203.679 35.08C204.119 35.5067 204.706 35.72 205.439 35.72C206.119 35.72 206.706 35.52 207.199 35.12C207.706 34.7067 207.959 34.1267 207.959 33.38Z" fill="#562C2C"/>
<path d="M182.031 72.722H186.531V74H180.393V61.31H182.031V72.722ZM187.784 61.22C187.784 60.92 187.886 60.68 188.09 60.5C188.294 60.308 188.564 60.212 188.9 60.212C189.236 60.212 189.506 60.308 189.71 60.5C189.914 60.68 190.016 60.92 190.016 61.22C190.016 61.52 189.914 61.766 189.71 61.958C189.506 62.138 189.236 62.228 188.9 62.228C188.564 62.228 188.294 62.138 188.09 61.958C187.886 61.766 187.784 61.52 187.784 61.22ZM189.71 64.118V74H188.072V64.118H189.71ZM197.671 63.992C198.547 63.992 199.327 64.196 200.011 64.604C200.695 65.012 201.229 65.6 201.613 66.368C202.009 67.136 202.207 68.036 202.207 69.068C202.207 70.1 202.009 71 201.613 71.768C201.229 72.524 200.695 73.106 200.011 73.514C199.327 73.922 198.547 74.126 197.671 74.126C196.711 74.126 195.895 73.886 195.223 73.406C194.563 72.914 194.107 72.272 193.855 71.48V74H192.217V60.68H193.855V66.638C194.107 65.846 194.563 65.21 195.223 64.73C195.895 64.238 196.711 63.992 197.671 63.992ZM197.203 65.45C196.567 65.45 195.991 65.6 195.475 65.9C194.959 66.188 194.557 66.608 194.269 67.16C193.981 67.712 193.837 68.348 193.837 69.068C193.837 69.788 193.981 70.424 194.269 70.976C194.557 71.516 194.959 71.936 195.475 72.236C195.991 72.536 196.567 72.686 197.203 72.686C198.223 72.686 199.033 72.368 199.633 71.732C200.245 71.084 200.551 70.196 200.551 69.068C200.551 67.94 200.245 67.058 199.633 66.422C199.033 65.774 198.223 65.45 197.203 65.45ZM205.858 66.116C206.182 65.432 206.656 64.904 207.28 64.532C207.904 64.148 208.648 63.956 209.512 63.956V65.738H209.008C208.084 65.738 207.328 65.978 206.74 66.458C206.152 66.926 205.858 67.706 205.858 68.798V74H204.22V64.118H205.858V66.116ZM220.092 68.51C220.092 68.858 220.068 69.158 220.02 69.41H212.118C212.154 70.538 212.472 71.384 213.072 71.948C213.684 72.512 214.428 72.794 215.304 72.794C216.096 72.794 216.756 72.596 217.284 72.2C217.824 71.792 218.154 71.252 218.274 70.58H220.02C219.9 71.264 219.63 71.876 219.21 72.416C218.802 72.956 218.268 73.376 217.608 73.676C216.948 73.976 216.204 74.126 215.376 74.126C214.428 74.126 213.588 73.922 212.856 73.514C212.124 73.106 211.548 72.524 211.128 71.768C210.72 71 210.516 70.1 210.516 69.068C210.516 68.036 210.72 67.136 211.128 66.368C211.548 65.6 212.124 65.012 212.856 64.604C213.588 64.196 214.428 63.992 215.376 63.992C216.336 63.992 217.17 64.196 217.878 64.604C218.598 65.012 219.144 65.558 219.516 66.242C219.9 66.926 220.092 67.682 220.092 68.51ZM218.436 68.618C218.472 67.886 218.352 67.274 218.076 66.782C217.8 66.29 217.422 65.924 216.942 65.684C216.462 65.444 215.94 65.324 215.376 65.324C214.476 65.324 213.72 65.606 213.108 66.17C212.496 66.722 212.166 67.538 212.118 68.618H218.436Z" fill="#F2542D"/>
<rect x="274.5" y="16.5" width="109" height="71" rx="7.5" fill="#F5F5F5"/>
<rect x="274.5" y="16.5" width="109" height="71" rx="7.5" stroke="#DFDFDF"/>
<path d="M318.111 40.78C322.631 37.6467 324.891 35.0467 324.891 32.98C324.891 32.3533 324.737 31.86 324.431 31.5C324.137 31.14 323.671 30.96 323.031 30.96C321.711 30.96 321.011 31.86 320.931 33.66H318.191C318.271 31.9933 318.777 30.7333 319.711 29.88C320.644 29.0133 321.824 28.58 323.251 28.58C324.704 28.58 325.817 28.96 326.591 29.72C327.377 30.4667 327.771 31.4667 327.771 32.72C327.771 33.7067 327.477 34.7 326.891 35.7C326.317 36.6867 325.584 37.6 324.691 38.44C323.797 39.2667 322.857 39.98 321.871 40.58H328.051V42.88H318.111V40.78ZM332.479 38.8C332.692 40.1867 333.412 40.88 334.639 40.88C335.572 40.88 336.246 40.4733 336.659 39.66C337.072 38.8333 337.252 37.5467 337.199 35.8C336.986 36.44 336.566 36.9533 335.939 37.34C335.326 37.7133 334.606 37.9 333.779 37.9C332.419 37.9 331.346 37.4933 330.559 36.68C329.786 35.8533 329.399 34.6867 329.399 33.18C329.399 32.26 329.586 31.44 329.959 30.72C330.332 29.9867 330.886 29.4133 331.619 29C332.366 28.5867 333.266 28.38 334.319 28.38C336.372 28.38 337.786 29.0067 338.559 30.26C339.332 31.5 339.719 33.2267 339.719 35.44C339.719 37.96 339.326 39.8733 338.539 41.18C337.766 42.4867 336.466 43.14 334.639 43.14C333.666 43.14 332.826 42.9467 332.119 42.56C331.426 42.1733 330.886 41.6533 330.499 41C330.126 40.3333 329.906 39.6 329.839 38.8H332.479ZM336.959 33.38C336.959 32.6333 336.739 32.02 336.299 31.54C335.872 31.0467 335.239 30.8 334.399 30.8C333.679 30.8 333.106 31.0133 332.679 31.44C332.252 31.8667 332.039 32.46 332.039 33.22C332.039 34.02 332.252 34.64 332.679 35.08C333.119 35.5067 333.706 35.72 334.439 35.72C335.119 35.72 335.706 35.52 336.199 35.12C336.706 34.7067 336.959 34.1267 336.959 33.38Z" fill="#CCCCCC"/>
<rect x="16.5" y="16.5" width="109" height="71" rx="7.5" fill="white"/>
<rect x="16.5" y="16.5" width="109" height="71" rx="7.5" stroke="#D7D7D7"/>
<path d="M60.1108 40.78C64.6308 37.6467 66.8908 35.0467 66.8908 32.98C66.8908 32.3533 66.7374 31.86 66.4308 31.5C66.1374 31.14 65.6708 30.96 65.0308 30.96C63.7108 30.96 63.0108 31.86 62.9308 33.66H60.1908C60.2708 31.9933 60.7774 30.7333 61.7108 29.88C62.6441 29.0133 63.8241 28.58 65.2508 28.58C66.7041 28.58 67.8174 28.96 68.5908 29.72C69.3774 30.4667 69.7708 31.4667 69.7708 32.72C69.7708 33.7067 69.4774 34.7 68.8908 35.7C68.3174 36.6867 67.5841 37.6 66.6908 38.44C65.7974 39.2667 64.8574 39.98 63.8708 40.58H70.0508V42.88H60.1108V40.78ZM74.4789 38.8C74.6922 40.1867 75.4122 40.88 76.6389 40.88C77.5722 40.88 78.2456 40.4733 78.6589 39.66C79.0722 38.8333 79.2522 37.5467 79.1989 35.8C78.9856 36.44 78.5656 36.9533 77.9389 37.34C77.3256 37.7133 76.6056 37.9 75.7789 37.9C74.4189 37.9 73.3456 37.4933 72.5589 36.68C71.7856 35.8533 71.3989 34.6867 71.3989 33.18C71.3989 32.26 71.5856 31.44 71.9589 30.72C72.3322 29.9867 72.8856 29.4133 73.6189 29C74.3656 28.5867 75.2656 28.38 76.3189 28.38C78.3722 28.38 79.7856 29.0067 80.5589 30.26C81.3322 31.5 81.7189 33.2267 81.7189 35.44C81.7189 37.96 81.3256 39.8733 80.5389 41.18C79.7656 42.4867 78.4656 43.14 76.6389 43.14C75.6656 43.14 74.8256 42.9467 74.1189 42.56C73.4256 42.1733 72.8856 41.6533 72.4989 41C72.1256 40.3333 71.9056 39.6 71.8389 38.8H74.4789ZM78.9589 33.38C78.9589 32.6333 78.7389 32.02 78.2989 31.54C77.8722 31.0467 77.2389 30.8 76.3989 30.8C75.6789 30.8 75.1056 31.0133 74.6789 31.44C74.2522 31.8667 74.0389 32.46 74.0389 33.22C74.0389 34.02 74.2522 34.64 74.6789 35.08C75.1189 35.5067 75.7056 35.72 76.4389 35.72C77.1189 35.72 77.7056 35.52 78.1989 35.12C78.7056 34.7067 78.9589 34.1267 78.9589 33.38Z" fill="#999999"/>
<path d="M42.7594 61.148C43.9354 61.148 44.9914 61.424 45.9274 61.976C46.8754 62.528 47.6194 63.302 48.1594 64.298C48.6994 65.282 48.9694 66.398 48.9694 67.646C48.9694 68.894 48.6994 70.016 48.1594 71.012C47.6194 71.996 46.8754 72.764 45.9274 73.316C44.9914 73.868 43.9354 74.144 42.7594 74.144C41.5834 74.144 40.5154 73.868 39.5554 73.316C38.6074 72.764 37.8634 71.996 37.3234 71.012C36.7834 70.016 36.5134 68.894 36.5134 67.646C36.5134 66.398 36.7834 65.282 37.3234 64.298C37.8634 63.302 38.6074 62.528 39.5554 61.976C40.5154 61.424 41.5834 61.148 42.7594 61.148ZM42.7594 62.678C41.8834 62.678 41.0974 62.882 40.4014 63.29C39.7174 63.686 39.1774 64.262 38.7814 65.018C38.3974 65.762 38.2054 66.638 38.2054 67.646C38.2054 68.642 38.3974 69.518 38.7814 70.274C39.1774 71.03 39.7174 71.612 40.4014 72.02C41.0974 72.416 41.8834 72.614 42.7594 72.614C43.6234 72.614 44.3974 72.41 45.0814 72.002C45.7774 71.594 46.3174 71.018 46.7014 70.274C47.0974 69.518 47.2954 68.642 47.2954 67.646C47.2954 66.638 47.0974 65.762 46.7014 65.018C46.3174 64.262 45.7774 63.686 45.0814 63.29C44.3974 62.882 43.6234 62.678 42.7594 62.678ZM55.4317 63.992C56.6917 63.992 57.7357 64.328 58.5637 65C59.3917 65.672 59.9017 66.572 60.0937 67.7H58.3657C58.2457 66.992 57.9157 66.44 57.3757 66.044C56.8477 65.636 56.1877 65.432 55.3957 65.432C54.8197 65.432 54.2917 65.564 53.8117 65.828C53.3437 66.092 52.9657 66.5 52.6777 67.052C52.3897 67.592 52.2457 68.264 52.2457 69.068C52.2457 69.872 52.3897 70.55 52.6777 71.102C52.9657 71.642 53.3437 72.044 53.8117 72.308C54.2917 72.572 54.8197 72.704 55.3957 72.704C56.1877 72.704 56.8477 72.5 57.3757 72.092C57.9157 71.684 58.2457 71.126 58.3657 70.418H60.0937C59.9017 71.558 59.3917 72.464 58.5637 73.136C57.7357 73.796 56.6917 74.126 55.4317 74.126C54.4837 74.126 53.6437 73.922 52.9117 73.514C52.1797 73.106 51.6037 72.524 51.1837 71.768C50.7757 71 50.5717 70.1 50.5717 69.068C50.5717 68.036 50.7757 67.136 51.1837 66.368C51.6037 65.6 52.1797 65.012 52.9117 64.604C53.6437 64.196 54.4837 63.992 55.4317 63.992ZM66.4854 63.992C67.7454 63.992 68.7894 64.328 69.6174 65C70.4454 65.672 70.9554 66.572 71.1474 67.7H69.4194C69.2994 66.992 68.9694 66.44 68.4294 66.044C67.9014 65.636 67.2414 65.432 66.4494 65.432C65.8734 65.432 65.3454 65.564 64.8654 65.828C64.3974 66.092 64.0194 66.5 63.7314 67.052C63.4434 67.592 63.2994 68.264 63.2994 69.068C63.2994 69.872 63.4434 70.55 63.7314 71.102C64.0194 71.642 64.3974 72.044 64.8654 72.308C65.3454 72.572 65.8734 72.704 66.4494 72.704C67.2414 72.704 67.9014 72.5 68.4294 72.092C68.9694 71.684 69.2994 71.126 69.4194 70.418H71.1474C70.9554 71.558 70.4454 72.464 69.6174 73.136C68.7894 73.796 67.7454 74.126 66.4854 74.126C65.5374 74.126 64.6974 73.922 63.9654 73.514C63.2334 73.106 62.6574 72.524 62.2374 71.768C61.8294 71 61.6254 70.1 61.6254 69.068C61.6254 68.036 61.8294 67.136 62.2374 66.368C62.6574 65.6 63.2334 65.012 63.9654 64.604C64.6974 64.196 65.5374 63.992 66.4854 63.992ZM81.9491 64.118V74H80.3111V71.678C80.0591 72.482 79.6091 73.1 78.9611 73.532C78.3251 73.952 77.5811 74.162 76.7291 74.162C75.5891 74.162 74.6651 73.796 73.9571 73.064C73.2491 72.32 72.8951 71.258 72.8951 69.878V64.118H74.5331V69.716C74.5331 70.7 74.7851 71.462 75.2891 72.002C75.7931 72.53 76.4771 72.794 77.3411 72.794C78.2411 72.794 78.9611 72.506 79.5011 71.93C80.0411 71.342 80.3111 70.49 80.3111 69.374V64.118H81.9491ZM89.9013 63.992C90.7773 63.992 91.5573 64.196 92.2413 64.604C92.9253 65.012 93.4593 65.6 93.8433 66.368C94.2393 67.136 94.4373 68.036 94.4373 69.068C94.4373 70.1 94.2393 71 93.8433 71.768C93.4593 72.524 92.9253 73.106 92.2413 73.514C91.5573 73.922 90.7773 74.126 89.9013 74.126C88.9413 74.126 88.1253 73.886 87.4533 73.406C86.7933 72.914 86.3373 72.272 86.0853 71.48V78.68H84.4473V64.118H86.0853V66.638C86.3373 65.846 86.7933 65.21 87.4533 64.73C88.1253 64.238 88.9413 63.992 89.9013 63.992ZM89.4333 65.45C88.7973 65.45 88.2213 65.6 87.7053 65.9C87.1893 66.188 86.7873 66.608 86.4993 67.16C86.2113 67.712 86.0673 68.348 86.0673 69.068C86.0673 69.788 86.2113 70.424 86.4993 70.976C86.7873 71.516 87.1893 71.936 87.7053 72.236C88.2213 72.536 88.7973 72.686 89.4333 72.686C90.4533 72.686 91.2633 72.368 91.8633 71.732C92.4753 71.084 92.7813 70.196 92.7813 69.068C92.7813 67.94 92.4753 67.058 91.8633 66.422C91.2633 65.774 90.4533 65.45 89.4333 65.45ZM105.54 68.51C105.54 68.858 105.516 69.158 105.468 69.41H97.5662C97.6022 70.538 97.9202 71.384 98.5202 71.948C99.1322 72.512 99.8762 72.794 100.752 72.794C101.544 72.794 102.204 72.596 102.732 72.2C103.272 71.792 103.602 71.252 103.722 70.58H105.468C105.348 71.264 105.078 71.876 104.658 72.416C104.25 72.956 103.716 73.376 103.056 73.676C102.396 73.976 101.652 74.126 100.824 74.126C99.8762 74.126 99.0362 73.922 98.3042 73.514C97.5722 73.106 96.9962 72.524 96.5762 71.768C96.1682 71 95.9642 70.1 95.9642 69.068C95.9642 68.036 96.1682 67.136 96.5762 66.368C96.9962 65.6 97.5722 65.012 98.3042 64.604C99.0362 64.196 99.8762 63.992 100.824 63.992C101.784 63.992 102.618 64.196 103.326 64.604C104.046 65.012 104.592 65.558 104.964 66.242C105.348 66.926 105.54 67.682 105.54 68.51ZM103.884 68.618C103.92 67.886 103.8 67.274 103.524 66.782C103.248 66.29 102.87 65.924 102.39 65.684C101.91 65.444 101.388 65.324 100.824 65.324C99.9242 65.324 99.1682 65.606 98.5562 66.17C97.9442 66.722 97.6142 67.538 97.5662 68.618H103.884ZM103.722 61.238L99.8882 63.344V62.174L103.722 59.906V61.238Z" fill="#AAAAAA"/>
<rect x="395.5" y="16.5" width="109" height="71" rx="7.5" fill="#F5F5F5"/>
<rect x="395.5" y="16.5" width="109" height="71" rx="7.5" stroke="#DFDFDF"/>
<path d="M439.111 40.78C443.631 37.6467 445.891 35.0467 445.891 32.98C445.891 32.3533 445.737 31.86 445.431 31.5C445.137 31.14 444.671 30.96 444.031 30.96C442.711 30.96 442.011 31.86 441.931 33.66H439.191C439.271 31.9933 439.777 30.7333 440.711 29.88C441.644 29.0133 442.824 28.58 444.251 28.58C445.704 28.58 446.817 28.96 447.591 29.72C448.377 30.4667 448.771 31.4667 448.771 32.72C448.771 33.7067 448.477 34.7 447.891 35.7C447.317 36.6867 446.584 37.6 445.691 38.44C444.797 39.2667 443.857 39.98 442.871 40.58H449.051V42.88H439.111V40.78ZM453.479 38.8C453.692 40.1867 454.412 40.88 455.639 40.88C456.572 40.88 457.246 40.4733 457.659 39.66C458.072 38.8333 458.252 37.5467 458.199 35.8C457.986 36.44 457.566 36.9533 456.939 37.34C456.326 37.7133 455.606 37.9 454.779 37.9C453.419 37.9 452.346 37.4933 451.559 36.68C450.786 35.8533 450.399 34.6867 450.399 33.18C450.399 32.26 450.586 31.44 450.959 30.72C451.332 29.9867 451.886 29.4133 452.619 29C453.366 28.5867 454.266 28.38 455.319 28.38C457.372 28.38 458.786 29.0067 459.559 30.26C460.332 31.5 460.719 33.2267 460.719 35.44C460.719 37.96 460.326 39.8733 459.539 41.18C458.766 42.4867 457.466 43.14 455.639 43.14C454.666 43.14 453.826 42.9467 453.119 42.56C452.426 42.1733 451.886 41.6533 451.499 41C451.126 40.3333 450.906 39.6 450.839 38.8H453.479ZM457.959 33.38C457.959 32.6333 457.739 32.02 457.299 31.54C456.872 31.0467 456.239 30.8 455.399 30.8C454.679 30.8 454.106 31.0133 453.679 31.44C453.252 31.8667 453.039 32.46 453.039 33.22C453.039 34.02 453.252 34.64 453.679 35.08C454.119 35.5067 454.706 35.72 455.439 35.72C456.119 35.72 456.706 35.52 457.199 35.12C457.706 34.7067 457.959 34.1267 457.959 33.38Z" fill="#CCCCCC"/>
</svg>
