<svg width="348" height="102" viewBox="0 0 348 102" fill="none" xmlns="http://www.w3.org/2000/svg">
<g clip-path="url(#clip0_0_4245)">
<path d="M23.024 16.668H27.416V18H21.386V5.454H23.024V16.668ZM33.4575 18.162C32.5335 18.162 31.6935 17.952 30.9375 17.532C30.1935 17.112 29.6055 16.518 29.1735 15.75C28.7535 14.97 28.5435 14.07 28.5435 13.05C28.5435 12.042 28.7595 11.154 29.1915 10.386C29.6355 9.606 30.2355 9.012 30.9915 8.604C31.7475 8.184 32.5935 7.974 33.5295 7.974C34.4655 7.974 35.3115 8.184 36.0675 8.604C36.8235 9.012 37.4175 9.6 37.8495 10.368C38.2935 11.136 38.5155 12.03 38.5155 13.05C38.5155 14.07 38.2875 14.97 37.8315 15.75C37.3875 16.518 36.7815 17.112 36.0135 17.532C35.2455 17.952 34.3935 18.162 33.4575 18.162ZM33.4575 16.722C34.0455 16.722 34.5975 16.584 35.1135 16.308C35.6295 16.032 36.0435 15.618 36.3555 15.066C36.6795 14.514 36.8415 13.842 36.8415 13.05C36.8415 12.258 36.6855 11.586 36.3735 11.034C36.0615 10.482 35.6535 10.074 35.1495 9.81C34.6455 9.534 34.0995 9.396 33.5115 9.396C32.9115 9.396 32.3595 9.534 31.8555 9.81C31.3635 10.074 30.9675 10.482 30.6675 11.034C30.3675 11.586 30.2175 12.258 30.2175 13.05C30.2175 13.854 30.3615 14.532 30.6495 15.084C30.9495 15.636 31.3455 16.05 31.8375 16.326C32.3295 16.59 32.8695 16.722 33.4575 16.722ZM42.3072 9.738C42.5952 9.174 43.0032 8.736 43.5312 8.424C44.0712 8.112 44.7252 7.956 45.4932 7.956V9.648H45.0612C43.2252 9.648 42.3072 10.644 42.3072 12.636V18H40.6692V8.136H42.3072V9.738ZM56.384 12.69C56.384 13.002 56.366 13.332 56.33 13.68H48.446C48.506 14.652 48.836 15.414 49.436 15.966C50.048 16.506 50.786 16.776 51.65 16.776C52.358 16.776 52.946 16.614 53.414 16.29C53.894 15.954 54.23 15.51 54.422 14.958H56.186C55.922 15.906 55.394 16.68 54.602 17.28C53.81 17.868 52.826 18.162 51.65 18.162C50.714 18.162 49.874 17.952 49.13 17.532C48.398 17.112 47.822 16.518 47.402 15.75C46.982 14.97 46.772 14.07 46.772 13.05C46.772 12.03 46.976 11.136 47.384 10.368C47.792 9.6 48.362 9.012 49.094 8.604C49.838 8.184 50.69 7.974 51.65 7.974C52.586 7.974 53.414 8.178 54.134 8.586C54.854 8.994 55.406 9.558 55.79 10.278C56.186 10.986 56.384 11.79 56.384 12.69ZM54.692 12.348C54.692 11.724 54.554 11.19 54.278 10.746C54.002 10.29 53.624 9.948 53.144 9.72C52.676 9.48 52.154 9.36 51.578 9.36C50.75 9.36 50.042 9.624 49.454 10.152C48.878 10.68 48.548 11.412 48.464 12.348H54.692ZM70.4082 7.956C71.1762 7.956 71.8602 8.118 72.4602 8.442C73.0602 8.754 73.5342 9.228 73.8822 9.864C74.2302 10.5 74.4042 11.274 74.4042 12.186V18H72.7842V12.42C72.7842 11.436 72.5382 10.686 72.0462 10.17C71.5662 9.642 70.9122 9.378 70.0842 9.378C69.2322 9.378 68.5542 9.654 68.0502 10.206C67.5462 10.746 67.2942 11.532 67.2942 12.564V18H65.6742V12.42C65.6742 11.436 65.4282 10.686 64.9362 10.17C64.4562 9.642 63.8022 9.378 62.9742 9.378C62.1222 9.378 61.4442 9.654 60.9402 10.206C60.4362 10.746 60.1842 11.532 60.1842 12.564V18H58.5462V8.136H60.1842V9.558C60.5082 9.042 60.9402 8.646 61.4802 8.37C62.0322 8.094 62.6382 7.956 63.2982 7.956C64.1262 7.956 64.8582 8.142 65.4942 8.514C66.1302 8.886 66.6042 9.432 66.9162 10.152C67.1922 9.456 67.6482 8.916 68.2842 8.532C68.9202 8.148 69.6282 7.956 70.4082 7.956ZM83.5279 5.454V18H81.8899V5.454H83.5279ZM87.9576 9.954C88.2816 9.39 88.7616 8.922 89.3976 8.55C90.0456 8.166 90.7956 7.974 91.6476 7.974C92.5236 7.974 93.3156 8.184 94.0236 8.604C94.7436 9.024 95.3076 9.618 95.7156 10.386C96.1236 11.142 96.3276 12.024 96.3276 13.032C96.3276 14.028 96.1236 14.916 95.7156 15.696C95.3076 16.476 94.7436 17.082 94.0236 17.514C93.3156 17.946 92.5236 18.162 91.6476 18.162C90.8076 18.162 90.0636 17.976 89.4156 17.604C88.7796 17.22 88.2936 16.746 87.9576 16.182V22.68H86.3196V8.136H87.9576V9.954ZM94.6536 13.032C94.6536 12.288 94.5036 11.64 94.2036 11.088C93.9036 10.536 93.4956 10.116 92.9796 9.828C92.4756 9.54 91.9176 9.396 91.3056 9.396C90.7056 9.396 90.1476 9.546 89.6316 9.846C89.1276 10.134 88.7196 10.56 88.4076 11.124C88.1076 11.676 87.9576 12.318 87.9576 13.05C87.9576 13.794 88.1076 14.448 88.4076 15.012C88.7196 15.564 89.1276 15.99 89.6316 16.29C90.1476 16.578 90.7056 16.722 91.3056 16.722C91.9176 16.722 92.4756 16.578 92.9796 16.29C93.4956 15.99 93.9036 15.564 94.2036 15.012C94.5036 14.448 94.6536 13.788 94.6536 13.032ZM101.976 18.162C101.22 18.162 100.542 18.036 99.9417 17.784C99.3417 17.52 98.8677 17.16 98.5197 16.704C98.1717 16.236 97.9797 15.702 97.9437 15.102H99.6357C99.6837 15.594 99.9117 15.996 100.32 16.308C100.74 16.62 101.286 16.776 101.958 16.776C102.582 16.776 103.074 16.638 103.434 16.362C103.794 16.086 103.974 15.738 103.974 15.318C103.974 14.886 103.782 14.568 103.398 14.364C103.014 14.148 102.42 13.938 101.616 13.734C100.884 13.542 100.284 13.35 99.8157 13.158C99.3597 12.954 98.9637 12.66 98.6277 12.276C98.3037 11.88 98.1417 11.364 98.1417 10.728C98.1417 10.224 98.2917 9.762 98.5917 9.342C98.8917 8.922 99.3177 8.592 99.8697 8.352C100.422 8.1 101.052 7.974 101.76 7.974C102.852 7.974 103.734 8.25 104.406 8.802C105.078 9.354 105.438 10.11 105.486 11.07H103.848C103.812 10.554 103.602 10.14 103.218 9.828C102.846 9.516 102.342 9.36 101.706 9.36C101.118 9.36 100.65 9.486 100.302 9.738C99.9537 9.99 99.7797 10.32 99.7797 10.728C99.7797 11.052 99.8817 11.322 100.086 11.538C100.302 11.742 100.566 11.91 100.878 12.042C101.202 12.162 101.646 12.3 102.21 12.456C102.918 12.648 103.494 12.84 103.938 13.032C104.382 13.212 104.76 13.488 105.072 13.86C105.396 14.232 105.564 14.718 105.576 15.318C105.576 15.858 105.426 16.344 105.126 16.776C104.826 17.208 104.4 17.55 103.848 17.802C103.308 18.042 102.684 18.162 101.976 18.162ZM116.636 8.136V18H114.998V16.542C114.686 17.046 114.248 17.442 113.684 17.73C113.132 18.006 112.52 18.144 111.848 18.144C111.08 18.144 110.39 17.988 109.778 17.676C109.166 17.352 108.68 16.872 108.32 16.236C107.972 15.6 107.798 14.826 107.798 13.914V8.136H109.418V13.698C109.418 14.67 109.664 15.42 110.156 15.948C110.648 16.464 111.32 16.722 112.172 16.722C113.048 16.722 113.738 16.452 114.242 15.912C114.746 15.372 114.998 14.586 114.998 13.554V8.136H116.636ZM131.264 7.956C132.032 7.956 132.716 8.118 133.316 8.442C133.916 8.754 134.39 9.228 134.738 9.864C135.086 10.5 135.26 11.274 135.26 12.186V18H133.64V12.42C133.64 11.436 133.394 10.686 132.902 10.17C132.422 9.642 131.768 9.378 130.94 9.378C130.088 9.378 129.41 9.654 128.906 10.206C128.402 10.746 128.15 11.532 128.15 12.564V18H126.53V12.42C126.53 11.436 126.284 10.686 125.792 10.17C125.312 9.642 124.658 9.378 123.83 9.378C122.978 9.378 122.3 9.654 121.796 10.206C121.292 10.746 121.04 11.532 121.04 12.564V18H119.402V8.136H121.04V9.558C121.364 9.042 121.796 8.646 122.336 8.37C122.888 8.094 123.494 7.956 124.154 7.956C124.982 7.956 125.714 8.142 126.35 8.514C126.986 8.886 127.46 9.432 127.772 10.152C128.048 9.456 128.504 8.916 129.14 8.532C129.776 8.148 130.484 7.956 131.264 7.956ZM143.591 6.534C143.279 6.534 143.015 6.426 142.799 6.21C142.583 5.994 142.475 5.73 142.475 5.418C142.475 5.106 142.583 4.842 142.799 4.626C143.015 4.41 143.279 4.302 143.591 4.302C143.891 4.302 144.143 4.41 144.347 4.626C144.563 4.842 144.671 5.106 144.671 5.418C144.671 5.73 144.563 5.994 144.347 6.21C144.143 6.426 143.891 6.534 143.591 6.534ZM144.383 8.136V18H142.745V8.136H144.383ZM150.667 18.162C149.911 18.162 149.233 18.036 148.633 17.784C148.033 17.52 147.559 17.16 147.211 16.704C146.863 16.236 146.671 15.702 146.635 15.102H148.327C148.375 15.594 148.603 15.996 149.011 16.308C149.431 16.62 149.977 16.776 150.649 16.776C151.273 16.776 151.765 16.638 152.125 16.362C152.485 16.086 152.665 15.738 152.665 15.318C152.665 14.886 152.473 14.568 152.089 14.364C151.705 14.148 151.111 13.938 150.307 13.734C149.575 13.542 148.975 13.35 148.507 13.158C148.051 12.954 147.655 12.66 147.319 12.276C146.995 11.88 146.833 11.364 146.833 10.728C146.833 10.224 146.983 9.762 147.283 9.342C147.583 8.922 148.009 8.592 148.561 8.352C149.113 8.1 149.743 7.974 150.451 7.974C151.543 7.974 152.425 8.25 153.097 8.802C153.769 9.354 154.129 10.11 154.177 11.07H152.539C152.503 10.554 152.293 10.14 151.909 9.828C151.537 9.516 151.033 9.36 150.397 9.36C149.809 9.36 149.341 9.486 148.993 9.738C148.645 9.99 148.471 10.32 148.471 10.728C148.471 11.052 148.573 11.322 148.777 11.538C148.993 11.742 149.257 11.91 149.569 12.042C149.893 12.162 150.337 12.3 150.901 12.456C151.609 12.648 152.185 12.84 152.629 13.032C153.073 13.212 153.451 13.488 153.763 13.86C154.087 14.232 154.255 14.718 154.267 15.318C154.267 15.858 154.117 16.344 153.817 16.776C153.517 17.208 153.091 17.55 152.539 17.802C151.999 18.042 151.375 18.162 150.667 18.162ZM164.87 18.162C164.114 18.162 163.436 18.036 162.836 17.784C162.236 17.52 161.762 17.16 161.414 16.704C161.066 16.236 160.874 15.702 160.838 15.102H162.53C162.578 15.594 162.806 15.996 163.214 16.308C163.634 16.62 164.18 16.776 164.852 16.776C165.476 16.776 165.968 16.638 166.328 16.362C166.688 16.086 166.868 15.738 166.868 15.318C166.868 14.886 166.676 14.568 166.292 14.364C165.908 14.148 165.314 13.938 164.51 13.734C163.778 13.542 163.178 13.35 162.71 13.158C162.254 12.954 161.858 12.66 161.522 12.276C161.198 11.88 161.036 11.364 161.036 10.728C161.036 10.224 161.186 9.762 161.486 9.342C161.786 8.922 162.212 8.592 162.764 8.352C163.316 8.1 163.946 7.974 164.654 7.974C165.746 7.974 166.628 8.25 167.3 8.802C167.972 9.354 168.332 10.11 168.38 11.07H166.742C166.706 10.554 166.496 10.14 166.112 9.828C165.74 9.516 165.236 9.36 164.6 9.36C164.012 9.36 163.544 9.486 163.196 9.738C162.848 9.99 162.674 10.32 162.674 10.728C162.674 11.052 162.776 11.322 162.98 11.538C163.196 11.742 163.46 11.91 163.772 12.042C164.096 12.162 164.54 12.3 165.104 12.456C165.812 12.648 166.388 12.84 166.832 13.032C167.276 13.212 167.654 13.488 167.966 13.86C168.29 14.232 168.458 14.718 168.47 15.318C168.47 15.858 168.32 16.344 168.02 16.776C167.72 17.208 167.294 17.55 166.742 17.802C166.202 18.042 165.578 18.162 164.87 18.162ZM171.628 6.534C171.316 6.534 171.052 6.426 170.836 6.21C170.62 5.994 170.512 5.73 170.512 5.418C170.512 5.106 170.62 4.842 170.836 4.626C171.052 4.41 171.316 4.302 171.628 4.302C171.928 4.302 172.18 4.41 172.384 4.626C172.6 4.842 172.708 5.106 172.708 5.418C172.708 5.73 172.6 5.994 172.384 6.21C172.18 6.426 171.928 6.534 171.628 6.534ZM172.42 8.136V18H170.782V8.136H172.42ZM187.074 7.956C187.842 7.956 188.526 8.118 189.126 8.442C189.726 8.754 190.2 9.228 190.548 9.864C190.896 10.5 191.07 11.274 191.07 12.186V18H189.45V12.42C189.45 11.436 189.204 10.686 188.712 10.17C188.232 9.642 187.578 9.378 186.75 9.378C185.898 9.378 185.22 9.654 184.716 10.206C184.212 10.746 183.96 11.532 183.96 12.564V18H182.34V12.42C182.34 11.436 182.094 10.686 181.602 10.17C181.122 9.642 180.468 9.378 179.64 9.378C178.788 9.378 178.11 9.654 177.606 10.206C177.102 10.746 176.85 11.532 176.85 12.564V18H175.212V8.136H176.85V9.558C177.174 9.042 177.606 8.646 178.146 8.37C178.698 8.094 179.304 7.956 179.964 7.956C180.792 7.956 181.524 8.142 182.16 8.514C182.796 8.886 183.27 9.432 183.582 10.152C183.858 9.456 184.314 8.916 184.95 8.532C185.586 8.148 186.294 7.956 187.074 7.956ZM195.395 9.954C195.719 9.39 196.199 8.922 196.835 8.55C197.483 8.166 198.233 7.974 199.085 7.974C199.961 7.974 200.753 8.184 201.461 8.604C202.181 9.024 202.745 9.618 203.153 10.386C203.561 11.142 203.765 12.024 203.765 13.032C203.765 14.028 203.561 14.916 203.153 15.696C202.745 16.476 202.181 17.082 201.461 17.514C200.753 17.946 199.961 18.162 199.085 18.162C198.245 18.162 197.501 17.976 196.853 17.604C196.217 17.22 195.731 16.746 195.395 16.182V22.68H193.757V8.136H195.395V9.954ZM202.091 13.032C202.091 12.288 201.941 11.64 201.641 11.088C201.341 10.536 200.933 10.116 200.417 9.828C199.913 9.54 199.355 9.396 198.743 9.396C198.143 9.396 197.585 9.546 197.069 9.846C196.565 10.134 196.157 10.56 195.845 11.124C195.545 11.676 195.395 12.318 195.395 13.05C195.395 13.794 195.545 14.448 195.845 15.012C196.157 15.564 196.565 15.99 197.069 16.29C197.585 16.578 198.143 16.722 198.743 16.722C199.355 16.722 199.913 16.578 200.417 16.29C200.933 15.99 201.341 15.564 201.641 15.012C201.941 14.448 202.091 13.788 202.091 13.032ZM207.559 4.68V18H205.921V4.68H207.559ZM218.847 8.136L212.907 22.644H211.215L213.159 17.892L209.181 8.136H210.999L214.095 16.128L217.155 8.136H218.847ZM224.68 13.032C224.68 12.024 224.884 11.142 225.292 10.386C225.7 9.618 226.258 9.024 226.966 8.604C227.686 8.184 228.49 7.974 229.378 7.974C230.146 7.974 230.86 8.154 231.52 8.514C232.18 8.862 232.684 9.324 233.032 9.9V4.68H234.688V18H233.032V16.146C232.708 16.734 232.228 17.22 231.592 17.604C230.956 17.976 230.212 18.162 229.36 18.162C228.484 18.162 227.686 17.946 226.966 17.514C226.258 17.082 225.7 16.476 225.292 15.696C224.884 14.916 224.68 14.028 224.68 13.032ZM233.032 13.05C233.032 12.306 232.882 11.658 232.582 11.106C232.282 10.554 231.874 10.134 231.358 9.846C230.854 9.546 230.296 9.396 229.684 9.396C229.072 9.396 228.514 9.54 228.01 9.828C227.506 10.116 227.104 10.536 226.804 11.088C226.504 11.64 226.354 12.288 226.354 13.032C226.354 13.788 226.504 14.448 226.804 15.012C227.104 15.564 227.506 15.99 228.01 16.29C228.514 16.578 229.072 16.722 229.684 16.722C230.296 16.722 230.854 16.578 231.358 16.29C231.874 15.99 232.282 15.564 232.582 15.012C232.882 14.448 233.032 13.794 233.032 13.05ZM246.204 8.136V18H244.566V16.542C244.254 17.046 243.816 17.442 243.252 17.73C242.7 18.006 242.088 18.144 241.416 18.144C240.648 18.144 239.958 17.988 239.346 17.676C238.734 17.352 238.248 16.872 237.888 16.236C237.54 15.6 237.366 14.826 237.366 13.914V8.136H238.986V13.698C238.986 14.67 239.232 15.42 239.724 15.948C240.216 16.464 240.888 16.722 241.74 16.722C242.616 16.722 243.306 16.452 243.81 15.912C244.314 15.372 244.566 14.586 244.566 13.554V8.136H246.204ZM260.832 7.956C261.6 7.956 262.284 8.118 262.884 8.442C263.484 8.754 263.958 9.228 264.306 9.864C264.654 10.5 264.828 11.274 264.828 12.186V18H263.208V12.42C263.208 11.436 262.962 10.686 262.47 10.17C261.99 9.642 261.336 9.378 260.508 9.378C259.656 9.378 258.978 9.654 258.474 10.206C257.97 10.746 257.718 11.532 257.718 12.564V18H256.098V12.42C256.098 11.436 255.852 10.686 255.36 10.17C254.88 9.642 254.226 9.378 253.398 9.378C252.546 9.378 251.868 9.654 251.364 10.206C250.86 10.746 250.608 11.532 250.608 12.564V18H248.97V8.136H250.608V9.558C250.932 9.042 251.364 8.646 251.904 8.37C252.456 8.094 253.062 7.956 253.722 7.956C254.55 7.956 255.282 8.142 255.918 8.514C256.554 8.886 257.028 9.432 257.34 10.152C257.616 9.456 258.072 8.916 258.708 8.532C259.344 8.148 260.052 7.956 260.832 7.956ZM279.377 7.956C280.145 7.956 280.829 8.118 281.429 8.442C282.029 8.754 282.503 9.228 282.851 9.864C283.199 10.5 283.373 11.274 283.373 12.186V18H281.753V12.42C281.753 11.436 281.507 10.686 281.015 10.17C280.535 9.642 279.881 9.378 279.053 9.378C278.201 9.378 277.523 9.654 277.019 10.206C276.515 10.746 276.263 11.532 276.263 12.564V18H274.643V12.42C274.643 11.436 274.397 10.686 273.905 10.17C273.425 9.642 272.771 9.378 271.943 9.378C271.091 9.378 270.413 9.654 269.909 10.206C269.405 10.746 269.153 11.532 269.153 12.564V18H267.515V8.136H269.153V9.558C269.477 9.042 269.909 8.646 270.449 8.37C271.001 8.094 271.607 7.956 272.267 7.956C273.095 7.956 273.827 8.142 274.463 8.514C275.099 8.886 275.573 9.432 275.885 10.152C276.161 9.456 276.617 8.916 277.253 8.532C277.889 8.148 278.597 7.956 279.377 7.956ZM294.556 8.136L288.616 22.644H286.924L288.868 17.892L284.89 8.136H286.708L289.804 16.128L292.864 8.136H294.556ZM302.999 9.486V15.3C302.999 15.78 303.101 16.122 303.305 16.326C303.509 16.518 303.863 16.614 304.367 16.614H305.573V18H304.097C303.185 18 302.501 17.79 302.045 17.37C301.589 16.95 301.361 16.26 301.361 15.3V9.486H300.083V8.136H301.361V5.652H302.999V8.136H305.573V9.486H302.999ZM316.558 12.69C316.558 13.002 316.54 13.332 316.504 13.68H308.62C308.68 14.652 309.01 15.414 309.61 15.966C310.222 16.506 310.96 16.776 311.824 16.776C312.532 16.776 313.12 16.614 313.588 16.29C314.068 15.954 314.404 15.51 314.596 14.958H316.36C316.096 15.906 315.568 16.68 314.776 17.28C313.984 17.868 313 18.162 311.824 18.162C310.888 18.162 310.048 17.952 309.304 17.532C308.572 17.112 307.996 16.518 307.576 15.75C307.156 14.97 306.946 14.07 306.946 13.05C306.946 12.03 307.15 11.136 307.558 10.368C307.966 9.6 308.536 9.012 309.268 8.604C310.012 8.184 310.864 7.974 311.824 7.974C312.76 7.974 313.588 8.178 314.308 8.586C315.028 8.994 315.58 9.558 315.964 10.278C316.36 10.986 316.558 11.79 316.558 12.69ZM314.866 12.348C314.866 11.724 314.728 11.19 314.452 10.746C314.176 10.29 313.798 9.948 313.318 9.72C312.85 9.48 312.328 9.36 311.752 9.36C310.924 9.36 310.216 9.624 309.628 10.152C309.052 10.68 308.722 11.412 308.638 12.348H314.866ZM323.868 18L321.528 14.328L319.278 18H317.568L320.754 13.104L317.568 8.136H319.422L321.762 11.79L323.994 8.136H325.704L322.536 13.014L325.722 18H323.868ZM329.331 9.486V15.3C329.331 15.78 329.433 16.122 329.637 16.326C329.841 16.518 330.195 16.614 330.699 16.614H331.905V18H330.429C329.517 18 328.833 17.79 328.377 17.37C327.921 16.95 327.693 16.26 327.693 15.3V9.486H326.415V8.136H327.693V5.652H329.331V8.136H331.905V9.486H329.331ZM25.688 42.162C24.764 42.162 23.924 41.952 23.168 41.532C22.424 41.112 21.836 40.518 21.404 39.75C20.984 38.97 20.774 38.07 20.774 37.05C20.774 36.042 20.99 35.154 21.422 34.386C21.866 33.606 22.466 33.012 23.222 32.604C23.978 32.184 24.824 31.974 25.76 31.974C26.696 31.974 27.542 32.184 28.298 32.604C29.054 33.012 29.648 33.6 30.08 34.368C30.524 35.136 30.746 36.03 30.746 37.05C30.746 38.07 30.518 38.97 30.062 39.75C29.618 40.518 29.012 41.112 28.244 41.532C27.476 41.952 26.624 42.162 25.688 42.162ZM25.688 40.722C26.276 40.722 26.828 40.584 27.344 40.308C27.86 40.032 28.274 39.618 28.586 39.066C28.91 38.514 29.072 37.842 29.072 37.05C29.072 36.258 28.916 35.586 28.604 35.034C28.292 34.482 27.884 34.074 27.38 33.81C26.876 33.534 26.33 33.396 25.742 33.396C25.142 33.396 24.59 33.534 24.086 33.81C23.594 34.074 23.198 34.482 22.898 35.034C22.598 35.586 22.448 36.258 22.448 37.05C22.448 37.854 22.592 38.532 22.88 39.084C23.18 39.636 23.576 40.05 24.068 40.326C24.56 40.59 25.1 40.722 25.688 40.722ZM36.9137 33.486H34.8437V42H33.2057V33.486H31.9277V32.136H33.2057V31.434C33.2057 30.33 33.4877 29.526 34.0517 29.022C34.6277 28.506 35.5457 28.248 36.8057 28.248V29.616C36.0857 29.616 35.5757 29.76 35.2757 30.048C34.9877 30.324 34.8437 30.786 34.8437 31.434V32.136H36.9137V33.486ZM45.6203 33.486V39.3C45.6203 39.78 45.7223 40.122 45.9263 40.326C46.1303 40.518 46.4843 40.614 46.9883 40.614H48.1943V42H46.7183C45.8063 42 45.1223 41.79 44.6663 41.37C44.2103 40.95 43.9823 40.26 43.9823 39.3V33.486H42.7043V32.136H43.9823V29.652H45.6203V32.136H48.1943V33.486H45.6203ZM55.075 31.956C55.819 31.956 56.491 32.118 57.091 32.442C57.691 32.754 58.159 33.228 58.495 33.864C58.843 34.5 59.017 35.274 59.017 36.186V42H57.397V36.42C57.397 35.436 57.151 34.686 56.659 34.17C56.167 33.642 55.495 33.378 54.643 33.378C53.779 33.378 53.089 33.648 52.573 34.188C52.069 34.728 51.817 35.514 51.817 36.546V42H50.179V28.68H51.817V33.54C52.141 33.036 52.585 32.646 53.149 32.37C53.725 32.094 54.367 31.956 55.075 31.956ZM70.6926 36.69C70.6926 37.002 70.6746 37.332 70.6386 37.68H62.7546C62.8146 38.652 63.1446 39.414 63.7446 39.966C64.3566 40.506 65.0946 40.776 65.9586 40.776C66.6666 40.776 67.2546 40.614 67.7226 40.29C68.2026 39.954 68.5386 39.51 68.7306 38.958H70.4946C70.2306 39.906 69.7026 40.68 68.9106 41.28C68.1186 41.868 67.1346 42.162 65.9586 42.162C65.0226 42.162 64.1826 41.952 63.4386 41.532C62.7066 41.112 62.1306 40.518 61.7106 39.75C61.2906 38.97 61.0806 38.07 61.0806 37.05C61.0806 36.03 61.2846 35.136 61.6926 34.368C62.1006 33.6 62.6706 33.012 63.4026 32.604C64.1466 32.184 64.9986 31.974 65.9586 31.974C66.8946 31.974 67.7226 32.178 68.4426 32.586C69.1626 32.994 69.7146 33.558 70.0986 34.278C70.4946 34.986 70.6926 35.79 70.6926 36.69ZM69.0006 36.348C69.0006 35.724 68.8626 35.19 68.5866 34.746C68.3106 34.29 67.9326 33.948 67.4526 33.72C66.9846 33.48 66.4626 33.36 65.8866 33.36C65.0586 33.36 64.3506 33.624 63.7626 34.152C63.1866 34.68 62.8566 35.412 62.7726 36.348H69.0006ZM79.2916 33.954C79.6156 33.39 80.0956 32.922 80.7316 32.55C81.3796 32.166 82.1296 31.974 82.9816 31.974C83.8576 31.974 84.6496 32.184 85.3576 32.604C86.0776 33.024 86.6416 33.618 87.0496 34.386C87.4576 35.142 87.6616 36.024 87.6616 37.032C87.6616 38.028 87.4576 38.916 87.0496 39.696C86.6416 40.476 86.0776 41.082 85.3576 41.514C84.6496 41.946 83.8576 42.162 82.9816 42.162C82.1416 42.162 81.3976 41.976 80.7496 41.604C80.1136 41.22 79.6276 40.746 79.2916 40.182V46.68H77.6536V32.136H79.2916V33.954ZM85.9876 37.032C85.9876 36.288 85.8376 35.64 85.5376 35.088C85.2376 34.536 84.8296 34.116 84.3136 33.828C83.8096 33.54 83.2516 33.396 82.6396 33.396C82.0396 33.396 81.4816 33.546 80.9656 33.846C80.4616 34.134 80.0536 34.56 79.7416 35.124C79.4416 35.676 79.2916 36.318 79.2916 37.05C79.2916 37.794 79.4416 38.448 79.7416 39.012C80.0536 39.564 80.4616 39.99 80.9656 40.29C81.4816 40.578 82.0396 40.722 82.6396 40.722C83.2516 40.722 83.8096 40.578 84.3136 40.29C84.8296 39.99 85.2376 39.564 85.5376 39.012C85.8376 38.448 85.9876 37.788 85.9876 37.032ZM91.4556 33.738C91.7436 33.174 92.1516 32.736 92.6796 32.424C93.2196 32.112 93.8736 31.956 94.6416 31.956V33.648H94.2096C92.3736 33.648 91.4556 34.644 91.4556 36.636V42H89.8176V32.136H91.4556V33.738ZM97.3785 30.534C97.0665 30.534 96.8025 30.426 96.5865 30.21C96.3705 29.994 96.2625 29.73 96.2625 29.418C96.2625 29.106 96.3705 28.842 96.5865 28.626C96.8025 28.41 97.0665 28.302 97.3785 28.302C97.6785 28.302 97.9305 28.41 98.1345 28.626C98.3505 28.842 98.4585 29.106 98.4585 29.418C98.4585 29.73 98.3505 29.994 98.1345 30.21C97.9305 30.426 97.6785 30.534 97.3785 30.534ZM98.1705 32.136V42H96.5325V32.136H98.1705ZM105.768 31.956C106.968 31.956 107.94 32.322 108.684 33.054C109.428 33.774 109.8 34.818 109.8 36.186V42H108.18V36.42C108.18 35.436 107.934 34.686 107.442 34.17C106.95 33.642 106.278 33.378 105.426 33.378C104.562 33.378 103.872 33.648 103.356 34.188C102.852 34.728 102.6 35.514 102.6 36.546V42H100.962V32.136H102.6V33.54C102.924 33.036 103.362 32.646 103.914 32.37C104.478 32.094 105.096 31.956 105.768 31.956ZM114.474 33.486V39.3C114.474 39.78 114.576 40.122 114.78 40.326C114.984 40.518 115.338 40.614 115.842 40.614H117.048V42H115.572C114.66 42 113.976 41.79 113.52 41.37C113.064 40.95 112.836 40.26 112.836 39.3V33.486H111.558V32.136H112.836V29.652H114.474V32.136H117.048V33.486H114.474ZM119.878 30.534C119.566 30.534 119.302 30.426 119.086 30.21C118.87 29.994 118.762 29.73 118.762 29.418C118.762 29.106 118.87 28.842 119.086 28.626C119.302 28.41 119.566 28.302 119.878 28.302C120.178 28.302 120.43 28.41 120.634 28.626C120.85 28.842 120.958 29.106 120.958 29.418C120.958 29.73 120.85 29.994 120.634 30.21C120.43 30.426 120.178 30.534 119.878 30.534ZM120.67 32.136V42H119.032V32.136H120.67ZM128.268 31.956C129.468 31.956 130.44 32.322 131.184 33.054C131.928 33.774 132.3 34.818 132.3 36.186V42H130.68V36.42C130.68 35.436 130.434 34.686 129.942 34.17C129.45 33.642 128.778 33.378 127.926 33.378C127.062 33.378 126.372 33.648 125.856 34.188C125.352 34.728 125.1 35.514 125.1 36.546V42H123.462V32.136H125.1V33.54C125.424 33.036 125.862 32.646 126.414 32.37C126.978 32.094 127.596 31.956 128.268 31.956ZM139.044 31.974C139.896 31.974 140.64 32.16 141.276 32.532C141.924 32.904 142.404 33.372 142.716 33.936V32.136H144.372V42.216C144.372 43.116 144.18 43.914 143.796 44.61C143.412 45.318 142.86 45.87 142.14 46.266C141.432 46.662 140.604 46.86 139.656 46.86C138.36 46.86 137.28 46.554 136.416 45.942C135.552 45.33 135.042 44.496 134.886 43.44H136.506C136.686 44.04 137.058 44.52 137.622 44.88C138.186 45.252 138.864 45.438 139.656 45.438C140.556 45.438 141.288 45.156 141.852 44.592C142.428 44.028 142.716 43.236 142.716 42.216V40.146C142.392 40.722 141.912 41.202 141.276 41.586C140.64 41.97 139.896 42.162 139.044 42.162C138.168 42.162 137.37 41.946 136.65 41.514C135.942 41.082 135.384 40.476 134.976 39.696C134.568 38.916 134.364 38.028 134.364 37.032C134.364 36.024 134.568 35.142 134.976 34.386C135.384 33.618 135.942 33.024 136.65 32.604C137.37 32.184 138.168 31.974 139.044 31.974ZM142.716 37.05C142.716 36.306 142.566 35.658 142.266 35.106C141.966 34.554 141.558 34.134 141.042 33.846C140.538 33.546 139.98 33.396 139.368 33.396C138.756 33.396 138.198 33.54 137.694 33.828C137.19 34.116 136.788 34.536 136.488 35.088C136.188 35.64 136.038 36.288 136.038 37.032C136.038 37.788 136.188 38.448 136.488 39.012C136.788 39.564 137.19 39.99 137.694 40.29C138.198 40.578 138.756 40.722 139.368 40.722C139.98 40.722 140.538 40.578 141.042 40.29C141.558 39.99 141.966 39.564 142.266 39.012C142.566 38.448 142.716 37.794 142.716 37.05ZM151.327 37.032C151.327 36.024 151.531 35.142 151.939 34.386C152.347 33.618 152.905 33.024 153.613 32.604C154.333 32.184 155.131 31.974 156.007 31.974C156.871 31.974 157.621 32.16 158.257 32.532C158.893 32.904 159.367 33.372 159.679 33.936V32.136H161.335V42H159.679V40.164C159.355 40.74 158.869 41.22 158.221 41.604C157.585 41.976 156.841 42.162 155.989 42.162C155.113 42.162 154.321 41.946 153.613 41.514C152.905 41.082 152.347 40.476 151.939 39.696C151.531 38.916 151.327 38.028 151.327 37.032ZM159.679 37.05C159.679 36.306 159.529 35.658 159.229 35.106C158.929 34.554 158.521 34.134 158.005 33.846C157.501 33.546 156.943 33.396 156.331 33.396C155.719 33.396 155.161 33.54 154.657 33.828C154.153 34.116 153.751 34.536 153.451 35.088C153.151 35.64 153.001 36.288 153.001 37.032C153.001 37.788 153.151 38.448 153.451 39.012C153.751 39.564 154.153 39.99 154.657 40.29C155.161 40.578 155.719 40.722 156.331 40.722C156.943 40.722 157.501 40.578 158.005 40.29C158.521 39.99 158.929 39.564 159.229 39.012C159.529 38.448 159.679 37.794 159.679 37.05ZM168.909 31.956C170.109 31.956 171.081 32.322 171.825 33.054C172.569 33.774 172.941 34.818 172.941 36.186V42H171.321V36.42C171.321 35.436 171.075 34.686 170.583 34.17C170.091 33.642 169.419 33.378 168.567 33.378C167.703 33.378 167.013 33.648 166.497 34.188C165.993 34.728 165.741 35.514 165.741 36.546V42H164.103V32.136H165.741V33.54C166.065 33.036 166.503 32.646 167.055 32.37C167.619 32.094 168.237 31.956 168.909 31.956ZM175.004 37.032C175.004 36.024 175.208 35.142 175.616 34.386C176.024 33.618 176.582 33.024 177.29 32.604C178.01 32.184 178.814 31.974 179.702 31.974C180.47 31.974 181.184 32.154 181.844 32.514C182.504 32.862 183.008 33.324 183.356 33.9V28.68H185.012V42H183.356V40.146C183.032 40.734 182.552 41.22 181.916 41.604C181.28 41.976 180.536 42.162 179.684 42.162C178.808 42.162 178.01 41.946 177.29 41.514C176.582 41.082 176.024 40.476 175.616 39.696C175.208 38.916 175.004 38.028 175.004 37.032ZM183.356 37.05C183.356 36.306 183.206 35.658 182.906 35.106C182.606 34.554 182.198 34.134 181.682 33.846C181.178 33.546 180.62 33.396 180.008 33.396C179.396 33.396 178.838 33.54 178.334 33.828C177.83 34.116 177.428 34.536 177.128 35.088C176.828 35.64 176.678 36.288 176.678 37.032C176.678 37.788 176.828 38.448 177.128 39.012C177.428 39.564 177.83 39.99 178.334 40.29C178.838 40.578 179.396 40.722 180.008 40.722C180.62 40.722 181.178 40.578 181.682 40.29C182.198 39.99 182.606 39.564 182.906 39.012C183.206 38.448 183.356 37.794 183.356 37.05ZM194.577 33.486V39.3C194.577 39.78 194.679 40.122 194.883 40.326C195.087 40.518 195.441 40.614 195.945 40.614H197.151V42H195.675C194.763 42 194.079 41.79 193.623 41.37C193.167 40.95 192.939 40.26 192.939 39.3V33.486H191.661V32.136H192.939V29.652H194.577V32.136H197.151V33.486H194.577ZM207.632 32.136L201.692 46.644H200L201.944 41.892L197.966 32.136H199.784L202.88 40.128L205.94 32.136H207.632ZM210.917 33.954C211.241 33.39 211.721 32.922 212.357 32.55C213.005 32.166 213.755 31.974 214.607 31.974C215.483 31.974 216.275 32.184 216.983 32.604C217.703 33.024 218.267 33.618 218.675 34.386C219.083 35.142 219.287 36.024 219.287 37.032C219.287 38.028 219.083 38.916 218.675 39.696C218.267 40.476 217.703 41.082 216.983 41.514C216.275 41.946 215.483 42.162 214.607 42.162C213.767 42.162 213.023 41.976 212.375 41.604C211.739 41.22 211.253 40.746 210.917 40.182V46.68H209.279V32.136H210.917V33.954ZM217.613 37.032C217.613 36.288 217.463 35.64 217.163 35.088C216.863 34.536 216.455 34.116 215.939 33.828C215.435 33.54 214.877 33.396 214.265 33.396C213.665 33.396 213.107 33.546 212.591 33.846C212.087 34.134 211.679 34.56 211.367 35.124C211.067 35.676 210.917 36.318 210.917 37.05C210.917 37.794 211.067 38.448 211.367 39.012C211.679 39.564 212.087 39.99 212.591 40.29C213.107 40.578 213.665 40.722 214.265 40.722C214.877 40.722 215.435 40.578 215.939 40.29C216.455 39.99 216.863 39.564 217.163 39.012C217.463 38.448 217.613 37.788 217.613 37.032ZM230.443 36.69C230.443 37.002 230.425 37.332 230.389 37.68H222.505C222.565 38.652 222.895 39.414 223.495 39.966C224.107 40.506 224.845 40.776 225.709 40.776C226.417 40.776 227.005 40.614 227.473 40.29C227.953 39.954 228.289 39.51 228.481 38.958H230.245C229.981 39.906 229.453 40.68 228.661 41.28C227.869 41.868 226.885 42.162 225.709 42.162C224.773 42.162 223.933 41.952 223.189 41.532C222.457 41.112 221.881 40.518 221.461 39.75C221.041 38.97 220.831 38.07 220.831 37.05C220.831 36.03 221.035 35.136 221.443 34.368C221.851 33.6 222.421 33.012 223.153 32.604C223.897 32.184 224.749 31.974 225.709 31.974C226.645 31.974 227.473 32.178 228.193 32.586C228.913 32.994 229.465 33.558 229.849 34.278C230.245 34.986 230.443 35.79 230.443 36.69ZM228.751 36.348C228.751 35.724 228.613 35.19 228.337 34.746C228.061 34.29 227.683 33.948 227.203 33.72C226.735 33.48 226.213 33.36 225.637 33.36C224.809 33.36 224.101 33.624 223.513 34.152C222.937 34.68 222.607 35.412 222.523 36.348H228.751ZM236.097 42.162C235.341 42.162 234.663 42.036 234.063 41.784C233.463 41.52 232.989 41.16 232.641 40.704C232.293 40.236 232.101 39.702 232.065 39.102H233.757C233.805 39.594 234.033 39.996 234.441 40.308C234.861 40.62 235.407 40.776 236.079 40.776C236.703 40.776 237.195 40.638 237.555 40.362C237.915 40.086 238.095 39.738 238.095 39.318C238.095 38.886 237.903 38.568 237.519 38.364C237.135 38.148 236.541 37.938 235.737 37.734C235.005 37.542 234.405 37.35 233.937 37.158C233.481 36.954 233.085 36.66 232.749 36.276C232.425 35.88 232.263 35.364 232.263 34.728C232.263 34.224 232.413 33.762 232.713 33.342C233.013 32.922 233.439 32.592 233.991 32.352C234.543 32.1 235.173 31.974 235.881 31.974C236.973 31.974 237.855 32.25 238.527 32.802C239.199 33.354 239.559 34.11 239.607 35.07H237.969C237.933 34.554 237.723 34.14 237.339 33.828C236.967 33.516 236.463 33.36 235.827 33.36C235.239 33.36 234.771 33.486 234.423 33.738C234.075 33.99 233.901 34.32 233.901 34.728C233.901 35.052 234.003 35.322 234.207 35.538C234.423 35.742 234.687 35.91 234.999 36.042C235.323 36.162 235.767 36.3 236.331 36.456C237.039 36.648 237.615 36.84 238.059 37.032C238.503 37.212 238.881 37.488 239.193 37.86C239.517 38.232 239.685 38.718 239.697 39.318C239.697 39.858 239.547 40.344 239.247 40.776C238.947 41.208 238.521 41.55 237.969 41.802C237.429 42.042 236.805 42.162 236.097 42.162ZM251.009 36.69C251.009 37.002 250.991 37.332 250.955 37.68H243.071C243.131 38.652 243.461 39.414 244.061 39.966C244.673 40.506 245.411 40.776 246.275 40.776C246.983 40.776 247.571 40.614 248.039 40.29C248.519 39.954 248.855 39.51 249.047 38.958H250.811C250.547 39.906 250.019 40.68 249.227 41.28C248.435 41.868 247.451 42.162 246.275 42.162C245.339 42.162 244.499 41.952 243.755 41.532C243.023 41.112 242.447 40.518 242.027 39.75C241.607 38.97 241.397 38.07 241.397 37.05C241.397 36.03 241.601 35.136 242.009 34.368C242.417 33.6 242.987 33.012 243.719 32.604C244.463 32.184 245.315 31.974 246.275 31.974C247.211 31.974 248.039 32.178 248.759 32.586C249.479 32.994 250.031 33.558 250.415 34.278C250.811 34.986 251.009 35.79 251.009 36.69ZM249.317 36.348C249.317 35.724 249.179 35.19 248.903 34.746C248.627 34.29 248.249 33.948 247.769 33.72C247.301 33.48 246.779 33.36 246.203 33.36C245.375 33.36 244.667 33.624 244.079 34.152C243.503 34.68 243.173 35.412 243.089 36.348H249.317ZM255.169 33.486V39.3C255.169 39.78 255.271 40.122 255.475 40.326C255.679 40.518 256.033 40.614 256.537 40.614H257.743V42H256.267C255.355 42 254.671 41.79 254.215 41.37C253.759 40.95 253.531 40.26 253.531 39.3V33.486H252.253V32.136H253.531V29.652H255.169V32.136H257.743V33.486H255.169ZM261.726 33.486V39.3C261.726 39.78 261.828 40.122 262.032 40.326C262.236 40.518 262.59 40.614 263.094 40.614H264.3V42H262.824C261.912 42 261.228 41.79 260.772 41.37C260.316 40.95 260.088 40.26 260.088 39.3V33.486H258.81V32.136H260.088V29.652H261.726V32.136H264.3V33.486H261.726ZM267.13 30.534C266.818 30.534 266.554 30.426 266.338 30.21C266.122 29.994 266.014 29.73 266.014 29.418C266.014 29.106 266.122 28.842 266.338 28.626C266.554 28.41 266.818 28.302 267.13 28.302C267.43 28.302 267.682 28.41 267.886 28.626C268.102 28.842 268.21 29.106 268.21 29.418C268.21 29.73 268.102 29.994 267.886 30.21C267.682 30.426 267.43 30.534 267.13 30.534ZM267.922 32.136V42H266.284V32.136H267.922ZM275.52 31.956C276.72 31.956 277.692 32.322 278.436 33.054C279.18 33.774 279.552 34.818 279.552 36.186V42H277.932V36.42C277.932 35.436 277.686 34.686 277.194 34.17C276.702 33.642 276.03 33.378 275.178 33.378C274.314 33.378 273.624 33.648 273.108 34.188C272.604 34.728 272.352 35.514 272.352 36.546V42H270.714V32.136H272.352V33.54C272.676 33.036 273.114 32.646 273.666 32.37C274.23 32.094 274.848 31.956 275.52 31.956ZM286.296 31.974C287.148 31.974 287.892 32.16 288.528 32.532C289.176 32.904 289.656 33.372 289.968 33.936V32.136H291.624V42.216C291.624 43.116 291.432 43.914 291.048 44.61C290.664 45.318 290.112 45.87 289.392 46.266C288.684 46.662 287.856 46.86 286.908 46.86C285.612 46.86 284.532 46.554 283.668 45.942C282.804 45.33 282.294 44.496 282.138 43.44H283.758C283.938 44.04 284.31 44.52 284.874 44.88C285.438 45.252 286.116 45.438 286.908 45.438C287.808 45.438 288.54 45.156 289.104 44.592C289.68 44.028 289.968 43.236 289.968 42.216V40.146C289.644 40.722 289.164 41.202 288.528 41.586C287.892 41.97 287.148 42.162 286.296 42.162C285.42 42.162 284.622 41.946 283.902 41.514C283.194 41.082 282.636 40.476 282.228 39.696C281.82 38.916 281.616 38.028 281.616 37.032C281.616 36.024 281.82 35.142 282.228 34.386C282.636 33.618 283.194 33.024 283.902 32.604C284.622 32.184 285.42 31.974 286.296 31.974ZM289.968 37.05C289.968 36.306 289.818 35.658 289.518 35.106C289.218 34.554 288.81 34.134 288.294 33.846C287.79 33.546 287.232 33.396 286.62 33.396C286.008 33.396 285.45 33.54 284.946 33.828C284.442 34.116 284.04 34.536 283.74 35.088C283.44 35.64 283.29 36.288 283.29 37.032C283.29 37.788 283.44 38.448 283.74 39.012C284.04 39.564 284.442 39.99 284.946 40.29C285.45 40.578 286.008 40.722 286.62 40.722C287.232 40.722 287.79 40.578 288.294 40.29C288.81 39.99 289.218 39.564 289.518 39.012C289.818 38.448 289.968 37.794 289.968 37.05ZM22.232 54.534C21.92 54.534 21.656 54.426 21.44 54.21C21.224 53.994 21.116 53.73 21.116 53.418C21.116 53.106 21.224 52.842 21.44 52.626C21.656 52.41 21.92 52.302 22.232 52.302C22.532 52.302 22.784 52.41 22.988 52.626C23.204 52.842 23.312 53.106 23.312 53.418C23.312 53.73 23.204 53.994 22.988 54.21C22.784 54.426 22.532 54.534 22.232 54.534ZM23.024 56.136V66H21.386V56.136H23.024ZM30.6217 55.956C31.8217 55.956 32.7937 56.322 33.5377 57.054C34.2817 57.774 34.6537 58.818 34.6537 60.186V66H33.0337V60.42C33.0337 59.436 32.7877 58.686 32.2957 58.17C31.8037 57.642 31.1317 57.378 30.2797 57.378C29.4157 57.378 28.7257 57.648 28.2097 58.188C27.7057 58.728 27.4537 59.514 27.4537 60.546V66H25.8157V56.136H27.4537V57.54C27.7777 57.036 28.2157 56.646 28.7677 56.37C29.3317 56.094 29.9497 55.956 30.6217 55.956ZM36.7174 61.032C36.7174 60.024 36.9214 59.142 37.3294 58.386C37.7374 57.618 38.2954 57.024 39.0034 56.604C39.7234 56.184 40.5274 55.974 41.4154 55.974C42.1834 55.974 42.8974 56.154 43.5574 56.514C44.2174 56.862 44.7214 57.324 45.0694 57.9V52.68H46.7254V66H45.0694V64.146C44.7454 64.734 44.2654 65.22 43.6294 65.604C42.9934 65.976 42.2494 66.162 41.3974 66.162C40.5214 66.162 39.7234 65.946 39.0034 65.514C38.2954 65.082 37.7374 64.476 37.3294 63.696C36.9214 62.916 36.7174 62.028 36.7174 61.032ZM45.0694 61.05C45.0694 60.306 44.9194 59.658 44.6194 59.106C44.3194 58.554 43.9114 58.134 43.3954 57.846C42.8914 57.546 42.3334 57.396 41.7214 57.396C41.1094 57.396 40.5514 57.54 40.0474 57.828C39.5434 58.116 39.1414 58.536 38.8414 59.088C38.5414 59.64 38.3914 60.288 38.3914 61.032C38.3914 61.788 38.5414 62.448 38.8414 63.012C39.1414 63.564 39.5434 63.99 40.0474 64.29C40.5514 64.578 41.1094 64.722 41.7214 64.722C42.3334 64.722 42.8914 64.578 43.3954 64.29C43.9114 63.99 44.3194 63.564 44.6194 63.012C44.9194 62.448 45.0694 61.794 45.0694 61.05ZM58.2414 56.136V66H56.6034V64.542C56.2914 65.046 55.8534 65.442 55.2894 65.73C54.7374 66.006 54.1254 66.144 53.4534 66.144C52.6854 66.144 51.9954 65.988 51.3834 65.676C50.7714 65.352 50.2854 64.872 49.9254 64.236C49.5774 63.6 49.4034 62.826 49.4034 61.914V56.136H51.0234V61.698C51.0234 62.67 51.2694 63.42 51.7614 63.948C52.2534 64.464 52.9254 64.722 53.7774 64.722C54.6534 64.722 55.3434 64.452 55.8474 63.912C56.3514 63.372 56.6034 62.586 56.6034 61.554V56.136H58.2414ZM64.4991 66.162C63.7431 66.162 63.0651 66.036 62.4651 65.784C61.8651 65.52 61.3911 65.16 61.0431 64.704C60.6951 64.236 60.5031 63.702 60.4671 63.102H62.1591C62.2071 63.594 62.4351 63.996 62.8431 64.308C63.2631 64.62 63.8091 64.776 64.4811 64.776C65.1051 64.776 65.5971 64.638 65.9571 64.362C66.3171 64.086 66.4971 63.738 66.4971 63.318C66.4971 62.886 66.3051 62.568 65.9211 62.364C65.5371 62.148 64.9431 61.938 64.1391 61.734C63.4071 61.542 62.8071 61.35 62.3391 61.158C61.8831 60.954 61.4871 60.66 61.1511 60.276C60.8271 59.88 60.6651 59.364 60.6651 58.728C60.6651 58.224 60.8151 57.762 61.1151 57.342C61.4151 56.922 61.8411 56.592 62.3931 56.352C62.9451 56.1 63.5751 55.974 64.2831 55.974C65.3751 55.974 66.2571 56.25 66.9291 56.802C67.6011 57.354 67.9611 58.11 68.0091 59.07H66.3711C66.3351 58.554 66.1251 58.14 65.7411 57.828C65.3691 57.516 64.8651 57.36 64.2291 57.36C63.6411 57.36 63.1731 57.486 62.8251 57.738C62.4771 57.99 62.3031 58.32 62.3031 58.728C62.3031 59.052 62.4051 59.322 62.6091 59.538C62.8251 59.742 63.0891 59.91 63.4011 60.042C63.7251 60.162 64.1691 60.3 64.7331 60.456C65.4411 60.648 66.0171 60.84 66.4611 61.032C66.9051 61.212 67.2831 61.488 67.5951 61.86C67.9191 62.232 68.0871 62.718 68.0991 63.318C68.0991 63.858 67.9491 64.344 67.6491 64.776C67.3491 65.208 66.9231 65.55 66.3711 65.802C65.8311 66.042 65.2071 66.162 64.4991 66.162ZM72.4094 57.486V63.3C72.4094 63.78 72.5114 64.122 72.7154 64.326C72.9194 64.518 73.2734 64.614 73.7774 64.614H74.9834V66H73.5074C72.5954 66 71.9114 65.79 71.4554 65.37C70.9994 64.95 70.7714 64.26 70.7714 63.3V57.486H69.4934V56.136H70.7714V53.652H72.4094V56.136H74.9834V57.486H72.4094ZM78.606 57.738C78.894 57.174 79.302 56.736 79.83 56.424C80.37 56.112 81.024 55.956 81.792 55.956V57.648H81.36C79.524 57.648 78.606 58.644 78.606 60.636V66H76.968V56.136H78.606V57.738ZM92.1789 56.136L86.2389 70.644H84.5469L86.4909 65.892L82.5129 56.136H84.3309L87.4269 64.128L90.4869 56.136H92.1789ZM94.3475 66.108C94.0355 66.108 93.7715 66 93.5555 65.784C93.3395 65.568 93.2315 65.304 93.2315 64.992C93.2315 64.68 93.3395 64.416 93.5555 64.2C93.7715 63.984 94.0355 63.876 94.3475 63.876C94.6475 63.876 94.8995 63.984 95.1035 64.2C95.3195 64.416 95.4275 64.68 95.4275 64.992C95.4275 65.304 95.3195 65.568 95.1035 65.784C94.8995 66 94.6475 66.108 94.3475 66.108ZM104.042 64.668H108.434V66H102.404V53.454H104.042V64.668ZM114.475 66.162C113.551 66.162 112.711 65.952 111.955 65.532C111.211 65.112 110.623 64.518 110.191 63.75C109.771 62.97 109.561 62.07 109.561 61.05C109.561 60.042 109.777 59.154 110.209 58.386C110.653 57.606 111.253 57.012 112.009 56.604C112.765 56.184 113.611 55.974 114.547 55.974C115.483 55.974 116.329 56.184 117.085 56.604C117.841 57.012 118.435 57.6 118.867 58.368C119.311 59.136 119.533 60.03 119.533 61.05C119.533 62.07 119.305 62.97 118.849 63.75C118.405 64.518 117.799 65.112 117.031 65.532C116.263 65.952 115.411 66.162 114.475 66.162ZM114.475 64.722C115.063 64.722 115.615 64.584 116.131 64.308C116.647 64.032 117.061 63.618 117.373 63.066C117.697 62.514 117.859 61.842 117.859 61.05C117.859 60.258 117.703 59.586 117.391 59.034C117.079 58.482 116.671 58.074 116.167 57.81C115.663 57.534 115.117 57.396 114.529 57.396C113.929 57.396 113.377 57.534 112.873 57.81C112.381 58.074 111.985 58.482 111.685 59.034C111.385 59.586 111.235 60.258 111.235 61.05C111.235 61.854 111.379 62.532 111.667 63.084C111.967 63.636 112.363 64.05 112.855 64.326C113.347 64.59 113.887 64.722 114.475 64.722ZM123.325 57.738C123.613 57.174 124.021 56.736 124.549 56.424C125.089 56.112 125.743 55.956 126.511 55.956V57.648H126.079C124.243 57.648 123.325 58.644 123.325 60.636V66H121.687V56.136H123.325V57.738ZM137.402 60.69C137.402 61.002 137.384 61.332 137.348 61.68H129.464C129.524 62.652 129.854 63.414 130.454 63.966C131.066 64.506 131.804 64.776 132.668 64.776C133.376 64.776 133.964 64.614 134.432 64.29C134.912 63.954 135.248 63.51 135.44 62.958H137.204C136.94 63.906 136.412 64.68 135.62 65.28C134.828 65.868 133.844 66.162 132.668 66.162C131.732 66.162 130.892 65.952 130.148 65.532C129.416 65.112 128.84 64.518 128.42 63.75C128 62.97 127.79 62.07 127.79 61.05C127.79 60.03 127.994 59.136 128.402 58.368C128.81 57.6 129.38 57.012 130.112 56.604C130.856 56.184 131.708 55.974 132.668 55.974C133.604 55.974 134.432 56.178 135.152 56.586C135.872 56.994 136.424 57.558 136.808 58.278C137.204 58.986 137.402 59.79 137.402 60.69ZM135.71 60.348C135.71 59.724 135.572 59.19 135.296 58.746C135.02 58.29 134.642 57.948 134.162 57.72C133.694 57.48 133.172 57.36 132.596 57.36C131.768 57.36 131.06 57.624 130.472 58.152C129.896 58.68 129.566 59.412 129.482 60.348H135.71ZM151.426 55.956C152.194 55.956 152.878 56.118 153.478 56.442C154.078 56.754 154.552 57.228 154.9 57.864C155.248 58.5 155.422 59.274 155.422 60.186V66H153.802V60.42C153.802 59.436 153.556 58.686 153.064 58.17C152.584 57.642 151.93 57.378 151.102 57.378C150.25 57.378 149.572 57.654 149.068 58.206C148.564 58.746 148.312 59.532 148.312 60.564V66H146.692V60.42C146.692 59.436 146.446 58.686 145.954 58.17C145.474 57.642 144.82 57.378 143.992 57.378C143.14 57.378 142.462 57.654 141.958 58.206C141.454 58.746 141.202 59.532 141.202 60.564V66H139.564V56.136H141.202V57.558C141.526 57.042 141.958 56.646 142.498 56.37C143.05 56.094 143.656 55.956 144.316 55.956C145.144 55.956 145.876 56.142 146.512 56.514C147.148 56.886 147.622 57.432 147.934 58.152C148.21 57.456 148.666 56.916 149.302 56.532C149.938 56.148 150.646 55.956 151.426 55.956ZM164.545 53.454V66H162.907V53.454H164.545ZM168.975 57.954C169.299 57.39 169.779 56.922 170.415 56.55C171.063 56.166 171.813 55.974 172.665 55.974C173.541 55.974 174.333 56.184 175.041 56.604C175.761 57.024 176.325 57.618 176.733 58.386C177.141 59.142 177.345 60.024 177.345 61.032C177.345 62.028 177.141 62.916 176.733 63.696C176.325 64.476 175.761 65.082 175.041 65.514C174.333 65.946 173.541 66.162 172.665 66.162C171.825 66.162 171.081 65.976 170.433 65.604C169.797 65.22 169.311 64.746 168.975 64.182V70.68H167.337V56.136H168.975V57.954ZM175.671 61.032C175.671 60.288 175.521 59.64 175.221 59.088C174.921 58.536 174.513 58.116 173.997 57.828C173.493 57.54 172.935 57.396 172.323 57.396C171.723 57.396 171.165 57.546 170.649 57.846C170.145 58.134 169.737 58.56 169.425 59.124C169.125 59.676 168.975 60.318 168.975 61.05C168.975 61.794 169.125 62.448 169.425 63.012C169.737 63.564 170.145 63.99 170.649 64.29C171.165 64.578 171.723 64.722 172.323 64.722C172.935 64.722 173.493 64.578 173.997 64.29C174.513 63.99 174.921 63.564 175.221 63.012C175.521 62.448 175.671 61.788 175.671 61.032ZM182.993 66.162C182.237 66.162 181.559 66.036 180.959 65.784C180.359 65.52 179.885 65.16 179.537 64.704C179.189 64.236 178.997 63.702 178.961 63.102H180.653C180.701 63.594 180.929 63.996 181.337 64.308C181.757 64.62 182.303 64.776 182.975 64.776C183.599 64.776 184.091 64.638 184.451 64.362C184.811 64.086 184.991 63.738 184.991 63.318C184.991 62.886 184.799 62.568 184.415 62.364C184.031 62.148 183.437 61.938 182.633 61.734C181.901 61.542 181.301 61.35 180.833 61.158C180.377 60.954 179.981 60.66 179.645 60.276C179.321 59.88 179.159 59.364 179.159 58.728C179.159 58.224 179.309 57.762 179.609 57.342C179.909 56.922 180.335 56.592 180.887 56.352C181.439 56.1 182.069 55.974 182.777 55.974C183.869 55.974 184.751 56.25 185.423 56.802C186.095 57.354 186.455 58.11 186.503 59.07H184.865C184.829 58.554 184.619 58.14 184.235 57.828C183.863 57.516 183.359 57.36 182.723 57.36C182.135 57.36 181.667 57.486 181.319 57.738C180.971 57.99 180.797 58.32 180.797 58.728C180.797 59.052 180.899 59.322 181.103 59.538C181.319 59.742 181.583 59.91 181.895 60.042C182.219 60.162 182.663 60.3 183.227 60.456C183.935 60.648 184.511 60.84 184.955 61.032C185.399 61.212 185.777 61.488 186.089 61.86C186.413 62.232 186.581 62.718 186.593 63.318C186.593 63.858 186.443 64.344 186.143 64.776C185.843 65.208 185.417 65.55 184.865 65.802C184.325 66.042 183.701 66.162 182.993 66.162ZM197.654 56.136V66H196.016V64.542C195.704 65.046 195.266 65.442 194.702 65.73C194.15 66.006 193.538 66.144 192.866 66.144C192.098 66.144 191.408 65.988 190.796 65.676C190.184 65.352 189.698 64.872 189.338 64.236C188.99 63.6 188.816 62.826 188.816 61.914V56.136H190.436V61.698C190.436 62.67 190.682 63.42 191.174 63.948C191.666 64.464 192.338 64.722 193.19 64.722C194.066 64.722 194.756 64.452 195.26 63.912C195.764 63.372 196.016 62.586 196.016 61.554V56.136H197.654ZM212.281 55.956C213.049 55.956 213.733 56.118 214.333 56.442C214.933 56.754 215.407 57.228 215.755 57.864C216.103 58.5 216.277 59.274 216.277 60.186V66H214.657V60.42C214.657 59.436 214.411 58.686 213.919 58.17C213.439 57.642 212.785 57.378 211.957 57.378C211.105 57.378 210.427 57.654 209.923 58.206C209.419 58.746 209.167 59.532 209.167 60.564V66H207.547V60.42C207.547 59.436 207.301 58.686 206.809 58.17C206.329 57.642 205.675 57.378 204.847 57.378C203.995 57.378 203.317 57.654 202.813 58.206C202.309 58.746 202.057 59.532 202.057 60.564V66H200.419V56.136H202.057V57.558C202.381 57.042 202.813 56.646 203.353 56.37C203.905 56.094 204.511 55.956 205.171 55.956C205.999 55.956 206.731 56.142 207.367 56.514C208.003 56.886 208.477 57.432 208.789 58.152C209.065 57.456 209.521 56.916 210.157 56.532C210.793 56.148 211.501 55.956 212.281 55.956ZM228.659 55.956C229.403 55.956 230.075 56.118 230.675 56.442C231.275 56.754 231.743 57.228 232.079 57.864C232.427 58.5 232.601 59.274 232.601 60.186V66H230.981V60.42C230.981 59.436 230.735 58.686 230.243 58.17C229.751 57.642 229.079 57.378 228.227 57.378C227.363 57.378 226.673 57.648 226.157 58.188C225.653 58.728 225.401 59.514 225.401 60.546V66H223.763V52.68H225.401V57.54C225.725 57.036 226.169 56.646 226.733 56.37C227.309 56.094 227.951 55.956 228.659 55.956ZM234.665 61.032C234.665 60.024 234.869 59.142 235.277 58.386C235.685 57.618 236.243 57.024 236.951 56.604C237.671 56.184 238.469 55.974 239.345 55.974C240.209 55.974 240.959 56.16 241.595 56.532C242.231 56.904 242.705 57.372 243.017 57.936V56.136H244.673V66H243.017V64.164C242.693 64.74 242.207 65.22 241.559 65.604C240.923 65.976 240.179 66.162 239.327 66.162C238.451 66.162 237.659 65.946 236.951 65.514C236.243 65.082 235.685 64.476 235.277 63.696C234.869 62.916 234.665 62.028 234.665 61.032ZM243.017 61.05C243.017 60.306 242.867 59.658 242.567 59.106C242.267 58.554 241.859 58.134 241.343 57.846C240.839 57.546 240.281 57.396 239.669 57.396C239.057 57.396 238.499 57.54 237.995 57.828C237.491 58.116 237.089 58.536 236.789 59.088C236.489 59.64 236.339 60.288 236.339 61.032C236.339 61.788 236.489 62.448 236.789 63.012C237.089 63.564 237.491 63.99 237.995 64.29C238.499 64.578 239.057 64.722 239.669 64.722C240.281 64.722 240.839 64.578 241.343 64.29C241.859 63.99 242.267 63.564 242.567 63.012C242.867 62.448 243.017 61.794 243.017 61.05ZM250.933 66.162C250.177 66.162 249.499 66.036 248.899 65.784C248.299 65.52 247.825 65.16 247.477 64.704C247.129 64.236 246.937 63.702 246.901 63.102H248.593C248.641 63.594 248.869 63.996 249.277 64.308C249.697 64.62 250.243 64.776 250.915 64.776C251.539 64.776 252.031 64.638 252.391 64.362C252.751 64.086 252.931 63.738 252.931 63.318C252.931 62.886 252.739 62.568 252.355 62.364C251.971 62.148 251.377 61.938 250.573 61.734C249.841 61.542 249.241 61.35 248.773 61.158C248.317 60.954 247.921 60.66 247.585 60.276C247.261 59.88 247.099 59.364 247.099 58.728C247.099 58.224 247.249 57.762 247.549 57.342C247.849 56.922 248.275 56.592 248.827 56.352C249.379 56.1 250.009 55.974 250.717 55.974C251.809 55.974 252.691 56.25 253.363 56.802C254.035 57.354 254.395 58.11 254.443 59.07H252.805C252.769 58.554 252.559 58.14 252.175 57.828C251.803 57.516 251.299 57.36 250.663 57.36C250.075 57.36 249.607 57.486 249.259 57.738C248.911 57.99 248.737 58.32 248.737 58.728C248.737 59.052 248.839 59.322 249.043 59.538C249.259 59.742 249.523 59.91 249.835 60.042C250.159 60.162 250.603 60.3 251.167 60.456C251.875 60.648 252.451 60.84 252.895 61.032C253.339 61.212 253.717 61.488 254.029 61.86C254.353 62.232 254.521 62.718 254.533 63.318C254.533 63.858 254.383 64.344 254.083 64.776C253.783 65.208 253.357 65.55 252.805 65.802C252.265 66.042 251.641 66.162 250.933 66.162ZM263.282 57.972C263.618 57.384 264.11 56.904 264.758 56.532C265.406 56.16 266.144 55.974 266.972 55.974C267.86 55.974 268.658 56.184 269.366 56.604C270.074 57.024 270.632 57.618 271.04 58.386C271.448 59.142 271.652 60.024 271.652 61.032C271.652 62.028 271.448 62.916 271.04 63.696C270.632 64.476 270.068 65.082 269.348 65.514C268.64 65.946 267.848 66.162 266.972 66.162C266.12 66.162 265.37 65.976 264.722 65.604C264.086 65.232 263.606 64.758 263.282 64.182V66H261.644V52.68H263.282V57.972ZM269.978 61.032C269.978 60.288 269.828 59.64 269.528 59.088C269.228 58.536 268.82 58.116 268.304 57.828C267.8 57.54 267.242 57.396 266.63 57.396C266.03 57.396 265.472 57.546 264.956 57.846C264.452 58.134 264.044 58.56 263.732 59.124C263.432 59.676 263.282 60.318 263.282 61.05C263.282 61.794 263.432 62.448 263.732 63.012C264.044 63.564 264.452 63.99 264.956 64.29C265.472 64.578 266.03 64.722 266.63 64.722C267.242 64.722 267.8 64.578 268.304 64.29C268.82 63.99 269.228 63.564 269.528 63.012C269.828 62.448 269.978 61.788 269.978 61.032ZM282.808 60.69C282.808 61.002 282.79 61.332 282.754 61.68H274.87C274.93 62.652 275.26 63.414 275.86 63.966C276.472 64.506 277.21 64.776 278.074 64.776C278.782 64.776 279.37 64.614 279.838 64.29C280.318 63.954 280.654 63.51 280.846 62.958H282.61C282.346 63.906 281.818 64.68 281.026 65.28C280.234 65.868 279.25 66.162 278.074 66.162C277.138 66.162 276.298 65.952 275.554 65.532C274.822 65.112 274.246 64.518 273.826 63.75C273.406 62.97 273.196 62.07 273.196 61.05C273.196 60.03 273.4 59.136 273.808 58.368C274.216 57.6 274.786 57.012 275.518 56.604C276.262 56.184 277.114 55.974 278.074 55.974C279.01 55.974 279.838 56.178 280.558 56.586C281.278 56.994 281.83 57.558 282.214 58.278C282.61 58.986 282.808 59.79 282.808 60.69ZM281.116 60.348C281.116 59.724 280.978 59.19 280.702 58.746C280.426 58.29 280.048 57.948 279.568 57.72C279.1 57.48 278.578 57.36 278.002 57.36C277.174 57.36 276.466 57.624 275.878 58.152C275.302 58.68 274.972 59.412 274.888 60.348H281.116ZM293.97 60.69C293.97 61.002 293.952 61.332 293.916 61.68H286.032C286.092 62.652 286.422 63.414 287.022 63.966C287.634 64.506 288.372 64.776 289.236 64.776C289.944 64.776 290.532 64.614 291 64.29C291.48 63.954 291.816 63.51 292.008 62.958H293.772C293.508 63.906 292.98 64.68 292.188 65.28C291.396 65.868 290.412 66.162 289.236 66.162C288.3 66.162 287.46 65.952 286.716 65.532C285.984 65.112 285.408 64.518 284.988 63.75C284.568 62.97 284.358 62.07 284.358 61.05C284.358 60.03 284.562 59.136 284.97 58.368C285.378 57.6 285.948 57.012 286.68 56.604C287.424 56.184 288.276 55.974 289.236 55.974C290.172 55.974 291 56.178 291.72 56.586C292.44 56.994 292.992 57.558 293.376 58.278C293.772 58.986 293.97 59.79 293.97 60.69ZM292.278 60.348C292.278 59.724 292.14 59.19 291.864 58.746C291.588 58.29 291.21 57.948 290.73 57.72C290.262 57.48 289.74 57.36 289.164 57.36C288.336 57.36 287.628 57.624 287.04 58.152C286.464 58.68 286.134 59.412 286.05 60.348H292.278ZM300.938 55.956C302.138 55.956 303.11 56.322 303.854 57.054C304.598 57.774 304.97 58.818 304.97 60.186V66H303.35V60.42C303.35 59.436 303.104 58.686 302.612 58.17C302.12 57.642 301.448 57.378 300.596 57.378C299.732 57.378 299.042 57.648 298.526 58.188C298.022 58.728 297.77 59.514 297.77 60.546V66H296.132V56.136H297.77V57.54C298.094 57.036 298.532 56.646 299.084 56.37C299.648 56.094 300.266 55.956 300.938 55.956ZM314.443 57.486V63.3C314.443 63.78 314.545 64.122 314.749 64.326C314.953 64.518 315.307 64.614 315.811 64.614H317.017V66H315.541C314.629 66 313.945 65.79 313.489 65.37C313.033 64.95 312.805 64.26 312.805 63.3V57.486H311.527V56.136H312.805V53.652H314.443V56.136H317.017V57.486H314.443ZM322.889 66.108C322.577 66.108 322.313 66 322.097 65.784C321.881 65.568 321.773 65.304 321.773 64.992C321.773 64.68 321.881 64.416 322.097 64.2C322.313 63.984 322.577 63.876 322.889 63.876C323.189 63.876 323.441 63.984 323.645 64.2C323.861 64.416 323.969 64.68 323.969 64.992C323.969 65.304 323.861 65.568 323.645 65.784C323.441 66 323.189 66.108 322.889 66.108ZM326.273 66.108C325.961 66.108 325.697 66 325.481 65.784C325.265 65.568 325.157 65.304 325.157 64.992C325.157 64.68 325.265 64.416 325.481 64.2C325.697 63.984 325.961 63.876 326.273 63.876C326.573 63.876 326.825 63.984 327.029 64.2C327.245 64.416 327.353 64.68 327.353 64.992C327.353 65.304 327.245 65.568 327.029 65.784C326.825 66 326.573 66.108 326.273 66.108ZM319.523 66.108C319.211 66.108 318.947 66 318.731 65.784C318.515 65.568 318.407 65.304 318.407 64.992C318.407 64.68 318.515 64.416 318.731 64.2C318.947 63.984 319.211 63.876 319.523 63.876C319.823 63.876 320.075 63.984 320.279 64.2C320.495 64.416 320.603 64.68 320.603 64.992C320.603 65.304 320.495 65.568 320.279 65.784C320.075 66 319.823 66.108 319.523 66.108Z" fill="#562C2C" fill-opacity="0.8"/>
</g>
<rect x="0.5" y="0.5" width="347" height="101" rx="4.5" stroke="#9747FF" stroke-dasharray="10 5"/>
<defs>
<clipPath id="clip0_0_4245">
<rect width="348" height="102" rx="5" fill="white"/>
</clipPath>
</defs>
</svg>
