<svg width="76" height="136" viewBox="0 0 76 136" fill="none" xmlns="http://www.w3.org/2000/svg">
<rect x="0.5" y="0.5" width="75" height="135" rx="4.5" stroke="#9747FF" stroke-dasharray="10 5"/>
<rect x="16" y="16" width="44" height="44" rx="22" fill="#F2542D"/>
<path d="M47.7559 43.5087C48.2741 42.4338 48.5284 41.2508 48.4976 40.058C48.4668 38.8651 48.1518 37.6968 47.5788 36.6501C47.0058 35.6034 46.1914 34.7085 45.2031 34.0398C44.2148 33.3711 43.0812 32.9479 41.8965 32.8053C41.5023 31.8887 40.9292 31.0601 40.2107 30.3678C39.4923 29.6755 38.6429 29.1335 37.7124 28.7736C36.7819 28.4137 35.7889 28.243 34.7916 28.2716C33.7943 28.3003 32.8127 28.5276 31.9044 28.9403C30.996 29.353 30.1791 29.9428 29.5016 30.6751C28.824 31.4074 28.2993 32.2676 27.9583 33.2052C27.6174 34.1429 27.4669 35.1391 27.5157 36.1356C27.5645 37.1321 27.8117 38.1089 28.2427 39.0087L27.5612 41.3253C27.485 41.5839 27.4799 41.8582 27.5464 42.1195C27.613 42.3808 27.7487 42.6193 27.9393 42.8099C28.13 43.0005 28.3685 43.1363 28.6297 43.2028C28.891 43.2694 29.1654 43.2643 29.424 43.1881L31.7405 42.5065C32.4844 42.8639 33.2819 43.0967 34.1012 43.1956C34.4992 44.1282 35.0822 44.9704 35.815 45.6713C36.5478 46.3723 37.4151 46.9173 38.3645 47.2735C39.3139 47.6297 40.3256 47.7897 41.3386 47.7438C42.3516 47.698 43.3447 47.4471 44.258 47.0065L46.5746 47.6881C46.8331 47.7642 47.1074 47.7693 47.3685 47.7027C47.6297 47.6362 47.8681 47.5006 48.0587 47.3101C48.2493 47.1196 48.385 46.8812 48.4517 46.6201C48.5183 46.359 48.5134 46.0848 48.4374 45.8262L47.7559 43.5087ZM31.8118 40.9531C31.7401 40.9532 31.6688 40.9633 31.5999 40.9831L28.9993 41.75L29.7652 39.1475C29.8197 38.9594 29.7985 38.7576 29.7062 38.585C29.0277 37.3161 28.8278 35.8457 29.1429 34.4418C29.458 33.0379 30.2671 31.794 31.4227 30.9368C32.5783 30.0796 34.0035 29.6662 35.4384 29.772C36.8733 29.8778 38.2225 30.4957 39.2399 31.5131C40.2573 32.5305 40.8752 33.8797 40.981 35.3146C41.0868 36.7495 40.6734 38.1747 39.8162 39.3303C38.959 40.4859 37.7151 41.295 36.3112 41.6101C34.9073 41.9252 33.4369 41.7253 32.168 41.0468C32.0589 40.9864 31.9365 40.9542 31.8118 40.9531ZM46.2296 43.6465L46.9993 46.25L44.3968 45.484C44.2088 45.4295 44.0069 45.4507 43.8343 45.5431C42.4532 46.2805 40.8387 46.4494 39.3349 46.0137C37.8311 45.578 36.5569 44.5721 35.784 43.2106C36.8109 43.1034 37.8046 42.7852 38.7027 42.2758C39.6008 41.7665 40.384 41.077 41.0031 40.2507C41.6222 39.4244 42.0638 38.4791 42.3003 37.4741C42.5368 36.469 42.5631 35.4259 42.3774 34.4103C43.2722 34.6212 44.1065 35.0348 44.816 35.6194C45.5255 36.2039 46.0912 36.9436 46.4694 37.7814C46.8476 38.6193 47.0283 39.5328 46.9975 40.4516C46.9666 41.3703 46.7251 42.2697 46.2915 43.0803C46.1981 43.2539 46.1769 43.4573 46.2324 43.6465H46.2296Z" fill="white"/>
<rect x="16" y="76" width="44" height="44" rx="22" fill="#CA3E1B"/>
<path d="M47.7559 103.509C48.2741 102.434 48.5284 101.251 48.4976 100.058C48.4668 98.8651 48.1518 97.6968 47.5788 96.6501C47.0058 95.6034 46.1914 94.7085 45.2031 94.0398C44.2148 93.3711 43.0812 92.9479 41.8965 92.8053C41.5023 91.8887 40.9292 91.0601 40.2107 90.3678C39.4923 89.6755 38.6429 89.1335 37.7124 88.7736C36.7819 88.4137 35.7889 88.243 34.7916 88.2716C33.7943 88.3003 32.8127 88.5276 31.9044 88.9403C30.996 89.353 30.1791 89.9428 29.5016 90.6751C28.824 91.4074 28.2993 92.2676 27.9583 93.2052C27.6174 94.1429 27.4669 95.1391 27.5157 96.1356C27.5645 97.1321 27.8117 98.1089 28.2427 99.0087L27.5612 101.325C27.485 101.584 27.4799 101.858 27.5464 102.12C27.613 102.381 27.7487 102.619 27.9393 102.81C28.13 103.001 28.3685 103.136 28.6297 103.203C28.891 103.269 29.1654 103.264 29.424 103.188L31.7405 102.507C32.4844 102.864 33.2819 103.097 34.1012 103.196C34.4992 104.128 35.0822 104.97 35.815 105.671C36.5478 106.372 37.4151 106.917 38.3645 107.274C39.3139 107.63 40.3256 107.79 41.3386 107.744C42.3516 107.698 43.3447 107.447 44.258 107.007L46.5746 107.688C46.8331 107.764 47.1074 107.769 47.3685 107.703C47.6297 107.636 47.8681 107.501 48.0587 107.31C48.2493 107.12 48.385 106.881 48.4517 106.62C48.5183 106.359 48.5134 106.085 48.4374 105.826L47.7559 103.509ZM31.8118 100.953C31.7401 100.953 31.6688 100.963 31.5999 100.983L28.9993 101.75L29.7652 99.1475C29.8197 98.9594 29.7985 98.7576 29.7062 98.585C29.0277 97.3161 28.8278 95.8457 29.1429 94.4418C29.458 93.0379 30.2671 91.794 31.4227 90.9368C32.5783 90.0796 34.0035 89.6662 35.4384 89.772C36.8733 89.8778 38.2225 90.4957 39.2399 91.5131C40.2573 92.5305 40.8752 93.8797 40.981 95.3146C41.0868 96.7495 40.6734 98.1747 39.8162 99.3303C38.959 100.486 37.7151 101.295 36.3112 101.61C34.9073 101.925 33.4369 101.725 32.168 101.047C32.0589 100.986 31.9365 100.954 31.8118 100.953ZM46.2296 103.647L46.9993 106.25L44.3968 105.484C44.2088 105.43 44.0069 105.451 43.8343 105.543C42.4532 106.281 40.8387 106.449 39.3349 106.014C37.8311 105.578 36.5569 104.572 35.784 103.211C36.8109 103.103 37.8046 102.785 38.7027 102.276C39.6008 101.766 40.384 101.077 41.0031 100.251C41.6222 99.4244 42.0638 98.4791 42.3003 97.4741C42.5368 96.469 42.5631 95.4259 42.3774 94.4103C43.2722 94.6212 44.1065 95.0348 44.816 95.6194C45.5255 96.2039 46.0912 96.9436 46.4694 97.7814C46.8476 98.6193 47.0283 99.5328 46.9975 100.452C46.9666 101.37 46.7251 102.27 46.2915 103.08C46.1981 103.254 46.1769 103.457 46.2324 103.647H46.2296Z" fill="white"/>
</svg>
