<svg width="186" height="120" viewBox="0 0 186 120" fill="none" xmlns="http://www.w3.org/2000/svg">
<rect x="0.5" y="0.5" width="185" height="119" rx="4.5" stroke="#9747FF" stroke-dasharray="10 5"/>
<g filter="url(#filter0_d_0_4157)">
<rect x="16.5" y="16.5" width="153" height="31" rx="15.5" stroke="white" stroke-opacity="0.3" shape-rendering="crispEdges"/>
<path d="M37.3366 26.8182V37H35.9247L30.7493 29.5327H30.6548V37H29.1186V26.8182H30.5405L35.7209 34.2955H35.8153V26.8182H37.3366ZM42.6749 37.1541C41.959 37.1541 41.3342 36.9901 40.8006 36.6619C40.267 36.3338 39.8527 35.8748 39.5577 35.2848C39.2627 34.6948 39.1152 34.0054 39.1152 33.2166C39.1152 32.4245 39.2627 31.7318 39.5577 31.1385C39.8527 30.5452 40.267 30.0845 40.8006 29.7564C41.3342 29.4283 41.959 29.2642 42.6749 29.2642C43.3908 29.2642 44.0156 29.4283 44.5492 29.7564C45.0828 30.0845 45.4971 30.5452 45.7921 31.1385C46.0871 31.7318 46.2346 32.4245 46.2346 33.2166C46.2346 34.0054 46.0871 34.6948 45.7921 35.2848C45.4971 35.8748 45.0828 36.3338 44.5492 36.6619C44.0156 36.9901 43.3908 37.1541 42.6749 37.1541ZM42.6799 35.9062C43.1439 35.9062 43.5284 35.7836 43.8333 35.5384C44.1382 35.2931 44.3636 34.9666 44.5094 34.5589C44.6586 34.1513 44.7331 33.7022 44.7331 33.2116C44.7331 32.7244 44.6586 32.277 44.5094 31.8693C44.3636 31.4583 44.1382 31.1286 43.8333 30.88C43.5284 30.6314 43.1439 30.5071 42.6799 30.5071C42.2125 30.5071 41.8248 30.6314 41.5165 30.88C41.2116 31.1286 40.9846 31.4583 40.8354 31.8693C40.6896 32.277 40.6167 32.7244 40.6167 33.2116C40.6167 33.7022 40.6896 34.1513 40.8354 34.5589C40.9846 34.9666 41.2116 35.2931 41.5165 35.5384C41.8248 35.7836 42.2125 35.9062 42.6799 35.9062ZM52.7312 33.8331V29.3636H54.2227V37H52.761V35.6776H52.6815C52.5058 36.0852 52.2241 36.425 51.8363 36.6967C51.4518 36.9652 50.9729 37.0994 50.3995 37.0994C49.909 37.0994 49.4748 36.9917 49.0969 36.7763C48.7224 36.5575 48.4274 36.2344 48.212 35.8068C47.9999 35.3793 47.8938 34.8506 47.8938 34.2209V29.3636H49.3803V34.0419C49.3803 34.5623 49.5245 34.9766 49.8129 35.2848C50.1012 35.593 50.4757 35.7472 50.9364 35.7472C51.2148 35.7472 51.4916 35.6776 51.7667 35.5384C52.0451 35.3991 52.2754 35.1887 52.4577 34.907C52.6433 34.6252 52.7345 34.2673 52.7312 33.8331ZM61.9423 31.228L60.595 31.4666C60.5386 31.2943 60.4492 31.1302 60.3265 30.9744C60.2072 30.8187 60.0448 30.6911 59.8393 30.5916C59.6338 30.4922 59.377 30.4425 59.0687 30.4425C58.6478 30.4425 58.2965 30.5369 58.0147 30.7259C57.733 30.9115 57.5922 31.1518 57.5922 31.4467C57.5922 31.7019 57.6866 31.9074 57.8755 32.0632C58.0645 32.219 58.3694 32.3466 58.7903 32.446L60.0034 32.7244C60.706 32.8868 61.2297 33.1371 61.5744 33.4751C61.9191 33.8132 62.0914 34.2524 62.0914 34.7926C62.0914 35.25 61.9589 35.6577 61.6937 36.0156C61.4319 36.3703 61.0656 36.6487 60.595 36.8509C60.1277 37.053 59.5858 37.1541 58.9693 37.1541C58.1142 37.1541 57.4165 36.9718 56.8762 36.6072C56.336 36.2393 56.0046 35.7173 55.8819 35.0412L57.3187 34.8224C57.4082 35.197 57.5922 35.4804 57.8706 35.6726C58.149 35.8615 58.5119 35.956 58.9593 35.956C59.4466 35.956 59.836 35.8549 60.1277 35.6527C60.4193 35.4472 60.5652 35.197 60.5652 34.902C60.5652 34.6634 60.4757 34.4628 60.2967 34.3004C60.121 34.138 59.8509 34.0154 59.4863 33.9325L58.1937 33.6491C57.4811 33.4867 56.9541 33.2282 56.6127 32.8736C56.2747 32.5189 56.1056 32.0698 56.1056 31.5263C56.1056 31.0755 56.2316 30.6811 56.4835 30.343C56.7354 30.005 57.0834 29.7415 57.5275 29.5526C57.9717 29.3603 58.4804 29.2642 59.0538 29.2642C59.8791 29.2642 60.5287 29.4432 61.0027 29.8011C61.4766 30.1558 61.7898 30.6314 61.9423 31.228ZM76.0069 30.1293H74.4558C74.3961 29.7978 74.2851 29.5062 74.1227 29.2543C73.9603 29.0024 73.7614 28.7886 73.5261 28.6129C73.2908 28.4373 73.0273 28.3047 72.7356 28.2152C72.4473 28.1257 72.1407 28.081 71.8159 28.081C71.2292 28.081 70.7039 28.2285 70.2399 28.5234C69.7792 28.8184 69.4146 29.2509 69.1461 29.821C68.881 30.3911 68.7484 31.0871 68.7484 31.9091C68.7484 32.7377 68.881 33.437 69.1461 34.0071C69.4146 34.5772 69.7808 35.008 70.2449 35.2997C70.7089 35.5914 71.2309 35.7372 71.8109 35.7372C72.1324 35.7372 72.4373 35.6941 72.7257 35.608C73.0173 35.5185 73.2808 35.3875 73.5162 35.2152C73.7515 35.0429 73.9503 34.8324 74.1127 34.5838C74.2785 34.3319 74.3928 34.0436 74.4558 33.7188L76.0069 33.7237C75.9241 34.2242 75.7633 34.6849 75.5247 35.1058C75.2894 35.5234 74.9861 35.8847 74.6149 36.1896C74.247 36.4912 73.8261 36.7249 73.3521 36.8906C72.8781 37.0563 72.3611 37.1392 71.801 37.1392C70.9193 37.1392 70.1338 36.9304 69.4444 36.5128C68.755 36.0919 68.2115 35.4903 67.8137 34.7081C67.4193 33.9259 67.2221 32.9929 67.2221 31.9091C67.2221 30.822 67.421 29.889 67.8187 29.1101C68.2164 28.3279 68.76 27.728 69.4494 27.3104C70.1388 26.8894 70.9226 26.679 71.801 26.679C72.3412 26.679 72.845 26.7569 73.3123 26.9126C73.783 27.0651 74.2056 27.2905 74.5801 27.5888C74.9546 27.8838 75.2645 28.245 75.5098 28.6726C75.755 29.0968 75.9208 29.5824 76.0069 30.1293ZM80.9425 37.1541C80.2266 37.1541 79.6018 36.9901 79.0682 36.6619C78.5346 36.3338 78.1203 35.8748 77.8253 35.2848C77.5303 34.6948 77.3828 34.0054 77.3828 33.2166C77.3828 32.4245 77.5303 31.7318 77.8253 31.1385C78.1203 30.5452 78.5346 30.0845 79.0682 29.7564C79.6018 29.4283 80.2266 29.2642 80.9425 29.2642C81.6584 29.2642 82.2831 29.4283 82.8168 29.7564C83.3504 30.0845 83.7647 30.5452 84.0597 31.1385C84.3546 31.7318 84.5021 32.4245 84.5021 33.2166C84.5021 34.0054 84.3546 34.6948 84.0597 35.2848C83.7647 35.8748 83.3504 36.3338 82.8168 36.6619C82.2831 36.9901 81.6584 37.1541 80.9425 37.1541ZM80.9474 35.9062C81.4115 35.9062 81.7959 35.7836 82.1009 35.5384C82.4058 35.2931 82.6312 34.9666 82.777 34.5589C82.9261 34.1513 83.0007 33.7022 83.0007 33.2116C83.0007 32.7244 82.9261 32.277 82.777 31.8693C82.6312 31.4583 82.4058 31.1286 82.1009 30.88C81.7959 30.6314 81.4115 30.5071 80.9474 30.5071C80.4801 30.5071 80.0923 30.6314 79.7841 30.88C79.4792 31.1286 79.2521 31.4583 79.103 31.8693C78.9571 32.277 78.8842 32.7244 78.8842 33.2116C78.8842 33.7022 78.9571 34.1513 79.103 34.5589C79.2521 34.9666 79.4792 35.2931 79.7841 35.5384C80.0923 35.7836 80.4801 35.9062 80.9474 35.9062ZM87.6479 32.4659V37H86.1614V29.3636H87.5882V30.6065H87.6827C87.8584 30.2022 88.1335 29.8774 88.508 29.6321C88.8858 29.3868 89.3614 29.2642 89.9348 29.2642C90.4552 29.2642 90.9109 29.3736 91.302 29.5923C91.6931 29.8078 91.9964 30.1293 92.2118 30.5568C92.4273 30.9844 92.535 31.513 92.535 32.1428V37H91.0485V32.3217C91.0485 31.7682 90.9043 31.3357 90.6159 31.0241C90.3276 30.7093 89.9315 30.5518 89.4277 30.5518C89.083 30.5518 88.7765 30.6264 88.508 30.7756C88.2428 30.9247 88.0324 31.1435 87.8766 31.4318C87.7241 31.7169 87.6479 32.0616 87.6479 32.4659ZM98.0932 29.3636V30.5568H93.9221V29.3636H98.0932ZM95.0407 27.5341H96.5272V34.7578C96.5272 35.0462 96.5703 35.2633 96.6564 35.4091C96.7426 35.5516 96.8536 35.6494 96.9895 35.7024C97.1287 35.7521 97.2795 35.777 97.4419 35.777C97.5613 35.777 97.6657 35.7687 97.7551 35.7521C97.8446 35.7356 97.9142 35.7223 97.964 35.7124L98.2324 36.9403C98.1462 36.9735 98.0236 37.0066 97.8645 37.0398C97.7054 37.0762 97.5066 37.0961 97.2679 37.0994C96.8768 37.1061 96.5123 37.0365 96.1742 36.8906C95.8361 36.7448 95.5627 36.5194 95.3539 36.2145C95.1451 35.9096 95.0407 35.5268 95.0407 35.0661V27.5341ZM101.96 37.169C101.476 37.169 101.038 37.0795 100.647 36.9006C100.256 36.7183 99.9464 36.4548 99.7177 36.1101C99.4923 35.7654 99.3796 35.3428 99.3796 34.8423C99.3796 34.4115 99.4625 34.0568 99.6282 33.7784C99.7939 33.5 100.018 33.2796 100.299 33.1172C100.581 32.9548 100.896 32.8321 101.244 32.7493C101.592 32.6664 101.947 32.6035 102.308 32.5604C102.765 32.5073 103.136 32.4643 103.422 32.4311C103.707 32.3946 103.914 32.3366 104.043 32.2571C104.172 32.1776 104.237 32.0483 104.237 31.8693V31.8345C104.237 31.4003 104.114 31.0639 103.869 30.8253C103.627 30.5866 103.266 30.4673 102.785 30.4673C102.285 30.4673 101.89 30.5784 101.602 30.8004C101.317 31.0192 101.12 31.2628 101.01 31.5312L99.6133 31.2131C99.779 30.7491 100.021 30.3745 100.339 30.0895C100.661 29.8011 101.03 29.5923 101.448 29.4631C101.865 29.3305 102.305 29.2642 102.765 29.2642C103.07 29.2642 103.393 29.3007 103.735 29.3736C104.079 29.4432 104.401 29.5724 104.699 29.7614C105.001 29.9503 105.248 30.2204 105.44 30.5717C105.632 30.9197 105.728 31.3722 105.728 31.929V37H104.277V35.956H104.217C104.121 36.1482 103.977 36.3371 103.784 36.5227C103.592 36.7083 103.345 36.8625 103.044 36.9851C102.742 37.1077 102.381 37.169 101.96 37.169ZM102.283 35.9759C102.694 35.9759 103.045 35.8946 103.337 35.7322C103.632 35.5698 103.856 35.3577 104.008 35.0959C104.164 34.8307 104.242 34.5473 104.242 34.2457V33.2614C104.189 33.3144 104.086 33.3641 103.934 33.4105C103.784 33.4536 103.614 33.4917 103.422 33.5249C103.229 33.5547 103.042 33.5829 102.86 33.6094C102.677 33.6326 102.525 33.6525 102.402 33.669C102.114 33.7055 101.85 33.7668 101.612 33.853C101.377 33.9392 101.188 34.0634 101.045 34.2259C100.906 34.3849 100.836 34.5971 100.836 34.8622C100.836 35.2301 100.972 35.5085 101.244 35.6974C101.516 35.883 101.862 35.9759 102.283 35.9759ZM110.925 37.1541C110.186 37.1541 109.549 36.9867 109.016 36.652C108.485 36.3139 108.078 35.8482 107.793 35.255C107.508 34.6617 107.365 33.9822 107.365 33.2166C107.365 32.4411 107.511 31.7566 107.803 31.1634C108.094 30.5668 108.505 30.1011 109.036 29.7663C109.566 29.4316 110.191 29.2642 110.91 29.2642C111.49 29.2642 112.007 29.3719 112.461 29.5874C112.915 29.7995 113.281 30.0978 113.56 30.4822C113.842 30.8667 114.009 31.3158 114.062 31.8295H112.615C112.536 31.4716 112.353 31.1634 112.068 30.9048C111.787 30.6463 111.409 30.517 110.935 30.517C110.521 30.517 110.158 30.6264 109.846 30.8452C109.538 31.0606 109.298 31.3688 109.125 31.7699C108.953 32.1676 108.867 32.6383 108.867 33.1818C108.867 33.7386 108.951 34.2192 109.12 34.6236C109.289 35.0279 109.528 35.3411 109.836 35.5632C110.148 35.7853 110.514 35.8963 110.935 35.8963C111.217 35.8963 111.472 35.8449 111.7 35.7422C111.932 35.6361 112.126 35.4853 112.282 35.2898C112.441 35.0942 112.552 34.8589 112.615 34.5838H114.062C114.009 35.0777 113.848 35.5185 113.58 35.9062C113.311 36.294 112.952 36.599 112.501 36.821C112.053 37.0431 111.528 37.1541 110.925 37.1541ZM119.216 29.3636V30.5568H115.045V29.3636H119.216ZM116.164 27.5341H117.65V34.7578C117.65 35.0462 117.693 35.2633 117.779 35.4091C117.866 35.5516 117.977 35.6494 118.113 35.7024C118.252 35.7521 118.403 35.777 118.565 35.777C118.684 35.777 118.789 35.7687 118.878 35.7521C118.968 35.7356 119.037 35.7223 119.087 35.7124L119.355 36.9403C119.269 36.9735 119.147 37.0066 118.988 37.0398C118.828 37.0762 118.63 37.0961 118.391 37.0994C118 37.1061 117.635 37.0365 117.297 36.8906C116.959 36.7448 116.686 36.5194 116.477 36.2145C116.268 35.9096 116.164 35.5268 116.164 35.0661V27.5341ZM124.07 37.1541C123.317 37.1541 122.669 36.9934 122.126 36.6719C121.586 36.3471 121.168 35.8913 120.873 35.3047C120.581 34.7147 120.436 34.0237 120.436 33.2315C120.436 32.4493 120.581 31.7599 120.873 31.1634C121.168 30.5668 121.579 30.1011 122.106 29.7663C122.636 29.4316 123.256 29.2642 123.965 29.2642C124.396 29.2642 124.814 29.3355 125.218 29.478C125.623 29.6205 125.985 29.8442 126.307 30.1491C126.628 30.4541 126.882 30.8501 127.068 31.3374C127.253 31.8213 127.346 32.4096 127.346 33.1023V33.6293H121.276V32.5156H125.889C125.889 32.1245 125.81 31.7782 125.651 31.4766C125.492 31.1716 125.268 30.9313 124.98 30.7557C124.695 30.58 124.36 30.4922 123.975 30.4922C123.558 30.4922 123.193 30.5949 122.882 30.8004C122.573 31.0026 122.335 31.2678 122.166 31.5959C122 31.9207 121.917 32.2737 121.917 32.6548V33.5249C121.917 34.0353 122.007 34.4695 122.186 34.8274C122.368 35.1854 122.621 35.4588 122.946 35.6477C123.271 35.8333 123.651 35.9261 124.085 35.9261C124.366 35.9261 124.623 35.8864 124.855 35.8068C125.087 35.724 125.288 35.6013 125.457 35.4389C125.626 35.2765 125.755 35.076 125.845 34.8374L127.252 35.0909C127.139 35.5052 126.937 35.8681 126.645 36.1797C126.357 36.4879 125.994 36.7282 125.556 36.9006C125.122 37.0696 124.627 37.1541 124.07 37.1541ZM128.995 37V29.3636H130.432V30.5767H130.512C130.651 30.1657 130.896 29.8426 131.248 29.6072C131.602 29.3686 132.003 29.2493 132.451 29.2493C132.543 29.2493 132.653 29.2526 132.779 29.2592C132.908 29.2659 133.009 29.2741 133.082 29.2841V30.706C133.022 30.6894 132.916 30.6712 132.764 30.6513C132.611 30.6281 132.459 30.6165 132.306 30.6165C131.955 30.6165 131.642 30.6911 131.367 30.8402C131.095 30.986 130.88 31.1899 130.721 31.4517C130.561 31.7102 130.482 32.0052 130.482 32.3366V37H128.995Z" fill="white"/>
<path d="M154.199 27.7002V34.2002C154.199 34.3328 154.147 34.46 154.053 34.5537C153.959 34.6475 153.832 34.7002 153.699 34.7002C153.567 34.7002 153.44 34.6475 153.346 34.5537C153.252 34.46 153.199 34.3328 153.199 34.2002V28.9071L146.053 36.0539C145.959 36.1478 145.832 36.2005 145.699 36.2005C145.567 36.2005 145.44 36.1478 145.346 36.0539C145.252 35.9601 145.199 35.8329 145.199 35.7002C145.199 35.5675 145.252 35.4403 145.346 35.3464L152.493 28.2002H147.199C147.067 28.2002 146.94 28.1475 146.846 28.0537C146.752 27.96 146.699 27.8328 146.699 27.7002C146.699 27.5676 146.752 27.4404 146.846 27.3466C146.94 27.2529 147.067 27.2002 147.199 27.2002H153.699C153.832 27.2002 153.959 27.2529 154.053 27.3466C154.147 27.4404 154.199 27.5676 154.199 27.7002Z" fill="white"/>
</g>
<g filter="url(#filter1_d_0_4157)">
<rect x="16" y="68" width="154" height="32" rx="16" fill="#F2542D" shape-rendering="crispEdges"/>
<rect x="16.5" y="68.5" width="153" height="31" rx="15.5" stroke="white" stroke-opacity="0.3" shape-rendering="crispEdges"/>
<path d="M37.3366 78.8182V89H35.9247L30.7493 81.5327H30.6548V89H29.1186V78.8182H30.5405L35.7209 86.2955H35.8153V78.8182H37.3366ZM42.6749 89.1541C41.959 89.1541 41.3342 88.9901 40.8006 88.6619C40.267 88.3338 39.8527 87.8748 39.5577 87.2848C39.2627 86.6948 39.1152 86.0054 39.1152 85.2166C39.1152 84.4245 39.2627 83.7318 39.5577 83.1385C39.8527 82.5452 40.267 82.0845 40.8006 81.7564C41.3342 81.4283 41.959 81.2642 42.6749 81.2642C43.3908 81.2642 44.0156 81.4283 44.5492 81.7564C45.0828 82.0845 45.4971 82.5452 45.7921 83.1385C46.0871 83.7318 46.2346 84.4245 46.2346 85.2166C46.2346 86.0054 46.0871 86.6948 45.7921 87.2848C45.4971 87.8748 45.0828 88.3338 44.5492 88.6619C44.0156 88.9901 43.3908 89.1541 42.6749 89.1541ZM42.6799 87.9062C43.1439 87.9062 43.5284 87.7836 43.8333 87.5384C44.1382 87.2931 44.3636 86.9666 44.5094 86.5589C44.6586 86.1513 44.7331 85.7022 44.7331 85.2116C44.7331 84.7244 44.6586 84.277 44.5094 83.8693C44.3636 83.4583 44.1382 83.1286 43.8333 82.88C43.5284 82.6314 43.1439 82.5071 42.6799 82.5071C42.2125 82.5071 41.8248 82.6314 41.5165 82.88C41.2116 83.1286 40.9846 83.4583 40.8354 83.8693C40.6896 84.277 40.6167 84.7244 40.6167 85.2116C40.6167 85.7022 40.6896 86.1513 40.8354 86.5589C40.9846 86.9666 41.2116 87.2931 41.5165 87.5384C41.8248 87.7836 42.2125 87.9062 42.6799 87.9062ZM52.7312 85.8331V81.3636H54.2227V89H52.761V87.6776H52.6815C52.5058 88.0852 52.2241 88.425 51.8363 88.6967C51.4518 88.9652 50.9729 89.0994 50.3995 89.0994C49.909 89.0994 49.4748 88.9917 49.0969 88.7763C48.7224 88.5575 48.4274 88.2344 48.212 87.8068C47.9999 87.3793 47.8938 86.8506 47.8938 86.2209V81.3636H49.3803V86.0419C49.3803 86.5623 49.5245 86.9766 49.8129 87.2848C50.1012 87.593 50.4757 87.7472 50.9364 87.7472C51.2148 87.7472 51.4916 87.6776 51.7667 87.5384C52.0451 87.3991 52.2754 87.1887 52.4577 86.907C52.6433 86.6252 52.7345 86.2673 52.7312 85.8331ZM61.9423 83.228L60.595 83.4666C60.5386 83.2943 60.4492 83.1302 60.3265 82.9744C60.2072 82.8187 60.0448 82.6911 59.8393 82.5916C59.6338 82.4922 59.377 82.4425 59.0687 82.4425C58.6478 82.4425 58.2965 82.5369 58.0147 82.7259C57.733 82.9115 57.5922 83.1518 57.5922 83.4467C57.5922 83.7019 57.6866 83.9074 57.8755 84.0632C58.0645 84.219 58.3694 84.3466 58.7903 84.446L60.0034 84.7244C60.706 84.8868 61.2297 85.1371 61.5744 85.4751C61.9191 85.8132 62.0914 86.2524 62.0914 86.7926C62.0914 87.25 61.9589 87.6577 61.6937 88.0156C61.4319 88.3703 61.0656 88.6487 60.595 88.8509C60.1277 89.053 59.5858 89.1541 58.9693 89.1541C58.1142 89.1541 57.4165 88.9718 56.8762 88.6072C56.336 88.2393 56.0046 87.7173 55.8819 87.0412L57.3187 86.8224C57.4082 87.197 57.5922 87.4804 57.8706 87.6726C58.149 87.8615 58.5119 87.956 58.9593 87.956C59.4466 87.956 59.836 87.8549 60.1277 87.6527C60.4193 87.4472 60.5652 87.197 60.5652 86.902C60.5652 86.6634 60.4757 86.4628 60.2967 86.3004C60.121 86.138 59.8509 86.0154 59.4863 85.9325L58.1937 85.6491C57.4811 85.4867 56.9541 85.2282 56.6127 84.8736C56.2747 84.5189 56.1056 84.0698 56.1056 83.5263C56.1056 83.0755 56.2316 82.6811 56.4835 82.343C56.7354 82.005 57.0834 81.7415 57.5275 81.5526C57.9717 81.3603 58.4804 81.2642 59.0538 81.2642C59.8791 81.2642 60.5287 81.4432 61.0027 81.8011C61.4766 82.1558 61.7898 82.6314 61.9423 83.228ZM76.0069 82.1293H74.4558C74.3961 81.7978 74.2851 81.5062 74.1227 81.2543C73.9603 81.0024 73.7614 80.7886 73.5261 80.6129C73.2908 80.4373 73.0273 80.3047 72.7356 80.2152C72.4473 80.1257 72.1407 80.081 71.8159 80.081C71.2292 80.081 70.7039 80.2285 70.2399 80.5234C69.7792 80.8184 69.4146 81.2509 69.1461 81.821C68.881 82.3911 68.7484 83.0871 68.7484 83.9091C68.7484 84.7377 68.881 85.437 69.1461 86.0071C69.4146 86.5772 69.7808 87.008 70.2449 87.2997C70.7089 87.5914 71.2309 87.7372 71.8109 87.7372C72.1324 87.7372 72.4373 87.6941 72.7257 87.608C73.0173 87.5185 73.2808 87.3875 73.5162 87.2152C73.7515 87.0429 73.9503 86.8324 74.1127 86.5838C74.2785 86.3319 74.3928 86.0436 74.4558 85.7188L76.0069 85.7237C75.9241 86.2242 75.7633 86.6849 75.5247 87.1058C75.2894 87.5234 74.9861 87.8847 74.6149 88.1896C74.247 88.4912 73.8261 88.7249 73.3521 88.8906C72.8781 89.0563 72.3611 89.1392 71.801 89.1392C70.9193 89.1392 70.1338 88.9304 69.4444 88.5128C68.755 88.0919 68.2115 87.4903 67.8137 86.7081C67.4193 85.9259 67.2221 84.9929 67.2221 83.9091C67.2221 82.822 67.421 81.889 67.8187 81.1101C68.2164 80.3279 68.76 79.728 69.4494 79.3104C70.1388 78.8894 70.9226 78.679 71.801 78.679C72.3412 78.679 72.845 78.7569 73.3123 78.9126C73.783 79.0651 74.2056 79.2905 74.5801 79.5888C74.9546 79.8838 75.2645 80.245 75.5098 80.6726C75.755 81.0968 75.9208 81.5824 76.0069 82.1293ZM80.9425 89.1541C80.2266 89.1541 79.6018 88.9901 79.0682 88.6619C78.5346 88.3338 78.1203 87.8748 77.8253 87.2848C77.5303 86.6948 77.3828 86.0054 77.3828 85.2166C77.3828 84.4245 77.5303 83.7318 77.8253 83.1385C78.1203 82.5452 78.5346 82.0845 79.0682 81.7564C79.6018 81.4283 80.2266 81.2642 80.9425 81.2642C81.6584 81.2642 82.2831 81.4283 82.8168 81.7564C83.3504 82.0845 83.7647 82.5452 84.0597 83.1385C84.3546 83.7318 84.5021 84.4245 84.5021 85.2166C84.5021 86.0054 84.3546 86.6948 84.0597 87.2848C83.7647 87.8748 83.3504 88.3338 82.8168 88.6619C82.2831 88.9901 81.6584 89.1541 80.9425 89.1541ZM80.9474 87.9062C81.4115 87.9062 81.7959 87.7836 82.1009 87.5384C82.4058 87.2931 82.6312 86.9666 82.777 86.5589C82.9261 86.1513 83.0007 85.7022 83.0007 85.2116C83.0007 84.7244 82.9261 84.277 82.777 83.8693C82.6312 83.4583 82.4058 83.1286 82.1009 82.88C81.7959 82.6314 81.4115 82.5071 80.9474 82.5071C80.4801 82.5071 80.0923 82.6314 79.7841 82.88C79.4792 83.1286 79.2521 83.4583 79.103 83.8693C78.9571 84.277 78.8842 84.7244 78.8842 85.2116C78.8842 85.7022 78.9571 86.1513 79.103 86.5589C79.2521 86.9666 79.4792 87.2931 79.7841 87.5384C80.0923 87.7836 80.4801 87.9062 80.9474 87.9062ZM87.6479 84.4659V89H86.1614V81.3636H87.5882V82.6065H87.6827C87.8584 82.2022 88.1335 81.8774 88.508 81.6321C88.8858 81.3868 89.3614 81.2642 89.9348 81.2642C90.4552 81.2642 90.9109 81.3736 91.302 81.5923C91.6931 81.8078 91.9964 82.1293 92.2118 82.5568C92.4273 82.9844 92.535 83.513 92.535 84.1428V89H91.0485V84.3217C91.0485 83.7682 90.9043 83.3357 90.6159 83.0241C90.3276 82.7093 89.9315 82.5518 89.4277 82.5518C89.083 82.5518 88.7765 82.6264 88.508 82.7756C88.2428 82.9247 88.0324 83.1435 87.8766 83.4318C87.7241 83.7169 87.6479 84.0616 87.6479 84.4659ZM98.0932 81.3636V82.5568H93.9221V81.3636H98.0932ZM95.0407 79.5341H96.5272V86.7578C96.5272 87.0462 96.5703 87.2633 96.6564 87.4091C96.7426 87.5516 96.8536 87.6494 96.9895 87.7024C97.1287 87.7521 97.2795 87.777 97.4419 87.777C97.5613 87.777 97.6657 87.7687 97.7551 87.7521C97.8446 87.7356 97.9142 87.7223 97.964 87.7124L98.2324 88.9403C98.1462 88.9735 98.0236 89.0066 97.8645 89.0398C97.7054 89.0762 97.5066 89.0961 97.2679 89.0994C96.8768 89.1061 96.5123 89.0365 96.1742 88.8906C95.8361 88.7448 95.5627 88.5194 95.3539 88.2145C95.1451 87.9096 95.0407 87.5268 95.0407 87.0661V79.5341ZM101.96 89.169C101.476 89.169 101.038 89.0795 100.647 88.9006C100.256 88.7183 99.9464 88.4548 99.7177 88.1101C99.4923 87.7654 99.3796 87.3428 99.3796 86.8423C99.3796 86.4115 99.4625 86.0568 99.6282 85.7784C99.7939 85.5 100.018 85.2796 100.299 85.1172C100.581 84.9548 100.896 84.8321 101.244 84.7493C101.592 84.6664 101.947 84.6035 102.308 84.5604C102.765 84.5073 103.136 84.4643 103.422 84.4311C103.707 84.3946 103.914 84.3366 104.043 84.2571C104.172 84.1776 104.237 84.0483 104.237 83.8693V83.8345C104.237 83.4003 104.114 83.0639 103.869 82.8253C103.627 82.5866 103.266 82.4673 102.785 82.4673C102.285 82.4673 101.89 82.5784 101.602 82.8004C101.317 83.0192 101.12 83.2628 101.01 83.5312L99.6133 83.2131C99.779 82.7491 100.021 82.3745 100.339 82.0895C100.661 81.8011 101.03 81.5923 101.448 81.4631C101.865 81.3305 102.305 81.2642 102.765 81.2642C103.07 81.2642 103.393 81.3007 103.735 81.3736C104.079 81.4432 104.401 81.5724 104.699 81.7614C105.001 81.9503 105.248 82.2204 105.44 82.5717C105.632 82.9197 105.728 83.3722 105.728 83.929V89H104.277V87.956H104.217C104.121 88.1482 103.977 88.3371 103.784 88.5227C103.592 88.7083 103.345 88.8625 103.044 88.9851C102.742 89.1077 102.381 89.169 101.96 89.169ZM102.283 87.9759C102.694 87.9759 103.045 87.8946 103.337 87.7322C103.632 87.5698 103.856 87.3577 104.008 87.0959C104.164 86.8307 104.242 86.5473 104.242 86.2457V85.2614C104.189 85.3144 104.086 85.3641 103.934 85.4105C103.784 85.4536 103.614 85.4917 103.422 85.5249C103.229 85.5547 103.042 85.5829 102.86 85.6094C102.677 85.6326 102.525 85.6525 102.402 85.669C102.114 85.7055 101.85 85.7668 101.612 85.853C101.377 85.9392 101.188 86.0634 101.045 86.2259C100.906 86.3849 100.836 86.5971 100.836 86.8622C100.836 87.2301 100.972 87.5085 101.244 87.6974C101.516 87.883 101.862 87.9759 102.283 87.9759ZM110.925 89.1541C110.186 89.1541 109.549 88.9867 109.016 88.652C108.485 88.3139 108.078 87.8482 107.793 87.255C107.508 86.6617 107.365 85.9822 107.365 85.2166C107.365 84.4411 107.511 83.7566 107.803 83.1634C108.094 82.5668 108.505 82.1011 109.036 81.7663C109.566 81.4316 110.191 81.2642 110.91 81.2642C111.49 81.2642 112.007 81.3719 112.461 81.5874C112.915 81.7995 113.281 82.0978 113.56 82.4822C113.842 82.8667 114.009 83.3158 114.062 83.8295H112.615C112.536 83.4716 112.353 83.1634 112.068 82.9048C111.787 82.6463 111.409 82.517 110.935 82.517C110.521 82.517 110.158 82.6264 109.846 82.8452C109.538 83.0606 109.298 83.3688 109.125 83.7699C108.953 84.1676 108.867 84.6383 108.867 85.1818C108.867 85.7386 108.951 86.2192 109.12 86.6236C109.289 87.0279 109.528 87.3411 109.836 87.5632C110.148 87.7853 110.514 87.8963 110.935 87.8963C111.217 87.8963 111.472 87.8449 111.7 87.7422C111.932 87.6361 112.126 87.4853 112.282 87.2898C112.441 87.0942 112.552 86.8589 112.615 86.5838H114.062C114.009 87.0777 113.848 87.5185 113.58 87.9062C113.311 88.294 112.952 88.599 112.501 88.821C112.053 89.0431 111.528 89.1541 110.925 89.1541ZM119.216 81.3636V82.5568H115.045V81.3636H119.216ZM116.164 79.5341H117.65V86.7578C117.65 87.0462 117.693 87.2633 117.779 87.4091C117.866 87.5516 117.977 87.6494 118.113 87.7024C118.252 87.7521 118.403 87.777 118.565 87.777C118.684 87.777 118.789 87.7687 118.878 87.7521C118.968 87.7356 119.037 87.7223 119.087 87.7124L119.355 88.9403C119.269 88.9735 119.147 89.0066 118.988 89.0398C118.828 89.0762 118.63 89.0961 118.391 89.0994C118 89.1061 117.635 89.0365 117.297 88.8906C116.959 88.7448 116.686 88.5194 116.477 88.2145C116.268 87.9096 116.164 87.5268 116.164 87.0661V79.5341ZM124.07 89.1541C123.317 89.1541 122.669 88.9934 122.126 88.6719C121.586 88.3471 121.168 87.8913 120.873 87.3047C120.581 86.7147 120.436 86.0237 120.436 85.2315C120.436 84.4493 120.581 83.7599 120.873 83.1634C121.168 82.5668 121.579 82.1011 122.106 81.7663C122.636 81.4316 123.256 81.2642 123.965 81.2642C124.396 81.2642 124.814 81.3355 125.218 81.478C125.623 81.6205 125.985 81.8442 126.307 82.1491C126.628 82.4541 126.882 82.8501 127.068 83.3374C127.253 83.8213 127.346 84.4096 127.346 85.1023V85.6293H121.276V84.5156H125.889C125.889 84.1245 125.81 83.7782 125.651 83.4766C125.492 83.1716 125.268 82.9313 124.98 82.7557C124.695 82.58 124.36 82.4922 123.975 82.4922C123.558 82.4922 123.193 82.5949 122.882 82.8004C122.573 83.0026 122.335 83.2678 122.166 83.5959C122 83.9207 121.917 84.2737 121.917 84.6548V85.5249C121.917 86.0353 122.007 86.4695 122.186 86.8274C122.368 87.1854 122.621 87.4588 122.946 87.6477C123.271 87.8333 123.651 87.9261 124.085 87.9261C124.366 87.9261 124.623 87.8864 124.855 87.8068C125.087 87.724 125.288 87.6013 125.457 87.4389C125.626 87.2765 125.755 87.076 125.845 86.8374L127.252 87.0909C127.139 87.5052 126.937 87.8681 126.645 88.1797C126.357 88.4879 125.994 88.7282 125.556 88.9006C125.122 89.0696 124.627 89.1541 124.07 89.1541ZM128.995 89V81.3636H130.432V82.5767H130.512C130.651 82.1657 130.896 81.8426 131.248 81.6072C131.602 81.3686 132.003 81.2493 132.451 81.2493C132.543 81.2493 132.653 81.2526 132.779 81.2592C132.908 81.2659 133.009 81.2741 133.082 81.2841V82.706C133.022 82.6894 132.916 82.6712 132.764 82.6513C132.611 82.6281 132.459 82.6165 132.306 82.6165C131.955 82.6165 131.642 82.6911 131.367 82.8402C131.095 82.986 130.88 83.1899 130.721 83.4517C130.561 83.7102 130.482 84.0052 130.482 84.3366V89H128.995Z" fill="white"/>
<path d="M154.199 79.7002V86.2002C154.199 86.3328 154.147 86.46 154.053 86.5537C153.959 86.6475 153.832 86.7002 153.699 86.7002C153.567 86.7002 153.44 86.6475 153.346 86.5537C153.252 86.46 153.199 86.3328 153.199 86.2002V80.9071L146.053 88.0539C145.959 88.1478 145.832 88.2005 145.699 88.2005C145.567 88.2005 145.44 88.1478 145.346 88.0539C145.252 87.9601 145.199 87.8329 145.199 87.7002C145.199 87.5675 145.252 87.4403 145.346 87.3464L152.493 80.2002H147.199C147.067 80.2002 146.94 80.1475 146.846 80.0537C146.752 79.96 146.699 79.8328 146.699 79.7002C146.699 79.5676 146.752 79.4404 146.846 79.3466C146.94 79.2529 147.067 79.2002 147.199 79.2002H153.699C153.832 79.2002 153.959 79.2529 154.053 79.3466C154.147 79.4404 154.199 79.5676 154.199 79.7002Z" fill="white"/>
</g>
<defs>
<filter id="filter0_d_0_4157" x="6" y="6" width="174" height="52" filterUnits="userSpaceOnUse" color-interpolation-filters="sRGB">
<feFlood flood-opacity="0" result="BackgroundImageFix"/>
<feColorMatrix in="SourceAlpha" type="matrix" values="0 0 0 0 0 0 0 0 0 0 0 0 0 0 0 0 0 0 127 0" result="hardAlpha"/>
<feOffset/>
<feGaussianBlur stdDeviation="5"/>
<feComposite in2="hardAlpha" operator="out"/>
<feColorMatrix type="matrix" values="0 0 0 0 0 0 0 0 0 0 0 0 0 0 0 0 0 0 0.05 0"/>
<feBlend mode="normal" in2="BackgroundImageFix" result="effect1_dropShadow_0_4157"/>
<feBlend mode="normal" in="SourceGraphic" in2="effect1_dropShadow_0_4157" result="shape"/>
</filter>
<filter id="filter1_d_0_4157" x="6" y="58" width="174" height="52" filterUnits="userSpaceOnUse" color-interpolation-filters="sRGB">
<feFlood flood-opacity="0" result="BackgroundImageFix"/>
<feColorMatrix in="SourceAlpha" type="matrix" values="0 0 0 0 0 0 0 0 0 0 0 0 0 0 0 0 0 0 127 0" result="hardAlpha"/>
<feOffset/>
<feGaussianBlur stdDeviation="5"/>
<feComposite in2="hardAlpha" operator="out"/>
<feColorMatrix type="matrix" values="0 0 0 0 0 0 0 0 0 0 0 0 0 0 0 0 0 0 0.05 0"/>
<feBlend mode="normal" in2="BackgroundImageFix" result="effect1_dropShadow_0_4157"/>
<feBlend mode="normal" in="SourceGraphic" in2="effect1_dropShadow_0_4157" result="shape"/>
</filter>
</defs>
</svg>
