<svg width="60" height="98" viewBox="0 0 60 98" fill="none" xmlns="http://www.w3.org/2000/svg">
<rect x="0.5" y="1" width="59" height="96" rx="4.5" stroke="#9747FF" stroke-dasharray="10 5"/>
<path d="M41.375 29.625H40.4628C40.2528 27.1525 39.1753 24.8339 37.4207 23.0793C35.6661 21.3247 33.3475 20.2472 30.875 20.0372V19.125C30.875 18.8929 30.7828 18.6704 30.6187 18.5063C30.4546 18.3422 30.2321 18.25 30 18.25C29.7679 18.25 29.5454 18.3422 29.3813 18.5063C29.2172 18.6704 29.125 18.8929 29.125 19.125V20.0372C26.6525 20.2472 24.3339 21.3247 22.5793 23.0793C20.8247 24.8339 19.7472 27.1525 19.5372 29.625H18.625C18.3929 29.625 18.1704 29.7172 18.0063 29.8813C17.8422 30.0454 17.75 30.2679 17.75 30.5C17.75 30.7321 17.8422 30.9546 18.0063 31.1187C18.1704 31.2828 18.3929 31.375 18.625 31.375H19.5372C19.7472 33.8475 20.8247 36.1661 22.5793 37.9207C24.3339 39.6753 26.6525 40.7528 29.125 40.9628V41.875C29.125 42.1071 29.2172 42.3296 29.3813 42.4937C29.5454 42.6578 29.7679 42.75 30 42.75C30.2321 42.75 30.4546 42.6578 30.6187 42.4937C30.7828 42.3296 30.875 42.1071 30.875 41.875V40.9628C33.3475 40.7528 35.6661 39.6753 37.4207 37.9207C39.1753 36.1661 40.2528 33.8475 40.4628 31.375H41.375C41.6071 31.375 41.8296 31.2828 41.9937 31.1187C42.1578 30.9546 42.25 30.7321 42.25 30.5C42.25 30.2679 42.1578 30.0454 41.9937 29.8813C41.8296 29.7172 41.6071 29.625 41.375 29.625ZM37.875 31.375H38.7063C38.5014 33.3822 37.6106 35.2573 36.1839 36.6839C34.7573 38.1106 32.8822 39.0014 30.875 39.2063V38.375C30.875 38.1429 30.7828 37.9204 30.6187 37.7563C30.4546 37.5922 30.2321 37.5 30 37.5C29.7679 37.5 29.5454 37.5922 29.3813 37.7563C29.2172 37.9204 29.125 38.1429 29.125 38.375V39.2063C27.1178 39.0014 25.2427 38.1106 23.8161 36.6839C22.3894 35.2573 21.4986 33.3822 21.2938 31.375H22.125C22.3571 31.375 22.5796 31.2828 22.7437 31.1187C22.9078 30.9546 23 30.7321 23 30.5C23 30.2679 22.9078 30.0454 22.7437 29.8813C22.5796 29.7172 22.3571 29.625 22.125 29.625H21.2938C21.4986 27.6178 22.3894 25.7427 23.8161 24.3161C25.2427 22.8894 27.1178 21.9986 29.125 21.7938V22.625C29.125 22.8571 29.2172 23.0796 29.3813 23.2437C29.5454 23.4078 29.7679 23.5 30 23.5C30.2321 23.5 30.4546 23.4078 30.6187 23.2437C30.7828 23.0796 30.875 22.8571 30.875 22.625V21.7938C32.8822 21.9986 34.7573 22.8894 36.1839 24.3161C37.6106 25.7427 38.5014 27.6178 38.7063 29.625H37.875C37.6429 29.625 37.4204 29.7172 37.2563 29.8813C37.0922 30.0454 37 30.2679 37 30.5C37 30.7321 37.0922 30.9546 37.2563 31.1187C37.4204 31.2828 37.6429 31.375 37.875 31.375ZM34.375 30.5C34.375 31.3653 34.1184 32.2112 33.6377 32.9306C33.1569 33.6501 32.4737 34.2108 31.6742 34.542C30.8748 34.8731 29.9951 34.9597 29.1465 34.7909C28.2978 34.6221 27.5183 34.2054 26.9064 33.5936C26.2946 32.9817 25.8779 32.2022 25.7091 31.3535C25.5403 30.5049 25.6269 29.6252 25.958 28.8258C26.2892 28.0263 26.8499 27.3431 27.5694 26.8623C28.2888 26.3816 29.1347 26.125 30 26.125C31.1603 26.125 32.2731 26.5859 33.0936 27.4064C33.9141 28.2269 34.375 29.3397 34.375 30.5Z" fill="#F0F0F0"/>
<path d="M41.375 66.625H40.4628C40.2528 64.1525 39.1753 61.8339 37.4207 60.0793C35.6661 58.3247 33.3475 57.2472 30.875 57.0372V56.125C30.875 55.8929 30.7828 55.6704 30.6187 55.5063C30.4546 55.3422 30.2321 55.25 30 55.25C29.7679 55.25 29.5454 55.3422 29.3813 55.5063C29.2172 55.6704 29.125 55.8929 29.125 56.125V57.0372C26.6525 57.2472 24.3339 58.3247 22.5793 60.0793C20.8247 61.8339 19.7472 64.1525 19.5372 66.625H18.625C18.3929 66.625 18.1704 66.7172 18.0063 66.8813C17.8422 67.0454 17.75 67.2679 17.75 67.5C17.75 67.7321 17.8422 67.9546 18.0063 68.1187C18.1704 68.2828 18.3929 68.375 18.625 68.375H19.5372C19.7472 70.8475 20.8247 73.1661 22.5793 74.9207C24.3339 76.6753 26.6525 77.7528 29.125 77.9628V78.875C29.125 79.1071 29.2172 79.3296 29.3813 79.4937C29.5454 79.6578 29.7679 79.75 30 79.75C30.2321 79.75 30.4546 79.6578 30.6187 79.4937C30.7828 79.3296 30.875 79.1071 30.875 78.875V77.9628C33.3475 77.7528 35.6661 76.6753 37.4207 74.9207C39.1753 73.1661 40.2528 70.8475 40.4628 68.375H41.375C41.6071 68.375 41.8296 68.2828 41.9937 68.1187C42.1578 67.9546 42.25 67.7321 42.25 67.5C42.25 67.2679 42.1578 67.0454 41.9937 66.8813C41.8296 66.7172 41.6071 66.625 41.375 66.625ZM37.875 68.375H38.7063C38.5014 70.3822 37.6106 72.2573 36.1839 73.6839C34.7573 75.1106 32.8822 76.0014 30.875 76.2063V75.375C30.875 75.1429 30.7828 74.9204 30.6187 74.7563C30.4546 74.5922 30.2321 74.5 30 74.5C29.7679 74.5 29.5454 74.5922 29.3813 74.7563C29.2172 74.9204 29.125 75.1429 29.125 75.375V76.2063C27.1178 76.0014 25.2427 75.1106 23.8161 73.6839C22.3894 72.2573 21.4986 70.3822 21.2938 68.375H22.125C22.3571 68.375 22.5796 68.2828 22.7437 68.1187C22.9078 67.9546 23 67.7321 23 67.5C23 67.2679 22.9078 67.0454 22.7437 66.8813C22.5796 66.7172 22.3571 66.625 22.125 66.625H21.2938C21.4986 64.6178 22.3894 62.7427 23.8161 61.3161C25.2427 59.8894 27.1178 58.9986 29.125 58.7938V59.625C29.125 59.8571 29.2172 60.0796 29.3813 60.2437C29.5454 60.4078 29.7679 60.5 30 60.5C30.2321 60.5 30.4546 60.4078 30.6187 60.2437C30.7828 60.0796 30.875 59.8571 30.875 59.625V58.7938C32.8822 58.9986 34.7573 59.8894 36.1839 61.3161C37.6106 62.7427 38.5014 64.6178 38.7063 66.625H37.875C37.6429 66.625 37.4204 66.7172 37.2563 66.8813C37.0922 67.0454 37 67.2679 37 67.5C37 67.7321 37.0922 67.9546 37.2563 68.1187C37.4204 68.2828 37.6429 68.375 37.875 68.375ZM34.375 67.5C34.375 68.3653 34.1184 69.2112 33.6377 69.9306C33.1569 70.6501 32.4737 71.2108 31.6742 71.542C30.8748 71.8731 29.9951 71.9597 29.1465 71.7909C28.2978 71.6221 27.5183 71.2054 26.9064 70.5936C26.2946 69.9817 25.8779 69.2022 25.7091 68.3535C25.5403 67.5049 25.6269 66.6252 25.958 65.8258C26.2892 65.0263 26.8499 64.3431 27.5694 63.8623C28.2888 63.3816 29.1347 63.125 30 63.125C31.1603 63.125 32.2731 63.5859 33.0936 64.4064C33.9141 65.2269 34.375 66.3397 34.375 67.5Z" fill="#F2542D"/>
</svg>
