<svg width="198" height="108" viewBox="0 0 198 108" fill="none" xmlns="http://www.w3.org/2000/svg">
<rect x="0.5" y="0.5" width="197" height="107" rx="4.5" stroke="#9747FF" stroke-dasharray="10 5"/>
<path d="M20.66 25.72V30H25.86V31.76H20.66V36.14H26.46V38H18.38V23.88H26.46V25.72H20.66ZM34.833 26.8C36.113 26.8 37.1396 27.2133 37.913 28.04C38.6863 28.8667 39.073 30.0467 39.073 31.58V38H36.793V31.82C36.793 30.8333 36.5396 30.0733 36.033 29.54C35.5263 28.9933 34.833 28.72 33.953 28.72C33.0463 28.72 32.3196 29.0133 31.773 29.6C31.2263 30.1733 30.953 31.02 30.953 32.14V38H28.673V26.98H30.953V29.4C31.2463 28.5733 31.7396 27.9333 32.433 27.48C33.1263 27.0267 33.9263 26.8 34.833 26.8ZM55.7069 34.24C55.7069 34.9333 55.5402 35.58 55.2069 36.18C54.8735 36.7667 54.3669 37.24 53.6869 37.6C53.0069 37.96 52.1735 38.14 51.1869 38.14C50.2269 38.14 49.3669 37.9733 48.6069 37.64C47.8469 37.2933 47.2402 36.8133 46.7869 36.2C46.3335 35.5867 46.0735 34.88 46.0069 34.08H48.4469C48.5135 34.6933 48.7735 35.22 49.2269 35.66C49.6935 36.1 50.3135 36.32 51.0869 36.32C51.7802 36.32 52.3135 36.1333 52.6869 35.76C53.0735 35.3867 53.2669 34.9067 53.2669 34.32C53.2669 33.8133 53.1269 33.4 52.8469 33.08C52.5669 32.7467 52.2202 32.4867 51.8069 32.3C51.3935 32.1133 50.8269 31.9 50.1069 31.66C49.2269 31.38 48.5069 31.1 47.9469 30.82C47.4002 30.54 46.9335 30.1333 46.5469 29.6C46.1602 29.0667 45.9669 28.3667 45.9669 27.5C45.9669 26.74 46.1535 26.0733 46.5269 25.5C46.9002 24.9267 47.4335 24.4867 48.1269 24.18C48.8202 23.86 49.6202 23.7 50.5269 23.7C51.9669 23.7 53.1069 24.0467 53.9469 24.74C54.8002 25.4333 55.2869 26.34 55.4069 27.46H52.9469C52.8535 26.9267 52.6002 26.4733 52.1869 26.1C51.7869 25.7133 51.2335 25.52 50.5269 25.52C49.8869 25.52 49.3735 25.6867 48.9869 26.02C48.6002 26.34 48.4069 26.8067 48.4069 27.42C48.4069 27.9 48.5402 28.3 48.8069 28.62C49.0735 28.9267 49.4069 29.1733 49.8069 29.36C50.2202 29.5333 50.7802 29.74 51.4869 29.98C52.3802 30.26 53.1069 30.5467 53.6669 30.84C54.2402 31.12 54.7202 31.5333 55.1069 32.08C55.5069 32.6267 55.7069 33.3467 55.7069 34.24ZM62.4094 26.84C63.4094 26.84 64.2627 27.0867 64.9694 27.58C65.676 28.0733 66.176 28.7267 66.4694 29.54V26.98H68.7494V38H66.4694V35.44C66.176 36.2533 65.676 36.9067 64.9694 37.4C64.2627 37.8933 63.4094 38.14 62.4094 38.14C61.4494 38.14 60.5894 37.9133 59.8294 37.46C59.0827 37.0067 58.496 36.3533 58.0694 35.5C57.6427 34.6467 57.4294 33.64 57.4294 32.48C57.4294 31.3333 57.6427 30.3333 58.0694 29.48C58.496 28.6267 59.0827 27.9733 59.8294 27.52C60.5894 27.0667 61.4494 26.84 62.4094 26.84ZM63.1094 28.84C62.096 28.84 61.2827 29.1667 60.6694 29.82C60.0694 30.46 59.7694 31.3467 59.7694 32.48C59.7694 33.6133 60.0694 34.5067 60.6694 35.16C61.2827 35.8 62.096 36.12 63.1094 36.12C63.7494 36.12 64.3227 35.9733 64.8294 35.68C65.336 35.3733 65.736 34.9467 66.0294 34.4C66.3227 33.8533 66.4694 33.2133 66.4694 32.48C66.4694 31.76 66.3227 31.1267 66.0294 30.58C65.736 30.02 65.336 29.5933 64.8294 29.3C64.3227 28.9933 63.7494 28.84 63.1094 28.84ZM76.0055 35.64L79.1255 26.98H81.5655L77.3655 38H74.6055L70.4055 26.98H72.8455L76.0055 35.64ZM88.2833 26.84C89.3499 26.84 90.3099 27.0667 91.1633 27.52C92.0166 27.9733 92.6833 28.6267 93.1633 29.48C93.6433 30.3333 93.8833 31.3333 93.8833 32.48C93.8833 33.64 93.6433 34.6467 93.1633 35.5C92.6833 36.3533 92.0166 37.0067 91.1633 37.46C90.3099 37.9133 89.3499 38.14 88.2833 38.14C87.2166 38.14 86.2566 37.9133 85.4033 37.46C84.5633 37.0067 83.8966 36.3533 83.4033 35.5C82.9233 34.6333 82.6833 33.6267 82.6833 32.48C82.6833 31.3333 82.9233 30.3333 83.4033 29.48C83.8966 28.6267 84.5633 27.9733 85.4033 27.52C86.2566 27.0667 87.2166 26.84 88.2833 26.84ZM88.2833 28.82C87.6966 28.82 87.1566 28.9533 86.6633 29.22C86.1699 29.4867 85.7699 29.9 85.4633 30.46C85.1699 31.0067 85.0233 31.68 85.0233 32.48C85.0233 33.2933 85.1699 33.9733 85.4633 34.52C85.7699 35.0667 86.1699 35.4733 86.6633 35.74C87.1566 36.0067 87.6966 36.14 88.2833 36.14C88.8699 36.14 89.4099 36.0067 89.9033 35.74C90.3966 35.4733 90.7899 35.0667 91.0833 34.52C91.3899 33.9733 91.5433 33.2933 91.5433 32.48C91.5433 31.68 91.3899 31.0067 91.0833 30.46C90.7899 29.9 90.3966 29.4867 89.9033 29.22C89.4099 28.9533 88.8699 28.82 88.2833 28.82ZM95.7553 23.78C95.7553 23.3933 95.8886 23.0733 96.1553 22.82C96.422 22.5667 96.7753 22.44 97.2153 22.44C97.6553 22.44 98.0086 22.5667 98.2753 22.82C98.5553 23.0733 98.6953 23.3933 98.6953 23.78C98.6953 24.1667 98.5553 24.48 98.2753 24.72C98.0086 24.96 97.6553 25.08 97.2153 25.08C96.7753 25.08 96.422 24.96 96.1553 24.72C95.8886 24.48 95.7553 24.1667 95.7553 23.78ZM98.3553 26.98V38H96.0753V26.98H98.3553ZM103.394 29.14C103.768 28.42 104.301 27.8533 104.994 27.44C105.688 27.0133 106.488 26.8 107.394 26.8V29.28H106.714C105.714 29.28 104.908 29.5267 104.294 30.02C103.694 30.5 103.394 31.3 103.394 32.42V38H101.114V26.98H103.394V29.14ZM116.07 32.52V38H113.79V23.88H118.59C120.217 23.88 121.437 24.2667 122.25 25.04C123.077 25.8133 123.49 26.8733 123.49 28.22C123.49 29.5533 123.07 30.6067 122.23 31.38C121.39 32.14 120.177 32.52 118.59 32.52H116.07ZM118.35 30.66C120.23 30.66 121.17 29.8467 121.17 28.22C121.17 27.42 120.943 26.8133 120.49 26.4C120.05 25.9733 119.337 25.76 118.35 25.76H116.07V30.66H118.35ZM127.769 23.2V38H125.489V23.2H127.769ZM140.688 26.98V38H138.388V35.6C138.108 36.4133 137.622 37.0467 136.928 37.5C136.235 37.94 135.428 38.16 134.508 38.16C133.228 38.16 132.202 37.7467 131.428 36.92C130.655 36.0933 130.268 34.9133 130.268 33.38V26.98H132.548V33.14C132.548 34.14 132.802 34.9133 133.308 35.46C133.815 35.9933 134.508 36.26 135.388 36.26C136.295 36.26 137.022 35.9667 137.568 35.38C138.115 34.7933 138.388 33.94 138.388 32.82V26.98H140.688ZM147.039 26.84C148.332 26.84 149.366 27.1733 150.139 27.84C150.926 28.4933 151.406 29.3733 151.579 30.48H149.419C149.326 29.88 149.066 29.4 148.639 29.04C148.226 28.6667 147.672 28.48 146.979 28.48C146.406 28.48 145.959 28.62 145.639 28.9C145.332 29.1667 145.179 29.5333 145.179 30C145.179 30.3467 145.292 30.6267 145.519 30.84C145.746 31.0533 146.026 31.22 146.359 31.34C146.706 31.46 147.192 31.5933 147.819 31.74C148.646 31.9267 149.312 32.12 149.819 32.32C150.339 32.52 150.779 32.84 151.139 33.28C151.512 33.7067 151.699 34.2933 151.699 35.04C151.699 35.96 151.346 36.7067 150.639 37.28C149.946 37.8533 149.006 38.14 147.819 38.14C146.446 38.14 145.332 37.82 144.479 37.18C143.639 36.54 143.132 35.6467 142.959 34.5H145.179C145.246 35.1 145.512 35.5867 145.979 35.96C146.446 36.3333 147.059 36.52 147.819 36.52C148.366 36.52 148.792 36.38 149.099 36.1C149.419 35.8067 149.579 35.44 149.579 35C149.579 34.6133 149.459 34.3067 149.219 34.08C148.979 33.8533 148.679 33.68 148.319 33.56C147.959 33.4267 147.466 33.2933 146.839 33.16C146.039 32.9733 145.386 32.7867 144.879 32.6C144.386 32.4133 143.959 32.1133 143.599 31.7C143.252 31.2733 143.079 30.7 143.079 29.98C143.079 29.0467 143.426 28.2933 144.119 27.72C144.826 27.1333 145.799 26.84 147.039 26.84Z" fill="#666666"/>
<g clip-path="url(#clip0_0_4281)">
<path d="M177.781 31.5306L171.031 38.2806C170.89 38.4213 170.699 38.5003 170.5 38.5003C170.301 38.5003 170.11 38.4213 169.969 38.2806C169.829 38.1398 169.75 37.949 169.75 37.7499C169.75 37.5509 169.829 37.36 169.969 37.2193L175.44 31.7499H160.75C160.551 31.7499 160.36 31.6709 160.22 31.5303C160.079 31.3896 160 31.1988 160 30.9999C160 30.801 160.079 30.6103 160.22 30.4696C160.36 30.3289 160.551 30.2499 160.75 30.2499H175.44L169.969 24.7806C169.829 24.6398 169.75 24.449 169.75 24.2499C169.75 24.0509 169.829 23.86 169.969 23.7193C170.11 23.5786 170.301 23.4995 170.5 23.4995C170.699 23.4995 170.89 23.5786 171.031 23.7193L177.781 30.4693C177.85 30.539 177.906 30.6217 177.943 30.7127C177.981 30.8038 178.001 30.9014 178.001 30.9999C178.001 31.0985 177.981 31.1961 177.943 31.2871C177.906 31.3782 177.85 31.4609 177.781 31.5306Z" fill="#666666"/>
</g>
<path d="M16 46L182 46" stroke="#666666" stroke-linecap="round"/>
<path d="M20.66 71.72V76H25.86V77.76H20.66V82.14H26.46V84H18.38V69.88H26.46V71.72H20.66ZM34.833 72.8C36.113 72.8 37.1396 73.2133 37.913 74.04C38.6863 74.8667 39.073 76.0467 39.073 77.58V84H36.793V77.82C36.793 76.8333 36.5396 76.0733 36.033 75.54C35.5263 74.9933 34.833 74.72 33.953 74.72C33.0463 74.72 32.3196 75.0133 31.773 75.6C31.2263 76.1733 30.953 77.02 30.953 78.14V84H28.673V72.98H30.953V75.4C31.2463 74.5733 31.7396 73.9333 32.433 73.48C33.1263 73.0267 33.9263 72.8 34.833 72.8ZM55.7069 80.24C55.7069 80.9333 55.5402 81.58 55.2069 82.18C54.8735 82.7667 54.3669 83.24 53.6869 83.6C53.0069 83.96 52.1735 84.14 51.1869 84.14C50.2269 84.14 49.3669 83.9733 48.6069 83.64C47.8469 83.2933 47.2402 82.8133 46.7869 82.2C46.3335 81.5867 46.0735 80.88 46.0069 80.08H48.4469C48.5135 80.6933 48.7735 81.22 49.2269 81.66C49.6935 82.1 50.3135 82.32 51.0869 82.32C51.7802 82.32 52.3135 82.1333 52.6869 81.76C53.0735 81.3867 53.2669 80.9067 53.2669 80.32C53.2669 79.8133 53.1269 79.4 52.8469 79.08C52.5669 78.7467 52.2202 78.4867 51.8069 78.3C51.3935 78.1133 50.8269 77.9 50.1069 77.66C49.2269 77.38 48.5069 77.1 47.9469 76.82C47.4002 76.54 46.9335 76.1333 46.5469 75.6C46.1602 75.0667 45.9669 74.3667 45.9669 73.5C45.9669 72.74 46.1535 72.0733 46.5269 71.5C46.9002 70.9267 47.4335 70.4867 48.1269 70.18C48.8202 69.86 49.6202 69.7 50.5269 69.7C51.9669 69.7 53.1069 70.0467 53.9469 70.74C54.8002 71.4333 55.2869 72.34 55.4069 73.46H52.9469C52.8535 72.9267 52.6002 72.4733 52.1869 72.1C51.7869 71.7133 51.2335 71.52 50.5269 71.52C49.8869 71.52 49.3735 71.6867 48.9869 72.02C48.6002 72.34 48.4069 72.8067 48.4069 73.42C48.4069 73.9 48.5402 74.3 48.8069 74.62C49.0735 74.9267 49.4069 75.1733 49.8069 75.36C50.2202 75.5333 50.7802 75.74 51.4869 75.98C52.3802 76.26 53.1069 76.5467 53.6669 76.84C54.2402 77.12 54.7202 77.5333 55.1069 78.08C55.5069 78.6267 55.7069 79.3467 55.7069 80.24ZM62.4094 72.84C63.4094 72.84 64.2627 73.0867 64.9694 73.58C65.676 74.0733 66.176 74.7267 66.4694 75.54V72.98H68.7494V84H66.4694V81.44C66.176 82.2533 65.676 82.9067 64.9694 83.4C64.2627 83.8933 63.4094 84.14 62.4094 84.14C61.4494 84.14 60.5894 83.9133 59.8294 83.46C59.0827 83.0067 58.496 82.3533 58.0694 81.5C57.6427 80.6467 57.4294 79.64 57.4294 78.48C57.4294 77.3333 57.6427 76.3333 58.0694 75.48C58.496 74.6267 59.0827 73.9733 59.8294 73.52C60.5894 73.0667 61.4494 72.84 62.4094 72.84ZM63.1094 74.84C62.096 74.84 61.2827 75.1667 60.6694 75.82C60.0694 76.46 59.7694 77.3467 59.7694 78.48C59.7694 79.6133 60.0694 80.5067 60.6694 81.16C61.2827 81.8 62.096 82.12 63.1094 82.12C63.7494 82.12 64.3227 81.9733 64.8294 81.68C65.336 81.3733 65.736 80.9467 66.0294 80.4C66.3227 79.8533 66.4694 79.2133 66.4694 78.48C66.4694 77.76 66.3227 77.1267 66.0294 76.58C65.736 76.02 65.336 75.5933 64.8294 75.3C64.3227 74.9933 63.7494 74.84 63.1094 74.84ZM76.0055 81.64L79.1255 72.98H81.5655L77.3655 84H74.6055L70.4055 72.98H72.8455L76.0055 81.64ZM88.2833 72.84C89.3499 72.84 90.3099 73.0667 91.1633 73.52C92.0166 73.9733 92.6833 74.6267 93.1633 75.48C93.6433 76.3333 93.8833 77.3333 93.8833 78.48C93.8833 79.64 93.6433 80.6467 93.1633 81.5C92.6833 82.3533 92.0166 83.0067 91.1633 83.46C90.3099 83.9133 89.3499 84.14 88.2833 84.14C87.2166 84.14 86.2566 83.9133 85.4033 83.46C84.5633 83.0067 83.8966 82.3533 83.4033 81.5C82.9233 80.6333 82.6833 79.6267 82.6833 78.48C82.6833 77.3333 82.9233 76.3333 83.4033 75.48C83.8966 74.6267 84.5633 73.9733 85.4033 73.52C86.2566 73.0667 87.2166 72.84 88.2833 72.84ZM88.2833 74.82C87.6966 74.82 87.1566 74.9533 86.6633 75.22C86.1699 75.4867 85.7699 75.9 85.4633 76.46C85.1699 77.0067 85.0233 77.68 85.0233 78.48C85.0233 79.2933 85.1699 79.9733 85.4633 80.52C85.7699 81.0667 86.1699 81.4733 86.6633 81.74C87.1566 82.0067 87.6966 82.14 88.2833 82.14C88.8699 82.14 89.4099 82.0067 89.9033 81.74C90.3966 81.4733 90.7899 81.0667 91.0833 80.52C91.3899 79.9733 91.5433 79.2933 91.5433 78.48C91.5433 77.68 91.3899 77.0067 91.0833 76.46C90.7899 75.9 90.3966 75.4867 89.9033 75.22C89.4099 74.9533 88.8699 74.82 88.2833 74.82ZM95.7553 69.78C95.7553 69.3933 95.8886 69.0733 96.1553 68.82C96.422 68.5667 96.7753 68.44 97.2153 68.44C97.6553 68.44 98.0086 68.5667 98.2753 68.82C98.5553 69.0733 98.6953 69.3933 98.6953 69.78C98.6953 70.1667 98.5553 70.48 98.2753 70.72C98.0086 70.96 97.6553 71.08 97.2153 71.08C96.7753 71.08 96.422 70.96 96.1553 70.72C95.8886 70.48 95.7553 70.1667 95.7553 69.78ZM98.3553 72.98V84H96.0753V72.98H98.3553ZM103.394 75.14C103.768 74.42 104.301 73.8533 104.994 73.44C105.688 73.0133 106.488 72.8 107.394 72.8V75.28H106.714C105.714 75.28 104.908 75.5267 104.294 76.02C103.694 76.5 103.394 77.3 103.394 78.42V84H101.114V72.98H103.394V75.14ZM116.07 78.52V84H113.79V69.88H118.59C120.217 69.88 121.437 70.2667 122.25 71.04C123.077 71.8133 123.49 72.8733 123.49 74.22C123.49 75.5533 123.07 76.6067 122.23 77.38C121.39 78.14 120.177 78.52 118.59 78.52H116.07ZM118.35 76.66C120.23 76.66 121.17 75.8467 121.17 74.22C121.17 73.42 120.943 72.8133 120.49 72.4C120.05 71.9733 119.337 71.76 118.35 71.76H116.07V76.66H118.35ZM127.769 69.2V84H125.489V69.2H127.769ZM140.688 72.98V84H138.388V81.6C138.108 82.4133 137.622 83.0467 136.928 83.5C136.235 83.94 135.428 84.16 134.508 84.16C133.228 84.16 132.202 83.7467 131.428 82.92C130.655 82.0933 130.268 80.9133 130.268 79.38V72.98H132.548V79.14C132.548 80.14 132.802 80.9133 133.308 81.46C133.815 81.9933 134.508 82.26 135.388 82.26C136.295 82.26 137.022 81.9667 137.568 81.38C138.115 80.7933 138.388 79.94 138.388 78.82V72.98H140.688ZM147.039 72.84C148.332 72.84 149.366 73.1733 150.139 73.84C150.926 74.4933 151.406 75.3733 151.579 76.48H149.419C149.326 75.88 149.066 75.4 148.639 75.04C148.226 74.6667 147.672 74.48 146.979 74.48C146.406 74.48 145.959 74.62 145.639 74.9C145.332 75.1667 145.179 75.5333 145.179 76C145.179 76.3467 145.292 76.6267 145.519 76.84C145.746 77.0533 146.026 77.22 146.359 77.34C146.706 77.46 147.192 77.5933 147.819 77.74C148.646 77.9267 149.312 78.12 149.819 78.32C150.339 78.52 150.779 78.84 151.139 79.28C151.512 79.7067 151.699 80.2933 151.699 81.04C151.699 81.96 151.346 82.7067 150.639 83.28C149.946 83.8533 149.006 84.14 147.819 84.14C146.446 84.14 145.332 83.82 144.479 83.18C143.639 82.54 143.132 81.6467 142.959 80.5H145.179C145.246 81.1 145.512 81.5867 145.979 81.96C146.446 82.3333 147.059 82.52 147.819 82.52C148.366 82.52 148.792 82.38 149.099 82.1C149.419 81.8067 149.579 81.44 149.579 81C149.579 80.6133 149.459 80.3067 149.219 80.08C148.979 79.8533 148.679 79.68 148.319 79.56C147.959 79.4267 147.466 79.2933 146.839 79.16C146.039 78.9733 145.386 78.7867 144.879 78.6C144.386 78.4133 143.959 78.1133 143.599 77.7C143.252 77.2733 143.079 76.7 143.079 75.98C143.079 75.0467 143.426 74.2933 144.119 73.72C144.826 73.1333 145.799 72.84 147.039 72.84Z" fill="#F2542D"/>
<g clip-path="url(#clip1_0_4281)">
<path d="M177.78 77.5306L171.03 84.2802C170.89 84.4209 170.699 84.5 170.5 84.5C170.301 84.5 170.11 84.4209 169.969 84.2802C169.828 84.1395 169.749 83.9486 169.749 83.7496C169.749 83.5506 169.828 83.3598 169.969 83.219L175.439 77.75H160.75C160.551 77.75 160.36 77.6709 160.22 77.5303C160.079 77.3897 160 77.1989 160 77C160 76.8011 160.079 76.6103 160.22 76.4697C160.36 76.3291 160.551 76.25 160.75 76.25H175.439L169.969 70.781C169.828 70.6402 169.749 70.4494 169.749 70.2504C169.749 70.0514 169.828 69.8605 169.969 69.7198C170.11 69.5791 170.301 69.5 170.5 69.5C170.699 69.5 170.89 69.5791 171.03 69.7198L177.78 76.4694C177.85 76.5391 177.905 76.6218 177.943 76.7128C177.981 76.8039 178 76.9014 178 77C178 77.0986 177.981 77.1961 177.943 77.2872C177.905 77.3782 177.85 77.4609 177.78 77.5306Z" fill="#F2542D"/>
</g>
<path d="M16 92L182 92" stroke="#F2542D" stroke-width="2" stroke-linecap="round"/>
<defs>
<clipPath id="clip0_0_4281">
<rect width="24" height="24" fill="white" transform="translate(157 19)"/>
</clipPath>
<clipPath id="clip1_0_4281">
<rect width="24" height="24" fill="white" transform="translate(157 65)"/>
</clipPath>
</defs>
</svg>
