<svg width="232" height="144" viewBox="0 0 232 144" fill="none" xmlns="http://www.w3.org/2000/svg">
<rect x="0.5" y="0.5" width="231" height="143" rx="4.5" stroke="#9747FF" stroke-dasharray="10 5"/>
<rect x="16" y="16" width="200" height="48" rx="24" fill="#F2542D"/>
<path d="M66.794 34.948V38.8H71.474V40.384H66.794V44.326H72.014V46H64.742V33.292H72.014V34.948H66.794ZM79.5497 35.92C80.7017 35.92 81.6257 36.292 82.3217 37.036C83.0177 37.78 83.3657 38.842 83.3657 40.222V46H81.3137V40.438C81.3137 39.55 81.0857 38.866 80.6297 38.386C80.1737 37.894 79.5497 37.648 78.7577 37.648C77.9417 37.648 77.2877 37.912 76.7957 38.44C76.3037 38.956 76.0577 39.718 76.0577 40.726V46H74.0057V36.082H76.0577V38.26C76.3217 37.516 76.7657 36.94 77.3897 36.532C78.0137 36.124 78.7337 35.92 79.5497 35.92ZM89.8334 43.876L92.6414 36.082H94.8374L91.0574 46H88.5734L84.7934 36.082H86.9894L89.8334 43.876ZM100.883 35.956C101.843 35.956 102.707 36.16 103.475 36.568C104.243 36.976 104.843 37.564 105.275 38.332C105.707 39.1 105.923 40 105.923 41.032C105.923 42.076 105.707 42.982 105.275 43.75C104.843 44.518 104.243 45.106 103.475 45.514C102.707 45.922 101.843 46.126 100.883 46.126C99.9235 46.126 99.0595 45.922 98.2915 45.514C97.5355 45.106 96.9355 44.518 96.4915 43.75C96.0595 42.97 95.8435 42.064 95.8435 41.032C95.8435 40 96.0595 39.1 96.4915 38.332C96.9355 37.564 97.5355 36.976 98.2915 36.568C99.0595 36.16 99.9235 35.956 100.883 35.956ZM100.883 37.738C100.355 37.738 99.8695 37.858 99.4255 38.098C98.9815 38.338 98.6215 38.71 98.3455 39.214C98.0815 39.706 97.9495 40.312 97.9495 41.032C97.9495 41.764 98.0815 42.376 98.3455 42.868C98.6215 43.36 98.9815 43.726 99.4255 43.966C99.8695 44.206 100.355 44.326 100.883 44.326C101.411 44.326 101.897 44.206 102.341 43.966C102.785 43.726 103.139 43.36 103.403 42.868C103.679 42.376 103.817 41.764 103.817 41.032C103.817 40.312 103.679 39.706 103.403 39.214C103.139 38.71 102.785 38.338 102.341 38.098C101.897 37.858 101.411 37.738 100.883 37.738ZM109.066 36.082L112.036 43.372L114.79 36.082H117.076L111.082 50.716H108.796L110.938 45.766L106.762 36.082H109.066ZM127.642 40.564C127.642 40.9 127.618 41.194 127.57 41.446H119.938C119.974 42.466 120.256 43.222 120.784 43.714C121.312 44.206 121.966 44.452 122.746 44.452C123.43 44.452 124.006 44.278 124.474 43.93C124.954 43.582 125.248 43.12 125.356 42.544H127.552C127.42 43.24 127.144 43.858 126.724 44.398C126.304 44.938 125.758 45.364 125.086 45.676C124.414 45.976 123.664 46.126 122.836 46.126C121.876 46.126 121.024 45.922 120.28 45.514C119.548 45.106 118.972 44.518 118.552 43.75C118.132 42.982 117.922 42.076 117.922 41.032C117.922 40 118.132 39.1 118.552 38.332C118.972 37.564 119.548 36.976 120.28 36.568C121.024 36.16 121.876 35.956 122.836 35.956C123.808 35.956 124.654 36.16 125.374 36.568C126.106 36.964 126.664 37.516 127.048 38.224C127.444 38.92 127.642 39.7 127.642 40.564ZM125.572 40.51C125.596 39.862 125.482 39.322 125.23 38.89C124.99 38.446 124.654 38.122 124.222 37.918C123.802 37.702 123.34 37.594 122.836 37.594C122.032 37.594 121.36 37.84 120.82 38.332C120.28 38.824 119.986 39.55 119.938 40.51H125.572ZM131.675 38.026C132.011 37.378 132.491 36.868 133.115 36.496C133.739 36.112 134.459 35.92 135.275 35.92V38.152H134.663C133.763 38.152 133.037 38.374 132.485 38.818C131.945 39.25 131.675 39.97 131.675 40.978V46H129.623V36.082H131.675V38.026Z" fill="white"/>
<path d="M151.9 34.3199L160.39 31.4899C164.2 30.2199 166.27 32.2999 165.01 36.1099L162.18 44.5999C160.28 50.3099 157.16 50.3099 155.26 44.5999L154.42 42.0799L151.9 41.2399C146.19 39.3399 146.19 36.2299 151.9 34.3199Z" stroke="white" stroke-width="1.5" stroke-linecap="round" stroke-linejoin="round"/>
<path d="M154.61 41.6501L158.19 38.0601" stroke="white" stroke-width="1.5" stroke-linecap="round" stroke-linejoin="round"/>
<rect x="16" y="80" width="200" height="48" rx="24" fill="#CA3E1B"/>
<path d="M66.794 98.948V102.8H71.474V104.384H66.794V108.326H72.014V110H64.742V97.292H72.014V98.948H66.794ZM79.5497 99.92C80.7017 99.92 81.6257 100.292 82.3217 101.036C83.0177 101.78 83.3657 102.842 83.3657 104.222V110H81.3137V104.438C81.3137 103.55 81.0857 102.866 80.6297 102.386C80.1737 101.894 79.5497 101.648 78.7577 101.648C77.9417 101.648 77.2877 101.912 76.7957 102.44C76.3037 102.956 76.0577 103.718 76.0577 104.726V110H74.0057V100.082H76.0577V102.26C76.3217 101.516 76.7657 100.94 77.3897 100.532C78.0137 100.124 78.7337 99.92 79.5497 99.92ZM89.8334 107.876L92.6414 100.082H94.8374L91.0574 110H88.5734L84.7934 100.082H86.9894L89.8334 107.876ZM100.883 99.956C101.843 99.956 102.707 100.16 103.475 100.568C104.243 100.976 104.843 101.564 105.275 102.332C105.707 103.1 105.923 104 105.923 105.032C105.923 106.076 105.707 106.982 105.275 107.75C104.843 108.518 104.243 109.106 103.475 109.514C102.707 109.922 101.843 110.126 100.883 110.126C99.9235 110.126 99.0595 109.922 98.2915 109.514C97.5355 109.106 96.9355 108.518 96.4915 107.75C96.0595 106.97 95.8435 106.064 95.8435 105.032C95.8435 104 96.0595 103.1 96.4915 102.332C96.9355 101.564 97.5355 100.976 98.2915 100.568C99.0595 100.16 99.9235 99.956 100.883 99.956ZM100.883 101.738C100.355 101.738 99.8695 101.858 99.4255 102.098C98.9815 102.338 98.6215 102.71 98.3455 103.214C98.0815 103.706 97.9495 104.312 97.9495 105.032C97.9495 105.764 98.0815 106.376 98.3455 106.868C98.6215 107.36 98.9815 107.726 99.4255 107.966C99.8695 108.206 100.355 108.326 100.883 108.326C101.411 108.326 101.897 108.206 102.341 107.966C102.785 107.726 103.139 107.36 103.403 106.868C103.679 106.376 103.817 105.764 103.817 105.032C103.817 104.312 103.679 103.706 103.403 103.214C103.139 102.71 102.785 102.338 102.341 102.098C101.897 101.858 101.411 101.738 100.883 101.738ZM109.066 100.082L112.036 107.372L114.79 100.082H117.076L111.082 114.716H108.796L110.938 109.766L106.762 100.082H109.066ZM127.642 104.564C127.642 104.9 127.618 105.194 127.57 105.446H119.938C119.974 106.466 120.256 107.222 120.784 107.714C121.312 108.206 121.966 108.452 122.746 108.452C123.43 108.452 124.006 108.278 124.474 107.93C124.954 107.582 125.248 107.12 125.356 106.544H127.552C127.42 107.24 127.144 107.858 126.724 108.398C126.304 108.938 125.758 109.364 125.086 109.676C124.414 109.976 123.664 110.126 122.836 110.126C121.876 110.126 121.024 109.922 120.28 109.514C119.548 109.106 118.972 108.518 118.552 107.75C118.132 106.982 117.922 106.076 117.922 105.032C117.922 104 118.132 103.1 118.552 102.332C118.972 101.564 119.548 100.976 120.28 100.568C121.024 100.16 121.876 99.956 122.836 99.956C123.808 99.956 124.654 100.16 125.374 100.568C126.106 100.964 126.664 101.516 127.048 102.224C127.444 102.92 127.642 103.7 127.642 104.564ZM125.572 104.51C125.596 103.862 125.482 103.322 125.23 102.89C124.99 102.446 124.654 102.122 124.222 101.918C123.802 101.702 123.34 101.594 122.836 101.594C122.032 101.594 121.36 101.84 120.82 102.332C120.28 102.824 119.986 103.55 119.938 104.51H125.572ZM131.675 102.026C132.011 101.378 132.491 100.868 133.115 100.496C133.739 100.112 134.459 99.92 135.275 99.92V102.152H134.663C133.763 102.152 133.037 102.374 132.485 102.818C131.945 103.25 131.675 103.97 131.675 104.978V110H129.623V100.082H131.675V102.026Z" fill="white"/>
<path d="M151.9 98.3199L160.39 95.4899C164.2 94.2199 166.27 96.2999 165.01 100.11L162.18 108.6C160.28 114.31 157.16 114.31 155.26 108.6L154.42 106.08L151.9 105.24C146.19 103.34 146.19 100.23 151.9 98.3199Z" stroke="white" stroke-width="1.5" stroke-linecap="round" stroke-linejoin="round"/>
<path d="M154.61 105.65L158.19 102.06" stroke="white" stroke-width="1.5" stroke-linecap="round" stroke-linejoin="round"/>
</svg>
