<svg width="176" height="136" viewBox="0 0 176 136" fill="none" xmlns="http://www.w3.org/2000/svg">
<rect x="0.5" y="0.5" width="175" height="135" rx="4.5" stroke="#9747FF" stroke-dasharray="10 5"/>
<rect x="12" y="16" width="152" height="44" rx="22" fill="#F2542D"/>
<path d="M55.402 33.146V36.818H59.722V38.492H55.402V42.326H60.262V44H53.35V31.472H60.262V33.146H55.402ZM67.0375 38.978L70.2415 44H67.9195L65.7775 40.634L63.7615 44H61.6195L64.8235 39.122L61.6195 34.082H63.9415L66.0835 37.448L68.0995 34.082H70.2415L67.0375 38.978ZM73.8239 35.54C74.1719 35.084 74.6459 34.7 75.2459 34.388C75.8459 34.076 76.5239 33.92 77.2799 33.92C78.1439 33.92 78.9299 34.136 79.6379 34.568C80.3579 34.988 80.9219 35.582 81.3299 36.35C81.7379 37.118 81.9419 38 81.9419 38.996C81.9419 39.992 81.7379 40.886 81.3299 41.678C80.9219 42.458 80.3579 43.07 79.6379 43.514C78.9299 43.946 78.1439 44.162 77.2799 44.162C76.5239 44.162 75.8519 44.012 75.2639 43.712C74.6759 43.4 74.1959 43.016 73.8239 42.56V48.716H71.7719V34.082H73.8239V35.54ZM79.8539 38.996C79.8539 38.312 79.7099 37.724 79.4219 37.232C79.1459 36.728 78.7739 36.35 78.3059 36.098C77.8499 35.834 77.3579 35.702 76.8299 35.702C76.3139 35.702 75.8219 35.834 75.3539 36.098C74.8979 36.362 74.5259 36.746 74.2379 37.25C73.9619 37.754 73.8239 38.348 73.8239 39.032C73.8239 39.716 73.9619 40.316 74.2379 40.832C74.5259 41.336 74.8979 41.72 75.3539 41.984C75.8219 42.248 76.3139 42.38 76.8299 42.38C77.3579 42.38 77.8499 42.248 78.3059 41.984C78.7739 41.708 79.1459 41.312 79.4219 40.796C79.7099 40.28 79.8539 39.68 79.8539 38.996ZM86.0231 30.68V44H83.9711V30.68H86.0231ZM93.0192 44.162C92.0832 44.162 91.2372 43.952 90.4812 43.532C89.7252 43.1 89.1312 42.5 88.6992 41.732C88.2672 40.952 88.0512 40.052 88.0512 39.032C88.0512 38.024 88.2732 37.13 88.7172 36.35C89.1612 35.57 89.7672 34.97 90.5352 34.55C91.3032 34.13 92.1612 33.92 93.1092 33.92C94.0572 33.92 94.9152 34.13 95.6832 34.55C96.4512 34.97 97.0572 35.57 97.5012 36.35C97.9452 37.13 98.1672 38.024 98.1672 39.032C98.1672 40.04 97.9392 40.934 97.4832 41.714C97.0272 42.494 96.4032 43.1 95.6112 43.532C94.8312 43.952 93.9672 44.162 93.0192 44.162ZM93.0192 42.38C93.5472 42.38 94.0392 42.254 94.4952 42.002C94.9632 41.75 95.3412 41.372 95.6292 40.868C95.9172 40.364 96.0612 39.752 96.0612 39.032C96.0612 38.312 95.9232 37.706 95.6472 37.214C95.3712 36.71 95.0052 36.332 94.5492 36.08C94.0932 35.828 93.6012 35.702 93.0732 35.702C92.5452 35.702 92.0532 35.828 91.5972 36.08C91.1532 36.332 90.7992 36.71 90.5352 37.214C90.2712 37.706 90.1392 38.312 90.1392 39.032C90.1392 40.1 90.4092 40.928 90.9492 41.516C91.5012 42.092 92.1912 42.38 93.0192 42.38ZM102.248 35.522C102.548 35.018 102.944 34.628 103.436 34.352C103.94 34.064 104.534 33.92 105.218 33.92V36.044H104.696C103.892 36.044 103.28 36.248 102.86 36.656C102.452 37.064 102.248 37.772 102.248 38.78V44H100.196V34.082H102.248V35.522ZM116.194 38.798C116.194 39.17 116.17 39.506 116.122 39.806H108.544C108.604 40.598 108.898 41.234 109.426 41.714C109.954 42.194 110.602 42.434 111.37 42.434C112.474 42.434 113.254 41.972 113.71 41.048H115.924C115.624 41.96 115.078 42.71 114.286 43.298C113.506 43.874 112.534 44.162 111.37 44.162C110.422 44.162 109.57 43.952 108.814 43.532C108.07 43.1 107.482 42.5 107.05 41.732C106.63 40.952 106.42 40.052 106.42 39.032C106.42 38.012 106.624 37.118 107.032 36.35C107.452 35.57 108.034 34.97 108.778 34.55C109.534 34.13 110.398 33.92 111.37 33.92C112.306 33.92 113.14 34.124 113.872 34.532C114.604 34.94 115.174 35.516 115.582 36.26C115.99 36.992 116.194 37.838 116.194 38.798ZM114.052 38.15C114.04 37.394 113.77 36.788 113.242 36.332C112.714 35.876 112.06 35.648 111.28 35.648C110.572 35.648 109.966 35.876 109.462 36.332C108.958 36.776 108.658 37.382 108.562 38.15H114.052ZM120.265 35.522C120.565 35.018 120.961 34.628 121.453 34.352C121.957 34.064 122.551 33.92 123.235 33.92V36.044H122.713C121.909 36.044 121.297 36.248 120.877 36.656C120.469 37.064 120.265 37.772 120.265 38.78V44H118.213V34.082H120.265V35.522Z" fill="white"/>
<rect x="12" y="76" width="153" height="44" rx="22" fill="#CA3E1B"/>
<path d="M55.294 92.948V96.8H59.974V98.384H55.294V102.326H60.514V104H53.242V91.292H60.514V92.948H55.294ZM68.3737 104L65.9437 100.49L63.8197 104H61.5337L64.8097 98.852L61.4977 94.082H63.8197L66.1957 97.502L68.3017 94.082H70.5697L67.2937 99.086L70.6957 104H68.3737ZM77.8089 93.956C78.6729 93.956 79.4409 94.16 80.1129 94.568C80.7969 94.976 81.3309 95.564 81.7149 96.332C82.0989 97.1 82.2909 98 82.2909 99.032C82.2909 100.076 82.0989 100.982 81.7149 101.75C81.3309 102.518 80.7969 103.106 80.1129 103.514C79.4409 103.922 78.6729 104.126 77.8089 104.126C76.9089 104.126 76.1409 103.904 75.5049 103.46C74.8689 103.016 74.4249 102.428 74.1729 101.696V108.716H72.1209V94.082H74.1729V96.386C74.4249 95.654 74.8689 95.066 75.5049 94.622C76.1409 94.178 76.9089 93.956 77.8089 93.956ZM77.1789 95.756C76.6029 95.756 76.0869 95.894 75.6309 96.17C75.1749 96.434 74.8149 96.818 74.5509 97.322C74.2869 97.814 74.1549 98.384 74.1549 99.032C74.1549 99.692 74.2869 100.268 74.5509 100.76C74.8149 101.252 75.1749 101.636 75.6309 101.912C76.0869 102.176 76.6029 102.308 77.1789 102.308C78.0909 102.308 78.8229 102.02 79.3749 101.444C79.9269 100.856 80.2029 100.052 80.2029 99.032C80.2029 98.024 79.9269 97.226 79.3749 96.638C78.8229 96.05 78.0909 95.756 77.1789 95.756ZM86.3194 90.68V104H84.2674V90.68H86.3194ZM93.3385 93.956C94.2985 93.956 95.1625 94.16 95.9305 94.568C96.6985 94.976 97.2985 95.564 97.7305 96.332C98.1625 97.1 98.3785 98 98.3785 99.032C98.3785 100.076 98.1625 100.982 97.7305 101.75C97.2985 102.518 96.6985 103.106 95.9305 103.514C95.1625 103.922 94.2985 104.126 93.3385 104.126C92.3785 104.126 91.5145 103.922 90.7465 103.514C89.9905 103.106 89.3905 102.518 88.9465 101.75C88.5145 100.97 88.2985 100.064 88.2985 99.032C88.2985 98 88.5145 97.1 88.9465 96.332C89.3905 95.564 89.9905 94.976 90.7465 94.568C91.5145 94.16 92.3785 93.956 93.3385 93.956ZM93.3385 95.738C92.8105 95.738 92.3245 95.858 91.8805 96.098C91.4365 96.338 91.0765 96.71 90.8005 97.214C90.5365 97.706 90.4045 98.312 90.4045 99.032C90.4045 99.764 90.5365 100.376 90.8005 100.868C91.0765 101.36 91.4365 101.726 91.8805 101.966C92.3245 102.206 92.8105 102.326 93.3385 102.326C93.8665 102.326 94.3525 102.206 94.7965 101.966C95.2405 101.726 95.5945 101.36 95.8585 100.868C96.1345 100.376 96.2725 99.764 96.2725 99.032C96.2725 98.312 96.1345 97.706 95.8585 97.214C95.5945 96.71 95.2405 96.338 94.7965 96.098C94.3525 95.858 93.8665 95.738 93.3385 95.738ZM102.403 96.026C102.739 95.378 103.219 94.868 103.843 94.496C104.467 94.112 105.187 93.92 106.003 93.92V96.152H105.391C104.491 96.152 103.765 96.374 103.213 96.818C102.673 97.25 102.403 97.97 102.403 98.978V104H100.351V94.082H102.403V96.026ZM116.757 98.564C116.757 98.9 116.733 99.194 116.685 99.446H109.053C109.089 100.466 109.371 101.222 109.899 101.714C110.427 102.206 111.081 102.452 111.861 102.452C112.545 102.452 113.121 102.278 113.589 101.93C114.069 101.582 114.363 101.12 114.471 100.544H116.667C116.535 101.24 116.259 101.858 115.839 102.398C115.419 102.938 114.873 103.364 114.201 103.676C113.529 103.976 112.779 104.126 111.951 104.126C110.991 104.126 110.139 103.922 109.395 103.514C108.663 103.106 108.087 102.518 107.667 101.75C107.247 100.982 107.037 100.076 107.037 99.032C107.037 98 107.247 97.1 107.667 96.332C108.087 95.564 108.663 94.976 109.395 94.568C110.139 94.16 110.991 93.956 111.951 93.956C112.923 93.956 113.769 94.16 114.489 94.568C115.221 94.964 115.779 95.516 116.163 96.224C116.559 96.92 116.757 97.7 116.757 98.564ZM114.687 98.51C114.711 97.862 114.597 97.322 114.345 96.89C114.105 96.446 113.769 96.122 113.337 95.918C112.917 95.702 112.455 95.594 111.951 95.594C111.147 95.594 110.475 95.84 109.935 96.332C109.395 96.824 109.101 97.55 109.053 98.51H114.687ZM120.79 96.026C121.126 95.378 121.606 94.868 122.23 94.496C122.854 94.112 123.574 93.92 124.39 93.92V96.152H123.778C122.878 96.152 122.152 96.374 121.6 96.818C121.06 97.25 120.79 97.97 120.79 98.978V104H118.738V94.082H120.79V96.026Z" fill="white"/>
</svg>
