<svg width="348" height="103" viewBox="0 0 348 103" fill="none" xmlns="http://www.w3.org/2000/svg">
<g clip-path="url(#clip0_0_4263)">
<path d="M16.024 21.168H20.416V22.5H14.386V9.954H16.024V21.168ZM26.4575 22.662C25.5335 22.662 24.6935 22.452 23.9375 22.032C23.1935 21.612 22.6055 21.018 22.1735 20.25C21.7535 19.47 21.5435 18.57 21.5435 17.55C21.5435 16.542 21.7595 15.654 22.1915 14.886C22.6355 14.106 23.2355 13.512 23.9915 13.104C24.7475 12.684 25.5935 12.474 26.5295 12.474C27.4655 12.474 28.3115 12.684 29.0675 13.104C29.8235 13.512 30.4175 14.1 30.8495 14.868C31.2935 15.636 31.5155 16.53 31.5155 17.55C31.5155 18.57 31.2875 19.47 30.8315 20.25C30.3875 21.018 29.7815 21.612 29.0135 22.032C28.2455 22.452 27.3935 22.662 26.4575 22.662ZM26.4575 21.222C27.0455 21.222 27.5975 21.084 28.1135 20.808C28.6295 20.532 29.0435 20.118 29.3555 19.566C29.6795 19.014 29.8415 18.342 29.8415 17.55C29.8415 16.758 29.6855 16.086 29.3735 15.534C29.0615 14.982 28.6535 14.574 28.1495 14.31C27.6455 14.034 27.0995 13.896 26.5115 13.896C25.9115 13.896 25.3595 14.034 24.8555 14.31C24.3635 14.574 23.9675 14.982 23.6675 15.534C23.3675 16.086 23.2175 16.758 23.2175 17.55C23.2175 18.354 23.3615 19.032 23.6495 19.584C23.9495 20.136 24.3455 20.55 24.8375 20.826C25.3295 21.09 25.8695 21.222 26.4575 21.222ZM35.3072 14.238C35.5952 13.674 36.0032 13.236 36.5312 12.924C37.0712 12.612 37.7252 12.456 38.4932 12.456V14.148H38.0612C36.2252 14.148 35.3072 15.144 35.3072 17.136V22.5H33.6692V12.636H35.3072V14.238ZM49.384 17.19C49.384 17.502 49.366 17.832 49.33 18.18H41.446C41.506 19.152 41.836 19.914 42.436 20.466C43.048 21.006 43.786 21.276 44.65 21.276C45.358 21.276 45.946 21.114 46.414 20.79C46.894 20.454 47.23 20.01 47.422 19.458H49.186C48.922 20.406 48.394 21.18 47.602 21.78C46.81 22.368 45.826 22.662 44.65 22.662C43.714 22.662 42.874 22.452 42.13 22.032C41.398 21.612 40.822 21.018 40.402 20.25C39.982 19.47 39.772 18.57 39.772 17.55C39.772 16.53 39.976 15.636 40.384 14.868C40.792 14.1 41.362 13.512 42.094 13.104C42.838 12.684 43.69 12.474 44.65 12.474C45.586 12.474 46.414 12.678 47.134 13.086C47.854 13.494 48.406 14.058 48.79 14.778C49.186 15.486 49.384 16.29 49.384 17.19ZM47.692 16.848C47.692 16.224 47.554 15.69 47.278 15.246C47.002 14.79 46.624 14.448 46.144 14.22C45.676 13.98 45.154 13.86 44.578 13.86C43.75 13.86 43.042 14.124 42.454 14.652C41.878 15.18 41.548 15.912 41.464 16.848H47.692ZM63.4082 12.456C64.1762 12.456 64.8602 12.618 65.4602 12.942C66.0602 13.254 66.5342 13.728 66.8822 14.364C67.2302 15 67.4042 15.774 67.4042 16.686V22.5H65.7842V16.92C65.7842 15.936 65.5382 15.186 65.0462 14.67C64.5662 14.142 63.9122 13.878 63.0842 13.878C62.2322 13.878 61.5542 14.154 61.0502 14.706C60.5462 15.246 60.2942 16.032 60.2942 17.064V22.5H58.6742V16.92C58.6742 15.936 58.4282 15.186 57.9362 14.67C57.4562 14.142 56.8022 13.878 55.9742 13.878C55.1222 13.878 54.4442 14.154 53.9402 14.706C53.4362 15.246 53.1842 16.032 53.1842 17.064V22.5H51.5462V12.636H53.1842V14.058C53.5082 13.542 53.9402 13.146 54.4802 12.87C55.0322 12.594 55.6382 12.456 56.2982 12.456C57.1262 12.456 57.8582 12.642 58.4942 13.014C59.1302 13.386 59.6042 13.932 59.9162 14.652C60.1922 13.956 60.6482 13.416 61.2842 13.032C61.9202 12.648 62.6282 12.456 63.4082 12.456ZM76.5279 9.954V22.5H74.8899V9.954H76.5279ZM80.9576 14.454C81.2816 13.89 81.7616 13.422 82.3976 13.05C83.0456 12.666 83.7956 12.474 84.6476 12.474C85.5236 12.474 86.3156 12.684 87.0236 13.104C87.7436 13.524 88.3076 14.118 88.7156 14.886C89.1236 15.642 89.3276 16.524 89.3276 17.532C89.3276 18.528 89.1236 19.416 88.7156 20.196C88.3076 20.976 87.7436 21.582 87.0236 22.014C86.3156 22.446 85.5236 22.662 84.6476 22.662C83.8076 22.662 83.0636 22.476 82.4156 22.104C81.7796 21.72 81.2936 21.246 80.9576 20.682V27.18H79.3196V12.636H80.9576V14.454ZM87.6536 17.532C87.6536 16.788 87.5036 16.14 87.2036 15.588C86.9036 15.036 86.4956 14.616 85.9796 14.328C85.4756 14.04 84.9176 13.896 84.3056 13.896C83.7056 13.896 83.1476 14.046 82.6316 14.346C82.1276 14.634 81.7196 15.06 81.4076 15.624C81.1076 16.176 80.9576 16.818 80.9576 17.55C80.9576 18.294 81.1076 18.948 81.4076 19.512C81.7196 20.064 82.1276 20.49 82.6316 20.79C83.1476 21.078 83.7056 21.222 84.3056 21.222C84.9176 21.222 85.4756 21.078 85.9796 20.79C86.4956 20.49 86.9036 20.064 87.2036 19.512C87.5036 18.948 87.6536 18.288 87.6536 17.532ZM94.9757 22.662C94.2197 22.662 93.5417 22.536 92.9417 22.284C92.3417 22.02 91.8677 21.66 91.5197 21.204C91.1717 20.736 90.9797 20.202 90.9437 19.602H92.6357C92.6837 20.094 92.9117 20.496 93.3197 20.808C93.7397 21.12 94.2857 21.276 94.9577 21.276C95.5817 21.276 96.0737 21.138 96.4337 20.862C96.7937 20.586 96.9737 20.238 96.9737 19.818C96.9737 19.386 96.7817 19.068 96.3977 18.864C96.0137 18.648 95.4197 18.438 94.6157 18.234C93.8837 18.042 93.2837 17.85 92.8157 17.658C92.3597 17.454 91.9637 17.16 91.6277 16.776C91.3037 16.38 91.1417 15.864 91.1417 15.228C91.1417 14.724 91.2917 14.262 91.5917 13.842C91.8917 13.422 92.3177 13.092 92.8697 12.852C93.4217 12.6 94.0517 12.474 94.7597 12.474C95.8517 12.474 96.7337 12.75 97.4057 13.302C98.0777 13.854 98.4377 14.61 98.4857 15.57H96.8477C96.8117 15.054 96.6017 14.64 96.2177 14.328C95.8457 14.016 95.3417 13.86 94.7057 13.86C94.1177 13.86 93.6497 13.986 93.3017 14.238C92.9537 14.49 92.7797 14.82 92.7797 15.228C92.7797 15.552 92.8817 15.822 93.0857 16.038C93.3017 16.242 93.5657 16.41 93.8777 16.542C94.2017 16.662 94.6457 16.8 95.2097 16.956C95.9177 17.148 96.4937 17.34 96.9377 17.532C97.3817 17.712 97.7597 17.988 98.0717 18.36C98.3957 18.732 98.5637 19.218 98.5757 19.818C98.5757 20.358 98.4257 20.844 98.1257 21.276C97.8257 21.708 97.3997 22.05 96.8477 22.302C96.3077 22.542 95.6837 22.662 94.9757 22.662ZM109.636 12.636V22.5H107.998V21.042C107.686 21.546 107.248 21.942 106.684 22.23C106.132 22.506 105.52 22.644 104.848 22.644C104.08 22.644 103.39 22.488 102.778 22.176C102.166 21.852 101.68 21.372 101.32 20.736C100.972 20.1 100.798 19.326 100.798 18.414V12.636H102.418V18.198C102.418 19.17 102.664 19.92 103.156 20.448C103.648 20.964 104.32 21.222 105.172 21.222C106.048 21.222 106.738 20.952 107.242 20.412C107.746 19.872 107.998 19.086 107.998 18.054V12.636H109.636ZM124.264 12.456C125.032 12.456 125.716 12.618 126.316 12.942C126.916 13.254 127.39 13.728 127.738 14.364C128.086 15 128.26 15.774 128.26 16.686V22.5H126.64V16.92C126.64 15.936 126.394 15.186 125.902 14.67C125.422 14.142 124.768 13.878 123.94 13.878C123.088 13.878 122.41 14.154 121.906 14.706C121.402 15.246 121.15 16.032 121.15 17.064V22.5H119.53V16.92C119.53 15.936 119.284 15.186 118.792 14.67C118.312 14.142 117.658 13.878 116.83 13.878C115.978 13.878 115.3 14.154 114.796 14.706C114.292 15.246 114.04 16.032 114.04 17.064V22.5H112.402V12.636H114.04V14.058C114.364 13.542 114.796 13.146 115.336 12.87C115.888 12.594 116.494 12.456 117.154 12.456C117.982 12.456 118.714 12.642 119.35 13.014C119.986 13.386 120.46 13.932 120.772 14.652C121.048 13.956 121.504 13.416 122.14 13.032C122.776 12.648 123.484 12.456 124.264 12.456ZM136.591 11.034C136.279 11.034 136.015 10.926 135.799 10.71C135.583 10.494 135.475 10.23 135.475 9.918C135.475 9.606 135.583 9.342 135.799 9.126C136.015 8.91 136.279 8.802 136.591 8.802C136.891 8.802 137.143 8.91 137.347 9.126C137.563 9.342 137.671 9.606 137.671 9.918C137.671 10.23 137.563 10.494 137.347 10.71C137.143 10.926 136.891 11.034 136.591 11.034ZM137.383 12.636V22.5H135.745V12.636H137.383ZM143.667 22.662C142.911 22.662 142.233 22.536 141.633 22.284C141.033 22.02 140.559 21.66 140.211 21.204C139.863 20.736 139.671 20.202 139.635 19.602H141.327C141.375 20.094 141.603 20.496 142.011 20.808C142.431 21.12 142.977 21.276 143.649 21.276C144.273 21.276 144.765 21.138 145.125 20.862C145.485 20.586 145.665 20.238 145.665 19.818C145.665 19.386 145.473 19.068 145.089 18.864C144.705 18.648 144.111 18.438 143.307 18.234C142.575 18.042 141.975 17.85 141.507 17.658C141.051 17.454 140.655 17.16 140.319 16.776C139.995 16.38 139.833 15.864 139.833 15.228C139.833 14.724 139.983 14.262 140.283 13.842C140.583 13.422 141.009 13.092 141.561 12.852C142.113 12.6 142.743 12.474 143.451 12.474C144.543 12.474 145.425 12.75 146.097 13.302C146.769 13.854 147.129 14.61 147.177 15.57H145.539C145.503 15.054 145.293 14.64 144.909 14.328C144.537 14.016 144.033 13.86 143.397 13.86C142.809 13.86 142.341 13.986 141.993 14.238C141.645 14.49 141.471 14.82 141.471 15.228C141.471 15.552 141.573 15.822 141.777 16.038C141.993 16.242 142.257 16.41 142.569 16.542C142.893 16.662 143.337 16.8 143.901 16.956C144.609 17.148 145.185 17.34 145.629 17.532C146.073 17.712 146.451 17.988 146.763 18.36C147.087 18.732 147.255 19.218 147.267 19.818C147.267 20.358 147.117 20.844 146.817 21.276C146.517 21.708 146.091 22.05 145.539 22.302C144.999 22.542 144.375 22.662 143.667 22.662ZM157.87 22.662C157.114 22.662 156.436 22.536 155.836 22.284C155.236 22.02 154.762 21.66 154.414 21.204C154.066 20.736 153.874 20.202 153.838 19.602H155.53C155.578 20.094 155.806 20.496 156.214 20.808C156.634 21.12 157.18 21.276 157.852 21.276C158.476 21.276 158.968 21.138 159.328 20.862C159.688 20.586 159.868 20.238 159.868 19.818C159.868 19.386 159.676 19.068 159.292 18.864C158.908 18.648 158.314 18.438 157.51 18.234C156.778 18.042 156.178 17.85 155.71 17.658C155.254 17.454 154.858 17.16 154.522 16.776C154.198 16.38 154.036 15.864 154.036 15.228C154.036 14.724 154.186 14.262 154.486 13.842C154.786 13.422 155.212 13.092 155.764 12.852C156.316 12.6 156.946 12.474 157.654 12.474C158.746 12.474 159.628 12.75 160.3 13.302C160.972 13.854 161.332 14.61 161.38 15.57H159.742C159.706 15.054 159.496 14.64 159.112 14.328C158.74 14.016 158.236 13.86 157.6 13.86C157.012 13.86 156.544 13.986 156.196 14.238C155.848 14.49 155.674 14.82 155.674 15.228C155.674 15.552 155.776 15.822 155.98 16.038C156.196 16.242 156.46 16.41 156.772 16.542C157.096 16.662 157.54 16.8 158.104 16.956C158.812 17.148 159.388 17.34 159.832 17.532C160.276 17.712 160.654 17.988 160.966 18.36C161.29 18.732 161.458 19.218 161.47 19.818C161.47 20.358 161.32 20.844 161.02 21.276C160.72 21.708 160.294 22.05 159.742 22.302C159.202 22.542 158.578 22.662 157.87 22.662ZM164.628 11.034C164.316 11.034 164.052 10.926 163.836 10.71C163.62 10.494 163.512 10.23 163.512 9.918C163.512 9.606 163.62 9.342 163.836 9.126C164.052 8.91 164.316 8.802 164.628 8.802C164.928 8.802 165.18 8.91 165.384 9.126C165.6 9.342 165.708 9.606 165.708 9.918C165.708 10.23 165.6 10.494 165.384 10.71C165.18 10.926 164.928 11.034 164.628 11.034ZM165.42 12.636V22.5H163.782V12.636H165.42ZM180.074 12.456C180.842 12.456 181.526 12.618 182.126 12.942C182.726 13.254 183.2 13.728 183.548 14.364C183.896 15 184.07 15.774 184.07 16.686V22.5H182.45V16.92C182.45 15.936 182.204 15.186 181.712 14.67C181.232 14.142 180.578 13.878 179.75 13.878C178.898 13.878 178.22 14.154 177.716 14.706C177.212 15.246 176.96 16.032 176.96 17.064V22.5H175.34V16.92C175.34 15.936 175.094 15.186 174.602 14.67C174.122 14.142 173.468 13.878 172.64 13.878C171.788 13.878 171.11 14.154 170.606 14.706C170.102 15.246 169.85 16.032 169.85 17.064V22.5H168.212V12.636H169.85V14.058C170.174 13.542 170.606 13.146 171.146 12.87C171.698 12.594 172.304 12.456 172.964 12.456C173.792 12.456 174.524 12.642 175.16 13.014C175.796 13.386 176.27 13.932 176.582 14.652C176.858 13.956 177.314 13.416 177.95 13.032C178.586 12.648 179.294 12.456 180.074 12.456ZM188.395 14.454C188.719 13.89 189.199 13.422 189.835 13.05C190.483 12.666 191.233 12.474 192.085 12.474C192.961 12.474 193.753 12.684 194.461 13.104C195.181 13.524 195.745 14.118 196.153 14.886C196.561 15.642 196.765 16.524 196.765 17.532C196.765 18.528 196.561 19.416 196.153 20.196C195.745 20.976 195.181 21.582 194.461 22.014C193.753 22.446 192.961 22.662 192.085 22.662C191.245 22.662 190.501 22.476 189.853 22.104C189.217 21.72 188.731 21.246 188.395 20.682V27.18H186.757V12.636H188.395V14.454ZM195.091 17.532C195.091 16.788 194.941 16.14 194.641 15.588C194.341 15.036 193.933 14.616 193.417 14.328C192.913 14.04 192.355 13.896 191.743 13.896C191.143 13.896 190.585 14.046 190.069 14.346C189.565 14.634 189.157 15.06 188.845 15.624C188.545 16.176 188.395 16.818 188.395 17.55C188.395 18.294 188.545 18.948 188.845 19.512C189.157 20.064 189.565 20.49 190.069 20.79C190.585 21.078 191.143 21.222 191.743 21.222C192.355 21.222 192.913 21.078 193.417 20.79C193.933 20.49 194.341 20.064 194.641 19.512C194.941 18.948 195.091 18.288 195.091 17.532ZM200.559 9.18V22.5H198.921V9.18H200.559ZM211.847 12.636L205.907 27.144H204.215L206.159 22.392L202.181 12.636H203.999L207.095 20.628L210.155 12.636H211.847ZM217.68 17.532C217.68 16.524 217.884 15.642 218.292 14.886C218.7 14.118 219.258 13.524 219.966 13.104C220.686 12.684 221.49 12.474 222.378 12.474C223.146 12.474 223.86 12.654 224.52 13.014C225.18 13.362 225.684 13.824 226.032 14.4V9.18H227.688V22.5H226.032V20.646C225.708 21.234 225.228 21.72 224.592 22.104C223.956 22.476 223.212 22.662 222.36 22.662C221.484 22.662 220.686 22.446 219.966 22.014C219.258 21.582 218.7 20.976 218.292 20.196C217.884 19.416 217.68 18.528 217.68 17.532ZM226.032 17.55C226.032 16.806 225.882 16.158 225.582 15.606C225.282 15.054 224.874 14.634 224.358 14.346C223.854 14.046 223.296 13.896 222.684 13.896C222.072 13.896 221.514 14.04 221.01 14.328C220.506 14.616 220.104 15.036 219.804 15.588C219.504 16.14 219.354 16.788 219.354 17.532C219.354 18.288 219.504 18.948 219.804 19.512C220.104 20.064 220.506 20.49 221.01 20.79C221.514 21.078 222.072 21.222 222.684 21.222C223.296 21.222 223.854 21.078 224.358 20.79C224.874 20.49 225.282 20.064 225.582 19.512C225.882 18.948 226.032 18.294 226.032 17.55ZM239.204 12.636V22.5H237.566V21.042C237.254 21.546 236.816 21.942 236.252 22.23C235.7 22.506 235.088 22.644 234.416 22.644C233.648 22.644 232.958 22.488 232.346 22.176C231.734 21.852 231.248 21.372 230.888 20.736C230.54 20.1 230.366 19.326 230.366 18.414V12.636H231.986V18.198C231.986 19.17 232.232 19.92 232.724 20.448C233.216 20.964 233.888 21.222 234.74 21.222C235.616 21.222 236.306 20.952 236.81 20.412C237.314 19.872 237.566 19.086 237.566 18.054V12.636H239.204ZM253.832 12.456C254.6 12.456 255.284 12.618 255.884 12.942C256.484 13.254 256.958 13.728 257.306 14.364C257.654 15 257.828 15.774 257.828 16.686V22.5H256.208V16.92C256.208 15.936 255.962 15.186 255.47 14.67C254.99 14.142 254.336 13.878 253.508 13.878C252.656 13.878 251.978 14.154 251.474 14.706C250.97 15.246 250.718 16.032 250.718 17.064V22.5H249.098V16.92C249.098 15.936 248.852 15.186 248.36 14.67C247.88 14.142 247.226 13.878 246.398 13.878C245.546 13.878 244.868 14.154 244.364 14.706C243.86 15.246 243.608 16.032 243.608 17.064V22.5H241.97V12.636H243.608V14.058C243.932 13.542 244.364 13.146 244.904 12.87C245.456 12.594 246.062 12.456 246.722 12.456C247.55 12.456 248.282 12.642 248.918 13.014C249.554 13.386 250.028 13.932 250.34 14.652C250.616 13.956 251.072 13.416 251.708 13.032C252.344 12.648 253.052 12.456 253.832 12.456ZM272.377 12.456C273.145 12.456 273.829 12.618 274.429 12.942C275.029 13.254 275.503 13.728 275.851 14.364C276.199 15 276.373 15.774 276.373 16.686V22.5H274.753V16.92C274.753 15.936 274.507 15.186 274.015 14.67C273.535 14.142 272.881 13.878 272.053 13.878C271.201 13.878 270.523 14.154 270.019 14.706C269.515 15.246 269.263 16.032 269.263 17.064V22.5H267.643V16.92C267.643 15.936 267.397 15.186 266.905 14.67C266.425 14.142 265.771 13.878 264.943 13.878C264.091 13.878 263.413 14.154 262.909 14.706C262.405 15.246 262.153 16.032 262.153 17.064V22.5H260.515V12.636H262.153V14.058C262.477 13.542 262.909 13.146 263.449 12.87C264.001 12.594 264.607 12.456 265.267 12.456C266.095 12.456 266.827 12.642 267.463 13.014C268.099 13.386 268.573 13.932 268.885 14.652C269.161 13.956 269.617 13.416 270.253 13.032C270.889 12.648 271.597 12.456 272.377 12.456ZM287.556 12.636L281.616 27.144H279.924L281.868 22.392L277.89 12.636H279.708L282.804 20.628L285.864 12.636H287.556ZM295.999 13.986V19.8C295.999 20.28 296.101 20.622 296.305 20.826C296.509 21.018 296.863 21.114 297.367 21.114H298.573V22.5H297.097C296.185 22.5 295.501 22.29 295.045 21.87C294.589 21.45 294.361 20.76 294.361 19.8V13.986H293.083V12.636H294.361V10.152H295.999V12.636H298.573V13.986H295.999ZM309.558 17.19C309.558 17.502 309.54 17.832 309.504 18.18H301.62C301.68 19.152 302.01 19.914 302.61 20.466C303.222 21.006 303.96 21.276 304.824 21.276C305.532 21.276 306.12 21.114 306.588 20.79C307.068 20.454 307.404 20.01 307.596 19.458H309.36C309.096 20.406 308.568 21.18 307.776 21.78C306.984 22.368 306 22.662 304.824 22.662C303.888 22.662 303.048 22.452 302.304 22.032C301.572 21.612 300.996 21.018 300.576 20.25C300.156 19.47 299.946 18.57 299.946 17.55C299.946 16.53 300.15 15.636 300.558 14.868C300.966 14.1 301.536 13.512 302.268 13.104C303.012 12.684 303.864 12.474 304.824 12.474C305.76 12.474 306.588 12.678 307.308 13.086C308.028 13.494 308.58 14.058 308.964 14.778C309.36 15.486 309.558 16.29 309.558 17.19ZM307.866 16.848C307.866 16.224 307.728 15.69 307.452 15.246C307.176 14.79 306.798 14.448 306.318 14.22C305.85 13.98 305.328 13.86 304.752 13.86C303.924 13.86 303.216 14.124 302.628 14.652C302.052 15.18 301.722 15.912 301.638 16.848H307.866ZM316.868 22.5L314.528 18.828L312.278 22.5H310.568L313.754 17.604L310.568 12.636H312.422L314.762 16.29L316.994 12.636H318.704L315.536 17.514L318.722 22.5H316.868ZM322.331 13.986V19.8C322.331 20.28 322.433 20.622 322.637 20.826C322.841 21.018 323.195 21.114 323.699 21.114H324.905V22.5H323.429C322.517 22.5 321.833 22.29 321.377 21.87C320.921 21.45 320.693 20.76 320.693 19.8V13.986H319.415V12.636H320.693V10.152H322.331V12.636H324.905V13.986H322.331ZM18.688 46.662C17.764 46.662 16.924 46.452 16.168 46.032C15.424 45.612 14.836 45.018 14.404 44.25C13.984 43.47 13.774 42.57 13.774 41.55C13.774 40.542 13.99 39.654 14.422 38.886C14.866 38.106 15.466 37.512 16.222 37.104C16.978 36.684 17.824 36.474 18.76 36.474C19.696 36.474 20.542 36.684 21.298 37.104C22.054 37.512 22.648 38.1 23.08 38.868C23.524 39.636 23.746 40.53 23.746 41.55C23.746 42.57 23.518 43.47 23.062 44.25C22.618 45.018 22.012 45.612 21.244 46.032C20.476 46.452 19.624 46.662 18.688 46.662ZM18.688 45.222C19.276 45.222 19.828 45.084 20.344 44.808C20.86 44.532 21.274 44.118 21.586 43.566C21.91 43.014 22.072 42.342 22.072 41.55C22.072 40.758 21.916 40.086 21.604 39.534C21.292 38.982 20.884 38.574 20.38 38.31C19.876 38.034 19.33 37.896 18.742 37.896C18.142 37.896 17.59 38.034 17.086 38.31C16.594 38.574 16.198 38.982 15.898 39.534C15.598 40.086 15.448 40.758 15.448 41.55C15.448 42.354 15.592 43.032 15.88 43.584C16.18 44.136 16.576 44.55 17.068 44.826C17.56 45.09 18.1 45.222 18.688 45.222ZM29.9137 37.986H27.8437V46.5H26.2057V37.986H24.9277V36.636H26.2057V35.934C26.2057 34.83 26.4877 34.026 27.0517 33.522C27.6277 33.006 28.5457 32.748 29.8057 32.748V34.116C29.0857 34.116 28.5757 34.26 28.2757 34.548C27.9877 34.824 27.8437 35.286 27.8437 35.934V36.636H29.9137V37.986ZM38.6203 37.986V43.8C38.6203 44.28 38.7223 44.622 38.9263 44.826C39.1303 45.018 39.4843 45.114 39.9883 45.114H41.1943V46.5H39.7183C38.8063 46.5 38.1223 46.29 37.6663 45.87C37.2103 45.45 36.9823 44.76 36.9823 43.8V37.986H35.7043V36.636H36.9823V34.152H38.6203V36.636H41.1943V37.986H38.6203ZM48.075 36.456C48.819 36.456 49.491 36.618 50.091 36.942C50.691 37.254 51.159 37.728 51.495 38.364C51.843 39 52.017 39.774 52.017 40.686V46.5H50.397V40.92C50.397 39.936 50.151 39.186 49.659 38.67C49.167 38.142 48.495 37.878 47.643 37.878C46.779 37.878 46.089 38.148 45.573 38.688C45.069 39.228 44.817 40.014 44.817 41.046V46.5H43.179V33.18H44.817V38.04C45.141 37.536 45.585 37.146 46.149 36.87C46.725 36.594 47.367 36.456 48.075 36.456ZM63.6926 41.19C63.6926 41.502 63.6746 41.832 63.6386 42.18H55.7546C55.8146 43.152 56.1446 43.914 56.7446 44.466C57.3566 45.006 58.0946 45.276 58.9586 45.276C59.6666 45.276 60.2546 45.114 60.7226 44.79C61.2026 44.454 61.5386 44.01 61.7306 43.458H63.4946C63.2306 44.406 62.7026 45.18 61.9106 45.78C61.1186 46.368 60.1346 46.662 58.9586 46.662C58.0226 46.662 57.1826 46.452 56.4386 46.032C55.7066 45.612 55.1306 45.018 54.7106 44.25C54.2906 43.47 54.0806 42.57 54.0806 41.55C54.0806 40.53 54.2846 39.636 54.6926 38.868C55.1006 38.1 55.6706 37.512 56.4026 37.104C57.1466 36.684 57.9986 36.474 58.9586 36.474C59.8946 36.474 60.7226 36.678 61.4426 37.086C62.1626 37.494 62.7146 38.058 63.0986 38.778C63.4946 39.486 63.6926 40.29 63.6926 41.19ZM62.0006 40.848C62.0006 40.224 61.8626 39.69 61.5866 39.246C61.3106 38.79 60.9326 38.448 60.4526 38.22C59.9846 37.98 59.4626 37.86 58.8866 37.86C58.0586 37.86 57.3506 38.124 56.7626 38.652C56.1866 39.18 55.8566 39.912 55.7726 40.848H62.0006ZM72.2916 38.454C72.6156 37.89 73.0956 37.422 73.7316 37.05C74.3796 36.666 75.1296 36.474 75.9816 36.474C76.8576 36.474 77.6496 36.684 78.3576 37.104C79.0776 37.524 79.6416 38.118 80.0496 38.886C80.4576 39.642 80.6616 40.524 80.6616 41.532C80.6616 42.528 80.4576 43.416 80.0496 44.196C79.6416 44.976 79.0776 45.582 78.3576 46.014C77.6496 46.446 76.8576 46.662 75.9816 46.662C75.1416 46.662 74.3976 46.476 73.7496 46.104C73.1136 45.72 72.6276 45.246 72.2916 44.682V51.18H70.6536V36.636H72.2916V38.454ZM78.9876 41.532C78.9876 40.788 78.8376 40.14 78.5376 39.588C78.2376 39.036 77.8296 38.616 77.3136 38.328C76.8096 38.04 76.2516 37.896 75.6396 37.896C75.0396 37.896 74.4816 38.046 73.9656 38.346C73.4616 38.634 73.0536 39.06 72.7416 39.624C72.4416 40.176 72.2916 40.818 72.2916 41.55C72.2916 42.294 72.4416 42.948 72.7416 43.512C73.0536 44.064 73.4616 44.49 73.9656 44.79C74.4816 45.078 75.0396 45.222 75.6396 45.222C76.2516 45.222 76.8096 45.078 77.3136 44.79C77.8296 44.49 78.2376 44.064 78.5376 43.512C78.8376 42.948 78.9876 42.288 78.9876 41.532ZM84.4556 38.238C84.7436 37.674 85.1516 37.236 85.6796 36.924C86.2196 36.612 86.8736 36.456 87.6416 36.456V38.148H87.2096C85.3736 38.148 84.4556 39.144 84.4556 41.136V46.5H82.8176V36.636H84.4556V38.238ZM90.3785 35.034C90.0665 35.034 89.8025 34.926 89.5865 34.71C89.3705 34.494 89.2625 34.23 89.2625 33.918C89.2625 33.606 89.3705 33.342 89.5865 33.126C89.8025 32.91 90.0665 32.802 90.3785 32.802C90.6785 32.802 90.9305 32.91 91.1345 33.126C91.3505 33.342 91.4585 33.606 91.4585 33.918C91.4585 34.23 91.3505 34.494 91.1345 34.71C90.9305 34.926 90.6785 35.034 90.3785 35.034ZM91.1705 36.636V46.5H89.5325V36.636H91.1705ZM98.7682 36.456C99.9682 36.456 100.94 36.822 101.684 37.554C102.428 38.274 102.8 39.318 102.8 40.686V46.5H101.18V40.92C101.18 39.936 100.934 39.186 100.442 38.67C99.9502 38.142 99.2782 37.878 98.4262 37.878C97.5622 37.878 96.8722 38.148 96.3562 38.688C95.8522 39.228 95.6002 40.014 95.6002 41.046V46.5H93.9622V36.636H95.6002V38.04C95.9242 37.536 96.3622 37.146 96.9142 36.87C97.4782 36.594 98.0962 36.456 98.7682 36.456ZM107.474 37.986V43.8C107.474 44.28 107.576 44.622 107.78 44.826C107.984 45.018 108.338 45.114 108.842 45.114H110.048V46.5H108.572C107.66 46.5 106.976 46.29 106.52 45.87C106.064 45.45 105.836 44.76 105.836 43.8V37.986H104.558V36.636H105.836V34.152H107.474V36.636H110.048V37.986H107.474ZM112.878 35.034C112.566 35.034 112.302 34.926 112.086 34.71C111.87 34.494 111.762 34.23 111.762 33.918C111.762 33.606 111.87 33.342 112.086 33.126C112.302 32.91 112.566 32.802 112.878 32.802C113.178 32.802 113.43 32.91 113.634 33.126C113.85 33.342 113.958 33.606 113.958 33.918C113.958 34.23 113.85 34.494 113.634 34.71C113.43 34.926 113.178 35.034 112.878 35.034ZM113.67 36.636V46.5H112.032V36.636H113.67ZM121.268 36.456C122.468 36.456 123.44 36.822 124.184 37.554C124.928 38.274 125.3 39.318 125.3 40.686V46.5H123.68V40.92C123.68 39.936 123.434 39.186 122.942 38.67C122.45 38.142 121.778 37.878 120.926 37.878C120.062 37.878 119.372 38.148 118.856 38.688C118.352 39.228 118.1 40.014 118.1 41.046V46.5H116.462V36.636H118.1V38.04C118.424 37.536 118.862 37.146 119.414 36.87C119.978 36.594 120.596 36.456 121.268 36.456ZM132.044 36.474C132.896 36.474 133.64 36.66 134.276 37.032C134.924 37.404 135.404 37.872 135.716 38.436V36.636H137.372V46.716C137.372 47.616 137.18 48.414 136.796 49.11C136.412 49.818 135.86 50.37 135.14 50.766C134.432 51.162 133.604 51.36 132.656 51.36C131.36 51.36 130.28 51.054 129.416 50.442C128.552 49.83 128.042 48.996 127.886 47.94H129.506C129.686 48.54 130.058 49.02 130.622 49.38C131.186 49.752 131.864 49.938 132.656 49.938C133.556 49.938 134.288 49.656 134.852 49.092C135.428 48.528 135.716 47.736 135.716 46.716V44.646C135.392 45.222 134.912 45.702 134.276 46.086C133.64 46.47 132.896 46.662 132.044 46.662C131.168 46.662 130.37 46.446 129.65 46.014C128.942 45.582 128.384 44.976 127.976 44.196C127.568 43.416 127.364 42.528 127.364 41.532C127.364 40.524 127.568 39.642 127.976 38.886C128.384 38.118 128.942 37.524 129.65 37.104C130.37 36.684 131.168 36.474 132.044 36.474ZM135.716 41.55C135.716 40.806 135.566 40.158 135.266 39.606C134.966 39.054 134.558 38.634 134.042 38.346C133.538 38.046 132.98 37.896 132.368 37.896C131.756 37.896 131.198 38.04 130.694 38.328C130.19 38.616 129.788 39.036 129.488 39.588C129.188 40.14 129.038 40.788 129.038 41.532C129.038 42.288 129.188 42.948 129.488 43.512C129.788 44.064 130.19 44.49 130.694 44.79C131.198 45.078 131.756 45.222 132.368 45.222C132.98 45.222 133.538 45.078 134.042 44.79C134.558 44.49 134.966 44.064 135.266 43.512C135.566 42.948 135.716 42.294 135.716 41.55ZM144.327 41.532C144.327 40.524 144.531 39.642 144.939 38.886C145.347 38.118 145.905 37.524 146.613 37.104C147.333 36.684 148.131 36.474 149.007 36.474C149.871 36.474 150.621 36.66 151.257 37.032C151.893 37.404 152.367 37.872 152.679 38.436V36.636H154.335V46.5H152.679V44.664C152.355 45.24 151.869 45.72 151.221 46.104C150.585 46.476 149.841 46.662 148.989 46.662C148.113 46.662 147.321 46.446 146.613 46.014C145.905 45.582 145.347 44.976 144.939 44.196C144.531 43.416 144.327 42.528 144.327 41.532ZM152.679 41.55C152.679 40.806 152.529 40.158 152.229 39.606C151.929 39.054 151.521 38.634 151.005 38.346C150.501 38.046 149.943 37.896 149.331 37.896C148.719 37.896 148.161 38.04 147.657 38.328C147.153 38.616 146.751 39.036 146.451 39.588C146.151 40.14 146.001 40.788 146.001 41.532C146.001 42.288 146.151 42.948 146.451 43.512C146.751 44.064 147.153 44.49 147.657 44.79C148.161 45.078 148.719 45.222 149.331 45.222C149.943 45.222 150.501 45.078 151.005 44.79C151.521 44.49 151.929 44.064 152.229 43.512C152.529 42.948 152.679 42.294 152.679 41.55ZM161.909 36.456C163.109 36.456 164.081 36.822 164.825 37.554C165.569 38.274 165.941 39.318 165.941 40.686V46.5H164.321V40.92C164.321 39.936 164.075 39.186 163.583 38.67C163.091 38.142 162.419 37.878 161.567 37.878C160.703 37.878 160.013 38.148 159.497 38.688C158.993 39.228 158.741 40.014 158.741 41.046V46.5H157.103V36.636H158.741V38.04C159.065 37.536 159.503 37.146 160.055 36.87C160.619 36.594 161.237 36.456 161.909 36.456ZM168.004 41.532C168.004 40.524 168.208 39.642 168.616 38.886C169.024 38.118 169.582 37.524 170.29 37.104C171.01 36.684 171.814 36.474 172.702 36.474C173.47 36.474 174.184 36.654 174.844 37.014C175.504 37.362 176.008 37.824 176.356 38.4V33.18H178.012V46.5H176.356V44.646C176.032 45.234 175.552 45.72 174.916 46.104C174.28 46.476 173.536 46.662 172.684 46.662C171.808 46.662 171.01 46.446 170.29 46.014C169.582 45.582 169.024 44.976 168.616 44.196C168.208 43.416 168.004 42.528 168.004 41.532ZM176.356 41.55C176.356 40.806 176.206 40.158 175.906 39.606C175.606 39.054 175.198 38.634 174.682 38.346C174.178 38.046 173.62 37.896 173.008 37.896C172.396 37.896 171.838 38.04 171.334 38.328C170.83 38.616 170.428 39.036 170.128 39.588C169.828 40.14 169.678 40.788 169.678 41.532C169.678 42.288 169.828 42.948 170.128 43.512C170.428 44.064 170.83 44.49 171.334 44.79C171.838 45.078 172.396 45.222 173.008 45.222C173.62 45.222 174.178 45.078 174.682 44.79C175.198 44.49 175.606 44.064 175.906 43.512C176.206 42.948 176.356 42.294 176.356 41.55ZM187.577 37.986V43.8C187.577 44.28 187.679 44.622 187.883 44.826C188.087 45.018 188.441 45.114 188.945 45.114H190.151V46.5H188.675C187.763 46.5 187.079 46.29 186.623 45.87C186.167 45.45 185.939 44.76 185.939 43.8V37.986H184.661V36.636H185.939V34.152H187.577V36.636H190.151V37.986H187.577ZM200.632 36.636L194.692 51.144H193L194.944 46.392L190.966 36.636H192.784L195.88 44.628L198.94 36.636H200.632ZM203.917 38.454C204.241 37.89 204.721 37.422 205.357 37.05C206.005 36.666 206.755 36.474 207.607 36.474C208.483 36.474 209.275 36.684 209.983 37.104C210.703 37.524 211.267 38.118 211.675 38.886C212.083 39.642 212.287 40.524 212.287 41.532C212.287 42.528 212.083 43.416 211.675 44.196C211.267 44.976 210.703 45.582 209.983 46.014C209.275 46.446 208.483 46.662 207.607 46.662C206.767 46.662 206.023 46.476 205.375 46.104C204.739 45.72 204.253 45.246 203.917 44.682V51.18H202.279V36.636H203.917V38.454ZM210.613 41.532C210.613 40.788 210.463 40.14 210.163 39.588C209.863 39.036 209.455 38.616 208.939 38.328C208.435 38.04 207.877 37.896 207.265 37.896C206.665 37.896 206.107 38.046 205.591 38.346C205.087 38.634 204.679 39.06 204.367 39.624C204.067 40.176 203.917 40.818 203.917 41.55C203.917 42.294 204.067 42.948 204.367 43.512C204.679 44.064 205.087 44.49 205.591 44.79C206.107 45.078 206.665 45.222 207.265 45.222C207.877 45.222 208.435 45.078 208.939 44.79C209.455 44.49 209.863 44.064 210.163 43.512C210.463 42.948 210.613 42.288 210.613 41.532ZM223.443 41.19C223.443 41.502 223.425 41.832 223.389 42.18H215.505C215.565 43.152 215.895 43.914 216.495 44.466C217.107 45.006 217.845 45.276 218.709 45.276C219.417 45.276 220.005 45.114 220.473 44.79C220.953 44.454 221.289 44.01 221.481 43.458H223.245C222.981 44.406 222.453 45.18 221.661 45.78C220.869 46.368 219.885 46.662 218.709 46.662C217.773 46.662 216.933 46.452 216.189 46.032C215.457 45.612 214.881 45.018 214.461 44.25C214.041 43.47 213.831 42.57 213.831 41.55C213.831 40.53 214.035 39.636 214.443 38.868C214.851 38.1 215.421 37.512 216.153 37.104C216.897 36.684 217.749 36.474 218.709 36.474C219.645 36.474 220.473 36.678 221.193 37.086C221.913 37.494 222.465 38.058 222.849 38.778C223.245 39.486 223.443 40.29 223.443 41.19ZM221.751 40.848C221.751 40.224 221.613 39.69 221.337 39.246C221.061 38.79 220.683 38.448 220.203 38.22C219.735 37.98 219.213 37.86 218.637 37.86C217.809 37.86 217.101 38.124 216.513 38.652C215.937 39.18 215.607 39.912 215.523 40.848H221.751ZM229.097 46.662C228.341 46.662 227.663 46.536 227.063 46.284C226.463 46.02 225.989 45.66 225.641 45.204C225.293 44.736 225.101 44.202 225.065 43.602H226.757C226.805 44.094 227.033 44.496 227.441 44.808C227.861 45.12 228.407 45.276 229.079 45.276C229.703 45.276 230.195 45.138 230.555 44.862C230.915 44.586 231.095 44.238 231.095 43.818C231.095 43.386 230.903 43.068 230.519 42.864C230.135 42.648 229.541 42.438 228.737 42.234C228.005 42.042 227.405 41.85 226.937 41.658C226.481 41.454 226.085 41.16 225.749 40.776C225.425 40.38 225.263 39.864 225.263 39.228C225.263 38.724 225.413 38.262 225.713 37.842C226.013 37.422 226.439 37.092 226.991 36.852C227.543 36.6 228.173 36.474 228.881 36.474C229.973 36.474 230.855 36.75 231.527 37.302C232.199 37.854 232.559 38.61 232.607 39.57H230.969C230.933 39.054 230.723 38.64 230.339 38.328C229.967 38.016 229.463 37.86 228.827 37.86C228.239 37.86 227.771 37.986 227.423 38.238C227.075 38.49 226.901 38.82 226.901 39.228C226.901 39.552 227.003 39.822 227.207 40.038C227.423 40.242 227.687 40.41 227.999 40.542C228.323 40.662 228.767 40.8 229.331 40.956C230.039 41.148 230.615 41.34 231.059 41.532C231.503 41.712 231.881 41.988 232.193 42.36C232.517 42.732 232.685 43.218 232.697 43.818C232.697 44.358 232.547 44.844 232.247 45.276C231.947 45.708 231.521 46.05 230.969 46.302C230.429 46.542 229.805 46.662 229.097 46.662ZM244.009 41.19C244.009 41.502 243.991 41.832 243.955 42.18H236.071C236.131 43.152 236.461 43.914 237.061 44.466C237.673 45.006 238.411 45.276 239.275 45.276C239.983 45.276 240.571 45.114 241.039 44.79C241.519 44.454 241.855 44.01 242.047 43.458H243.811C243.547 44.406 243.019 45.18 242.227 45.78C241.435 46.368 240.451 46.662 239.275 46.662C238.339 46.662 237.499 46.452 236.755 46.032C236.023 45.612 235.447 45.018 235.027 44.25C234.607 43.47 234.397 42.57 234.397 41.55C234.397 40.53 234.601 39.636 235.009 38.868C235.417 38.1 235.987 37.512 236.719 37.104C237.463 36.684 238.315 36.474 239.275 36.474C240.211 36.474 241.039 36.678 241.759 37.086C242.479 37.494 243.031 38.058 243.415 38.778C243.811 39.486 244.009 40.29 244.009 41.19ZM242.317 40.848C242.317 40.224 242.179 39.69 241.903 39.246C241.627 38.79 241.249 38.448 240.769 38.22C240.301 37.98 239.779 37.86 239.203 37.86C238.375 37.86 237.667 38.124 237.079 38.652C236.503 39.18 236.173 39.912 236.089 40.848H242.317ZM248.169 37.986V43.8C248.169 44.28 248.271 44.622 248.475 44.826C248.679 45.018 249.033 45.114 249.537 45.114H250.743V46.5H249.267C248.355 46.5 247.671 46.29 247.215 45.87C246.759 45.45 246.531 44.76 246.531 43.8V37.986H245.253V36.636H246.531V34.152H248.169V36.636H250.743V37.986H248.169ZM254.726 37.986V43.8C254.726 44.28 254.828 44.622 255.032 44.826C255.236 45.018 255.59 45.114 256.094 45.114H257.3V46.5H255.824C254.912 46.5 254.228 46.29 253.772 45.87C253.316 45.45 253.088 44.76 253.088 43.8V37.986H251.81V36.636H253.088V34.152H254.726V36.636H257.3V37.986H254.726ZM260.13 35.034C259.818 35.034 259.554 34.926 259.338 34.71C259.122 34.494 259.014 34.23 259.014 33.918C259.014 33.606 259.122 33.342 259.338 33.126C259.554 32.91 259.818 32.802 260.13 32.802C260.43 32.802 260.682 32.91 260.886 33.126C261.102 33.342 261.21 33.606 261.21 33.918C261.21 34.23 261.102 34.494 260.886 34.71C260.682 34.926 260.43 35.034 260.13 35.034ZM260.922 36.636V46.5H259.284V36.636H260.922ZM268.52 36.456C269.72 36.456 270.692 36.822 271.436 37.554C272.18 38.274 272.552 39.318 272.552 40.686V46.5H270.932V40.92C270.932 39.936 270.686 39.186 270.194 38.67C269.702 38.142 269.03 37.878 268.178 37.878C267.314 37.878 266.624 38.148 266.108 38.688C265.604 39.228 265.352 40.014 265.352 41.046V46.5H263.714V36.636H265.352V38.04C265.676 37.536 266.114 37.146 266.666 36.87C267.23 36.594 267.848 36.456 268.52 36.456ZM279.296 36.474C280.148 36.474 280.892 36.66 281.528 37.032C282.176 37.404 282.656 37.872 282.968 38.436V36.636H284.624V46.716C284.624 47.616 284.432 48.414 284.048 49.11C283.664 49.818 283.112 50.37 282.392 50.766C281.684 51.162 280.856 51.36 279.908 51.36C278.612 51.36 277.532 51.054 276.668 50.442C275.804 49.83 275.294 48.996 275.138 47.94H276.758C276.938 48.54 277.31 49.02 277.874 49.38C278.438 49.752 279.116 49.938 279.908 49.938C280.808 49.938 281.54 49.656 282.104 49.092C282.68 48.528 282.968 47.736 282.968 46.716V44.646C282.644 45.222 282.164 45.702 281.528 46.086C280.892 46.47 280.148 46.662 279.296 46.662C278.42 46.662 277.622 46.446 276.902 46.014C276.194 45.582 275.636 44.976 275.228 44.196C274.82 43.416 274.616 42.528 274.616 41.532C274.616 40.524 274.82 39.642 275.228 38.886C275.636 38.118 276.194 37.524 276.902 37.104C277.622 36.684 278.42 36.474 279.296 36.474ZM282.968 41.55C282.968 40.806 282.818 40.158 282.518 39.606C282.218 39.054 281.81 38.634 281.294 38.346C280.79 38.046 280.232 37.896 279.62 37.896C279.008 37.896 278.45 38.04 277.946 38.328C277.442 38.616 277.04 39.036 276.74 39.588C276.44 40.14 276.29 40.788 276.29 41.532C276.29 42.288 276.44 42.948 276.74 43.512C277.04 44.064 277.442 44.49 277.946 44.79C278.45 45.078 279.008 45.222 279.62 45.222C280.232 45.222 280.79 45.078 281.294 44.79C281.81 44.49 282.218 44.064 282.518 43.512C282.818 42.948 282.968 42.294 282.968 41.55ZM15.232 59.034C14.92 59.034 14.656 58.926 14.44 58.71C14.224 58.494 14.116 58.23 14.116 57.918C14.116 57.606 14.224 57.342 14.44 57.126C14.656 56.91 14.92 56.802 15.232 56.802C15.532 56.802 15.784 56.91 15.988 57.126C16.204 57.342 16.312 57.606 16.312 57.918C16.312 58.23 16.204 58.494 15.988 58.71C15.784 58.926 15.532 59.034 15.232 59.034ZM16.024 60.636V70.5H14.386V60.636H16.024ZM23.6217 60.456C24.8217 60.456 25.7937 60.822 26.5377 61.554C27.2817 62.274 27.6537 63.318 27.6537 64.686V70.5H26.0337V64.92C26.0337 63.936 25.7877 63.186 25.2957 62.67C24.8037 62.142 24.1317 61.878 23.2797 61.878C22.4157 61.878 21.7257 62.148 21.2097 62.688C20.7057 63.228 20.4537 64.014 20.4537 65.046V70.5H18.8157V60.636H20.4537V62.04C20.7777 61.536 21.2157 61.146 21.7677 60.87C22.3317 60.594 22.9497 60.456 23.6217 60.456ZM29.7174 65.532C29.7174 64.524 29.9214 63.642 30.3294 62.886C30.7374 62.118 31.2954 61.524 32.0034 61.104C32.7234 60.684 33.5274 60.474 34.4154 60.474C35.1834 60.474 35.8974 60.654 36.5574 61.014C37.2174 61.362 37.7214 61.824 38.0694 62.4V57.18H39.7254V70.5H38.0694V68.646C37.7454 69.234 37.2654 69.72 36.6294 70.104C35.9934 70.476 35.2494 70.662 34.3974 70.662C33.5214 70.662 32.7234 70.446 32.0034 70.014C31.2954 69.582 30.7374 68.976 30.3294 68.196C29.9214 67.416 29.7174 66.528 29.7174 65.532ZM38.0694 65.55C38.0694 64.806 37.9194 64.158 37.6194 63.606C37.3194 63.054 36.9114 62.634 36.3954 62.346C35.8914 62.046 35.3334 61.896 34.7214 61.896C34.1094 61.896 33.5514 62.04 33.0474 62.328C32.5434 62.616 32.1414 63.036 31.8414 63.588C31.5414 64.14 31.3914 64.788 31.3914 65.532C31.3914 66.288 31.5414 66.948 31.8414 67.512C32.1414 68.064 32.5434 68.49 33.0474 68.79C33.5514 69.078 34.1094 69.222 34.7214 69.222C35.3334 69.222 35.8914 69.078 36.3954 68.79C36.9114 68.49 37.3194 68.064 37.6194 67.512C37.9194 66.948 38.0694 66.294 38.0694 65.55ZM51.2414 60.636V70.5H49.6034V69.042C49.2914 69.546 48.8534 69.942 48.2894 70.23C47.7374 70.506 47.1254 70.644 46.4534 70.644C45.6854 70.644 44.9954 70.488 44.3834 70.176C43.7714 69.852 43.2854 69.372 42.9254 68.736C42.5774 68.1 42.4034 67.326 42.4034 66.414V60.636H44.0234V66.198C44.0234 67.17 44.2694 67.92 44.7614 68.448C45.2534 68.964 45.9254 69.222 46.7774 69.222C47.6534 69.222 48.3434 68.952 48.8474 68.412C49.3514 67.872 49.6034 67.086 49.6034 66.054V60.636H51.2414ZM57.4991 70.662C56.7431 70.662 56.0651 70.536 55.4651 70.284C54.8651 70.02 54.3911 69.66 54.0431 69.204C53.6951 68.736 53.5031 68.202 53.4671 67.602H55.1591C55.2071 68.094 55.4351 68.496 55.8431 68.808C56.2631 69.12 56.8091 69.276 57.4811 69.276C58.1051 69.276 58.5971 69.138 58.9571 68.862C59.3171 68.586 59.4971 68.238 59.4971 67.818C59.4971 67.386 59.3051 67.068 58.9211 66.864C58.5371 66.648 57.9431 66.438 57.1391 66.234C56.4071 66.042 55.8071 65.85 55.3391 65.658C54.8831 65.454 54.4871 65.16 54.1511 64.776C53.8271 64.38 53.6651 63.864 53.6651 63.228C53.6651 62.724 53.8151 62.262 54.1151 61.842C54.4151 61.422 54.8411 61.092 55.3931 60.852C55.9451 60.6 56.5751 60.474 57.2831 60.474C58.3751 60.474 59.2571 60.75 59.9291 61.302C60.6011 61.854 60.9611 62.61 61.0091 63.57H59.3711C59.3351 63.054 59.1251 62.64 58.7411 62.328C58.3691 62.016 57.8651 61.86 57.2291 61.86C56.6411 61.86 56.1731 61.986 55.8251 62.238C55.4771 62.49 55.3031 62.82 55.3031 63.228C55.3031 63.552 55.4051 63.822 55.6091 64.038C55.8251 64.242 56.0891 64.41 56.4011 64.542C56.7251 64.662 57.1691 64.8 57.7331 64.956C58.4411 65.148 59.0171 65.34 59.4611 65.532C59.9051 65.712 60.2831 65.988 60.5951 66.36C60.9191 66.732 61.0871 67.218 61.0991 67.818C61.0991 68.358 60.9491 68.844 60.6491 69.276C60.3491 69.708 59.9231 70.05 59.3711 70.302C58.8311 70.542 58.2071 70.662 57.4991 70.662ZM65.4094 61.986V67.8C65.4094 68.28 65.5114 68.622 65.7154 68.826C65.9194 69.018 66.2734 69.114 66.7774 69.114H67.9834V70.5H66.5074C65.5954 70.5 64.9114 70.29 64.4554 69.87C63.9994 69.45 63.7714 68.76 63.7714 67.8V61.986H62.4934V60.636H63.7714V58.152H65.4094V60.636H67.9834V61.986H65.4094ZM71.606 62.238C71.894 61.674 72.302 61.236 72.83 60.924C73.37 60.612 74.024 60.456 74.792 60.456V62.148H74.36C72.524 62.148 71.606 63.144 71.606 65.136V70.5H69.968V60.636H71.606V62.238ZM85.1789 60.636L79.2389 75.144H77.5469L79.4909 70.392L75.5129 60.636H77.3309L80.4269 68.628L83.4869 60.636H85.1789ZM87.3475 70.608C87.0355 70.608 86.7715 70.5 86.5555 70.284C86.3395 70.068 86.2315 69.804 86.2315 69.492C86.2315 69.18 86.3395 68.916 86.5555 68.7C86.7715 68.484 87.0355 68.376 87.3475 68.376C87.6475 68.376 87.8995 68.484 88.1035 68.7C88.3195 68.916 88.4275 69.18 88.4275 69.492C88.4275 69.804 88.3195 70.068 88.1035 70.284C87.8995 70.5 87.6475 70.608 87.3475 70.608ZM97.0416 69.168H101.434V70.5H95.4036V57.954H97.0416V69.168ZM107.475 70.662C106.551 70.662 105.711 70.452 104.955 70.032C104.211 69.612 103.623 69.018 103.191 68.25C102.771 67.47 102.561 66.57 102.561 65.55C102.561 64.542 102.777 63.654 103.209 62.886C103.653 62.106 104.253 61.512 105.009 61.104C105.765 60.684 106.611 60.474 107.547 60.474C108.483 60.474 109.329 60.684 110.085 61.104C110.841 61.512 111.435 62.1 111.867 62.868C112.311 63.636 112.533 64.53 112.533 65.55C112.533 66.57 112.305 67.47 111.849 68.25C111.405 69.018 110.799 69.612 110.031 70.032C109.263 70.452 108.411 70.662 107.475 70.662ZM107.475 69.222C108.063 69.222 108.615 69.084 109.131 68.808C109.647 68.532 110.061 68.118 110.373 67.566C110.697 67.014 110.859 66.342 110.859 65.55C110.859 64.758 110.703 64.086 110.391 63.534C110.079 62.982 109.671 62.574 109.167 62.31C108.663 62.034 108.117 61.896 107.529 61.896C106.929 61.896 106.377 62.034 105.873 62.31C105.381 62.574 104.985 62.982 104.685 63.534C104.385 64.086 104.235 64.758 104.235 65.55C104.235 66.354 104.379 67.032 104.667 67.584C104.967 68.136 105.363 68.55 105.855 68.826C106.347 69.09 106.887 69.222 107.475 69.222ZM116.325 62.238C116.613 61.674 117.021 61.236 117.549 60.924C118.089 60.612 118.743 60.456 119.511 60.456V62.148H119.079C117.243 62.148 116.325 63.144 116.325 65.136V70.5H114.687V60.636H116.325V62.238ZM130.402 65.19C130.402 65.502 130.384 65.832 130.348 66.18H122.464C122.524 67.152 122.854 67.914 123.454 68.466C124.066 69.006 124.804 69.276 125.668 69.276C126.376 69.276 126.964 69.114 127.432 68.79C127.912 68.454 128.248 68.01 128.44 67.458H130.204C129.94 68.406 129.412 69.18 128.62 69.78C127.828 70.368 126.844 70.662 125.668 70.662C124.732 70.662 123.892 70.452 123.148 70.032C122.416 69.612 121.84 69.018 121.42 68.25C121 67.47 120.79 66.57 120.79 65.55C120.79 64.53 120.994 63.636 121.402 62.868C121.81 62.1 122.38 61.512 123.112 61.104C123.856 60.684 124.708 60.474 125.668 60.474C126.604 60.474 127.432 60.678 128.152 61.086C128.872 61.494 129.424 62.058 129.808 62.778C130.204 63.486 130.402 64.29 130.402 65.19ZM128.71 64.848C128.71 64.224 128.572 63.69 128.296 63.246C128.02 62.79 127.642 62.448 127.162 62.22C126.694 61.98 126.172 61.86 125.596 61.86C124.768 61.86 124.06 62.124 123.472 62.652C122.896 63.18 122.566 63.912 122.482 64.848H128.71ZM144.426 60.456C145.194 60.456 145.878 60.618 146.478 60.942C147.078 61.254 147.552 61.728 147.9 62.364C148.248 63 148.422 63.774 148.422 64.686V70.5H146.802V64.92C146.802 63.936 146.556 63.186 146.064 62.67C145.584 62.142 144.93 61.878 144.102 61.878C143.25 61.878 142.572 62.154 142.068 62.706C141.564 63.246 141.312 64.032 141.312 65.064V70.5H139.692V64.92C139.692 63.936 139.446 63.186 138.954 62.67C138.474 62.142 137.82 61.878 136.992 61.878C136.14 61.878 135.462 62.154 134.958 62.706C134.454 63.246 134.202 64.032 134.202 65.064V70.5H132.564V60.636H134.202V62.058C134.526 61.542 134.958 61.146 135.498 60.87C136.05 60.594 136.656 60.456 137.316 60.456C138.144 60.456 138.876 60.642 139.512 61.014C140.148 61.386 140.622 61.932 140.934 62.652C141.21 61.956 141.666 61.416 142.302 61.032C142.938 60.648 143.646 60.456 144.426 60.456ZM157.545 57.954V70.5H155.907V57.954H157.545ZM161.975 62.454C162.299 61.89 162.779 61.422 163.415 61.05C164.063 60.666 164.813 60.474 165.665 60.474C166.541 60.474 167.333 60.684 168.041 61.104C168.761 61.524 169.325 62.118 169.733 62.886C170.141 63.642 170.345 64.524 170.345 65.532C170.345 66.528 170.141 67.416 169.733 68.196C169.325 68.976 168.761 69.582 168.041 70.014C167.333 70.446 166.541 70.662 165.665 70.662C164.825 70.662 164.081 70.476 163.433 70.104C162.797 69.72 162.311 69.246 161.975 68.682V75.18H160.337V60.636H161.975V62.454ZM168.671 65.532C168.671 64.788 168.521 64.14 168.221 63.588C167.921 63.036 167.513 62.616 166.997 62.328C166.493 62.04 165.935 61.896 165.323 61.896C164.723 61.896 164.165 62.046 163.649 62.346C163.145 62.634 162.737 63.06 162.425 63.624C162.125 64.176 161.975 64.818 161.975 65.55C161.975 66.294 162.125 66.948 162.425 67.512C162.737 68.064 163.145 68.49 163.649 68.79C164.165 69.078 164.723 69.222 165.323 69.222C165.935 69.222 166.493 69.078 166.997 68.79C167.513 68.49 167.921 68.064 168.221 67.512C168.521 66.948 168.671 66.288 168.671 65.532ZM175.993 70.662C175.237 70.662 174.559 70.536 173.959 70.284C173.359 70.02 172.885 69.66 172.537 69.204C172.189 68.736 171.997 68.202 171.961 67.602H173.653C173.701 68.094 173.929 68.496 174.337 68.808C174.757 69.12 175.303 69.276 175.975 69.276C176.599 69.276 177.091 69.138 177.451 68.862C177.811 68.586 177.991 68.238 177.991 67.818C177.991 67.386 177.799 67.068 177.415 66.864C177.031 66.648 176.437 66.438 175.633 66.234C174.901 66.042 174.301 65.85 173.833 65.658C173.377 65.454 172.981 65.16 172.645 64.776C172.321 64.38 172.159 63.864 172.159 63.228C172.159 62.724 172.309 62.262 172.609 61.842C172.909 61.422 173.335 61.092 173.887 60.852C174.439 60.6 175.069 60.474 175.777 60.474C176.869 60.474 177.751 60.75 178.423 61.302C179.095 61.854 179.455 62.61 179.503 63.57H177.865C177.829 63.054 177.619 62.64 177.235 62.328C176.863 62.016 176.359 61.86 175.723 61.86C175.135 61.86 174.667 61.986 174.319 62.238C173.971 62.49 173.797 62.82 173.797 63.228C173.797 63.552 173.899 63.822 174.103 64.038C174.319 64.242 174.583 64.41 174.895 64.542C175.219 64.662 175.663 64.8 176.227 64.956C176.935 65.148 177.511 65.34 177.955 65.532C178.399 65.712 178.777 65.988 179.089 66.36C179.413 66.732 179.581 67.218 179.593 67.818C179.593 68.358 179.443 68.844 179.143 69.276C178.843 69.708 178.417 70.05 177.865 70.302C177.325 70.542 176.701 70.662 175.993 70.662ZM190.654 60.636V70.5H189.016V69.042C188.704 69.546 188.266 69.942 187.702 70.23C187.15 70.506 186.538 70.644 185.866 70.644C185.098 70.644 184.408 70.488 183.796 70.176C183.184 69.852 182.698 69.372 182.338 68.736C181.99 68.1 181.816 67.326 181.816 66.414V60.636H183.436V66.198C183.436 67.17 183.682 67.92 184.174 68.448C184.666 68.964 185.338 69.222 186.19 69.222C187.066 69.222 187.756 68.952 188.26 68.412C188.764 67.872 189.016 67.086 189.016 66.054V60.636H190.654ZM205.281 60.456C206.049 60.456 206.733 60.618 207.333 60.942C207.933 61.254 208.407 61.728 208.755 62.364C209.103 63 209.277 63.774 209.277 64.686V70.5H207.657V64.92C207.657 63.936 207.411 63.186 206.919 62.67C206.439 62.142 205.785 61.878 204.957 61.878C204.105 61.878 203.427 62.154 202.923 62.706C202.419 63.246 202.167 64.032 202.167 65.064V70.5H200.547V64.92C200.547 63.936 200.301 63.186 199.809 62.67C199.329 62.142 198.675 61.878 197.847 61.878C196.995 61.878 196.317 62.154 195.813 62.706C195.309 63.246 195.057 64.032 195.057 65.064V70.5H193.419V60.636H195.057V62.058C195.381 61.542 195.813 61.146 196.353 60.87C196.905 60.594 197.511 60.456 198.171 60.456C198.999 60.456 199.731 60.642 200.367 61.014C201.003 61.386 201.477 61.932 201.789 62.652C202.065 61.956 202.521 61.416 203.157 61.032C203.793 60.648 204.501 60.456 205.281 60.456ZM221.659 60.456C222.403 60.456 223.075 60.618 223.675 60.942C224.275 61.254 224.743 61.728 225.079 62.364C225.427 63 225.601 63.774 225.601 64.686V70.5H223.981V64.92C223.981 63.936 223.735 63.186 223.243 62.67C222.751 62.142 222.079 61.878 221.227 61.878C220.363 61.878 219.673 62.148 219.157 62.688C218.653 63.228 218.401 64.014 218.401 65.046V70.5H216.763V57.18H218.401V62.04C218.725 61.536 219.169 61.146 219.733 60.87C220.309 60.594 220.951 60.456 221.659 60.456ZM227.665 65.532C227.665 64.524 227.869 63.642 228.277 62.886C228.685 62.118 229.243 61.524 229.951 61.104C230.671 60.684 231.469 60.474 232.345 60.474C233.209 60.474 233.959 60.66 234.595 61.032C235.231 61.404 235.705 61.872 236.017 62.436V60.636H237.673V70.5H236.017V68.664C235.693 69.24 235.207 69.72 234.559 70.104C233.923 70.476 233.179 70.662 232.327 70.662C231.451 70.662 230.659 70.446 229.951 70.014C229.243 69.582 228.685 68.976 228.277 68.196C227.869 67.416 227.665 66.528 227.665 65.532ZM236.017 65.55C236.017 64.806 235.867 64.158 235.567 63.606C235.267 63.054 234.859 62.634 234.343 62.346C233.839 62.046 233.281 61.896 232.669 61.896C232.057 61.896 231.499 62.04 230.995 62.328C230.491 62.616 230.089 63.036 229.789 63.588C229.489 64.14 229.339 64.788 229.339 65.532C229.339 66.288 229.489 66.948 229.789 67.512C230.089 68.064 230.491 68.49 230.995 68.79C231.499 69.078 232.057 69.222 232.669 69.222C233.281 69.222 233.839 69.078 234.343 68.79C234.859 68.49 235.267 68.064 235.567 67.512C235.867 66.948 236.017 66.294 236.017 65.55ZM243.933 70.662C243.177 70.662 242.499 70.536 241.899 70.284C241.299 70.02 240.825 69.66 240.477 69.204C240.129 68.736 239.937 68.202 239.901 67.602H241.593C241.641 68.094 241.869 68.496 242.277 68.808C242.697 69.12 243.243 69.276 243.915 69.276C244.539 69.276 245.031 69.138 245.391 68.862C245.751 68.586 245.931 68.238 245.931 67.818C245.931 67.386 245.739 67.068 245.355 66.864C244.971 66.648 244.377 66.438 243.573 66.234C242.841 66.042 242.241 65.85 241.773 65.658C241.317 65.454 240.921 65.16 240.585 64.776C240.261 64.38 240.099 63.864 240.099 63.228C240.099 62.724 240.249 62.262 240.549 61.842C240.849 61.422 241.275 61.092 241.827 60.852C242.379 60.6 243.009 60.474 243.717 60.474C244.809 60.474 245.691 60.75 246.363 61.302C247.035 61.854 247.395 62.61 247.443 63.57H245.805C245.769 63.054 245.559 62.64 245.175 62.328C244.803 62.016 244.299 61.86 243.663 61.86C243.075 61.86 242.607 61.986 242.259 62.238C241.911 62.49 241.737 62.82 241.737 63.228C241.737 63.552 241.839 63.822 242.043 64.038C242.259 64.242 242.523 64.41 242.835 64.542C243.159 64.662 243.603 64.8 244.167 64.956C244.875 65.148 245.451 65.34 245.895 65.532C246.339 65.712 246.717 65.988 247.029 66.36C247.353 66.732 247.521 67.218 247.533 67.818C247.533 68.358 247.383 68.844 247.083 69.276C246.783 69.708 246.357 70.05 245.805 70.302C245.265 70.542 244.641 70.662 243.933 70.662ZM256.282 62.472C256.618 61.884 257.11 61.404 257.758 61.032C258.406 60.66 259.144 60.474 259.972 60.474C260.86 60.474 261.658 60.684 262.366 61.104C263.074 61.524 263.632 62.118 264.04 62.886C264.448 63.642 264.652 64.524 264.652 65.532C264.652 66.528 264.448 67.416 264.04 68.196C263.632 68.976 263.068 69.582 262.348 70.014C261.64 70.446 260.848 70.662 259.972 70.662C259.12 70.662 258.37 70.476 257.722 70.104C257.086 69.732 256.606 69.258 256.282 68.682V70.5H254.644V57.18H256.282V62.472ZM262.978 65.532C262.978 64.788 262.828 64.14 262.528 63.588C262.228 63.036 261.82 62.616 261.304 62.328C260.8 62.04 260.242 61.896 259.63 61.896C259.03 61.896 258.472 62.046 257.956 62.346C257.452 62.634 257.044 63.06 256.732 63.624C256.432 64.176 256.282 64.818 256.282 65.55C256.282 66.294 256.432 66.948 256.732 67.512C257.044 68.064 257.452 68.49 257.956 68.79C258.472 69.078 259.03 69.222 259.63 69.222C260.242 69.222 260.8 69.078 261.304 68.79C261.82 68.49 262.228 68.064 262.528 67.512C262.828 66.948 262.978 66.288 262.978 65.532ZM275.808 65.19C275.808 65.502 275.79 65.832 275.754 66.18H267.87C267.93 67.152 268.26 67.914 268.86 68.466C269.472 69.006 270.21 69.276 271.074 69.276C271.782 69.276 272.37 69.114 272.838 68.79C273.318 68.454 273.654 68.01 273.846 67.458H275.61C275.346 68.406 274.818 69.18 274.026 69.78C273.234 70.368 272.25 70.662 271.074 70.662C270.138 70.662 269.298 70.452 268.554 70.032C267.822 69.612 267.246 69.018 266.826 68.25C266.406 67.47 266.196 66.57 266.196 65.55C266.196 64.53 266.4 63.636 266.808 62.868C267.216 62.1 267.786 61.512 268.518 61.104C269.262 60.684 270.114 60.474 271.074 60.474C272.01 60.474 272.838 60.678 273.558 61.086C274.278 61.494 274.83 62.058 275.214 62.778C275.61 63.486 275.808 64.29 275.808 65.19ZM274.116 64.848C274.116 64.224 273.978 63.69 273.702 63.246C273.426 62.79 273.048 62.448 272.568 62.22C272.1 61.98 271.578 61.86 271.002 61.86C270.174 61.86 269.466 62.124 268.878 62.652C268.302 63.18 267.972 63.912 267.888 64.848H274.116ZM286.97 65.19C286.97 65.502 286.952 65.832 286.916 66.18H279.032C279.092 67.152 279.422 67.914 280.022 68.466C280.634 69.006 281.372 69.276 282.236 69.276C282.944 69.276 283.532 69.114 284 68.79C284.48 68.454 284.816 68.01 285.008 67.458H286.772C286.508 68.406 285.98 69.18 285.188 69.78C284.396 70.368 283.412 70.662 282.236 70.662C281.3 70.662 280.46 70.452 279.716 70.032C278.984 69.612 278.408 69.018 277.988 68.25C277.568 67.47 277.358 66.57 277.358 65.55C277.358 64.53 277.562 63.636 277.97 62.868C278.378 62.1 278.948 61.512 279.68 61.104C280.424 60.684 281.276 60.474 282.236 60.474C283.172 60.474 284 60.678 284.72 61.086C285.44 61.494 285.992 62.058 286.376 62.778C286.772 63.486 286.97 64.29 286.97 65.19ZM285.278 64.848C285.278 64.224 285.14 63.69 284.864 63.246C284.588 62.79 284.21 62.448 283.73 62.22C283.262 61.98 282.74 61.86 282.164 61.86C281.336 61.86 280.628 62.124 280.04 62.652C279.464 63.18 279.134 63.912 279.05 64.848H285.278ZM293.938 60.456C295.138 60.456 296.11 60.822 296.854 61.554C297.598 62.274 297.97 63.318 297.97 64.686V70.5H296.35V64.92C296.35 63.936 296.104 63.186 295.612 62.67C295.12 62.142 294.448 61.878 293.596 61.878C292.732 61.878 292.042 62.148 291.526 62.688C291.022 63.228 290.77 64.014 290.77 65.046V70.5H289.132V60.636H290.77V62.04C291.094 61.536 291.532 61.146 292.084 60.87C292.648 60.594 293.266 60.456 293.938 60.456ZM307.443 61.986V67.8C307.443 68.28 307.545 68.622 307.749 68.826C307.953 69.018 308.307 69.114 308.811 69.114H310.017V70.5H308.541C307.629 70.5 306.945 70.29 306.489 69.87C306.033 69.45 305.805 68.76 305.805 67.8V61.986H304.527V60.636H305.805V58.152H307.443V60.636H310.017V61.986H307.443ZM315.889 70.608C315.577 70.608 315.313 70.5 315.097 70.284C314.881 70.068 314.773 69.804 314.773 69.492C314.773 69.18 314.881 68.916 315.097 68.7C315.313 68.484 315.577 68.376 315.889 68.376C316.189 68.376 316.441 68.484 316.645 68.7C316.861 68.916 316.969 69.18 316.969 69.492C316.969 69.804 316.861 70.068 316.645 70.284C316.441 70.5 316.189 70.608 315.889 70.608ZM319.273 70.608C318.961 70.608 318.697 70.5 318.481 70.284C318.265 70.068 318.157 69.804 318.157 69.492C318.157 69.18 318.265 68.916 318.481 68.7C318.697 68.484 318.961 68.376 319.273 68.376C319.573 68.376 319.825 68.484 320.029 68.7C320.245 68.916 320.353 69.18 320.353 69.492C320.353 69.804 320.245 70.068 320.029 70.284C319.825 70.5 319.573 70.608 319.273 70.608ZM312.523 70.608C312.211 70.608 311.947 70.5 311.731 70.284C311.515 70.068 311.407 69.804 311.407 69.492C311.407 69.18 311.515 68.916 311.731 68.7C311.947 68.484 312.211 68.376 312.523 68.376C312.823 68.376 313.075 68.484 313.279 68.7C313.495 68.916 313.603 69.18 313.603 69.492C313.603 69.804 313.495 70.068 313.279 70.284C313.075 70.5 312.823 70.608 312.523 70.608Z" fill="#562C2C" fill-opacity="0.8"/>
</g>
<rect x="0.5" y="1" width="347" height="101" rx="4.5" stroke="#9747FF" stroke-dasharray="10 5"/>
<defs>
<clipPath id="clip0_0_4263">
<rect y="0.5" width="348" height="102" rx="5" fill="white"/>
</clipPath>
</defs>
</svg>
