<svg width="60" height="98" viewBox="0 0 60 98" fill="none" xmlns="http://www.w3.org/2000/svg">
<rect x="0.5" y="1" width="59" height="96" rx="4.5" stroke="#9747FF" stroke-dasharray="10 5"/>
<path fill-rule="evenodd" clip-rule="evenodd" d="M40.2216 18.25V24.4067C40.5174 24.4612 40.8003 24.5762 41.0523 24.7459C41.4153 24.9905 41.6975 25.3375 41.8639 25.7426C42.0303 26.1476 42.0738 26.5929 41.989 27.0225C41.9043 27.4522 41.6949 27.8475 41.3866 28.1584C41.0782 28.4692 40.6847 28.6816 40.2555 28.7676C39.8263 28.8537 39.3814 28.8095 38.9774 28.6408C38.5734 28.4721 38.229 28.1868 37.9871 27.8218C37.7453 27.4568 37.6165 27.0283 37.6165 26.5904H38.929C38.929 26.7711 38.9821 26.9473 39.0812 27.0967C39.1801 27.246 39.3202 27.3616 39.4832 27.4296C39.646 27.4977 39.8249 27.5154 39.9974 27.4808C40.17 27.4462 40.3293 27.3606 40.4548 27.2341C40.5803 27.1075 40.6664 26.9456 40.7014 26.7685C40.7363 26.5914 40.7183 26.4079 40.6499 26.2414C40.5815 26.0749 40.4661 25.9335 40.319 25.8344C40.1719 25.7354 39.9997 25.6828 39.8239 25.6828H39.5505L38.9091 25.0362V18.25H40.2216ZM19.7691 18.6363H20.9297L21.1109 18.7864L21.1126 18.7878L21.1239 18.7969C21.1349 18.8057 21.1527 18.8197 21.177 18.8382C21.2255 18.8752 21.2996 18.9302 21.3964 18.9971C21.5904 19.1312 21.8729 19.3116 22.2203 19.492C22.9062 19.8482 23.805 20.1833 24.7577 20.1995C25.7805 19.8537 26.8527 19.6778 27.9322 19.6789H28.7591C31.6656 19.6789 34.2589 21.0596 35.9548 23.3308L36.0852 23.5054V24.4779L35.6106 24.6147C34.7896 24.8512 34.009 25.2718 33.4224 25.6453C33.3464 25.6937 33.2741 25.741 33.2059 25.7867C33.6843 25.9276 34.3664 26.0883 35.2525 26.2L35.8267 26.2723V27.382L35.6364 27.5738C34.5551 28.664 33.5279 29.3771 32.4012 29.8095C31.2783 30.2404 30.1034 30.3743 28.7591 30.3743H27.9318C26.0842 30.3743 24.4517 32.101 24.4517 34.4096C24.4517 36.5658 25.8759 38.2144 27.5694 38.4226C28.8083 36.4275 30.9755 34.7959 33.5159 34.7959H34.1722V36.065L33.8804 36.2585L33.8794 36.2591L33.8786 36.2597L33.8697 36.2659C33.8598 36.2728 33.8435 36.2844 33.8215 36.3006C33.7776 36.3331 33.7117 36.3837 33.6311 36.4514C33.469 36.5875 33.2523 36.7889 33.0366 37.0464C32.5994 37.5684 32.2074 38.2705 32.2074 39.1011C32.2074 39.9316 32.5994 40.6338 33.0366 41.1557C33.2523 41.4133 33.469 41.6146 33.6311 41.7507C33.7117 41.8184 33.7776 41.8691 33.8215 41.9015C33.8435 41.9178 33.8598 41.9294 33.8697 41.9363L33.8786 41.9425L33.8794 41.943L33.8804 41.9436L34.1722 42.1372V43.4062H33.5159C30.963 43.4062 28.7869 41.7585 27.5511 39.75C25.0454 39.6535 22.6631 38.6077 20.885 36.815C19.0171 34.9319 17.9688 32.3789 17.9688 29.7181C17.9688 26.0223 18.3616 23.3667 18.7609 21.6222C18.9605 20.7501 19.1616 20.1063 19.3157 19.6746C19.3928 19.4588 19.4581 19.2961 19.5055 19.1845C19.5293 19.1287 19.5485 19.0856 19.5626 19.0551C19.5696 19.0399 19.5753 19.0278 19.5796 19.0188L19.585 19.0076L19.5869 19.0037L19.5876 19.0022C19.5876 19.0022 19.5882 19.001 20.1761 19.2926L19.5882 19.001L19.7691 18.6363ZM20.583 20.0299C20.5729 20.0573 20.5625 20.086 20.5518 20.116C20.4151 20.4988 20.2284 21.093 20.0403 21.915C19.899 22.5323 19.7568 23.2784 19.6343 24.1603C19.6906 24.0748 19.7483 23.9901 19.8074 23.9062C20.5946 22.7884 21.5963 21.8508 22.7456 21.1443C22.3226 20.9987 21.9412 20.826 21.6155 20.6569C21.21 20.4463 20.8801 20.2358 20.65 20.0767C20.6267 20.0606 20.6043 20.0449 20.583 20.0299ZM19.2812 29.7181C19.2812 32.0343 20.1939 34.2545 21.8168 35.8907C22.4693 36.5485 23.2151 37.0903 24.0227 37.503C23.4629 36.6198 23.1392 35.5458 23.1392 34.4096C23.1392 31.5366 25.2087 29.0618 27.9318 29.0618H28.7591C30.0197 29.0618 31.0163 28.9351 31.9309 28.5841C32.6132 28.3223 33.2761 27.9254 33.9807 27.3243C33.4352 27.2165 32.9904 27.0966 32.6465 26.9883C32.3701 26.9012 32.159 26.8216 32.0133 26.762C31.9405 26.7321 31.8841 26.7073 31.844 26.689C31.8239 26.6798 31.808 26.6723 31.7961 26.6666L31.7814 26.6594L31.7763 26.6569L31.7744 26.6559L31.7735 26.6555C31.7735 26.6555 31.7728 26.6552 32.0682 26.0691L31.7735 26.6555L31.4119 26.4733V25.5027L31.646 25.3061L32.0682 25.8085C31.646 25.3061 31.646 25.3061 31.646 25.3061L31.6471 25.3052L31.6487 25.3039L31.6536 25.2998L31.6701 25.2862C31.684 25.2747 31.7038 25.2587 31.7291 25.2385C31.7797 25.1981 31.8525 25.1412 31.945 25.0718C32.1296 24.9333 32.3939 24.7442 32.7175 24.5382C33.1918 24.2362 33.8075 23.8887 34.4958 23.6129C33.0474 21.9618 31.0119 20.9914 28.7591 20.9914H27.9318C26.9625 20.9904 25.9991 21.154 25.0835 21.4755C23.3895 22.072 21.9204 23.1853 20.8805 24.662C19.8405 26.1388 19.2813 27.9058 19.2812 29.7181ZM31.8647 41.7912C31.3722 41.1448 30.8949 40.2291 30.8949 39.1011C30.8949 37.9731 31.3722 37.0573 31.8647 36.4109C30.575 36.8873 29.4504 37.8846 28.6928 39.1011C29.4504 40.3175 30.575 41.3148 31.8647 41.7912Z" fill="#F0F0F0"/>
<path fill-rule="evenodd" clip-rule="evenodd" d="M33.827 24.9449C34.4095 24.724 34.8124 24.5712 34.8124 23.5002C34.8124 22.6725 31.7499 20.8752 29.9999 20.8752C29.5418 20.3036 27.6235 20.5486 26.1619 20.7352C25.5773 20.8098 25.0657 20.8752 24.7499 20.8752C22.8169 20.8752 18.625 27.2547 18.625 29.1877C18.625 29.5152 21.2053 37.3008 22.5625 37.5002C22.8751 37.5461 23.0735 37.6323 23.2665 37.7161C23.5315 37.8313 23.7863 37.942 24.3125 37.9377C23.4375 34.4377 24.8975 30.1718 25.625 30.0627C26.2258 29.9725 27.0391 29.8621 27.9018 29.745C29.2795 29.5581 30.7833 29.354 31.75 29.1877C32.971 28.9775 33.418 28.4838 33.7907 28.0722C34.0728 27.7606 34.3122 27.4962 34.8124 27.4377C35.8725 27.3136 34.121 26.7766 32.9874 26.4291C32.4121 26.2527 31.9959 26.1251 32.1874 26.1251C32.7728 25.3448 33.3581 25.1228 33.827 24.9449ZM30.6545 22.4201H29.3438V24.5016H30.6545V22.4201Z" fill="#F0F0F0"/>
<path fill-rule="evenodd" clip-rule="evenodd" d="M40.2216 57.25V63.4067C40.5174 63.4612 40.8003 63.5762 41.0523 63.7459C41.4153 63.9905 41.6975 64.3375 41.8639 64.7426C42.0303 65.1476 42.0738 65.5929 41.989 66.0225C41.9043 66.4522 41.6949 66.8475 41.3866 67.1584C41.0782 67.4692 40.6847 67.6816 40.2555 67.7676C39.8263 67.8537 39.3814 67.8095 38.9774 67.6408C38.5734 67.4721 38.229 67.1868 37.9871 66.8218C37.7453 66.4568 37.6165 66.0283 37.6165 65.5904H38.929C38.929 65.7711 38.9821 65.9473 39.0812 66.0967C39.1801 66.246 39.3202 66.3616 39.4832 66.4296C39.646 66.4977 39.8249 66.5154 39.9974 66.4808C40.17 66.4462 40.3293 66.3606 40.4548 66.2341C40.5803 66.1075 40.6664 65.9456 40.7014 65.7685C40.7363 65.5914 40.7183 65.4079 40.6499 65.2414C40.5815 65.0749 40.4661 64.9335 40.319 64.8344C40.1719 64.7354 39.9997 64.6828 39.8239 64.6828H39.5505L38.9091 64.0362V57.25H40.2216ZM19.7691 57.6363H20.9297L21.1109 57.7864L21.1126 57.7878L21.1239 57.7969C21.1349 57.8057 21.1527 57.8197 21.177 57.8382C21.2255 57.8752 21.2996 57.9302 21.3964 57.9971C21.5904 58.1312 21.8729 58.3116 22.2203 58.492C22.9062 58.8482 23.805 59.1833 24.7577 59.1995C25.7805 58.8537 26.8527 58.6778 27.9322 58.6789H28.7591C31.6656 58.6789 34.2589 60.0596 35.9548 62.3308L36.0852 62.5054V63.4779L35.6106 63.6147C34.7896 63.8512 34.009 64.2718 33.4224 64.6453C33.3464 64.6937 33.2741 64.741 33.2059 64.7867C33.6843 64.9276 34.3664 65.0883 35.2525 65.2L35.8267 65.2723V66.382L35.6364 66.5738C34.5551 67.664 33.5279 68.3771 32.4012 68.8095C31.2783 69.2404 30.1034 69.3743 28.7591 69.3743H27.9318C26.0842 69.3743 24.4517 71.101 24.4517 73.4096C24.4517 75.5658 25.8759 77.2144 27.5694 77.4226C28.8083 75.4275 30.9755 73.7959 33.5159 73.7959H34.1722V75.065L33.8804 75.2585L33.8794 75.2591L33.8786 75.2597L33.8697 75.2659C33.8598 75.2728 33.8435 75.2844 33.8215 75.3006C33.7776 75.3331 33.7117 75.3837 33.6311 75.4514C33.469 75.5875 33.2523 75.7889 33.0366 76.0464C32.5994 76.5684 32.2074 77.2705 32.2074 78.1011C32.2074 78.9316 32.5994 79.6338 33.0366 80.1557C33.2523 80.4133 33.469 80.6146 33.6311 80.7507C33.7117 80.8184 33.7776 80.8691 33.8215 80.9015C33.8435 80.9178 33.8598 80.9294 33.8697 80.9363L33.8786 80.9425L33.8794 80.943L33.8804 80.9436L34.1722 81.1372V82.4062H33.5159C30.963 82.4062 28.7869 80.7585 27.5511 78.75C25.0454 78.6535 22.6631 77.6077 20.885 75.815C19.0171 73.9319 17.9688 71.3789 17.9688 68.7181C17.9688 65.0223 18.3616 62.3667 18.7609 60.6222C18.9605 59.7501 19.1616 59.1063 19.3157 58.6746C19.3928 58.4588 19.4581 58.2961 19.5055 58.1845C19.5293 58.1287 19.5485 58.0856 19.5626 58.0551C19.5696 58.0399 19.5753 58.0278 19.5796 58.0188L19.585 58.0076L19.5869 58.0037L19.5876 58.0022C19.5876 58.0022 19.5882 58.001 20.1761 58.2926L19.5882 58.001L19.7691 57.6363ZM20.583 59.0299C20.5729 59.0573 20.5625 59.086 20.5518 59.116C20.4151 59.4988 20.2284 60.093 20.0403 60.915C19.899 61.5323 19.7568 62.2784 19.6343 63.1603C19.6906 63.0748 19.7483 62.9901 19.8074 62.9062C20.5946 61.7884 21.5963 60.8508 22.7456 60.1443C22.3226 59.9987 21.9412 59.826 21.6155 59.6569C21.21 59.4463 20.8801 59.2358 20.65 59.0767C20.6267 59.0606 20.6043 59.0449 20.583 59.0299ZM19.2812 68.7181C19.2812 71.0343 20.1939 73.2545 21.8168 74.8907C22.4693 75.5485 23.2151 76.0903 24.0227 76.503C23.4629 75.6198 23.1392 74.5458 23.1392 73.4096C23.1392 70.5366 25.2087 68.0618 27.9318 68.0618H28.7591C30.0197 68.0618 31.0163 67.9351 31.9309 67.5841C32.6132 67.3223 33.2761 66.9254 33.9807 66.3243C33.4352 66.2165 32.9904 66.0966 32.6465 65.9883C32.3701 65.9012 32.159 65.8216 32.0133 65.762C31.9405 65.7321 31.8841 65.7073 31.844 65.689C31.8239 65.6798 31.808 65.6723 31.7961 65.6666L31.7814 65.6594L31.7763 65.6569L31.7744 65.6559L31.7735 65.6555C31.7735 65.6555 31.7728 65.6552 32.0682 65.0691L31.7735 65.6555L31.4119 65.4733V64.5027L31.646 64.3061L32.0682 64.8085C31.646 64.3061 31.646 64.3061 31.646 64.3061L31.6471 64.3052L31.6487 64.3039L31.6536 64.2998L31.6701 64.2862C31.684 64.2747 31.7038 64.2587 31.7291 64.2385C31.7797 64.1981 31.8525 64.1412 31.945 64.0718C32.1296 63.9333 32.3939 63.7442 32.7175 63.5382C33.1918 63.2362 33.8075 62.8887 34.4958 62.6129C33.0474 60.9618 31.0119 59.9914 28.7591 59.9914H27.9318C26.9625 59.9904 25.9991 60.154 25.0835 60.4755C23.3895 61.072 21.9204 62.1853 20.8805 63.662C19.8405 65.1388 19.2813 66.9058 19.2812 68.7181ZM31.8647 80.7912C31.3722 80.1448 30.8949 79.2291 30.8949 78.1011C30.8949 76.9731 31.3722 76.0573 31.8647 75.4109C30.575 75.8873 29.4504 76.8846 28.6928 78.1011C29.4504 79.3175 30.575 80.3148 31.8647 80.7912Z" fill="#F2542D"/>
<path fill-rule="evenodd" clip-rule="evenodd" d="M33.827 63.9449C34.4095 63.724 34.8124 63.5712 34.8124 62.5002C34.8124 61.6725 31.7499 59.8752 29.9999 59.8752C29.5418 59.3036 27.6235 59.5486 26.1619 59.7352C25.5773 59.8098 25.0657 59.8752 24.7499 59.8752C22.8169 59.8752 18.625 66.2547 18.625 68.1877C18.625 68.5152 21.2053 76.3008 22.5625 76.5002C22.8751 76.5461 23.0735 76.6323 23.2665 76.7161C23.5315 76.8313 23.7863 76.942 24.3125 76.9377C23.4375 73.4377 24.8975 69.1718 25.625 69.0627C26.2258 68.9725 27.0391 68.8621 27.9018 68.745C29.2795 68.5581 30.7833 68.354 31.75 68.1877C32.971 67.9775 33.418 67.4838 33.7907 67.0722C34.0728 66.7606 34.3122 66.4962 34.8124 66.4377C35.8725 66.3136 34.121 65.7766 32.9874 65.4291C32.4121 65.2527 31.9959 65.1251 32.1874 65.1251C32.7728 64.3448 33.3581 64.1228 33.827 63.9449ZM30.6545 61.4201H29.3438V63.5016H30.6545V61.4201Z" fill="#F2542D"/>
</svg>
