<svg width="20" height="20" viewBox="0 0 20 20" fill="none" xmlns="http://www.w3.org/2000/svg">
<path d="M16.8324 5.71808V1.25M15.9091 7.20745C15.9091 7.42837 15.9741 7.64434 16.0958 7.82803C16.2176 8.01172 16.3906 8.1549 16.5931 8.23944C16.7955 8.32398 17.0183 8.34611 17.2332 8.303C17.4481 8.2599 17.6455 8.15352 17.8005 7.9973C17.9554 7.84108 18.061 7.64205 18.1037 7.42537C18.1465 7.20869 18.1245 6.98409 18.0407 6.77998C17.9568 6.57587 17.8148 6.40142 17.6326 6.27868C17.4871 6.18065 17.3211 6.11913 17.1486 6.09833C17.0648 6.08822 16.9836 6.05672 16.9242 5.9968V5.9968C16.8654 5.93752 16.8324 5.8574 16.8324 5.7739V5.34574M8.52273 16.1436C6.89034 16.1436 5.56818 14.6431 5.56818 12.7926C5.56818 10.942 6.89034 9.44149 8.52273 9.44149H9.11364C10.9565 9.44149 12.1921 9.07623 13.6509 7.62216C13.6778 7.59536 13.6932 7.55849 13.6932 7.52052V7.52052C13.6932 7.448 13.6391 7.3869 13.5672 7.37706C12.4727 7.22719 11.8081 6.97835 11.5734 6.87851C11.5136 6.85307 11.4773 6.79411 11.4773 6.72913V6.72913C11.4773 6.67829 11.4991 6.63063 11.5389 6.59905C11.7793 6.40848 12.6932 5.72029 13.7542 5.3832C13.8271 5.36004 13.8778 5.29307 13.8778 5.21658V5.21658C13.8778 5.17957 13.8659 5.14344 13.8435 5.11398C12.716 3.63179 11.0154 2.73936 9.11364 2.73936H8.52273C7.77715 2.7386 7.03677 2.86447 6.33267 3.1117M8.52273 16.1436C6.75964 16.1436 5.06876 15.4375 3.82207 14.1806C2.57538 12.9237 1.875 11.219 1.875 9.44149M8.52273 16.1436C9.30003 14.7398 10.7369 13.593 12.3901 13.5392C12.457 13.537 12.5114 13.5915 12.5114 13.6584V13.6584C12.5114 13.699 12.4917 13.7365 12.459 13.7605C12.2043 13.9471 11.108 14.8272 11.108 16.1436C11.108 17.46 12.2043 18.3401 12.459 18.5268C12.4917 18.5508 12.5114 18.5882 12.5114 18.6288V18.6288C12.5114 18.6958 12.457 18.7502 12.3901 18.748C10.7369 18.6943 9.30003 17.5474 8.52273 16.1436ZM6.33267 3.1117H6.30682C4.96739 3.1117 3.80766 2.33524 3.45905 2.07705C3.38855 2.02483 3.30426 1.99468 3.21653 1.99468V1.99468C3.07346 1.99468 2.94426 2.07479 2.89151 2.20778C2.6262 2.87659 1.875 5.14924 1.875 9.44149M6.33267 3.1117C5.03024 3.57033 3.90151 4.42596 3.10283 5.56007C2.30415 6.69417 1.87506 8.05061 1.875 9.44149M10 5.71808V4.22872" stroke="#562C2C" stroke-width="1.25"/>
</svg>
