<svg width="203" height="86" viewBox="0 0 203 86" fill="none" xmlns="http://www.w3.org/2000/svg">
<rect x="0.5" y="0.5" width="202" height="85" rx="4.5" stroke="#9747FF" stroke-dasharray="10 5"/>
<path d="M19.09 19.31V20.642H15.508V32H13.87V20.642H10.288V19.31H19.09ZM25.2003 21.992C26.1483 21.992 26.9943 22.196 27.7383 22.604C28.4943 23.012 29.0823 23.6 29.5023 24.368C29.9343 25.136 30.1503 26.036 30.1503 27.068C30.1503 28.1 29.9343 29 29.5023 29.768C29.0823 30.524 28.4943 31.106 27.7383 31.514C26.9943 31.922 26.1483 32.126 25.2003 32.126C24.2523 32.126 23.4003 31.922 22.6443 31.514C21.9003 31.106 21.3123 30.524 20.8803 29.768C20.4483 29 20.2323 28.1 20.2323 27.068C20.2323 26.036 20.4483 25.136 20.8803 24.368C21.3123 23.6 21.9003 23.012 22.6443 22.604C23.4003 22.196 24.2523 21.992 25.2003 21.992ZM25.2003 23.432C24.6123 23.432 24.0663 23.564 23.5623 23.828C23.0703 24.092 22.6683 24.5 22.3563 25.052C22.0563 25.592 21.9063 26.264 21.9063 27.068C21.9063 27.86 22.0563 28.532 22.3563 29.084C22.6683 29.624 23.0703 30.026 23.5623 30.29C24.0663 30.554 24.6123 30.686 25.2003 30.686C25.7883 30.686 26.3283 30.554 26.8203 30.29C27.3243 30.026 27.7263 29.624 28.0263 29.084C28.3383 28.532 28.4943 27.86 28.4943 27.068C28.4943 26.264 28.3383 25.592 28.0263 25.052C27.7263 24.5 27.3243 24.092 26.8203 23.828C26.3283 23.564 25.7883 23.432 25.2003 23.432ZM41.0687 22.118V32H39.4307V29.678C39.1787 30.482 38.7287 31.1 38.0807 31.532C37.4447 31.952 36.7007 32.162 35.8487 32.162C34.7087 32.162 33.7847 31.796 33.0767 31.064C32.3687 30.32 32.0147 29.258 32.0147 27.878V22.118H33.6527V27.716C33.6527 28.7 33.9047 29.462 34.4087 30.002C34.9127 30.53 35.5967 30.794 36.4607 30.794C37.3607 30.794 38.0807 30.506 38.6207 29.93C39.1607 29.342 39.4307 28.49 39.4307 27.374V22.118H41.0687ZM45.3309 24.116C45.6549 23.432 46.1289 22.904 46.7529 22.532C47.3769 22.148 48.1209 21.956 48.9849 21.956V23.738H48.4809C47.5569 23.738 46.8009 23.978 46.2129 24.458C45.6249 24.926 45.3309 25.706 45.3309 26.798V32H43.6929V22.118H45.3309V24.116ZM50.3131 19.22C50.3131 18.92 50.4151 18.68 50.6191 18.5C50.8231 18.308 51.0931 18.212 51.4291 18.212C51.7651 18.212 52.0351 18.308 52.2391 18.5C52.4431 18.68 52.5451 18.92 52.5451 19.22C52.5451 19.52 52.4431 19.766 52.2391 19.958C52.0351 20.138 51.7651 20.228 51.4291 20.228C51.0931 20.228 50.8231 20.138 50.6191 19.958C50.4151 19.766 50.3131 19.52 50.3131 19.22ZM52.2391 22.118V32H50.6011V22.118H52.2391ZM57.9686 21.992C59.0846 21.992 59.9786 22.286 60.6506 22.874C61.3346 23.45 61.7486 24.23 61.8926 25.214H60.3266C60.2546 24.626 60.0086 24.146 59.5886 23.774C59.1806 23.39 58.6286 23.198 57.9326 23.198C57.3446 23.198 56.8826 23.342 56.5466 23.63C56.2226 23.906 56.0606 24.284 56.0606 24.764C56.0606 25.124 56.1686 25.418 56.3846 25.646C56.6126 25.862 56.8886 26.03 57.2126 26.15C57.5486 26.258 58.0046 26.378 58.5806 26.51C59.3126 26.678 59.9006 26.852 60.3446 27.032C60.8006 27.2 61.1846 27.476 61.4966 27.86C61.8206 28.244 61.9826 28.76 61.9826 29.408C61.9826 30.212 61.6766 30.866 61.0646 31.37C60.4646 31.874 59.6606 32.126 58.6526 32.126C57.4766 32.126 56.5166 31.844 55.7726 31.28C55.0286 30.716 54.5906 29.93 54.4586 28.922H56.0426C56.1026 29.522 56.3606 30.008 56.8166 30.38C57.2846 30.752 57.8966 30.938 58.6526 30.938C59.2166 30.938 59.6546 30.794 59.9666 30.506C60.2906 30.218 60.4526 29.84 60.4526 29.372C60.4526 28.988 60.3386 28.682 60.1106 28.454C59.8826 28.226 59.6006 28.052 59.2646 27.932C58.9286 27.812 58.4666 27.686 57.8786 27.554C57.1466 27.386 56.5586 27.218 56.1146 27.05C55.6826 26.882 55.3106 26.618 54.9986 26.258C54.6986 25.886 54.5486 25.388 54.5486 24.764C54.5486 23.936 54.8546 23.27 55.4666 22.766C56.0786 22.25 56.9126 21.992 57.9686 21.992ZM76.3214 21.956C77.4734 21.956 78.3974 22.328 79.0934 23.072C79.8014 23.804 80.1554 24.866 80.1554 26.258V32H78.5174V26.402C78.5174 25.43 78.2774 24.686 77.7974 24.17C77.3294 23.654 76.6814 23.396 75.8534 23.396C74.9894 23.396 74.2934 23.684 73.7654 24.26C73.2494 24.824 72.9914 25.658 72.9914 26.762V32H71.3534V26.402C71.3534 25.43 71.1134 24.686 70.6334 24.17C70.1534 23.654 69.5054 23.396 68.6894 23.396C67.8134 23.396 67.1114 23.684 66.5834 24.26C66.0674 24.824 65.8094 25.658 65.8094 26.762V32H64.1714V22.118H65.8094V24.368C66.0494 23.588 66.4754 22.994 67.0874 22.586C67.7114 22.166 68.4254 21.956 69.2294 21.956C70.0694 21.956 70.7954 22.172 71.4074 22.604C72.0314 23.024 72.4754 23.648 72.7394 24.476C73.0154 23.672 73.4774 23.054 74.1254 22.622C74.7734 22.178 75.5054 21.956 76.3214 21.956ZM91.7888 26.51C91.7888 26.858 91.7648 27.158 91.7168 27.41H83.8148C83.8508 28.538 84.1688 29.384 84.7688 29.948C85.3808 30.512 86.1248 30.794 87.0008 30.794C87.7928 30.794 88.4528 30.596 88.9808 30.2C89.5208 29.792 89.8508 29.252 89.9708 28.58H91.7168C91.5968 29.264 91.3268 29.876 90.9068 30.416C90.4988 30.956 89.9648 31.376 89.3048 31.676C88.6448 31.976 87.9008 32.126 87.0728 32.126C86.1248 32.126 85.2848 31.922 84.5528 31.514C83.8208 31.106 83.2448 30.524 82.8248 29.768C82.4168 29 82.2128 28.1 82.2128 27.068C82.2128 26.036 82.4168 25.136 82.8248 24.368C83.2448 23.6 83.8208 23.012 84.5528 22.604C85.2848 22.196 86.1248 21.992 87.0728 21.992C88.0328 21.992 88.8668 22.196 89.5748 22.604C90.2948 23.012 90.8408 23.558 91.2128 24.242C91.5968 24.926 91.7888 25.682 91.7888 26.51ZM90.1328 26.618C90.1688 25.886 90.0488 25.274 89.7728 24.782C89.4968 24.29 89.1188 23.924 88.6388 23.684C88.1588 23.444 87.6368 23.324 87.0728 23.324C86.1728 23.324 85.4168 23.606 84.8048 24.17C84.1928 24.722 83.8628 25.538 83.8148 26.618H90.1328ZM102.428 21.992C103.388 21.992 104.198 22.232 104.858 22.712C105.53 23.192 105.998 23.834 106.262 24.638V18.68H107.9V32H106.262V29.48C105.998 30.284 105.53 30.926 104.858 31.406C104.198 31.886 103.388 32.126 102.428 32.126C101.552 32.126 100.772 31.922 100.088 31.514C99.4045 31.106 98.8645 30.524 98.4685 29.768C98.0845 29 97.8925 28.1 97.8925 27.068C97.8925 26.036 98.0845 25.136 98.4685 24.368C98.8645 23.6 99.4045 23.012 100.088 22.604C100.772 22.196 101.552 21.992 102.428 21.992ZM102.896 23.45C101.888 23.45 101.078 23.774 100.466 24.422C99.8665 25.058 99.5665 25.94 99.5665 27.068C99.5665 28.196 99.8665 29.084 100.466 29.732C101.078 30.368 101.888 30.686 102.896 30.686C103.544 30.686 104.12 30.536 104.624 30.236C105.14 29.936 105.542 29.516 105.83 28.976C106.118 28.424 106.262 27.788 106.262 27.068C106.262 26.348 106.118 25.712 105.83 25.16C105.542 24.608 105.14 24.188 104.624 23.9C104.12 23.6 103.544 23.45 102.896 23.45ZM111.515 17.654L111.299 21.236H110.165L109.949 17.654H111.515ZM117.634 21.992C118.594 21.992 119.404 22.232 120.064 22.712C120.736 23.192 121.204 23.834 121.468 24.638V22.118H123.106V32H121.468V29.48C121.204 30.284 120.736 30.926 120.064 31.406C119.404 31.886 118.594 32.126 117.634 32.126C116.758 32.126 115.978 31.922 115.294 31.514C114.61 31.106 114.07 30.524 113.674 29.768C113.29 29 113.098 28.1 113.098 27.068C113.098 26.036 113.29 25.136 113.674 24.368C114.07 23.6 114.61 23.012 115.294 22.604C115.978 22.196 116.758 21.992 117.634 21.992ZM118.102 23.45C117.094 23.45 116.284 23.774 115.672 24.422C115.072 25.058 114.772 25.94 114.772 27.068C114.772 28.196 115.072 29.084 115.672 29.732C116.284 30.368 117.094 30.686 118.102 30.686C118.75 30.686 119.326 30.536 119.83 30.236C120.346 29.936 120.748 29.516 121.036 28.976C121.324 28.424 121.468 27.788 121.468 27.068C121.468 26.348 121.324 25.712 121.036 25.16C120.748 24.608 120.346 24.188 119.83 23.9C119.326 23.6 118.75 23.45 118.102 23.45ZM129.546 30.254L132.606 22.118H134.37L130.5 32H128.556L124.686 22.118H126.45L129.546 30.254ZM145.068 26.51C145.068 26.858 145.044 27.158 144.996 27.41H137.094C137.13 28.538 137.448 29.384 138.048 29.948C138.66 30.512 139.404 30.794 140.28 30.794C141.072 30.794 141.732 30.596 142.26 30.2C142.8 29.792 143.13 29.252 143.25 28.58H144.996C144.876 29.264 144.606 29.876 144.186 30.416C143.778 30.956 143.244 31.376 142.584 31.676C141.924 31.976 141.18 32.126 140.352 32.126C139.404 32.126 138.564 31.922 137.832 31.514C137.1 31.106 136.524 30.524 136.104 29.768C135.696 29 135.492 28.1 135.492 27.068C135.492 26.036 135.696 25.136 136.104 24.368C136.524 23.6 137.1 23.012 137.832 22.604C138.564 22.196 139.404 21.992 140.352 21.992C141.312 21.992 142.146 22.196 142.854 22.604C143.574 23.012 144.12 23.558 144.492 24.242C144.876 24.926 145.068 25.682 145.068 26.51ZM143.412 26.618C143.448 25.886 143.328 25.274 143.052 24.782C142.776 24.29 142.398 23.924 141.918 23.684C141.438 23.444 140.916 23.324 140.352 23.324C139.452 23.324 138.696 23.606 138.084 24.17C137.472 24.722 137.142 25.538 137.094 26.618H143.412ZM152.412 21.956C153.564 21.956 154.494 22.328 155.202 23.072C155.91 23.804 156.264 24.866 156.264 26.258V32H154.626V26.402C154.626 25.418 154.374 24.662 153.87 24.134C153.366 23.606 152.682 23.342 151.818 23.342C150.918 23.342 150.198 23.636 149.658 24.224C149.118 24.8 148.848 25.646 148.848 26.762V32H147.21V22.118H148.848V24.458C149.1 23.654 149.544 23.036 150.18 22.604C150.828 22.172 151.572 21.956 152.412 21.956ZM163.493 30.56V32H162.269C161.261 32 160.505 31.76 160.001 31.28C159.509 30.8 159.263 29.996 159.263 28.868V23.54H157.787V22.118H159.263V19.652H160.919V22.118H163.475V23.54H160.919V28.904C160.919 29.54 161.033 29.978 161.261 30.218C161.501 30.446 161.909 30.56 162.485 30.56H163.493ZM174.276 22.118V32H172.638V29.678C172.386 30.482 171.936 31.1 171.288 31.532C170.652 31.952 169.908 32.162 169.056 32.162C167.916 32.162 166.992 31.796 166.284 31.064C165.576 30.32 165.222 29.258 165.222 27.878V22.118H166.86V27.716C166.86 28.7 167.112 29.462 167.616 30.002C168.12 30.53 168.804 30.794 169.668 30.794C170.568 30.794 171.288 30.506 171.828 29.93C172.368 29.342 172.638 28.49 172.638 27.374V22.118H174.276ZM178.538 24.116C178.862 23.432 179.336 22.904 179.96 22.532C180.584 22.148 181.328 21.956 182.192 21.956V23.738H181.688C180.764 23.738 180.008 23.978 179.42 24.458C178.832 24.926 178.538 25.706 178.538 26.798V32H176.9V22.118H178.538V24.116ZM192.898 26.51C192.898 26.858 192.874 27.158 192.826 27.41H184.924C184.96 28.538 185.278 29.384 185.878 29.948C186.49 30.512 187.234 30.794 188.11 30.794C188.902 30.794 189.562 30.596 190.09 30.2C190.63 29.792 190.96 29.252 191.08 28.58H192.826C192.706 29.264 192.436 29.876 192.016 30.416C191.608 30.956 191.074 31.376 190.414 31.676C189.754 31.976 189.01 32.126 188.182 32.126C187.234 32.126 186.394 31.922 185.662 31.514C184.93 31.106 184.354 30.524 183.934 29.768C183.526 29 183.322 28.1 183.322 27.068C183.322 26.036 183.526 25.136 183.934 24.368C184.354 23.6 184.93 23.012 185.662 22.604C186.394 22.196 187.234 21.992 188.182 21.992C189.142 21.992 189.976 22.196 190.684 22.604C191.404 23.012 191.95 23.558 192.322 24.242C192.706 24.926 192.898 25.682 192.898 26.51ZM191.242 26.618C191.278 25.886 191.158 25.274 190.882 24.782C190.606 24.29 190.228 23.924 189.748 23.684C189.268 23.444 188.746 23.324 188.182 23.324C187.282 23.324 186.526 23.606 185.914 24.17C185.302 24.722 184.972 25.538 184.924 26.618H191.242Z" fill="white" fill-opacity="0.6"/>
<path d="M19.09 54.31V55.642H15.508V67H13.87V55.642H10.288V54.31H19.09ZM25.2003 56.992C26.1483 56.992 26.9943 57.196 27.7383 57.604C28.4943 58.012 29.0823 58.6 29.5023 59.368C29.9343 60.136 30.1503 61.036 30.1503 62.068C30.1503 63.1 29.9343 64 29.5023 64.768C29.0823 65.524 28.4943 66.106 27.7383 66.514C26.9943 66.922 26.1483 67.126 25.2003 67.126C24.2523 67.126 23.4003 66.922 22.6443 66.514C21.9003 66.106 21.3123 65.524 20.8803 64.768C20.4483 64 20.2323 63.1 20.2323 62.068C20.2323 61.036 20.4483 60.136 20.8803 59.368C21.3123 58.6 21.9003 58.012 22.6443 57.604C23.4003 57.196 24.2523 56.992 25.2003 56.992ZM25.2003 58.432C24.6123 58.432 24.0663 58.564 23.5623 58.828C23.0703 59.092 22.6683 59.5 22.3563 60.052C22.0563 60.592 21.9063 61.264 21.9063 62.068C21.9063 62.86 22.0563 63.532 22.3563 64.084C22.6683 64.624 23.0703 65.026 23.5623 65.29C24.0663 65.554 24.6123 65.686 25.2003 65.686C25.7883 65.686 26.3283 65.554 26.8203 65.29C27.3243 65.026 27.7263 64.624 28.0263 64.084C28.3383 63.532 28.4943 62.86 28.4943 62.068C28.4943 61.264 28.3383 60.592 28.0263 60.052C27.7263 59.5 27.3243 59.092 26.8203 58.828C26.3283 58.564 25.7883 58.432 25.2003 58.432ZM41.0687 57.118V67H39.4307V64.678C39.1787 65.482 38.7287 66.1 38.0807 66.532C37.4447 66.952 36.7007 67.162 35.8487 67.162C34.7087 67.162 33.7847 66.796 33.0767 66.064C32.3687 65.32 32.0147 64.258 32.0147 62.878V57.118H33.6527V62.716C33.6527 63.7 33.9047 64.462 34.4087 65.002C34.9127 65.53 35.5967 65.794 36.4607 65.794C37.3607 65.794 38.0807 65.506 38.6207 64.93C39.1607 64.342 39.4307 63.49 39.4307 62.374V57.118H41.0687ZM45.3309 59.116C45.6549 58.432 46.1289 57.904 46.7529 57.532C47.3769 57.148 48.1209 56.956 48.9849 56.956V58.738H48.4809C47.5569 58.738 46.8009 58.978 46.2129 59.458C45.6249 59.926 45.3309 60.706 45.3309 61.798V67H43.6929V57.118H45.3309V59.116ZM50.3131 54.22C50.3131 53.92 50.4151 53.68 50.6191 53.5C50.8231 53.308 51.0931 53.212 51.4291 53.212C51.7651 53.212 52.0351 53.308 52.2391 53.5C52.4431 53.68 52.5451 53.92 52.5451 54.22C52.5451 54.52 52.4431 54.766 52.2391 54.958C52.0351 55.138 51.7651 55.228 51.4291 55.228C51.0931 55.228 50.8231 55.138 50.6191 54.958C50.4151 54.766 50.3131 54.52 50.3131 54.22ZM52.2391 57.118V67H50.6011V57.118H52.2391ZM57.9686 56.992C59.0846 56.992 59.9786 57.286 60.6506 57.874C61.3346 58.45 61.7486 59.23 61.8926 60.214H60.3266C60.2546 59.626 60.0086 59.146 59.5886 58.774C59.1806 58.39 58.6286 58.198 57.9326 58.198C57.3446 58.198 56.8826 58.342 56.5466 58.63C56.2226 58.906 56.0606 59.284 56.0606 59.764C56.0606 60.124 56.1686 60.418 56.3846 60.646C56.6126 60.862 56.8886 61.03 57.2126 61.15C57.5486 61.258 58.0046 61.378 58.5806 61.51C59.3126 61.678 59.9006 61.852 60.3446 62.032C60.8006 62.2 61.1846 62.476 61.4966 62.86C61.8206 63.244 61.9826 63.76 61.9826 64.408C61.9826 65.212 61.6766 65.866 61.0646 66.37C60.4646 66.874 59.6606 67.126 58.6526 67.126C57.4766 67.126 56.5166 66.844 55.7726 66.28C55.0286 65.716 54.5906 64.93 54.4586 63.922H56.0426C56.1026 64.522 56.3606 65.008 56.8166 65.38C57.2846 65.752 57.8966 65.938 58.6526 65.938C59.2166 65.938 59.6546 65.794 59.9666 65.506C60.2906 65.218 60.4526 64.84 60.4526 64.372C60.4526 63.988 60.3386 63.682 60.1106 63.454C59.8826 63.226 59.6006 63.052 59.2646 62.932C58.9286 62.812 58.4666 62.686 57.8786 62.554C57.1466 62.386 56.5586 62.218 56.1146 62.05C55.6826 61.882 55.3106 61.618 54.9986 61.258C54.6986 60.886 54.5486 60.388 54.5486 59.764C54.5486 58.936 54.8546 58.27 55.4666 57.766C56.0786 57.25 56.9126 56.992 57.9686 56.992ZM76.3214 56.956C77.4734 56.956 78.3974 57.328 79.0934 58.072C79.8014 58.804 80.1554 59.866 80.1554 61.258V67H78.5174V61.402C78.5174 60.43 78.2774 59.686 77.7974 59.17C77.3294 58.654 76.6814 58.396 75.8534 58.396C74.9894 58.396 74.2934 58.684 73.7654 59.26C73.2494 59.824 72.9914 60.658 72.9914 61.762V67H71.3534V61.402C71.3534 60.43 71.1134 59.686 70.6334 59.17C70.1534 58.654 69.5054 58.396 68.6894 58.396C67.8134 58.396 67.1114 58.684 66.5834 59.26C66.0674 59.824 65.8094 60.658 65.8094 61.762V67H64.1714V57.118H65.8094V59.368C66.0494 58.588 66.4754 57.994 67.0874 57.586C67.7114 57.166 68.4254 56.956 69.2294 56.956C70.0694 56.956 70.7954 57.172 71.4074 57.604C72.0314 58.024 72.4754 58.648 72.7394 59.476C73.0154 58.672 73.4774 58.054 74.1254 57.622C74.7734 57.178 75.5054 56.956 76.3214 56.956ZM91.7888 61.51C91.7888 61.858 91.7648 62.158 91.7168 62.41H83.8148C83.8508 63.538 84.1688 64.384 84.7688 64.948C85.3808 65.512 86.1248 65.794 87.0008 65.794C87.7928 65.794 88.4528 65.596 88.9808 65.2C89.5208 64.792 89.8508 64.252 89.9708 63.58H91.7168C91.5968 64.264 91.3268 64.876 90.9068 65.416C90.4988 65.956 89.9648 66.376 89.3048 66.676C88.6448 66.976 87.9008 67.126 87.0728 67.126C86.1248 67.126 85.2848 66.922 84.5528 66.514C83.8208 66.106 83.2448 65.524 82.8248 64.768C82.4168 64 82.2128 63.1 82.2128 62.068C82.2128 61.036 82.4168 60.136 82.8248 59.368C83.2448 58.6 83.8208 58.012 84.5528 57.604C85.2848 57.196 86.1248 56.992 87.0728 56.992C88.0328 56.992 88.8668 57.196 89.5748 57.604C90.2948 58.012 90.8408 58.558 91.2128 59.242C91.5968 59.926 91.7888 60.682 91.7888 61.51ZM90.1328 61.618C90.1688 60.886 90.0488 60.274 89.7728 59.782C89.4968 59.29 89.1188 58.924 88.6388 58.684C88.1588 58.444 87.6368 58.324 87.0728 58.324C86.1728 58.324 85.4168 58.606 84.8048 59.17C84.1928 59.722 83.8628 60.538 83.8148 61.618H90.1328ZM102.428 56.992C103.388 56.992 104.198 57.232 104.858 57.712C105.53 58.192 105.998 58.834 106.262 59.638V53.68H107.9V67H106.262V64.48C105.998 65.284 105.53 65.926 104.858 66.406C104.198 66.886 103.388 67.126 102.428 67.126C101.552 67.126 100.772 66.922 100.088 66.514C99.4045 66.106 98.8645 65.524 98.4685 64.768C98.0845 64 97.8925 63.1 97.8925 62.068C97.8925 61.036 98.0845 60.136 98.4685 59.368C98.8645 58.6 99.4045 58.012 100.088 57.604C100.772 57.196 101.552 56.992 102.428 56.992ZM102.896 58.45C101.888 58.45 101.078 58.774 100.466 59.422C99.8665 60.058 99.5665 60.94 99.5665 62.068C99.5665 63.196 99.8665 64.084 100.466 64.732C101.078 65.368 101.888 65.686 102.896 65.686C103.544 65.686 104.12 65.536 104.624 65.236C105.14 64.936 105.542 64.516 105.83 63.976C106.118 63.424 106.262 62.788 106.262 62.068C106.262 61.348 106.118 60.712 105.83 60.16C105.542 59.608 105.14 59.188 104.624 58.9C104.12 58.6 103.544 58.45 102.896 58.45ZM111.515 52.654L111.299 56.236H110.165L109.949 52.654H111.515ZM117.634 56.992C118.594 56.992 119.404 57.232 120.064 57.712C120.736 58.192 121.204 58.834 121.468 59.638V57.118H123.106V67H121.468V64.48C121.204 65.284 120.736 65.926 120.064 66.406C119.404 66.886 118.594 67.126 117.634 67.126C116.758 67.126 115.978 66.922 115.294 66.514C114.61 66.106 114.07 65.524 113.674 64.768C113.29 64 113.098 63.1 113.098 62.068C113.098 61.036 113.29 60.136 113.674 59.368C114.07 58.6 114.61 58.012 115.294 57.604C115.978 57.196 116.758 56.992 117.634 56.992ZM118.102 58.45C117.094 58.45 116.284 58.774 115.672 59.422C115.072 60.058 114.772 60.94 114.772 62.068C114.772 63.196 115.072 64.084 115.672 64.732C116.284 65.368 117.094 65.686 118.102 65.686C118.75 65.686 119.326 65.536 119.83 65.236C120.346 64.936 120.748 64.516 121.036 63.976C121.324 63.424 121.468 62.788 121.468 62.068C121.468 61.348 121.324 60.712 121.036 60.16C120.748 59.608 120.346 59.188 119.83 58.9C119.326 58.6 118.75 58.45 118.102 58.45ZM129.546 65.254L132.606 57.118H134.37L130.5 67H128.556L124.686 57.118H126.45L129.546 65.254ZM145.068 61.51C145.068 61.858 145.044 62.158 144.996 62.41H137.094C137.13 63.538 137.448 64.384 138.048 64.948C138.66 65.512 139.404 65.794 140.28 65.794C141.072 65.794 141.732 65.596 142.26 65.2C142.8 64.792 143.13 64.252 143.25 63.58H144.996C144.876 64.264 144.606 64.876 144.186 65.416C143.778 65.956 143.244 66.376 142.584 66.676C141.924 66.976 141.18 67.126 140.352 67.126C139.404 67.126 138.564 66.922 137.832 66.514C137.1 66.106 136.524 65.524 136.104 64.768C135.696 64 135.492 63.1 135.492 62.068C135.492 61.036 135.696 60.136 136.104 59.368C136.524 58.6 137.1 58.012 137.832 57.604C138.564 57.196 139.404 56.992 140.352 56.992C141.312 56.992 142.146 57.196 142.854 57.604C143.574 58.012 144.12 58.558 144.492 59.242C144.876 59.926 145.068 60.682 145.068 61.51ZM143.412 61.618C143.448 60.886 143.328 60.274 143.052 59.782C142.776 59.29 142.398 58.924 141.918 58.684C141.438 58.444 140.916 58.324 140.352 58.324C139.452 58.324 138.696 58.606 138.084 59.17C137.472 59.722 137.142 60.538 137.094 61.618H143.412ZM152.412 56.956C153.564 56.956 154.494 57.328 155.202 58.072C155.91 58.804 156.264 59.866 156.264 61.258V67H154.626V61.402C154.626 60.418 154.374 59.662 153.87 59.134C153.366 58.606 152.682 58.342 151.818 58.342C150.918 58.342 150.198 58.636 149.658 59.224C149.118 59.8 148.848 60.646 148.848 61.762V67H147.21V57.118H148.848V59.458C149.1 58.654 149.544 58.036 150.18 57.604C150.828 57.172 151.572 56.956 152.412 56.956ZM163.493 65.56V67H162.269C161.261 67 160.505 66.76 160.001 66.28C159.509 65.8 159.263 64.996 159.263 63.868V58.54H157.787V57.118H159.263V54.652H160.919V57.118H163.475V58.54H160.919V63.904C160.919 64.54 161.033 64.978 161.261 65.218C161.501 65.446 161.909 65.56 162.485 65.56H163.493ZM174.276 57.118V67H172.638V64.678C172.386 65.482 171.936 66.1 171.288 66.532C170.652 66.952 169.908 67.162 169.056 67.162C167.916 67.162 166.992 66.796 166.284 66.064C165.576 65.32 165.222 64.258 165.222 62.878V57.118H166.86V62.716C166.86 63.7 167.112 64.462 167.616 65.002C168.12 65.53 168.804 65.794 169.668 65.794C170.568 65.794 171.288 65.506 171.828 64.93C172.368 64.342 172.638 63.49 172.638 62.374V57.118H174.276ZM178.538 59.116C178.862 58.432 179.336 57.904 179.96 57.532C180.584 57.148 181.328 56.956 182.192 56.956V58.738H181.688C180.764 58.738 180.008 58.978 179.42 59.458C178.832 59.926 178.538 60.706 178.538 61.798V67H176.9V57.118H178.538V59.116ZM192.898 61.51C192.898 61.858 192.874 62.158 192.826 62.41H184.924C184.96 63.538 185.278 64.384 185.878 64.948C186.49 65.512 187.234 65.794 188.11 65.794C188.902 65.794 189.562 65.596 190.09 65.2C190.63 64.792 190.96 64.252 191.08 63.58H192.826C192.706 64.264 192.436 64.876 192.016 65.416C191.608 65.956 191.074 66.376 190.414 66.676C189.754 66.976 189.01 67.126 188.182 67.126C187.234 67.126 186.394 66.922 185.662 66.514C184.93 66.106 184.354 65.524 183.934 64.768C183.526 64 183.322 63.1 183.322 62.068C183.322 61.036 183.526 60.136 183.934 59.368C184.354 58.6 184.93 58.012 185.662 57.604C186.394 57.196 187.234 56.992 188.182 56.992C189.142 56.992 189.976 57.196 190.684 57.604C191.404 58.012 191.95 58.558 192.322 59.242C192.706 59.926 192.898 60.682 192.898 61.51ZM191.242 61.618C191.278 60.886 191.158 60.274 190.882 59.782C190.606 59.29 190.228 58.924 189.748 58.684C189.268 58.444 188.746 58.324 188.182 58.324C187.282 58.324 186.526 58.606 185.914 59.17C185.302 59.722 184.972 60.538 184.924 61.618H191.242Z" fill="white"/>
</svg>
