<svg width="60" height="104" viewBox="0 0 60 104" fill="none" xmlns="http://www.w3.org/2000/svg">
<rect x="0.5" y="0.5" width="59" height="103" rx="4.5" stroke="#9747FF" stroke-dasharray="10 5"/>
<rect x="16" y="16" width="32" height="32" rx="16" fill="#F2542D"/>
<path d="M41.9993 36.19C41.9993 39.83 39.8293 42 36.1893 42H34.9993C34.4493 42 33.9993 41.55 33.9993 41V35.23C33.9993 34.96 34.2193 34.73 34.4893 34.73L36.2493 34.7C36.3893 34.69 36.5093 34.59 36.5393 34.45L36.8893 32.54C36.9193 32.36 36.7793 32.19 36.5893 32.19L34.4593 32.22C34.1793 32.22 33.9593 32 33.9493 31.73L33.9093 29.28C33.9093 29.12 34.0393 28.98 34.2093 28.98L36.6093 28.94C36.7793 28.94 36.9093 28.81 36.9093 28.64L36.8693 26.24C36.8693 26.07 36.7393 25.94 36.5693 25.94L33.8693 25.98C32.2093 26.01 30.8893 27.37 30.9193 29.03L30.9693 31.78C30.9793 32.06 30.7593 32.28 30.4793 32.29L29.2793 32.31C29.1093 32.31 28.9793 32.44 28.9793 32.61L29.0093 34.51C29.0093 34.68 29.1393 34.81 29.3093 34.81L30.5093 34.79C30.7893 34.79 31.0093 35.01 31.0193 35.28L31.1093 40.98C31.1193 41.54 30.6693 42 30.1093 42H27.8093C24.1693 42 21.9993 39.83 21.9993 36.18V27.81C21.9993 24.17 24.1693 22 27.8093 22H36.1893C39.8293 22 41.9993 24.17 41.9993 27.81V36.19Z" fill="white"/>
<rect x="16" y="60" width="32" height="32" rx="16" fill="#CA3E1B"/>
<path d="M41.9993 80.19C41.9993 83.83 39.8293 86 36.1893 86H34.9993C34.4493 86 33.9993 85.55 33.9993 85V79.23C33.9993 78.96 34.2193 78.73 34.4893 78.73L36.2493 78.7C36.3893 78.69 36.5093 78.59 36.5393 78.45L36.8893 76.54C36.9193 76.36 36.7793 76.19 36.5893 76.19L34.4593 76.22C34.1793 76.22 33.9593 76 33.9493 75.73L33.9093 73.28C33.9093 73.12 34.0393 72.98 34.2093 72.98L36.6093 72.94C36.7793 72.94 36.9093 72.81 36.9093 72.64L36.8693 70.24C36.8693 70.07 36.7393 69.94 36.5693 69.94L33.8693 69.98C32.2093 70.01 30.8893 71.37 30.9193 73.03L30.9693 75.78C30.9793 76.06 30.7593 76.28 30.4793 76.29L29.2793 76.31C29.1093 76.31 28.9793 76.44 28.9793 76.61L29.0093 78.51C29.0093 78.68 29.1393 78.81 29.3093 78.81L30.5093 78.79C30.7893 78.79 31.0093 79.01 31.0193 79.28L31.1093 84.98C31.1193 85.54 30.6693 86 30.1093 86H27.8093C24.1693 86 21.9993 83.83 21.9993 80.18V71.81C21.9993 68.17 24.1693 66 27.8093 66H36.1893C39.8293 66 41.9993 68.17 41.9993 71.81V80.19Z" fill="white"/>
</svg>
