<svg width="217" height="90" viewBox="0 0 217 90" fill="none" xmlns="http://www.w3.org/2000/svg">
<rect x="0.5" y="0.5" width="216" height="89" rx="4.5" stroke="#9747FF" stroke-dasharray="10 5"/>
<path d="M23.904 28.728H19.248L18.448 31H16.544L20.528 19.864H22.64L26.624 31H24.704L23.904 28.728ZM23.392 27.24L21.584 22.072L19.76 27.24H23.392ZM27.7483 26.584C27.7483 25.6773 27.9296 24.8827 28.2923 24.2C28.6656 23.5067 29.1776 22.9733 29.8283 22.6C30.4789 22.2267 31.2256 22.04 32.0683 22.04C33.1349 22.04 34.0149 22.296 34.7083 22.808C35.4123 23.3093 35.8869 24.0293 36.1323 24.968H34.1643C34.0043 24.5307 33.7483 24.1893 33.3963 23.944C33.0443 23.6987 32.6016 23.576 32.0683 23.576C31.3216 23.576 30.7243 23.8427 30.2763 24.376C29.8389 24.8987 29.6203 25.6347 29.6203 26.584C29.6203 27.5333 29.8389 28.2747 30.2763 28.808C30.7243 29.3413 31.3216 29.608 32.0683 29.608C33.1243 29.608 33.8229 29.144 34.1643 28.216H36.1323C35.8763 29.112 35.3963 29.8267 34.6923 30.36C33.9883 30.8827 33.1136 31.144 32.0683 31.144C31.2256 31.144 30.4789 30.9573 29.8283 30.584C29.1776 30.2 28.6656 29.6667 28.2923 28.984C27.9296 28.2907 27.7483 27.4907 27.7483 26.584ZM40.078 23.672V28.552C40.078 28.8827 40.1527 29.1227 40.302 29.272C40.462 29.4107 40.7287 29.48 41.102 29.48H42.222V31H40.782C39.9607 31 39.3313 30.808 38.894 30.424C38.4567 30.04 38.238 29.416 38.238 28.552V23.672H37.198V22.184H38.238V19.992H40.078V22.184H42.222V23.672H40.078ZM44.8311 21.016C44.5005 21.016 44.2231 20.904 43.9991 20.68C43.7751 20.456 43.6631 20.1787 43.6631 19.848C43.6631 19.5173 43.7751 19.24 43.9991 19.016C44.2231 18.792 44.5005 18.68 44.8311 18.68C45.1511 18.68 45.4231 18.792 45.6471 19.016C45.8711 19.24 45.9831 19.5173 45.9831 19.848C45.9831 20.1787 45.8711 20.456 45.6471 20.68C45.4231 20.904 45.1511 21.016 44.8311 21.016ZM45.7271 22.184V31H43.9031V22.184H45.7271ZM51.5299 29.368L54.0259 22.184H55.9619L52.6019 31H50.4259L47.0819 22.184H49.0339L51.5299 29.368ZM58.2686 21.016C57.938 21.016 57.6606 20.904 57.4366 20.68C57.2126 20.456 57.1006 20.1787 57.1006 19.848C57.1006 19.5173 57.2126 19.24 57.4366 19.016C57.6606 18.792 57.938 18.68 58.2686 18.68C58.5886 18.68 58.8606 18.792 59.0846 19.016C59.3086 19.24 59.4206 19.5173 59.4206 19.848C59.4206 20.1787 59.3086 20.456 59.0846 20.68C58.8606 20.904 58.5886 21.016 58.2686 21.016ZM59.1646 22.184V31H57.3406V22.184H59.1646ZM63.6874 23.672V28.552C63.6874 28.8827 63.762 29.1227 63.9114 29.272C64.0714 29.4107 64.338 29.48 64.7114 29.48H65.8314V31H64.3914C63.57 31 62.9407 30.808 62.5034 30.424C62.066 30.04 61.8474 29.416 61.8474 28.552V23.672H60.8074V22.184H61.8474V19.992H63.6874V22.184H65.8314V23.672H63.6874ZM75.5925 26.376C75.5925 26.7067 75.5712 27.0053 75.5285 27.272H68.7925C68.8458 27.976 69.1072 28.5413 69.5765 28.968C70.0458 29.3947 70.6218 29.608 71.3045 29.608C72.2858 29.608 72.9792 29.1973 73.3845 28.376H75.3525C75.0858 29.1867 74.6005 29.8533 73.8965 30.376C73.2032 30.888 72.3392 31.144 71.3045 31.144C70.4618 31.144 69.7045 30.9573 69.0325 30.584C68.3712 30.2 67.8485 29.6667 67.4645 28.984C67.0912 28.2907 66.9045 27.4907 66.9045 26.584C66.9045 25.6773 67.0858 24.8827 67.4485 24.2C67.8218 23.5067 68.3392 22.9733 69.0005 22.6C69.6725 22.2267 70.4405 22.04 71.3045 22.04C72.1365 22.04 72.8778 22.2213 73.5285 22.584C74.1792 22.9467 74.6858 23.4587 75.0485 24.12C75.4112 24.7707 75.5925 25.5227 75.5925 26.376ZM73.6885 25.8C73.6778 25.128 73.4378 24.5893 72.9685 24.184C72.4992 23.7787 71.9178 23.576 71.2245 23.576C70.5952 23.576 70.0565 23.7787 69.6085 24.184C69.1605 24.5787 68.8938 25.1173 68.8085 25.8H73.6885ZM72.9045 19.816L69.3685 21.56V20.216L72.9045 18.264V19.816ZM81.0638 21V19.336H84.3918V31H82.5518V21H81.0638Z" fill="white"/>
<path d="M23.904 65.728H19.248L18.448 68H16.544L20.528 56.864H22.64L26.624 68H24.704L23.904 65.728ZM23.392 64.24L21.584 59.072L19.76 64.24H23.392ZM27.7483 63.584C27.7483 62.6773 27.9296 61.8827 28.2923 61.2C28.6656 60.5067 29.1776 59.9733 29.8283 59.6C30.4789 59.2267 31.2256 59.04 32.0683 59.04C33.1349 59.04 34.0149 59.296 34.7083 59.808C35.4123 60.3093 35.8869 61.0293 36.1323 61.968H34.1643C34.0043 61.5307 33.7483 61.1893 33.3963 60.944C33.0443 60.6987 32.6016 60.576 32.0683 60.576C31.3216 60.576 30.7243 60.8427 30.2763 61.376C29.8389 61.8987 29.6203 62.6347 29.6203 63.584C29.6203 64.5333 29.8389 65.2747 30.2763 65.808C30.7243 66.3413 31.3216 66.608 32.0683 66.608C33.1243 66.608 33.8229 66.144 34.1643 65.216H36.1323C35.8763 66.112 35.3963 66.8267 34.6923 67.36C33.9883 67.8827 33.1136 68.144 32.0683 68.144C31.2256 68.144 30.4789 67.9573 29.8283 67.584C29.1776 67.2 28.6656 66.6667 28.2923 65.984C27.9296 65.2907 27.7483 64.4907 27.7483 63.584ZM40.078 60.672V65.552C40.078 65.8827 40.1527 66.1227 40.302 66.272C40.462 66.4107 40.7287 66.48 41.102 66.48H42.222V68H40.782C39.9607 68 39.3313 67.808 38.894 67.424C38.4567 67.04 38.238 66.416 38.238 65.552V60.672H37.198V59.184H38.238V56.992H40.078V59.184H42.222V60.672H40.078ZM44.8311 58.016C44.5005 58.016 44.2231 57.904 43.9991 57.68C43.7751 57.456 43.6631 57.1787 43.6631 56.848C43.6631 56.5173 43.7751 56.24 43.9991 56.016C44.2231 55.792 44.5005 55.68 44.8311 55.68C45.1511 55.68 45.4231 55.792 45.6471 56.016C45.8711 56.24 45.9831 56.5173 45.9831 56.848C45.9831 57.1787 45.8711 57.456 45.6471 57.68C45.4231 57.904 45.1511 58.016 44.8311 58.016ZM45.7271 59.184V68H43.9031V59.184H45.7271ZM51.5299 66.368L54.0259 59.184H55.9619L52.6019 68H50.4259L47.0819 59.184H49.0339L51.5299 66.368ZM58.2686 58.016C57.938 58.016 57.6606 57.904 57.4366 57.68C57.2126 57.456 57.1006 57.1787 57.1006 56.848C57.1006 56.5173 57.2126 56.24 57.4366 56.016C57.6606 55.792 57.938 55.68 58.2686 55.68C58.5886 55.68 58.8606 55.792 59.0846 56.016C59.3086 56.24 59.4206 56.5173 59.4206 56.848C59.4206 57.1787 59.3086 57.456 59.0846 57.68C58.8606 57.904 58.5886 58.016 58.2686 58.016ZM59.1646 59.184V68H57.3406V59.184H59.1646ZM63.6874 60.672V65.552C63.6874 65.8827 63.762 66.1227 63.9114 66.272C64.0714 66.4107 64.338 66.48 64.7114 66.48H65.8314V68H64.3914C63.57 68 62.9407 67.808 62.5034 67.424C62.066 67.04 61.8474 66.416 61.8474 65.552V60.672H60.8074V59.184H61.8474V56.992H63.6874V59.184H65.8314V60.672H63.6874ZM75.5925 63.376C75.5925 63.7067 75.5712 64.0053 75.5285 64.272H68.7925C68.8458 64.976 69.1072 65.5413 69.5765 65.968C70.0458 66.3947 70.6218 66.608 71.3045 66.608C72.2858 66.608 72.9792 66.1973 73.3845 65.376H75.3525C75.0858 66.1867 74.6005 66.8533 73.8965 67.376C73.2032 67.888 72.3392 68.144 71.3045 68.144C70.4618 68.144 69.7045 67.9573 69.0325 67.584C68.3712 67.2 67.8485 66.6667 67.4645 65.984C67.0912 65.2907 66.9045 64.4907 66.9045 63.584C66.9045 62.6773 67.0858 61.8827 67.4485 61.2C67.8218 60.5067 68.3392 59.9733 69.0005 59.6C69.6725 59.2267 70.4405 59.04 71.3045 59.04C72.1365 59.04 72.8778 59.2213 73.5285 59.584C74.1792 59.9467 74.6858 60.4587 75.0485 61.12C75.4112 61.7707 75.5925 62.5227 75.5925 63.376ZM73.6885 62.8C73.6778 62.128 73.4378 61.5893 72.9685 61.184C72.4992 60.7787 71.9178 60.576 71.2245 60.576C70.5952 60.576 70.0565 60.7787 69.6085 61.184C69.1605 61.5787 68.8938 62.1173 68.8085 62.8H73.6885ZM72.9045 56.816L69.3685 58.56V57.216L72.9045 55.264V56.816ZM82.3118 65.52C83.3358 64.6347 84.1411 63.9093 84.7278 63.344C85.3251 62.768 85.8211 62.1707 86.2158 61.552C86.6104 60.9333 86.8078 60.3147 86.8078 59.696C86.8078 59.056 86.6531 58.5547 86.3438 58.192C86.0451 57.8293 85.5704 57.648 84.9198 57.648C84.2904 57.648 83.7998 57.8507 83.4478 58.256C83.1064 58.6507 82.9251 59.184 82.9038 59.856H81.1438C81.1758 58.64 81.5384 57.712 82.2318 57.072C82.9358 56.4213 83.8264 56.096 84.9038 56.096C86.0664 56.096 86.9731 56.416 87.6238 57.056C88.2851 57.696 88.6158 58.5493 88.6158 59.616C88.6158 60.384 88.4184 61.1253 88.0238 61.84C87.6398 62.544 87.1758 63.1787 86.6318 63.744C86.0984 64.2987 85.4158 64.944 84.5838 65.68L83.8638 66.32H88.9358V67.84H81.1598V66.512L82.3118 65.52Z" fill="#F2542D"/>
</svg>
