<svg width="1440" height="72" viewBox="0 0 1440 72" fill="none" xmlns="http://www.w3.org/2000/svg">
<mask id="path-1-inside-1_0_4138" fill="white">
<path d="M0 0H1440V72H0V0Z"/>
</mask>
<path d="M0 0H1440V72H0V0Z" fill="#562C2C" fill-opacity="0.7"/>
<path d="M1440 71H0V73H1440V71Z" fill="#EEEEEE" fill-opacity="0.2" mask="url(#path-1-inside-1_0_4138)"/>
<path d="M103.45 39.035H106.87V41H100.885V30.395H103.45V39.035ZM113.088 30.23C114.088 30.23 114.993 30.465 115.803 30.935C116.623 31.395 117.268 32.04 117.738 32.87C118.208 33.69 118.443 34.62 118.443 35.66C118.443 36.7 118.203 37.635 117.723 38.465C117.253 39.295 116.608 39.945 115.788 40.415C114.978 40.875 114.078 41.105 113.088 41.105C112.098 41.105 111.193 40.875 110.373 40.415C109.563 39.945 108.918 39.295 108.438 38.465C107.968 37.635 107.733 36.7 107.733 35.66C107.733 34.62 107.968 33.69 108.438 32.87C108.918 32.04 109.563 31.395 110.373 30.935C111.193 30.465 112.098 30.23 113.088 30.23ZM113.088 32.615C112.248 32.615 111.578 32.89 111.078 33.44C110.588 33.98 110.343 34.72 110.343 35.66C110.343 36.59 110.588 37.33 111.078 37.88C111.578 38.43 112.248 38.705 113.088 38.705C113.918 38.705 114.583 38.43 115.083 37.88C115.583 37.33 115.833 36.59 115.833 35.66C115.833 34.73 115.583 33.99 115.083 33.44C114.593 32.89 113.928 32.615 113.088 32.615ZM124.849 30.29C126.179 30.29 127.274 30.615 128.134 31.265C128.994 31.915 129.529 32.795 129.739 33.905H127.024C126.844 33.525 126.569 33.225 126.199 33.005C125.829 32.775 125.384 32.66 124.864 32.66C124.054 32.66 123.404 32.935 122.914 33.485C122.424 34.025 122.179 34.76 122.179 35.69C122.179 36.7 122.434 37.475 122.944 38.015C123.464 38.555 124.199 38.825 125.149 38.825C125.759 38.825 126.294 38.66 126.754 38.33C127.214 37.99 127.539 37.51 127.729 36.89H124.489V35.045H129.874V37.58C129.674 38.2 129.354 38.775 128.914 39.305C128.474 39.835 127.909 40.265 127.219 40.595C126.539 40.925 125.759 41.09 124.879 41.09C123.809 41.09 122.874 40.865 122.074 40.415C121.274 39.955 120.654 39.315 120.214 38.495C119.784 37.675 119.569 36.74 119.569 35.69C119.569 34.64 119.784 33.705 120.214 32.885C120.654 32.065 121.269 31.43 122.059 30.98C122.859 30.52 123.789 30.29 124.849 30.29ZM136.35 30.23C137.35 30.23 138.255 30.465 139.065 30.935C139.885 31.395 140.53 32.04 141 32.87C141.47 33.69 141.705 34.62 141.705 35.66C141.705 36.7 141.465 37.635 140.985 38.465C140.515 39.295 139.87 39.945 139.05 40.415C138.24 40.875 137.34 41.105 136.35 41.105C135.36 41.105 134.455 40.875 133.635 40.415C132.825 39.945 132.18 39.295 131.7 38.465C131.23 37.635 130.995 36.7 130.995 35.66C130.995 34.62 131.23 33.69 131.7 32.87C132.18 32.04 132.825 31.395 133.635 30.935C134.455 30.465 135.36 30.23 136.35 30.23ZM136.35 32.615C135.51 32.615 134.84 32.89 134.34 33.44C133.85 33.98 133.605 34.72 133.605 35.66C133.605 36.59 133.85 37.33 134.34 37.88C134.84 38.43 135.51 38.705 136.35 38.705C137.18 38.705 137.845 38.43 138.345 37.88C138.845 37.33 139.095 36.59 139.095 35.66C139.095 34.73 138.845 33.99 138.345 33.44C137.855 32.89 137.19 32.615 136.35 32.615ZM153.769 38.015C153.769 38.575 153.624 39.09 153.334 39.56C153.054 40.03 152.634 40.405 152.074 40.685C151.524 40.965 150.854 41.105 150.064 41.105C148.874 41.105 147.894 40.815 147.124 40.235C146.354 39.655 145.934 38.845 145.864 37.805H148.594C148.634 38.205 148.774 38.52 149.014 38.75C149.264 38.98 149.579 39.095 149.959 39.095C150.289 39.095 150.549 39.005 150.739 38.825C150.929 38.645 151.024 38.405 151.024 38.105C151.024 37.835 150.934 37.61 150.754 37.43C150.584 37.25 150.369 37.105 150.109 36.995C149.849 36.875 149.489 36.735 149.029 36.575C148.359 36.345 147.809 36.125 147.379 35.915C146.959 35.695 146.594 35.375 146.284 34.955C145.984 34.525 145.834 33.97 145.834 33.29C145.834 32.66 145.994 32.115 146.314 31.655C146.634 31.195 147.074 30.845 147.634 30.605C148.204 30.355 148.854 30.23 149.584 30.23C150.764 30.23 151.699 30.51 152.389 31.07C153.089 31.63 153.484 32.4 153.574 33.38H150.799C150.749 33.03 150.619 32.755 150.409 32.555C150.209 32.345 149.934 32.24 149.584 32.24C149.284 32.24 149.039 32.32 148.849 32.48C148.669 32.64 148.579 32.875 148.579 33.185C148.579 33.435 148.659 33.65 148.819 33.83C148.989 34 149.199 34.14 149.449 34.25C149.699 34.36 150.059 34.5 150.529 34.67C151.209 34.9 151.764 35.13 152.194 35.36C152.624 35.58 152.994 35.905 153.304 36.335C153.614 36.765 153.769 37.325 153.769 38.015ZM161.757 39.065H157.782L157.122 41H154.422L158.307 30.47H161.262L165.147 41H162.417L161.757 39.065ZM161.097 37.115L159.777 33.215L158.442 37.115H161.097ZM178.069 30.47V41H175.504V34.415L173.224 41H171.004L168.709 34.4V41H166.144V30.47H169.279L172.144 37.805L174.949 30.47H178.069ZM182.405 37.28V41H179.84V30.395H183.995C185.255 30.395 186.215 30.71 186.875 31.34C187.535 31.96 187.865 32.8 187.865 33.86C187.865 34.52 187.715 35.11 187.415 35.63C187.125 36.14 186.69 36.545 186.11 36.845C185.53 37.135 184.825 37.28 183.995 37.28H182.405ZM183.71 35.225C184.74 35.225 185.255 34.77 185.255 33.86C185.255 32.93 184.74 32.465 183.71 32.465H182.405V35.225H183.71ZM191.692 39.035H195.112V41H189.127V30.395H191.692V39.035ZM198.855 32.435V34.655H202.44V36.59H198.855V38.945H202.89V41H196.29V30.395H202.89V32.435H198.855Z" fill="white"/>
<path d="M1167.88 43.4288L1161.91 33.3575C1161.76 33.0951 1161.54 32.8778 1161.27 32.7273C1161.01 32.5768 1160.71 32.4984 1160.4 32.5C1160.1 32.4984 1159.8 32.5768 1159.54 32.7273C1159.27 32.8778 1159.05 33.0952 1158.9 33.3575L1157.19 36.2439C1157.15 36.3113 1157.13 36.3882 1157.13 36.4665C1157.13 36.5448 1157.15 36.6217 1157.19 36.6891L1160.12 41.6623C1160.23 41.847 1160.27 42.0659 1160.23 42.2782C1160.19 42.4905 1160.08 42.6817 1159.91 42.8163C1159.81 42.8925 1159.7 42.947 1159.58 42.976C1159.46 43.005 1159.33 43.0079 1159.21 42.9845C1159.09 42.9611 1158.97 42.912 1158.87 42.8403C1158.77 42.7687 1158.68 42.6762 1158.62 42.5691L1151.13 29.8619C1150.98 29.5992 1150.76 29.3815 1150.49 29.2302C1150.23 29.0789 1149.93 28.9993 1149.62 28.9993C1149.32 28.9993 1149.02 29.0789 1148.76 29.2302C1148.49 29.3815 1148.27 29.5992 1148.12 29.8619L1140.12 43.4309C1140.02 43.5931 1139.98 43.7821 1140 43.9697C1140.02 44.1574 1140.1 44.3336 1140.23 44.4722C1140.32 44.5624 1140.42 44.6336 1140.54 44.6814C1140.65 44.7293 1140.78 44.7526 1140.9 44.75H1167.1C1167.22 44.7516 1167.35 44.7277 1167.46 44.6797C1167.58 44.6317 1167.68 44.5607 1167.77 44.4711C1167.89 44.3327 1167.97 44.1564 1167.99 43.9685C1168.01 43.7806 1167.97 43.5912 1167.88 43.4288ZM1147.05 35.125L1149.62 30.75L1152.2 35.125H1147.05ZM1155.31 27.6875C1155.31 27.1683 1155.47 26.6608 1155.75 26.2291C1156.04 25.7975 1156.45 25.461 1156.93 25.2623C1157.41 25.0636 1157.94 25.0117 1158.45 25.1129C1158.96 25.2142 1159.43 25.4642 1159.79 25.8313C1160.16 26.1985 1160.41 26.6662 1160.51 27.1754C1160.61 27.6846 1160.56 28.2124 1160.36 28.692C1160.16 29.1717 1159.83 29.5817 1159.4 29.8701C1158.96 30.1585 1158.46 30.3125 1157.94 30.3125C1157.24 30.3125 1156.57 30.0359 1156.08 29.5437C1155.59 29.0514 1155.31 28.3837 1155.31 27.6875Z" fill="#F0F0F0"/>
<path fill-rule="evenodd" clip-rule="evenodd" d="M1208.22 23.75V29.9067C1208.52 29.9612 1208.8 30.0762 1209.05 30.2459C1209.42 30.4905 1209.7 30.8375 1209.86 31.2426C1210.03 31.6476 1210.07 32.0929 1209.99 32.5225C1209.9 32.9522 1209.69 33.3475 1209.39 33.6584C1209.08 33.9692 1208.68 34.1816 1208.26 34.2676C1207.83 34.3537 1207.38 34.3095 1206.98 34.1408C1206.57 33.9721 1206.23 33.6868 1205.99 33.3218C1205.75 32.9568 1205.62 32.5283 1205.62 32.0904H1206.93C1206.93 32.2711 1206.98 32.4473 1207.08 32.5967C1207.18 32.746 1207.32 32.8616 1207.48 32.9296C1207.65 32.9977 1207.82 33.0154 1208 32.9808C1208.17 32.9462 1208.33 32.8606 1208.45 32.7341C1208.58 32.6075 1208.67 32.4456 1208.7 32.2685C1208.74 32.0914 1208.72 31.9079 1208.65 31.7414C1208.58 31.5749 1208.47 31.4335 1208.32 31.3344C1208.17 31.2354 1208 31.1828 1207.82 31.1828H1207.55L1206.91 30.5362V23.75H1208.22ZM1187.77 24.1363H1188.93L1189.11 24.2864L1189.11 24.2878L1189.12 24.2969C1189.13 24.3057 1189.15 24.3197 1189.18 24.3382C1189.23 24.3752 1189.3 24.4302 1189.4 24.4971C1189.59 24.6312 1189.87 24.8116 1190.22 24.992C1190.91 25.3482 1191.8 25.6833 1192.76 25.6995C1193.78 25.3537 1194.85 25.1778 1195.93 25.1789H1196.76C1199.67 25.1789 1202.26 26.5596 1203.95 28.8308L1204.09 29.0054V29.9779L1203.61 30.1147C1202.79 30.3512 1202.01 30.7718 1201.42 31.1453C1201.35 31.1937 1201.27 31.241 1201.21 31.2867C1201.68 31.4276 1202.37 31.5883 1203.25 31.7L1203.83 31.7723V32.882L1203.64 33.0738C1202.56 34.164 1201.53 34.8771 1200.4 35.3095C1199.28 35.7404 1198.1 35.8743 1196.76 35.8743H1195.93C1194.08 35.8743 1192.45 37.601 1192.45 39.9096C1192.45 42.0658 1193.88 43.7144 1195.57 43.9226C1196.81 41.9275 1198.98 40.2959 1201.52 40.2959H1202.17V41.565L1201.88 41.7585L1201.88 41.7591L1201.88 41.7597L1201.87 41.7659C1201.86 41.7728 1201.84 41.7844 1201.82 41.8006C1201.78 41.8331 1201.71 41.8837 1201.63 41.9514C1201.47 42.0875 1201.25 42.2889 1201.04 42.5464C1200.6 43.0684 1200.21 43.7705 1200.21 44.6011C1200.21 45.4316 1200.6 46.1338 1201.04 46.6557C1201.25 46.9133 1201.47 47.1146 1201.63 47.2507C1201.71 47.3184 1201.78 47.3691 1201.82 47.4015C1201.84 47.4178 1201.86 47.4294 1201.87 47.4363L1201.88 47.4425L1201.88 47.443L1201.88 47.4436L1202.17 47.6372V48.9062H1201.52C1198.96 48.9062 1196.79 47.2585 1195.55 45.25C1193.05 45.1535 1190.66 44.1077 1188.88 42.315C1187.02 40.4319 1185.97 37.8789 1185.97 35.2181C1185.97 31.5223 1186.36 28.8667 1186.76 27.1222C1186.96 26.2501 1187.16 25.6063 1187.32 25.1746C1187.39 24.9588 1187.46 24.7961 1187.51 24.6845C1187.53 24.6287 1187.55 24.5856 1187.56 24.5551C1187.57 24.5399 1187.58 24.5278 1187.58 24.5188L1187.58 24.5076L1187.59 24.5037L1187.59 24.5022C1187.59 24.5022 1187.59 24.501 1188.18 24.7926L1187.59 24.501L1187.77 24.1363ZM1188.58 25.5299C1188.57 25.5573 1188.56 25.586 1188.55 25.616C1188.42 25.9988 1188.23 26.593 1188.04 27.415C1187.9 28.0323 1187.76 28.7784 1187.63 29.6603C1187.69 29.5748 1187.75 29.4901 1187.81 29.4062C1188.59 28.2884 1189.6 27.3508 1190.75 26.6443C1190.32 26.4987 1189.94 26.326 1189.62 26.1569C1189.21 25.9463 1188.88 25.7358 1188.65 25.5767C1188.63 25.5606 1188.6 25.5449 1188.58 25.5299ZM1187.28 35.2181C1187.28 37.5343 1188.19 39.7545 1189.82 41.3907C1190.47 42.0485 1191.22 42.5903 1192.02 43.003C1191.46 42.1198 1191.14 41.0458 1191.14 39.9096C1191.14 37.0366 1193.21 34.5618 1195.93 34.5618H1196.76C1198.02 34.5618 1199.02 34.4351 1199.93 34.0841C1200.61 33.8223 1201.28 33.4254 1201.98 32.8243C1201.44 32.7165 1200.99 32.5966 1200.65 32.4883C1200.37 32.4012 1200.16 32.3216 1200.01 32.262C1199.94 32.2321 1199.88 32.2073 1199.84 32.189C1199.82 32.1798 1199.81 32.1723 1199.8 32.1666L1199.78 32.1594L1199.78 32.1569L1199.77 32.1559L1199.77 32.1555C1199.77 32.1555 1199.77 32.1552 1200.07 31.5691L1199.77 32.1555L1199.41 31.9733V31.0027L1199.65 30.8061L1200.07 31.3085C1199.65 30.8061 1199.65 30.8061 1199.65 30.8061L1199.65 30.8052L1199.65 30.8039L1199.65 30.7998L1199.67 30.7862C1199.68 30.7747 1199.7 30.7587 1199.73 30.7385C1199.78 30.6981 1199.85 30.6412 1199.94 30.5718C1200.13 30.4333 1200.39 30.2442 1200.72 30.0382C1201.19 29.7362 1201.81 29.3887 1202.5 29.1129C1201.05 27.4618 1199.01 26.4914 1196.76 26.4914H1195.93C1194.96 26.4904 1194 26.654 1193.08 26.9755C1191.39 27.572 1189.92 28.6853 1188.88 30.162C1187.84 31.6388 1187.28 33.4058 1187.28 35.2181ZM1199.86 47.2912C1199.37 46.6448 1198.89 45.7291 1198.89 44.6011C1198.89 43.4731 1199.37 42.5573 1199.86 41.9109C1198.57 42.3873 1197.45 43.3846 1196.69 44.6011C1197.45 45.8175 1198.57 46.8148 1199.86 47.2912Z" fill="#F0F0F0"/>
<path fill-rule="evenodd" clip-rule="evenodd" d="M1201.83 30.4449C1202.41 30.224 1202.81 30.0712 1202.81 29.0002C1202.81 28.1725 1199.75 26.3752 1198 26.3752C1197.54 25.8036 1195.62 26.0486 1194.16 26.2352C1193.58 26.3098 1193.07 26.3752 1192.75 26.3752C1190.82 26.3752 1186.62 32.7547 1186.62 34.6877C1186.62 35.0152 1189.21 42.8008 1190.56 43.0002C1190.88 43.0461 1191.07 43.1323 1191.27 43.2161C1191.53 43.3313 1191.79 43.442 1192.31 43.4377C1191.44 39.9377 1192.9 35.6718 1193.62 35.5627C1194.23 35.4725 1195.04 35.3621 1195.9 35.245C1197.28 35.0581 1198.78 34.854 1199.75 34.6877C1200.97 34.4775 1201.42 33.9838 1201.79 33.5722C1202.07 33.2606 1202.31 32.9962 1202.81 32.9377C1203.87 32.8136 1202.12 32.2766 1200.99 31.9291C1200.41 31.7527 1200 31.6251 1200.19 31.6251C1200.77 30.8448 1201.36 30.6228 1201.83 30.4449ZM1198.65 27.9201H1197.34V30.0016H1198.65V27.9201Z" fill="#F0F0F0"/>
<path d="M1253.38 35.125H1252.46C1252.25 32.6525 1251.18 30.3339 1249.42 28.5793C1247.67 26.8247 1245.35 25.7472 1242.88 25.5372V24.625C1242.88 24.3929 1242.78 24.1704 1242.62 24.0063C1242.45 23.8422 1242.23 23.75 1242 23.75C1241.77 23.75 1241.55 23.8422 1241.38 24.0063C1241.22 24.1704 1241.12 24.3929 1241.12 24.625V25.5372C1238.65 25.7472 1236.33 26.8247 1234.58 28.5793C1232.82 30.3339 1231.75 32.6525 1231.54 35.125H1230.62C1230.39 35.125 1230.17 35.2172 1230.01 35.3813C1229.84 35.5454 1229.75 35.7679 1229.75 36C1229.75 36.2321 1229.84 36.4546 1230.01 36.6187C1230.17 36.7828 1230.39 36.875 1230.62 36.875H1231.54C1231.75 39.3475 1232.82 41.6661 1234.58 43.4207C1236.33 45.1753 1238.65 46.2528 1241.12 46.4628V47.375C1241.12 47.6071 1241.22 47.8296 1241.38 47.9937C1241.55 48.1578 1241.77 48.25 1242 48.25C1242.23 48.25 1242.45 48.1578 1242.62 47.9937C1242.78 47.8296 1242.88 47.6071 1242.88 47.375V46.4628C1245.35 46.2528 1247.67 45.1753 1249.42 43.4207C1251.18 41.6661 1252.25 39.3475 1252.46 36.875H1253.38C1253.61 36.875 1253.83 36.7828 1253.99 36.6187C1254.16 36.4546 1254.25 36.2321 1254.25 36C1254.25 35.7679 1254.16 35.5454 1253.99 35.3813C1253.83 35.2172 1253.61 35.125 1253.38 35.125ZM1249.88 36.875H1250.71C1250.5 38.8822 1249.61 40.7573 1248.18 42.1839C1246.76 43.6106 1244.88 44.5014 1242.88 44.7063V43.875C1242.88 43.6429 1242.78 43.4204 1242.62 43.2563C1242.45 43.0922 1242.23 43 1242 43C1241.77 43 1241.55 43.0922 1241.38 43.2563C1241.22 43.4204 1241.12 43.6429 1241.12 43.875V44.7063C1239.12 44.5014 1237.24 43.6106 1235.82 42.1839C1234.39 40.7573 1233.5 38.8822 1233.29 36.875H1234.12C1234.36 36.875 1234.58 36.7828 1234.74 36.6187C1234.91 36.4546 1235 36.2321 1235 36C1235 35.7679 1234.91 35.5454 1234.74 35.3813C1234.58 35.2172 1234.36 35.125 1234.12 35.125H1233.29C1233.5 33.1178 1234.39 31.2427 1235.82 29.8161C1237.24 28.3894 1239.12 27.4986 1241.12 27.2938V28.125C1241.12 28.3571 1241.22 28.5796 1241.38 28.7437C1241.55 28.9078 1241.77 29 1242 29C1242.23 29 1242.45 28.9078 1242.62 28.7437C1242.78 28.5796 1242.88 28.3571 1242.88 28.125V27.2938C1244.88 27.4986 1246.76 28.3894 1248.18 29.8161C1249.61 31.2427 1250.5 33.1178 1250.71 35.125H1249.88C1249.64 35.125 1249.42 35.2172 1249.26 35.3813C1249.09 35.5454 1249 35.7679 1249 36C1249 36.2321 1249.09 36.4546 1249.26 36.6187C1249.42 36.7828 1249.64 36.875 1249.88 36.875ZM1246.38 36C1246.38 36.8653 1246.12 37.7112 1245.64 38.4306C1245.16 39.1501 1244.47 39.7108 1243.67 40.042C1242.87 40.3731 1242 40.4597 1241.15 40.2909C1240.3 40.1221 1239.52 39.7054 1238.91 39.0936C1238.29 38.4817 1237.88 37.7022 1237.71 36.8535C1237.54 36.0049 1237.63 35.1252 1237.96 34.3258C1238.29 33.5263 1238.85 32.8431 1239.57 32.3623C1240.29 31.8816 1241.13 31.625 1242 31.625C1243.16 31.625 1244.27 32.0859 1245.09 32.9064C1245.91 33.7269 1246.38 34.8397 1246.38 36Z" fill="#F0F0F0"/>
<rect x="1276" y="16" width="64" height="40" rx="20" fill="#F2542D"/>
<path d="M1318.75 30V39.75C1318.75 39.9489 1318.67 40.1397 1318.53 40.2803C1318.39 40.421 1318.2 40.5 1318 40.5C1317.8 40.5 1317.61 40.421 1317.47 40.2803C1317.33 40.1397 1317.25 39.9489 1317.25 39.75V31.8103L1306.53 42.5306C1306.39 42.6714 1306.2 42.7504 1306 42.7504C1305.8 42.7504 1305.61 42.6714 1305.47 42.5306C1305.33 42.3899 1305.25 42.199 1305.25 42C1305.25 41.801 1305.33 41.6101 1305.47 41.4694L1316.19 30.75H1308.25C1308.05 30.75 1307.86 30.671 1307.72 30.5303C1307.58 30.3897 1307.5 30.1989 1307.5 30C1307.5 29.8011 1307.58 29.6103 1307.72 29.4697C1307.86 29.329 1308.05 29.25 1308.25 29.25H1318C1318.2 29.25 1318.39 29.329 1318.53 29.4697C1318.67 29.6103 1318.75 29.8011 1318.75 30Z" fill="white"/>
<path d="M306.368 29.704V31.176H303.216V41H301.376V31.176H298.24V29.704H306.368ZM307.473 29.624C307.473 29.3147 307.58 29.0587 307.793 28.856C308.006 28.6533 308.289 28.552 308.641 28.552C308.993 28.552 309.276 28.6533 309.489 28.856C309.713 29.0587 309.825 29.3147 309.825 29.624C309.825 29.9333 309.713 30.184 309.489 30.376C309.276 30.568 308.993 30.664 308.641 30.664C308.289 30.664 308.006 30.568 307.793 30.376C307.58 30.184 307.473 29.9333 307.473 29.624ZM309.553 32.184V41H307.729V32.184H309.553ZM316.192 39.416V41H315.072C314.134 41 313.419 40.776 312.928 40.328C312.448 39.8693 312.208 39.112 312.208 38.056V33.736H310.944V32.184H312.208V29.992H314.048V32.184H316.176V33.736H314.048V38.088C314.048 38.5893 314.139 38.936 314.32 39.128C314.512 39.32 314.843 39.416 315.312 39.416H316.192ZM319.725 33.912C320.024 33.336 320.45 32.8827 321.005 32.552C321.56 32.2107 322.2 32.04 322.925 32.04V34.024H322.381C321.581 34.024 320.936 34.2213 320.445 34.616C319.965 35 319.725 35.64 319.725 36.536V41H317.901V32.184H319.725V33.912ZM332.484 36.168C332.484 36.4667 332.462 36.728 332.42 36.952H325.636C325.668 37.8587 325.918 38.5307 326.388 38.968C326.857 39.4053 327.438 39.624 328.132 39.624C328.74 39.624 329.252 39.4693 329.668 39.16C330.094 38.8507 330.356 38.44 330.452 37.928H332.404C332.286 38.5467 332.041 39.096 331.668 39.576C331.294 40.056 330.809 40.4347 330.212 40.712C329.614 40.9787 328.948 41.112 328.212 41.112C327.358 41.112 326.601 40.9307 325.94 40.568C325.289 40.2053 324.777 39.6827 324.404 39C324.03 38.3173 323.844 37.512 323.844 36.584C323.844 35.6667 324.03 34.8667 324.404 34.184C324.777 33.5013 325.289 32.9787 325.94 32.616C326.601 32.2533 327.358 32.072 328.212 32.072C329.076 32.072 329.828 32.2533 330.468 32.616C331.118 32.968 331.614 33.4587 331.956 34.088C332.308 34.7067 332.484 35.4 332.484 36.168ZM330.644 36.12C330.665 35.544 330.564 35.064 330.34 34.68C330.126 34.2853 329.828 33.9973 329.444 33.816C329.07 33.624 328.66 33.528 328.212 33.528C327.497 33.528 326.9 33.7467 326.42 34.184C325.94 34.6213 325.678 35.2667 325.636 36.12H330.644ZM337.099 31.416V29.704H340.715V41H338.795V31.416H337.099Z" fill="white" fill-opacity="0.9"/>
<path d="M503.368 30.704V32.176H500.216V42H498.376V32.176H495.24V30.704H503.368ZM504.473 30.624C504.473 30.3147 504.58 30.0587 504.793 29.856C505.006 29.6533 505.289 29.552 505.641 29.552C505.993 29.552 506.276 29.6533 506.489 29.856C506.713 30.0587 506.825 30.3147 506.825 30.624C506.825 30.9333 506.713 31.184 506.489 31.376C506.276 31.568 505.993 31.664 505.641 31.664C505.289 31.664 505.006 31.568 504.793 31.376C504.58 31.184 504.473 30.9333 504.473 30.624ZM506.553 33.184V42H504.729V33.184H506.553ZM513.192 40.416V42H512.072C511.134 42 510.419 41.776 509.928 41.328C509.448 40.8693 509.208 40.112 509.208 39.056V34.736H507.944V33.184H509.208V30.992H511.048V33.184H513.176V34.736H511.048V39.088C511.048 39.5893 511.139 39.936 511.32 40.128C511.512 40.32 511.843 40.416 512.312 40.416H513.192ZM516.725 34.912C517.024 34.336 517.45 33.8827 518.005 33.552C518.56 33.2107 519.2 33.04 519.925 33.04V35.024H519.381C518.581 35.024 517.936 35.2213 517.445 35.616C516.965 36 516.725 36.64 516.725 37.536V42H514.901V33.184H516.725V34.912ZM529.484 37.168C529.484 37.4667 529.462 37.728 529.42 37.952H522.636C522.668 38.8587 522.918 39.5307 523.388 39.968C523.857 40.4053 524.438 40.624 525.132 40.624C525.74 40.624 526.252 40.4693 526.668 40.16C527.094 39.8507 527.356 39.44 527.452 38.928H529.404C529.286 39.5467 529.041 40.096 528.668 40.576C528.294 41.056 527.809 41.4347 527.212 41.712C526.614 41.9787 525.948 42.112 525.212 42.112C524.358 42.112 523.601 41.9307 522.94 41.568C522.289 41.2053 521.777 40.6827 521.404 40C521.03 39.3173 520.844 38.512 520.844 37.584C520.844 36.6667 521.03 35.8667 521.404 35.184C521.777 34.5013 522.289 33.9787 522.94 33.616C523.601 33.2533 524.358 33.072 525.212 33.072C526.076 33.072 526.828 33.2533 527.468 33.616C528.118 33.968 528.614 34.4587 528.956 35.088C529.308 35.7067 529.484 36.4 529.484 37.168ZM527.644 37.12C527.665 36.544 527.564 36.064 527.34 35.68C527.126 35.2853 526.828 34.9973 526.444 34.816C526.07 34.624 525.66 34.528 525.212 34.528C524.497 34.528 523.9 34.7467 523.42 35.184C522.94 35.6213 522.678 36.2667 522.636 37.12H527.644ZM534.531 40.576C536.259 39.392 537.64 38.2347 538.675 37.104C539.72 35.9627 540.243 34.9067 540.243 33.936C540.243 33.36 540.099 32.9013 539.811 32.56C539.533 32.2187 539.08 32.048 538.451 32.048C537.8 32.048 537.309 32.2613 536.979 32.688C536.648 33.104 536.461 33.7013 536.419 34.48H534.643C534.717 33.1893 535.112 32.2027 535.827 31.52C536.552 30.8373 537.475 30.496 538.595 30.496C539.693 30.496 540.552 30.7893 541.171 31.376C541.8 31.952 542.115 32.752 542.115 33.776C542.115 34.5973 541.859 35.4293 541.347 36.272C540.845 37.1147 540.205 37.8933 539.427 38.608C538.648 39.312 537.843 39.92 537.011 40.432H542.371V41.92H534.531V40.576Z" fill="white" fill-opacity="0.9"/>
<path d="M650.368 30.704V32.176H647.216V42H645.376V32.176H642.24V30.704H650.368ZM651.473 30.624C651.473 30.3147 651.58 30.0587 651.793 29.856C652.006 29.6533 652.289 29.552 652.641 29.552C652.993 29.552 653.276 29.6533 653.489 29.856C653.713 30.0587 653.825 30.3147 653.825 30.624C653.825 30.9333 653.713 31.184 653.489 31.376C653.276 31.568 652.993 31.664 652.641 31.664C652.289 31.664 652.006 31.568 651.793 31.376C651.58 31.184 651.473 30.9333 651.473 30.624ZM653.553 33.184V42H651.729V33.184H653.553ZM660.192 40.416V42H659.072C658.134 42 657.419 41.776 656.928 41.328C656.448 40.8693 656.208 40.112 656.208 39.056V34.736H654.944V33.184H656.208V30.992H658.048V33.184H660.176V34.736H658.048V39.088C658.048 39.5893 658.139 39.936 658.32 40.128C658.512 40.32 658.843 40.416 659.312 40.416H660.192ZM663.725 34.912C664.024 34.336 664.45 33.8827 665.005 33.552C665.56 33.2107 666.2 33.04 666.925 33.04V35.024H666.381C665.581 35.024 664.936 35.2213 664.445 35.616C663.965 36 663.725 36.64 663.725 37.536V42H661.901V33.184H663.725V34.912ZM676.484 37.168C676.484 37.4667 676.462 37.728 676.42 37.952H669.636C669.668 38.8587 669.918 39.5307 670.388 39.968C670.857 40.4053 671.438 40.624 672.132 40.624C672.74 40.624 673.252 40.4693 673.668 40.16C674.094 39.8507 674.356 39.44 674.452 38.928H676.404C676.286 39.5467 676.041 40.096 675.668 40.576C675.294 41.056 674.809 41.4347 674.212 41.712C673.614 41.9787 672.948 42.112 672.212 42.112C671.358 42.112 670.601 41.9307 669.94 41.568C669.289 41.2053 668.777 40.6827 668.404 40C668.03 39.3173 667.844 38.512 667.844 37.584C667.844 36.6667 668.03 35.8667 668.404 35.184C668.777 34.5013 669.289 33.9787 669.94 33.616C670.601 33.2533 671.358 33.072 672.212 33.072C673.076 33.072 673.828 33.2533 674.468 33.616C675.118 33.968 675.614 34.4587 675.956 35.088C676.308 35.7067 676.484 36.4 676.484 37.168ZM674.644 37.12C674.665 36.544 674.564 36.064 674.34 35.68C674.126 35.2853 673.828 34.9973 673.444 34.816C673.07 34.624 672.66 34.528 672.212 34.528C671.497 34.528 670.9 34.7467 670.42 35.184C669.94 35.6213 669.678 36.2667 669.636 37.12H674.644ZM685.691 30.352C686.437 30.352 687.077 30.4853 687.611 30.752C688.144 31.008 688.544 31.3653 688.811 31.824C689.088 32.2827 689.227 32.7947 689.227 33.36C689.227 34.0747 689.024 34.672 688.619 35.152C688.224 35.6213 687.664 35.904 686.939 36V36.08C687.717 36.304 688.325 36.64 688.763 37.088C689.211 37.5253 689.435 38.1333 689.435 38.912C689.435 39.8613 689.12 40.6347 688.491 41.232C687.861 41.8187 686.96 42.112 685.787 42.112C684.581 42.112 683.611 41.808 682.875 41.2C682.139 40.5813 681.717 39.6693 681.611 38.464H683.419C683.483 39.104 683.712 39.616 684.107 40C684.501 40.3733 685.035 40.56 685.707 40.56C686.336 40.56 686.816 40.3947 687.147 40.064C687.488 39.7333 687.659 39.3067 687.659 38.784C687.659 38.1547 687.413 37.6747 686.923 37.344C686.443 37.0133 685.744 36.848 684.827 36.848H684.395V35.344H684.827C686.565 35.3653 687.435 34.7733 687.435 33.568C687.435 33.0453 687.275 32.6347 686.955 32.336C686.635 32.0373 686.197 31.888 685.643 31.888C685.088 31.888 684.624 32.0587 684.251 32.4C683.877 32.7307 683.653 33.216 683.579 33.856H681.787C681.861 32.7467 682.235 31.888 682.907 31.28C683.579 30.6613 684.507 30.352 685.691 30.352Z" fill="white" fill-opacity="0.9"/>
<path d="M768.368 30.704V32.176H765.216V42H763.376V32.176H760.24V30.704H768.368ZM769.473 30.624C769.473 30.3147 769.58 30.0587 769.793 29.856C770.006 29.6533 770.289 29.552 770.641 29.552C770.993 29.552 771.276 29.6533 771.489 29.856C771.713 30.0587 771.825 30.3147 771.825 30.624C771.825 30.9333 771.713 31.184 771.489 31.376C771.276 31.568 770.993 31.664 770.641 31.664C770.289 31.664 770.006 31.568 769.793 31.376C769.58 31.184 769.473 30.9333 769.473 30.624ZM771.553 33.184V42H769.729V33.184H771.553ZM778.192 40.416V42H777.072C776.134 42 775.419 41.776 774.928 41.328C774.448 40.8693 774.208 40.112 774.208 39.056V34.736H772.944V33.184H774.208V30.992H776.048V33.184H778.176V34.736H776.048V39.088C776.048 39.5893 776.139 39.936 776.32 40.128C776.512 40.32 776.843 40.416 777.312 40.416H778.192ZM781.725 34.912C782.024 34.336 782.45 33.8827 783.005 33.552C783.56 33.2107 784.2 33.04 784.925 33.04V35.024H784.381C783.581 35.024 782.936 35.2213 782.445 35.616C781.965 36 781.725 36.64 781.725 37.536V42H779.901V33.184H781.725V34.912ZM794.484 37.168C794.484 37.4667 794.462 37.728 794.42 37.952H787.636C787.668 38.8587 787.918 39.5307 788.388 39.968C788.857 40.4053 789.438 40.624 790.132 40.624C790.74 40.624 791.252 40.4693 791.668 40.16C792.094 39.8507 792.356 39.44 792.452 38.928H794.404C794.286 39.5467 794.041 40.096 793.668 40.576C793.294 41.056 792.809 41.4347 792.212 41.712C791.614 41.9787 790.948 42.112 790.212 42.112C789.358 42.112 788.601 41.9307 787.94 41.568C787.289 41.2053 786.777 40.6827 786.404 40C786.03 39.3173 785.844 38.512 785.844 37.584C785.844 36.6667 786.03 35.8667 786.404 35.184C786.777 34.5013 787.289 33.9787 787.94 33.616C788.601 33.2533 789.358 33.072 790.212 33.072C791.076 33.072 791.828 33.2533 792.468 33.616C793.118 33.968 793.614 34.4587 793.956 35.088C794.308 35.7067 794.484 36.4 794.484 37.168ZM792.644 37.12C792.665 36.544 792.564 36.064 792.34 35.68C792.126 35.2853 791.828 34.9973 791.444 34.816C791.07 34.624 790.66 34.528 790.212 34.528C789.497 34.528 788.9 34.7467 788.42 35.184C787.94 35.6213 787.678 36.2667 787.636 37.12H792.644ZM799.451 39.568V38.032L805.067 30.608H807.019V37.968H808.603V39.568H807.019V42H805.179V39.568H799.451ZM805.307 32.784L801.339 37.968H805.307V32.784Z" fill="white" fill-opacity="0.9"/>
</svg>
