<svg width="64" height="98" viewBox="0 0 64 98" fill="none" xmlns="http://www.w3.org/2000/svg">
<rect x="0.5" y="1" width="63" height="96" rx="4.5" stroke="#9747FF" stroke-dasharray="10 5"/>
<path d="M43.8772 37.9288L37.9097 27.8575C37.7558 27.5951 37.5356 27.3778 37.2713 27.2273C37.007 27.0768 36.7077 26.9984 36.4036 27C36.0995 26.9984 35.8005 27.0768 35.5363 27.2273C35.2721 27.3778 35.0522 27.5952 34.8986 27.8575L33.1879 30.7439C33.1481 30.8113 33.1271 30.8882 33.1271 30.9665C33.1271 31.0448 33.1481 31.1217 33.1879 31.1891L36.1192 36.1623C36.2305 36.347 36.2709 36.5659 36.2329 36.7782C36.1949 36.9905 36.081 37.1817 35.9125 37.3163C35.8143 37.3925 35.7009 37.447 35.58 37.476C35.4591 37.505 35.3334 37.5079 35.2113 37.4845C35.0891 37.4611 34.9734 37.412 34.8718 37.3403C34.7701 37.2687 34.6849 37.1762 34.6218 37.0691L27.1329 24.3619C26.9784 24.0992 26.7579 23.8815 26.4934 23.7302C26.2289 23.5789 25.9294 23.4993 25.6247 23.4993C25.3199 23.4993 25.0205 23.5789 24.7559 23.7302C24.4914 23.8815 24.2709 24.0992 24.1164 24.3619L16.1211 37.9309C16.0246 38.0931 15.9831 38.2821 16.0028 38.4697C16.0225 38.6574 16.1024 38.8336 16.2304 38.9722C16.3167 39.0624 16.4207 39.1336 16.5359 39.1814C16.6512 39.2293 16.7751 39.2526 16.8998 39.25H43.0995C43.2237 39.2516 43.3469 39.2277 43.4615 39.1797C43.5761 39.1317 43.6796 39.0607 43.7656 38.9711C43.8942 38.8327 43.9746 38.6564 43.9947 38.4685C44.0149 38.2806 43.9736 38.0912 43.8772 37.9288ZM23.0467 29.625L25.6247 25.25L28.2026 29.625H23.0467ZM31.3122 22.1875C31.3122 21.6683 31.4661 21.1608 31.7546 20.7291C32.043 20.2975 32.453 19.961 32.9326 19.7623C33.4123 19.5636 33.9401 19.5117 34.4493 19.6129C34.9585 19.7142 35.4262 19.9642 35.7933 20.3313C36.1604 20.6985 36.4104 21.1662 36.5117 21.6754C36.613 22.1846 36.561 22.7124 36.3623 23.192C36.1637 23.6717 35.8272 24.0817 35.3955 24.3701C34.9639 24.6585 34.4563 24.8125 33.9372 24.8125C33.241 24.8125 32.5733 24.5359 32.081 24.0437C31.5887 23.5514 31.3122 22.8837 31.3122 22.1875Z" fill="#F0F0F0"/>
<path d="M43.8752 75.9288L37.9077 65.8575C37.7538 65.5951 37.5337 65.3778 37.2693 65.2273C37.005 65.0768 36.7058 64.9984 36.4016 65C36.0976 64.9984 35.7985 65.0768 35.5343 65.2273C35.2702 65.3778 35.0503 65.5952 34.8966 65.8575L33.186 68.7439C33.1462 68.8113 33.1251 68.8882 33.1251 68.9665C33.1251 69.0448 33.1462 69.1217 33.186 69.1891L36.1172 74.1623C36.2286 74.347 36.269 74.5659 36.2309 74.7782C36.1929 74.9905 36.079 75.1817 35.9105 75.3163C35.8123 75.3925 35.699 75.447 35.5781 75.476C35.4571 75.505 35.3314 75.5079 35.2093 75.4845C35.0872 75.4611 34.9715 75.412 34.8698 75.3403C34.7682 75.2687 34.683 75.1762 34.6199 75.0691L27.131 62.3619C26.9764 62.0992 26.756 61.8815 26.4915 61.7302C26.2269 61.5789 25.9275 61.4993 25.6227 61.4993C25.318 61.4993 25.0185 61.5789 24.754 61.7302C24.4894 61.8815 24.269 62.0992 24.1144 62.3619L16.1191 75.9309C16.0226 76.0931 15.9812 76.2821 16.0009 76.4697C16.0206 76.6574 16.1004 76.8336 16.2285 76.9722C16.3147 77.0624 16.4187 77.1336 16.534 77.1814C16.6492 77.2293 16.7731 77.2526 16.8979 77.25H43.0975C43.2218 77.2516 43.345 77.2277 43.4596 77.1797C43.5741 77.1317 43.6776 77.0607 43.7636 76.9711C43.8923 76.8327 43.9727 76.6564 43.9928 76.4685C44.0129 76.2806 43.9717 76.0912 43.8752 75.9288ZM23.0447 67.625L25.6227 63.25L28.2007 67.625H23.0447ZM31.3102 60.1875C31.3102 59.6683 31.4642 59.1608 31.7526 58.7291C32.041 58.2975 32.451 57.961 32.9307 57.7623C33.4103 57.5636 33.9381 57.5117 34.4473 57.6129C34.9565 57.7142 35.4242 57.9642 35.7914 58.3313C36.1585 58.6985 36.4085 59.1662 36.5098 59.6754C36.6111 60.1846 36.5591 60.7124 36.3604 61.192C36.1617 61.6717 35.8253 62.0817 35.3936 62.3701C34.9619 62.6585 34.4544 62.8125 33.9352 62.8125C33.239 62.8125 32.5713 62.5359 32.0791 62.0437C31.5868 61.5514 31.3102 60.8837 31.3102 60.1875Z" fill="#F2542D"/>
</svg>
