<svg width="20" height="20" viewBox="0 0 20 20" fill="none" xmlns="http://www.w3.org/2000/svg">
<path d="M12.8127 6.25C13.2454 6.25 13.6683 6.12171 14.028 5.88134C14.3878 5.64098 14.6682 5.29933 14.8337 4.89962C14.9993 4.49991 15.0426 4.06007 14.9582 3.63574C14.8738 3.21141 14.6655 2.82163 14.3595 2.51571C14.0536 2.20978 13.6638 2.00144 13.2395 1.91703C12.8152 1.83263 12.3753 1.87595 11.9756 2.04151C11.5759 2.20708 11.2343 2.48746 10.9939 2.84719C10.7535 3.20692 10.6252 3.62985 10.6252 4.0625C10.6252 4.64266 10.8557 5.19906 11.2659 5.6093C11.6762 6.01953 12.2326 6.25 12.8127 6.25ZM12.8127 3.125C12.9982 3.125 13.1794 3.17998 13.3336 3.283C13.4878 3.38601 13.6079 3.53243 13.6789 3.70374C13.7498 3.87504 13.7684 4.06354 13.7322 4.2454C13.696 4.42726 13.6068 4.5943 13.4756 4.72541C13.3445 4.85653 13.1775 4.94581 12.9956 4.98199C12.8138 5.01816 12.6253 4.9996 12.454 4.92864C12.2827 4.85768 12.1362 4.73752 12.0332 4.58335C11.9302 4.42918 11.8752 4.24792 11.8752 4.0625C11.8752 3.81386 11.974 3.5754 12.1498 3.39959C12.3256 3.22377 12.5641 3.125 12.8127 3.125ZM19.9127 15.3063L15.6502 8.1125C15.5403 7.9251 15.3831 7.76988 15.1943 7.66238C15.0055 7.55488 14.7917 7.49889 14.5745 7.5C14.3573 7.49887 14.1437 7.55486 13.955 7.66237C13.7663 7.76987 13.6092 7.92511 13.4995 8.1125L11.4557 11.5625L7.95258 5.61719C7.84219 5.42958 7.68473 5.27405 7.49577 5.16599C7.30681 5.05793 7.09291 5.00109 6.87524 5.00109C6.65756 5.00109 6.44366 5.05793 6.2547 5.16599C6.06575 5.27405 5.90828 5.42958 5.79789 5.61719L0.086956 15.3078C0.0310552 15.4027 0.00123026 15.5107 0.000501947 15.6209C-0.000226364 15.731 0.0281679 15.8394 0.0828086 15.935C0.137449 16.0307 0.216396 16.1102 0.311651 16.1655C0.406907 16.2208 0.515088 16.25 0.625237 16.25H19.3752C19.4856 16.25 19.5939 16.2208 19.6893 16.1653C19.7846 16.1099 19.8636 16.0302 19.9182 15.9343C19.9728 15.8385 20.0011 15.7299 20.0001 15.6195C19.9991 15.5092 19.969 15.4011 19.9127 15.3063ZM6.87524 6.25L8.71664 9.375H5.03383L6.87524 6.25ZM1.71899 15L4.29711 10.625H9.45336L10.9174 13.1094L12.0315 15H1.71899ZM13.4823 15L12.1807 12.7906L14.5745 8.75L18.2815 15H13.4823Z" fill="#562C2C"/>
</svg>
