<svg width="1240" height="204" viewBox="0 0 1240 204" fill="none" xmlns="http://www.w3.org/2000/svg">
<mask id="path-1-inside-1_0_4062" fill="white">
<path d="M0 0H1240V100H0V0Z"/>
</mask>
<path d="M0 1H1240V-1H0V1Z" fill="white" fill-opacity="0.3" mask="url(#path-1-inside-1_0_4062)"/>
<path d="M265.625 32.5C266.49 32.5 267.336 32.2434 268.056 31.7627C268.775 31.282 269.336 30.5987 269.667 29.7992C269.998 28.9998 270.085 28.1201 269.916 27.2715C269.747 26.4228 269.33 25.6433 268.719 25.0314C268.107 24.4196 267.327 24.0029 266.479 23.8341C265.63 23.6653 264.75 23.7519 263.951 24.083C263.151 24.4142 262.468 24.9749 261.987 25.6944C261.507 26.4138 261.25 27.2597 261.25 28.125C261.25 29.2853 261.711 30.3981 262.531 31.2186C263.352 32.0391 264.465 32.5 265.625 32.5ZM265.625 26.25C265.996 26.25 266.358 26.36 266.667 26.566C266.975 26.772 267.215 27.0649 267.357 27.4075C267.499 27.7501 267.536 28.1271 267.464 28.4908C267.392 28.8545 267.213 29.1886 266.951 29.4508C266.689 29.7131 266.354 29.8916 265.991 29.964C265.627 30.0363 265.25 29.9992 264.907 29.8573C264.565 29.7154 264.272 29.475 264.066 29.1667C263.86 28.8584 263.75 28.4958 263.75 28.125C263.75 27.6277 263.948 27.1508 264.299 26.7992C264.651 26.4475 265.128 26.25 265.625 26.25ZM279.825 50.6125L271.3 36.225C271.08 35.8502 270.766 35.5398 270.388 35.3248C270.01 35.1098 269.583 34.9978 269.148 35C268.714 34.9977 268.287 35.1097 267.909 35.3247C267.532 35.5397 267.218 35.8502 266.998 36.225L262.911 43.125L255.905 31.2344C255.684 30.8592 255.369 30.5481 254.991 30.332C254.613 30.1159 254.185 30.0022 253.75 30.0022C253.315 30.0022 252.887 30.1159 252.509 30.332C252.131 30.5481 251.816 30.8592 251.595 31.2344L240.173 50.6156C240.062 50.8054 240.002 51.0214 240.001 51.2417C239.999 51.462 240.056 51.6788 240.165 51.8701C240.274 52.0614 240.432 52.2204 240.623 52.331C240.813 52.4416 241.03 52.4999 241.25 52.5H278.75C278.971 52.5 279.187 52.4415 279.378 52.3306C279.569 52.2197 279.727 52.0603 279.836 51.8686C279.945 51.6769 280.002 51.4597 280 51.2391C279.998 51.0185 279.938 50.8023 279.825 50.6125ZM253.75 32.5L257.433 38.75H250.067L253.75 32.5ZM243.437 50L248.594 41.25H258.906L261.834 46.2188L264.062 50H243.437ZM266.964 50L264.361 45.5813L269.148 37.5L276.562 50H266.964Z" fill="white"/>
<path d="M216.444 200.16H210.784L209.784 203H206.804L212.004 189.04H215.224L220.404 203H217.424L216.444 200.16ZM215.684 198.02L213.604 192.06L211.524 198.02H215.684ZM229.306 188.74C231.066 188.74 232.526 189.193 233.686 190.1C234.846 191.007 235.613 192.24 235.986 193.8H233.026C232.72 193.04 232.24 192.44 231.586 192C230.946 191.56 230.173 191.34 229.266 191.34C228.52 191.34 227.846 191.527 227.246 191.9C226.646 192.273 226.18 192.807 225.846 193.5C225.513 194.193 225.346 195.007 225.346 195.94C225.346 196.86 225.513 197.667 225.846 198.36C226.18 199.053 226.646 199.587 227.246 199.96C227.846 200.333 228.52 200.52 229.266 200.52C230.173 200.52 230.946 200.3 231.586 199.86C232.24 199.42 232.72 198.82 233.026 198.06H235.986C235.613 199.62 234.846 200.853 233.686 201.76C232.526 202.667 231.066 203.12 229.306 203.12C227.96 203.12 226.766 202.82 225.726 202.22C224.7 201.607 223.9 200.753 223.326 199.66C222.766 198.567 222.486 197.327 222.486 195.94C222.486 194.54 222.766 193.293 223.326 192.2C223.9 191.107 224.7 190.26 225.726 189.66C226.753 189.047 227.946 188.74 229.306 188.74ZM248.702 188.88V191.12H244.802V203H241.982V191.12H238.102V188.88H248.702ZM254.075 188.88V203H251.255V188.88H254.075ZM259.606 188.88L263.386 200.06L267.186 188.88H270.206L265.206 203H261.586L256.586 188.88H259.606ZM275.547 188.88V203H272.727V188.88H275.547ZM288.698 188.88V191.12H284.798V203H281.978V191.12H278.098V188.88H288.698ZM294.071 191.12V194.78H299.071V196.94H294.071V200.74H299.671V203H291.251V188.88H299.671V191.12H294.071ZM298.491 185.88L293.891 188.04V186.12L298.491 183.72V185.88ZM307.074 191.52V188.88H312.154V203H309.194V191.52H307.074Z" fill="white"/>
<path fill-rule="evenodd" clip-rule="evenodd" d="M634.602 22.5V31.2953C635.025 31.3731 635.429 31.5374 635.789 31.7798C636.308 32.1292 636.711 32.625 636.948 33.2037C637.186 33.7823 637.248 34.4185 637.127 35.0322C637.006 35.646 636.707 36.2108 636.267 36.6548C635.826 37.0989 635.264 37.4022 634.651 37.5252C634.038 37.6482 633.402 37.585 632.825 37.344C632.248 37.103 631.756 36.6954 631.41 36.174C631.065 35.6526 630.881 35.0405 630.881 34.4149H632.756C632.756 34.673 632.832 34.9247 632.973 35.1381C633.114 35.3515 633.315 35.5166 633.547 35.6138C633.78 35.7109 634.036 35.7362 634.282 35.6868C634.529 35.6374 634.756 35.5152 634.935 35.3344C635.115 35.1536 635.238 34.9222 635.288 34.6693C635.338 34.4163 635.312 34.1541 635.214 33.9162C635.116 33.6785 634.952 33.4764 634.741 33.3349C634.531 33.1934 634.285 33.1184 634.034 33.1184H633.644L632.727 32.1946V22.5H634.602ZM605.384 23.0519H607.042L607.301 23.2664L607.304 23.2683L607.32 23.2813C607.336 23.2938 607.361 23.3138 607.396 23.3403C607.465 23.3932 607.571 23.4717 607.709 23.5673C607.986 23.7589 608.39 24.0166 608.886 24.2744C609.866 24.7831 611.15 25.2619 612.511 25.285C613.972 24.7911 615.504 24.5397 617.046 24.5412C617.046 24.5412 617.046 24.5412 617.046 24.5412H618.227C622.379 24.5412 626.084 26.5137 628.507 29.7582L628.693 30.0077V31.3971L628.015 31.5924C626.842 31.9302 625.727 32.5312 624.889 33.0647C624.781 33.1339 624.677 33.2014 624.58 33.2667C625.263 33.4681 626.238 33.6976 627.504 33.8571L628.324 33.9605V35.5457L628.052 35.8198C626.507 37.3771 625.04 38.3958 623.43 39.0136C621.826 39.6292 620.148 39.8205 618.227 39.8205H617.045C614.406 39.8205 612.074 42.2872 612.074 45.5851C612.074 48.6654 614.108 51.0206 616.528 51.318C618.298 48.4679 621.394 46.137 625.023 46.137H625.96V47.95L625.543 48.2264L625.542 48.2273L625.541 48.2281L625.528 48.237C625.514 48.2468 625.491 48.2634 625.459 48.2866C625.397 48.333 625.302 48.4053 625.187 48.502C624.956 48.6965 624.646 48.9841 624.338 49.352C623.713 50.0977 623.153 51.1007 623.153 52.2872C623.153 53.4737 623.713 54.4768 624.338 55.2225C624.646 55.5904 624.956 55.878 625.187 56.0724C625.302 56.1692 625.397 56.2415 625.459 56.2879C625.491 56.3111 625.514 56.3277 625.528 56.3375L625.541 56.3464L625.542 56.3471L625.543 56.3481L625.96 56.6245V58.4375H625.023C621.376 58.4375 618.267 56.0835 616.502 53.2143C612.922 53.0765 609.519 51.5825 606.979 49.0214C604.31 46.3312 602.812 42.6842 602.812 38.883C602.812 38.883 602.812 38.883 602.812 38.883C602.813 33.6033 603.374 29.8096 603.944 27.3174C604.229 26.0715 604.517 25.1518 604.737 24.5351C604.847 24.2268 604.94 23.9944 605.008 23.8349C605.042 23.7552 605.069 23.6938 605.089 23.6502C605.099 23.6284 605.108 23.6111 605.114 23.5982L605.121 23.5822L605.124 23.5767L605.125 23.5746C605.125 23.5741 605.126 23.5728 605.966 23.9894L605.126 23.5728L605.384 23.0519ZM606.547 25.0427C606.533 25.0818 606.518 25.1228 606.503 25.1657C606.307 25.7126 606.041 26.5614 605.772 27.7358C605.57 28.6176 605.367 29.6835 605.192 30.9433C605.272 30.8212 605.355 30.7002 605.439 30.5803C606.564 28.9834 607.995 27.6439 609.637 26.6347C609.032 26.4267 608.487 26.18 608.022 25.9384C607.443 25.6376 606.972 25.3368 606.643 25.1096C606.61 25.0865 606.578 25.0642 606.547 25.0427ZM604.688 38.883C604.688 42.1918 605.991 45.3636 608.31 47.701C609.242 48.6408 610.307 49.4147 611.461 50.0043C610.661 48.7425 610.199 47.2083 610.199 45.5851C610.199 41.4809 613.155 37.9455 617.045 37.9455H618.227C620.028 37.9455 621.452 37.7644 622.758 37.263C623.733 36.889 624.68 36.322 625.687 35.4633C624.907 35.3093 624.272 35.138 623.781 34.9833C623.386 34.8588 623.084 34.7452 622.876 34.6599C622.772 34.6173 622.692 34.5818 622.634 34.5557C622.606 34.5426 622.583 34.5318 622.566 34.5237L622.545 34.5135L622.538 34.5099L622.535 34.5085L622.534 34.5079C622.533 34.5078 622.533 34.5074 622.955 33.6702L622.534 34.5079L622.017 34.2475V32.8611L622.351 32.5801L622.955 33.2979C622.351 32.5801 622.351 32.5802 622.351 32.5801L622.353 32.5788L622.355 32.5769L622.362 32.5711L622.386 32.5517C622.406 32.5353 622.434 32.5124 622.47 32.4835C622.542 32.4259 622.646 32.3445 622.779 32.2454C623.042 32.0475 623.42 31.7774 623.882 31.4831C624.56 31.0517 625.439 30.5552 626.423 30.1614C624.353 27.8026 621.446 26.4162 618.227 26.4162H617.045C615.661 26.4148 614.284 26.6486 612.976 27.1078C610.556 27.96 608.458 29.5504 606.972 31.6599C605.486 33.7697 604.688 36.2939 604.688 38.883ZM622.664 56.1303C621.96 55.2069 621.278 53.8987 621.278 52.2872C621.278 50.6758 621.96 49.3676 622.664 48.4441C620.821 49.1247 619.215 50.5495 618.133 52.2872C619.215 54.025 620.821 55.4497 622.664 56.1303ZM620.937 28.4574V31.4362H619.062V28.4574H620.937Z" fill="#F0F0F0"/>
<path d="M574.081 200.16H568.421L567.421 203H564.441L569.641 189.04H572.861L578.041 203H575.061L574.081 200.16ZM573.321 198.02L571.241 192.06L569.161 198.02H573.321ZM586.943 188.74C588.703 188.74 590.163 189.193 591.323 190.1C592.483 191.007 593.25 192.24 593.623 193.8H590.663C590.357 193.04 589.877 192.44 589.223 192C588.583 191.56 587.81 191.34 586.903 191.34C586.157 191.34 585.483 191.527 584.883 191.9C584.283 192.273 583.817 192.807 583.483 193.5C583.15 194.193 582.983 195.007 582.983 195.94C582.983 196.86 583.15 197.667 583.483 198.36C583.817 199.053 584.283 199.587 584.883 199.96C585.483 200.333 586.157 200.52 586.903 200.52C587.81 200.52 588.583 200.3 589.223 199.86C589.877 199.42 590.357 198.82 590.663 198.06H593.623C593.25 199.62 592.483 200.853 591.323 201.76C590.163 202.667 588.703 203.12 586.943 203.12C585.597 203.12 584.403 202.82 583.363 202.22C582.337 201.607 581.537 200.753 580.963 199.66C580.403 198.567 580.123 197.327 580.123 195.94C580.123 194.54 580.403 193.293 580.963 192.2C581.537 191.107 582.337 190.26 583.363 189.66C584.39 189.047 585.583 188.74 586.943 188.74ZM606.339 188.88V191.12H602.439V203H599.619V191.12H595.739V188.88H606.339ZM611.711 188.88V203H608.891V188.88H611.711ZM617.242 188.88L621.022 200.06L624.822 188.88H627.842L622.842 203H619.222L614.222 188.88H617.242ZM633.184 188.88V203H630.364V188.88H633.184ZM646.335 188.88V191.12H642.435V203H639.615V191.12H635.735V188.88H646.335ZM651.707 191.12V194.78H656.707V196.94H651.707V200.74H657.307V203H648.887V188.88H657.307V191.12H651.707ZM656.127 185.88L651.527 188.04V186.12L656.127 183.72V185.88ZM665.211 200.78C669.731 197.647 671.991 195.047 671.991 192.98C671.991 192.353 671.837 191.86 671.531 191.5C671.237 191.14 670.771 190.96 670.131 190.96C668.811 190.96 668.111 191.86 668.031 193.66H665.291C665.371 191.993 665.877 190.733 666.811 189.88C667.744 189.013 668.924 188.58 670.351 188.58C671.804 188.58 672.917 188.96 673.691 189.72C674.477 190.467 674.871 191.467 674.871 192.72C674.871 193.707 674.577 194.7 673.991 195.7C673.417 196.687 672.684 197.6 671.791 198.44C670.897 199.267 669.957 199.98 668.971 200.58H675.151V202.88H665.211V200.78Z" fill="white"/>
<path d="M996.25 38.75H994.947C994.647 35.2179 993.108 31.9056 990.601 29.3991C988.094 26.8925 984.782 25.3531 981.25 25.0531V23.75C981.25 23.4185 981.118 23.1005 980.884 22.8661C980.649 22.6317 980.332 22.5 980 22.5C979.668 22.5 979.351 22.6317 979.116 22.8661C978.882 23.1005 978.75 23.4185 978.75 23.75V25.0531C975.218 25.3531 971.906 26.8925 969.399 29.3991C966.892 31.9056 965.353 35.2179 965.053 38.75H963.75C963.418 38.75 963.101 38.8817 962.866 39.1161C962.632 39.3505 962.5 39.6685 962.5 40C962.5 40.3315 962.632 40.6495 962.866 40.8839C963.101 41.1183 963.418 41.25 963.75 41.25H965.053C965.353 44.7821 966.892 48.0944 969.399 50.6009C971.906 53.1075 975.218 54.6469 978.75 54.9469V56.25C978.75 56.5815 978.882 56.8995 979.116 57.1339C979.351 57.3683 979.668 57.5 980 57.5C980.332 57.5 980.649 57.3683 980.884 57.1339C981.118 56.8995 981.25 56.5815 981.25 56.25V54.9469C984.782 54.6469 988.094 53.1075 990.601 50.6009C993.108 48.0944 994.647 44.7821 994.947 41.25H996.25C996.582 41.25 996.899 41.1183 997.134 40.8839C997.368 40.6495 997.5 40.3315 997.5 40C997.5 39.6685 997.368 39.3505 997.134 39.1161C996.899 38.8817 996.582 38.75 996.25 38.75ZM981.25 52.4375V51.25C981.25 50.9185 981.118 50.6005 980.884 50.3661C980.649 50.1317 980.332 50 980 50C979.668 50 979.351 50.1317 979.116 50.3661C978.882 50.6005 978.75 50.9185 978.75 51.25V52.4375C975.883 52.1449 973.204 50.8722 971.166 48.8342C969.128 46.7961 967.855 44.1174 967.562 41.25H968.75C969.082 41.25 969.399 41.1183 969.634 40.8839C969.868 40.6495 970 40.3315 970 40C970 39.6685 969.868 39.3505 969.634 39.1161C969.399 38.8817 969.082 38.75 968.75 38.75H967.562C967.855 35.8826 969.128 33.2039 971.166 31.1658C973.204 29.1278 975.883 27.8551 978.75 27.5625V28.75C978.75 29.0815 978.882 29.3995 979.116 29.6339C979.351 29.8683 979.668 30 980 30C980.332 30 980.649 29.8683 980.884 29.6339C981.118 29.3995 981.25 29.0815 981.25 28.75V27.5625C984.117 27.8551 986.796 29.1278 988.834 31.1658C990.872 33.2039 992.145 35.8826 992.438 38.75H991.25C990.918 38.75 990.601 38.8817 990.366 39.1161C990.132 39.3505 990 39.6685 990 40C990 40.3315 990.132 40.6495 990.366 40.8839C990.601 41.1183 990.918 41.25 991.25 41.25H992.438C992.145 44.1174 990.872 46.7961 988.834 48.8342C986.796 50.8722 984.117 52.1449 981.25 52.4375ZM980 33.75C978.764 33.75 977.555 34.1166 976.528 34.8033C975.5 35.4901 974.699 36.4662 974.226 37.6082C973.753 38.7503 973.629 40.0069 973.87 41.2193C974.111 42.4317 974.707 43.5453 975.581 44.4194C976.455 45.2935 977.568 45.8888 978.781 46.1299C979.993 46.3711 981.25 46.2473 982.392 45.7742C983.534 45.3012 984.51 44.5001 985.197 43.4723C985.883 42.4445 986.25 41.2361 986.25 40C986.25 38.3424 985.592 36.7527 984.419 35.5806C983.247 34.4085 981.658 33.75 980 33.75ZM980 43.75C979.258 43.75 978.533 43.5301 977.917 43.118C977.3 42.706 976.819 42.1203 976.535 41.4351C976.252 40.7498 976.177 39.9958 976.322 39.2684C976.467 38.541 976.824 37.8728 977.348 37.3483C977.873 36.8239 978.541 36.4667 979.268 36.3221C979.996 36.1774 980.75 36.2516 981.435 36.5355C982.12 36.8193 982.706 37.2999 983.118 37.9166C983.53 38.5333 983.75 39.2583 983.75 40C983.75 40.9946 983.355 41.9484 982.652 42.6517C981.948 43.3549 980.995 43.75 980 43.75Z" fill="#F0F0F0"/>
<path d="M933.759 200.16H928.099L927.099 203H924.119L929.319 189.04H932.539L937.719 203H934.739L933.759 200.16ZM932.999 198.02L930.919 192.06L928.839 198.02H932.999ZM946.621 188.74C948.381 188.74 949.841 189.193 951.001 190.1C952.161 191.007 952.928 192.24 953.301 193.8H950.341C950.034 193.04 949.554 192.44 948.901 192C948.261 191.56 947.488 191.34 946.581 191.34C945.834 191.34 945.161 191.527 944.561 191.9C943.961 192.273 943.494 192.807 943.161 193.5C942.828 194.193 942.661 195.007 942.661 195.94C942.661 196.86 942.828 197.667 943.161 198.36C943.494 199.053 943.961 199.587 944.561 199.96C945.161 200.333 945.834 200.52 946.581 200.52C947.488 200.52 948.261 200.3 948.901 199.86C949.554 199.42 950.034 198.82 950.341 198.06H953.301C952.928 199.62 952.161 200.853 951.001 201.76C949.841 202.667 948.381 203.12 946.621 203.12C945.274 203.12 944.081 202.82 943.041 202.22C942.014 201.607 941.214 200.753 940.641 199.66C940.081 198.567 939.801 197.327 939.801 195.94C939.801 194.54 940.081 193.293 940.641 192.2C941.214 191.107 942.014 190.26 943.041 189.66C944.068 189.047 945.261 188.74 946.621 188.74ZM966.017 188.88V191.12H962.117V203H959.297V191.12H955.417V188.88H966.017ZM971.389 188.88V203H968.569V188.88H971.389ZM976.92 188.88L980.7 200.06L984.5 188.88H987.52L982.52 203H978.9L973.9 188.88H976.92ZM992.862 188.88V203H990.042V188.88H992.862ZM1006.01 188.88V191.12H1002.11V203H999.293V191.12H995.413V188.88H1006.01ZM1011.39 191.12V194.78H1016.39V196.94H1011.39V200.74H1016.99V203H1008.57V188.88H1016.99V191.12H1011.39ZM1015.81 185.88L1011.21 188.04V186.12L1015.81 183.72V185.88ZM1030.17 188.34C1031.13 188.34 1031.95 188.507 1032.63 188.84C1033.32 189.173 1033.84 189.633 1034.19 190.22C1034.55 190.807 1034.73 191.46 1034.73 192.18C1034.73 193.087 1034.48 193.833 1033.99 194.42C1033.5 194.993 1032.84 195.347 1032.03 195.48V195.58C1034 196.167 1034.99 197.327 1034.99 199.06C1034.99 200.273 1034.58 201.26 1033.77 202.02C1032.96 202.767 1031.81 203.14 1030.33 203.14C1028.76 203.14 1027.5 202.753 1026.57 201.98C1025.64 201.193 1025.12 200.013 1025.01 198.44H1027.77C1027.84 199.16 1028.07 199.733 1028.47 200.16C1028.88 200.573 1029.46 200.78 1030.21 200.78C1030.85 200.78 1031.35 200.607 1031.71 200.26C1032.07 199.9 1032.25 199.433 1032.25 198.86C1032.25 198.18 1031.99 197.66 1031.47 197.3C1030.95 196.94 1030.18 196.76 1029.17 196.76H1028.59V194.46H1029.17C1031.04 194.487 1031.97 193.84 1031.97 192.52C1031.97 191.947 1031.8 191.5 1031.47 191.18C1031.14 190.847 1030.68 190.68 1030.11 190.68C1029.51 190.68 1029.02 190.873 1028.63 191.26C1028.24 191.633 1028.02 192.16 1027.97 192.84H1025.21C1025.29 191.4 1025.76 190.293 1026.61 189.52C1027.46 188.733 1028.65 188.34 1030.17 188.34Z" fill="white"/>
</svg>
