<svg width="535" height="250" viewBox="0 0 535 250" fill="none" xmlns="http://www.w3.org/2000/svg">
<g clip-path="url(#clip0_0_4067)">
<path d="M273.625 48.5C274.49 48.5 275.336 48.2434 276.056 47.7627C276.775 47.282 277.336 46.5987 277.667 45.7992C277.998 44.9998 278.085 44.1201 277.916 43.2715C277.747 42.4228 277.33 41.6433 276.719 41.0314C276.107 40.4196 275.327 40.0029 274.479 39.8341C273.63 39.6653 272.75 39.7519 271.951 40.083C271.151 40.4142 270.468 40.9749 269.987 41.6944C269.507 42.4138 269.25 43.2597 269.25 44.125C269.25 45.2853 269.711 46.3981 270.531 47.2186C271.352 48.0391 272.465 48.5 273.625 48.5ZM273.625 42.25C273.996 42.25 274.358 42.36 274.667 42.566C274.975 42.772 275.215 43.0649 275.357 43.4075C275.499 43.7501 275.536 44.1271 275.464 44.4908C275.392 44.8545 275.213 45.1886 274.951 45.4508C274.689 45.7131 274.354 45.8916 273.991 45.964C273.627 46.0363 273.25 45.9992 272.907 45.8573C272.565 45.7154 272.272 45.475 272.066 45.1667C271.86 44.8584 271.75 44.4958 271.75 44.125C271.75 43.6277 271.948 43.1508 272.299 42.7992C272.651 42.4475 273.128 42.25 273.625 42.25ZM287.825 66.6125L279.3 52.225C279.08 51.8502 278.766 51.5398 278.388 51.3248C278.01 51.1098 277.583 50.9978 277.148 51C276.714 50.9977 276.287 51.1097 275.909 51.3247C275.532 51.5397 275.218 51.8502 274.998 52.225L270.911 59.125L263.905 47.2344C263.684 46.8592 263.369 46.5481 262.991 46.332C262.613 46.1159 262.185 46.0022 261.75 46.0022C261.315 46.0022 260.887 46.1159 260.509 46.332C260.131 46.5481 259.816 46.8592 259.595 47.2344L248.173 66.6156C248.062 66.8054 248.002 67.0214 248.001 67.2417C247.999 67.462 248.056 67.6788 248.165 67.8701C248.274 68.0614 248.432 68.2204 248.623 68.331C248.813 68.4416 249.03 68.4999 249.25 68.5H286.75C286.971 68.5 287.187 68.4415 287.378 68.3306C287.569 68.2197 287.727 68.0603 287.836 67.8686C287.945 67.6769 288.002 67.4597 288 67.2391C287.998 67.0185 287.938 66.8023 287.825 66.6125ZM261.75 48.5L265.433 54.75H258.067L261.75 48.5ZM251.437 66L256.594 57.25H266.906L269.834 62.2188L272.062 66H251.437ZM274.964 66L272.361 61.5813L277.148 53.5L284.562 66H274.964Z" fill="white"/>
<path d="M158.767 204.88V207.12H154.867V219H152.047V207.12H148.167V204.88H158.767ZM167.939 204.68C169.259 204.68 170.452 204.987 171.519 205.6C172.599 206.213 173.446 207.073 174.059 208.18C174.686 209.273 174.999 210.513 174.999 211.9C174.999 213.287 174.686 214.533 174.059 215.64C173.446 216.747 172.599 217.607 171.519 218.22C170.452 218.833 169.259 219.14 167.939 219.14C166.619 219.14 165.419 218.833 164.339 218.22C163.272 217.607 162.426 216.747 161.799 215.64C161.186 214.533 160.879 213.287 160.879 211.9C160.879 210.513 161.186 209.273 161.799 208.18C162.426 207.073 163.272 206.213 164.339 205.6C165.419 204.987 166.619 204.68 167.939 204.68ZM167.939 207.28C167.112 207.28 166.386 207.467 165.759 207.84C165.132 208.213 164.639 208.753 164.279 209.46C163.932 210.153 163.759 210.967 163.759 211.9C163.759 212.833 163.932 213.653 164.279 214.36C164.639 215.053 165.132 215.587 165.759 215.96C166.386 216.333 167.112 216.52 167.939 216.52C168.766 216.52 169.492 216.333 170.119 215.96C170.746 215.587 171.232 215.053 171.579 214.36C171.939 213.653 172.119 212.833 172.119 211.9C172.119 210.967 171.939 210.153 171.579 209.46C171.232 208.753 170.746 208.213 170.119 207.84C169.492 207.467 168.766 207.28 167.939 207.28ZM180.84 204.88V213.16C180.84 214.267 181.08 215.1 181.56 215.66C182.053 216.207 182.76 216.48 183.68 216.48C184.587 216.48 185.28 216.207 185.76 215.66C186.253 215.1 186.5 214.267 186.5 213.16V204.88H189.3V213.16C189.3 214.467 189.053 215.573 188.56 216.48C188.08 217.373 187.407 218.04 186.54 218.48C185.687 218.92 184.713 219.14 183.62 219.14C181.927 219.14 180.573 218.633 179.56 217.62C178.547 216.607 178.04 215.12 178.04 213.16V204.88H180.84ZM200.132 219L196.832 213.5H195.592V219H192.772V204.88H198.152C199.792 204.88 201.039 205.28 201.892 206.08C202.759 206.88 203.192 207.933 203.192 209.24C203.192 210.307 202.892 211.2 202.292 211.92C201.706 212.64 200.852 213.12 199.732 213.36L203.252 219H200.132ZM195.592 211.56H197.912C199.526 211.56 200.332 210.847 200.332 209.42C200.332 208.74 200.132 208.213 199.732 207.84C199.346 207.453 198.739 207.26 197.912 207.26H195.592V211.56ZM208.916 204.88V219H206.096V204.88H208.916ZM222.168 215.14C222.168 215.86 221.988 216.527 221.628 217.14C221.268 217.74 220.734 218.227 220.028 218.6C219.321 218.96 218.461 219.14 217.448 219.14C216.448 219.14 215.554 218.973 214.768 218.64C213.981 218.293 213.348 217.8 212.868 217.16C212.401 216.52 212.134 215.773 212.068 214.92H215.068C215.134 215.493 215.361 215.973 215.748 216.36C216.148 216.733 216.674 216.92 217.328 216.92C217.914 216.92 218.361 216.767 218.668 216.46C218.988 216.14 219.148 215.733 219.148 215.24C219.148 214.8 219.021 214.44 218.768 214.16C218.514 213.867 218.194 213.633 217.808 213.46C217.421 213.287 216.888 213.087 216.208 212.86C215.328 212.567 214.608 212.28 214.048 212C213.488 211.707 213.008 211.287 212.608 210.74C212.221 210.193 212.028 209.48 212.028 208.6C212.028 207.387 212.461 206.433 213.328 205.74C214.208 205.033 215.368 204.68 216.808 204.68C218.301 204.68 219.488 205.04 220.368 205.76C221.261 206.48 221.768 207.44 221.888 208.64H218.848C218.768 208.133 218.554 207.72 218.208 207.4C217.861 207.067 217.388 206.9 216.788 206.9C216.268 206.9 215.848 207.04 215.528 207.32C215.208 207.587 215.048 207.98 215.048 208.5C215.048 208.913 215.168 209.26 215.408 209.54C215.661 209.807 215.974 210.027 216.348 210.2C216.734 210.373 217.254 210.567 217.908 210.78C218.814 211.1 219.548 211.4 220.108 211.68C220.681 211.96 221.168 212.38 221.568 212.94C221.968 213.5 222.168 214.233 222.168 215.14ZM240.465 205.04V219H237.665V209.26L234.085 219H231.645L228.065 209.3V219H225.245V205.04H228.665L232.905 215.54L237.065 205.04H240.465ZM246.838 207.12V210.78H251.838V212.94H246.838V216.74H252.438V219H244.018V204.88H252.438V207.12H246.838ZM273.302 211.92C273.302 213.32 273.008 214.553 272.422 215.62C271.835 216.687 270.982 217.52 269.862 218.12C268.755 218.707 267.435 219 265.902 219H260.882V204.88H265.902C267.435 204.88 268.755 205.173 269.862 205.76C270.982 206.333 271.835 207.153 272.422 208.22C273.008 209.273 273.302 210.507 273.302 211.92ZM265.662 216.48C267.182 216.48 268.355 216.08 269.182 215.28C270.022 214.48 270.442 213.36 270.442 211.92C270.442 210.467 270.022 209.34 269.182 208.54C268.355 207.74 267.182 207.34 265.662 207.34H263.702V216.48H265.662ZM278.413 203.02L278.153 207.28H276.253L275.993 203.02H278.413ZM290.153 216.16H284.493L283.493 219H280.513L285.713 205.04H288.933L294.113 219H291.133L290.153 216.16ZM289.393 214.02L287.313 208.06L285.233 214.02H289.393ZM298.615 204.88L302.395 216.06L306.195 204.88H309.215L304.215 219H300.595L295.595 204.88H298.615ZM314.557 207.12V210.78H319.557V212.94H314.557V216.74H320.157V219H311.737V204.88H320.157V207.12H314.557ZM335.205 219H332.385L326.065 209.4V219H323.245V204.88H326.065L332.385 214.56V204.88H335.205V219ZM348.357 204.88V207.12H344.457V219H341.637V207.12H337.757V204.88H348.357ZM353.629 204.88V213.16C353.629 214.267 353.869 215.1 354.349 215.66C354.842 216.207 355.549 216.48 356.469 216.48C357.376 216.48 358.069 216.207 358.549 215.66C359.042 215.1 359.289 214.267 359.289 213.16V204.88H362.089V213.16C362.089 214.467 361.842 215.573 361.349 216.48C360.869 217.373 360.196 218.04 359.329 218.48C358.476 218.92 357.502 219.14 356.409 219.14C354.716 219.14 353.362 218.633 352.349 217.62C351.336 216.607 350.829 215.12 350.829 213.16V204.88H353.629ZM372.921 219L369.621 213.5H368.381V219H365.561V204.88H370.941C372.581 204.88 373.828 205.28 374.681 206.08C375.548 206.88 375.981 207.933 375.981 209.24C375.981 210.307 375.681 211.2 375.081 211.92C374.495 212.64 373.641 213.12 372.521 213.36L376.041 219H372.921ZM368.381 211.56H370.701C372.315 211.56 373.121 210.847 373.121 209.42C373.121 208.74 372.921 208.213 372.521 207.84C372.135 207.453 371.528 207.26 370.701 207.26H368.381V211.56ZM381.705 207.12V210.78H386.705V212.94H381.705V216.74H387.305V219H378.885V204.88H387.305V207.12H381.705Z" fill="white"/>
<path d="M272.625 166.5C273.49 166.5 274.336 166.243 275.056 165.763C275.775 165.282 276.336 164.599 276.667 163.799C276.998 163 277.085 162.12 276.916 161.271C276.747 160.423 276.33 159.643 275.719 159.031C275.107 158.42 274.327 158.003 273.479 157.834C272.63 157.665 271.75 157.752 270.951 158.083C270.151 158.414 269.468 158.975 268.987 159.694C268.507 160.414 268.25 161.26 268.25 162.125C268.25 163.285 268.711 164.398 269.531 165.219C270.352 166.039 271.465 166.5 272.625 166.5ZM272.625 160.25C272.996 160.25 273.358 160.36 273.667 160.566C273.975 160.772 274.215 161.065 274.357 161.407C274.499 161.75 274.536 162.127 274.464 162.491C274.392 162.855 274.213 163.189 273.951 163.451C273.689 163.713 273.354 163.892 272.991 163.964C272.627 164.036 272.25 163.999 271.907 163.857C271.565 163.715 271.272 163.475 271.066 163.167C270.86 162.858 270.75 162.496 270.75 162.125C270.75 161.628 270.948 161.151 271.299 160.799C271.651 160.448 272.128 160.25 272.625 160.25ZM286.825 184.613L278.3 170.225C278.08 169.85 277.766 169.54 277.388 169.325C277.01 169.11 276.583 168.998 276.148 169C275.714 168.998 275.287 169.11 274.909 169.325C274.532 169.54 274.218 169.85 273.998 170.225L269.911 177.125L262.905 165.234C262.684 164.859 262.369 164.548 261.991 164.332C261.613 164.116 261.185 164.002 260.75 164.002C260.315 164.002 259.887 164.116 259.509 164.332C259.131 164.548 258.816 164.859 258.595 165.234L247.173 184.616C247.062 184.805 247.002 185.021 247.001 185.242C246.999 185.462 247.056 185.679 247.165 185.87C247.274 186.061 247.432 186.22 247.623 186.331C247.813 186.442 248.03 186.5 248.25 186.5H285.75C285.971 186.5 286.187 186.442 286.378 186.331C286.569 186.22 286.727 186.06 286.836 185.869C286.945 185.677 287.002 185.46 287 185.239C286.998 185.018 286.938 184.802 286.825 184.613ZM260.75 166.5L264.433 172.75H257.067L260.75 166.5ZM250.437 184L255.594 175.25H265.906L268.834 180.219L271.062 184H250.437ZM273.964 184L271.361 179.581L276.148 171.5L283.562 184H273.964Z" fill="white"/>
<path d="M157.767 208.88V211.12H153.867V223H151.047V211.12H147.167V208.88H157.767ZM166.939 208.68C168.259 208.68 169.452 208.987 170.519 209.6C171.599 210.213 172.446 211.073 173.059 212.18C173.686 213.273 173.999 214.513 173.999 215.9C173.999 217.287 173.686 218.533 173.059 219.64C172.446 220.747 171.599 221.607 170.519 222.22C169.452 222.833 168.259 223.14 166.939 223.14C165.619 223.14 164.419 222.833 163.339 222.22C162.272 221.607 161.426 220.747 160.799 219.64C160.186 218.533 159.879 217.287 159.879 215.9C159.879 214.513 160.186 213.273 160.799 212.18C161.426 211.073 162.272 210.213 163.339 209.6C164.419 208.987 165.619 208.68 166.939 208.68ZM166.939 211.28C166.112 211.28 165.386 211.467 164.759 211.84C164.132 212.213 163.639 212.753 163.279 213.46C162.932 214.153 162.759 214.967 162.759 215.9C162.759 216.833 162.932 217.653 163.279 218.36C163.639 219.053 164.132 219.587 164.759 219.96C165.386 220.333 166.112 220.52 166.939 220.52C167.766 220.52 168.492 220.333 169.119 219.96C169.746 219.587 170.232 219.053 170.579 218.36C170.939 217.653 171.119 216.833 171.119 215.9C171.119 214.967 170.939 214.153 170.579 213.46C170.232 212.753 169.746 212.213 169.119 211.84C168.492 211.467 167.766 211.28 166.939 211.28ZM179.84 208.88V217.16C179.84 218.267 180.08 219.1 180.56 219.66C181.053 220.207 181.76 220.48 182.68 220.48C183.587 220.48 184.28 220.207 184.76 219.66C185.253 219.1 185.5 218.267 185.5 217.16V208.88H188.3V217.16C188.3 218.467 188.053 219.573 187.56 220.48C187.08 221.373 186.407 222.04 185.54 222.48C184.687 222.92 183.713 223.14 182.62 223.14C180.927 223.14 179.573 222.633 178.56 221.62C177.547 220.607 177.04 219.12 177.04 217.16V208.88H179.84ZM199.132 223L195.832 217.5H194.592V223H191.772V208.88H197.152C198.792 208.88 200.039 209.28 200.892 210.08C201.759 210.88 202.192 211.933 202.192 213.24C202.192 214.307 201.892 215.2 201.292 215.92C200.706 216.64 199.852 217.12 198.732 217.36L202.252 223H199.132ZM194.592 215.56H196.912C198.526 215.56 199.332 214.847 199.332 213.42C199.332 212.74 199.132 212.213 198.732 211.84C198.346 211.453 197.739 211.26 196.912 211.26H194.592V215.56ZM207.916 208.88V223H205.096V208.88H207.916ZM221.168 219.14C221.168 219.86 220.988 220.527 220.628 221.14C220.268 221.74 219.734 222.227 219.028 222.6C218.321 222.96 217.461 223.14 216.448 223.14C215.448 223.14 214.554 222.973 213.768 222.64C212.981 222.293 212.348 221.8 211.868 221.16C211.401 220.52 211.134 219.773 211.068 218.92H214.068C214.134 219.493 214.361 219.973 214.748 220.36C215.148 220.733 215.674 220.92 216.328 220.92C216.914 220.92 217.361 220.767 217.668 220.46C217.988 220.14 218.148 219.733 218.148 219.24C218.148 218.8 218.021 218.44 217.768 218.16C217.514 217.867 217.194 217.633 216.808 217.46C216.421 217.287 215.888 217.087 215.208 216.86C214.328 216.567 213.608 216.28 213.048 216C212.488 215.707 212.008 215.287 211.608 214.74C211.221 214.193 211.028 213.48 211.028 212.6C211.028 211.387 211.461 210.433 212.328 209.74C213.208 209.033 214.368 208.68 215.808 208.68C217.301 208.68 218.488 209.04 219.368 209.76C220.261 210.48 220.768 211.44 220.888 212.64H217.848C217.768 212.133 217.554 211.72 217.208 211.4C216.861 211.067 216.388 210.9 215.788 210.9C215.268 210.9 214.848 211.04 214.528 211.32C214.208 211.587 214.048 211.98 214.048 212.5C214.048 212.913 214.168 213.26 214.408 213.54C214.661 213.807 214.974 214.027 215.348 214.2C215.734 214.373 216.254 214.567 216.908 214.78C217.814 215.1 218.548 215.4 219.108 215.68C219.681 215.96 220.168 216.38 220.568 216.94C220.968 217.5 221.168 218.233 221.168 219.14ZM239.465 209.04V223H236.665V213.26L233.085 223H230.645L227.065 213.3V223H224.245V209.04H227.665L231.905 219.54L236.065 209.04H239.465ZM245.838 211.12V214.78H250.838V216.94H245.838V220.74H251.438V223H243.018V208.88H251.438V211.12H245.838ZM272.302 215.92C272.302 217.32 272.008 218.553 271.422 219.62C270.835 220.687 269.982 221.52 268.862 222.12C267.755 222.707 266.435 223 264.902 223H259.882V208.88H264.902C266.435 208.88 267.755 209.173 268.862 209.76C269.982 210.333 270.835 211.153 271.422 212.22C272.008 213.273 272.302 214.507 272.302 215.92ZM264.662 220.48C266.182 220.48 267.355 220.08 268.182 219.28C269.022 218.48 269.442 217.36 269.442 215.92C269.442 214.467 269.022 213.34 268.182 212.54C267.355 211.74 266.182 211.34 264.662 211.34H262.702V220.48H264.662ZM277.413 207.02L277.153 211.28H275.253L274.993 207.02H277.413ZM289.153 220.16H283.493L282.493 223H279.513L284.713 209.04H287.933L293.113 223H290.133L289.153 220.16ZM288.393 218.02L286.313 212.06L284.233 218.02H288.393ZM297.615 208.88L301.395 220.06L305.195 208.88H308.215L303.215 223H299.595L294.595 208.88H297.615ZM313.557 211.12V214.78H318.557V216.94H313.557V220.74H319.157V223H310.737V208.88H319.157V211.12H313.557ZM334.205 223H331.385L325.065 213.4V223H322.245V208.88H325.065L331.385 218.56V208.88H334.205V223ZM347.357 208.88V211.12H343.457V223H340.637V211.12H336.757V208.88H347.357ZM352.629 208.88V217.16C352.629 218.267 352.869 219.1 353.349 219.66C353.842 220.207 354.549 220.48 355.469 220.48C356.376 220.48 357.069 220.207 357.549 219.66C358.042 219.1 358.289 218.267 358.289 217.16V208.88H361.089V217.16C361.089 218.467 360.842 219.573 360.349 220.48C359.869 221.373 359.196 222.04 358.329 222.48C357.476 222.92 356.502 223.14 355.409 223.14C353.716 223.14 352.362 222.633 351.349 221.62C350.336 220.607 349.829 219.12 349.829 217.16V208.88H352.629ZM371.921 223L368.621 217.5H367.381V223H364.561V208.88H369.941C371.581 208.88 372.828 209.28 373.681 210.08C374.548 210.88 374.981 211.933 374.981 213.24C374.981 214.307 374.681 215.2 374.081 215.92C373.495 216.64 372.641 217.12 371.521 217.36L375.041 223H371.921ZM367.381 215.56H369.701C371.315 215.56 372.121 214.847 372.121 213.42C372.121 212.74 371.921 212.213 371.521 211.84C371.135 211.453 370.528 211.26 369.701 211.26H367.381V215.56ZM380.705 211.12V214.78H385.705V216.94H380.705V220.74H386.305V223H377.885V208.88H386.305V211.12H380.705Z" fill="white"/>
<rect x="87" y="134" width="360" height="4" fill="white"/>
<g clip-path="url(#clip1_0_4067)">
<g opacity="0.3" filter="url(#filter0_f_0_4067)">
<ellipse cx="266.5" cy="98.5" rx="192.5" ry="91.5" fill="white"/>
</g>
</g>
</g>
<rect x="0.5" y="0.5" width="534" height="249" rx="4.5" stroke="#9747FF" stroke-dasharray="10 5"/>
<defs>
<filter id="filter0_f_0_4067" x="-6" y="-73" width="545" height="343" filterUnits="userSpaceOnUse" color-interpolation-filters="sRGB">
<feFlood flood-opacity="0" result="BackgroundImageFix"/>
<feBlend mode="normal" in="SourceGraphic" in2="BackgroundImageFix" result="shape"/>
<feGaussianBlur stdDeviation="40" result="effect1_foregroundBlur_0_4067"/>
</filter>
<clipPath id="clip0_0_4067">
<rect width="535" height="250" rx="5" fill="white"/>
</clipPath>
<clipPath id="clip1_0_4067">
<rect width="511" height="131" fill="white" transform="translate(11 134)"/>
</clipPath>
</defs>
</svg>
