<svg width="348" height="102" viewBox="0 0 348 102" fill="none" xmlns="http://www.w3.org/2000/svg">
<g clip-path="url(#clip0_0_4254)">
<path d="M19.024 23.668H23.416V25H17.386V12.454H19.024V23.668ZM29.4575 25.162C28.5335 25.162 27.6935 24.952 26.9375 24.532C26.1935 24.112 25.6055 23.518 25.1735 22.75C24.7535 21.97 24.5435 21.07 24.5435 20.05C24.5435 19.042 24.7595 18.154 25.1915 17.386C25.6355 16.606 26.2355 16.012 26.9915 15.604C27.7475 15.184 28.5935 14.974 29.5295 14.974C30.4655 14.974 31.3115 15.184 32.0675 15.604C32.8235 16.012 33.4175 16.6 33.8495 17.368C34.2935 18.136 34.5155 19.03 34.5155 20.05C34.5155 21.07 34.2875 21.97 33.8315 22.75C33.3875 23.518 32.7815 24.112 32.0135 24.532C31.2455 24.952 30.3935 25.162 29.4575 25.162ZM29.4575 23.722C30.0455 23.722 30.5975 23.584 31.1135 23.308C31.6295 23.032 32.0435 22.618 32.3555 22.066C32.6795 21.514 32.8415 20.842 32.8415 20.05C32.8415 19.258 32.6855 18.586 32.3735 18.034C32.0615 17.482 31.6535 17.074 31.1495 16.81C30.6455 16.534 30.0995 16.396 29.5115 16.396C28.9115 16.396 28.3595 16.534 27.8555 16.81C27.3635 17.074 26.9675 17.482 26.6675 18.034C26.3675 18.586 26.2175 19.258 26.2175 20.05C26.2175 20.854 26.3615 21.532 26.6495 22.084C26.9495 22.636 27.3455 23.05 27.8375 23.326C28.3295 23.59 28.8695 23.722 29.4575 23.722ZM38.3072 16.738C38.5952 16.174 39.0032 15.736 39.5312 15.424C40.0712 15.112 40.7252 14.956 41.4932 14.956V16.648H41.0612C39.2252 16.648 38.3072 17.644 38.3072 19.636V25H36.6692V15.136H38.3072V16.738ZM52.384 19.69C52.384 20.002 52.366 20.332 52.33 20.68H44.446C44.506 21.652 44.836 22.414 45.436 22.966C46.048 23.506 46.786 23.776 47.65 23.776C48.358 23.776 48.946 23.614 49.414 23.29C49.894 22.954 50.23 22.51 50.422 21.958H52.186C51.922 22.906 51.394 23.68 50.602 24.28C49.81 24.868 48.826 25.162 47.65 25.162C46.714 25.162 45.874 24.952 45.13 24.532C44.398 24.112 43.822 23.518 43.402 22.75C42.982 21.97 42.772 21.07 42.772 20.05C42.772 19.03 42.976 18.136 43.384 17.368C43.792 16.6 44.362 16.012 45.094 15.604C45.838 15.184 46.69 14.974 47.65 14.974C48.586 14.974 49.414 15.178 50.134 15.586C50.854 15.994 51.406 16.558 51.79 17.278C52.186 17.986 52.384 18.79 52.384 19.69ZM50.692 19.348C50.692 18.724 50.554 18.19 50.278 17.746C50.002 17.29 49.624 16.948 49.144 16.72C48.676 16.48 48.154 16.36 47.578 16.36C46.75 16.36 46.042 16.624 45.454 17.152C44.878 17.68 44.548 18.412 44.464 19.348H50.692ZM66.4082 14.956C67.1762 14.956 67.8602 15.118 68.4602 15.442C69.0602 15.754 69.5342 16.228 69.8822 16.864C70.2302 17.5 70.4042 18.274 70.4042 19.186V25H68.7842V19.42C68.7842 18.436 68.5382 17.686 68.0462 17.17C67.5662 16.642 66.9122 16.378 66.0842 16.378C65.2322 16.378 64.5542 16.654 64.0502 17.206C63.5462 17.746 63.2942 18.532 63.2942 19.564V25H61.6742V19.42C61.6742 18.436 61.4282 17.686 60.9362 17.17C60.4562 16.642 59.8022 16.378 58.9742 16.378C58.1222 16.378 57.4442 16.654 56.9402 17.206C56.4362 17.746 56.1842 18.532 56.1842 19.564V25H54.5462V15.136H56.1842V16.558C56.5082 16.042 56.9402 15.646 57.4802 15.37C58.0322 15.094 58.6382 14.956 59.2982 14.956C60.1262 14.956 60.8582 15.142 61.4942 15.514C62.1302 15.886 62.6042 16.432 62.9162 17.152C63.1922 16.456 63.6482 15.916 64.2842 15.532C64.9202 15.148 65.6282 14.956 66.4082 14.956ZM79.5279 12.454V25H77.8899V12.454H79.5279ZM83.9576 16.954C84.2816 16.39 84.7616 15.922 85.3976 15.55C86.0456 15.166 86.7956 14.974 87.6476 14.974C88.5236 14.974 89.3156 15.184 90.0236 15.604C90.7436 16.024 91.3076 16.618 91.7156 17.386C92.1236 18.142 92.3276 19.024 92.3276 20.032C92.3276 21.028 92.1236 21.916 91.7156 22.696C91.3076 23.476 90.7436 24.082 90.0236 24.514C89.3156 24.946 88.5236 25.162 87.6476 25.162C86.8076 25.162 86.0636 24.976 85.4156 24.604C84.7796 24.22 84.2936 23.746 83.9576 23.182V29.68H82.3196V15.136H83.9576V16.954ZM90.6536 20.032C90.6536 19.288 90.5036 18.64 90.2036 18.088C89.9036 17.536 89.4956 17.116 88.9796 16.828C88.4756 16.54 87.9176 16.396 87.3056 16.396C86.7056 16.396 86.1476 16.546 85.6316 16.846C85.1276 17.134 84.7196 17.56 84.4076 18.124C84.1076 18.676 83.9576 19.318 83.9576 20.05C83.9576 20.794 84.1076 21.448 84.4076 22.012C84.7196 22.564 85.1276 22.99 85.6316 23.29C86.1476 23.578 86.7056 23.722 87.3056 23.722C87.9176 23.722 88.4756 23.578 88.9796 23.29C89.4956 22.99 89.9036 22.564 90.2036 22.012C90.5036 21.448 90.6536 20.788 90.6536 20.032ZM97.9757 25.162C97.2197 25.162 96.5417 25.036 95.9417 24.784C95.3417 24.52 94.8677 24.16 94.5197 23.704C94.1717 23.236 93.9797 22.702 93.9437 22.102H95.6357C95.6837 22.594 95.9117 22.996 96.3197 23.308C96.7397 23.62 97.2857 23.776 97.9577 23.776C98.5817 23.776 99.0737 23.638 99.4337 23.362C99.7937 23.086 99.9737 22.738 99.9737 22.318C99.9737 21.886 99.7817 21.568 99.3977 21.364C99.0137 21.148 98.4197 20.938 97.6157 20.734C96.8837 20.542 96.2837 20.35 95.8157 20.158C95.3597 19.954 94.9637 19.66 94.6277 19.276C94.3037 18.88 94.1417 18.364 94.1417 17.728C94.1417 17.224 94.2917 16.762 94.5917 16.342C94.8917 15.922 95.3177 15.592 95.8697 15.352C96.4217 15.1 97.0517 14.974 97.7597 14.974C98.8517 14.974 99.7337 15.25 100.406 15.802C101.078 16.354 101.438 17.11 101.486 18.07H99.8477C99.8117 17.554 99.6017 17.14 99.2177 16.828C98.8457 16.516 98.3417 16.36 97.7057 16.36C97.1177 16.36 96.6497 16.486 96.3017 16.738C95.9537 16.99 95.7797 17.32 95.7797 17.728C95.7797 18.052 95.8817 18.322 96.0857 18.538C96.3017 18.742 96.5657 18.91 96.8777 19.042C97.2017 19.162 97.6457 19.3 98.2097 19.456C98.9177 19.648 99.4937 19.84 99.9377 20.032C100.382 20.212 100.76 20.488 101.072 20.86C101.396 21.232 101.564 21.718 101.576 22.318C101.576 22.858 101.426 23.344 101.126 23.776C100.826 24.208 100.4 24.55 99.8477 24.802C99.3077 25.042 98.6837 25.162 97.9757 25.162ZM112.636 15.136V25H110.998V23.542C110.686 24.046 110.248 24.442 109.684 24.73C109.132 25.006 108.52 25.144 107.848 25.144C107.08 25.144 106.39 24.988 105.778 24.676C105.166 24.352 104.68 23.872 104.32 23.236C103.972 22.6 103.798 21.826 103.798 20.914V15.136H105.418V20.698C105.418 21.67 105.664 22.42 106.156 22.948C106.648 23.464 107.32 23.722 108.172 23.722C109.048 23.722 109.738 23.452 110.242 22.912C110.746 22.372 110.998 21.586 110.998 20.554V15.136H112.636ZM127.264 14.956C128.032 14.956 128.716 15.118 129.316 15.442C129.916 15.754 130.39 16.228 130.738 16.864C131.086 17.5 131.26 18.274 131.26 19.186V25H129.64V19.42C129.64 18.436 129.394 17.686 128.902 17.17C128.422 16.642 127.768 16.378 126.94 16.378C126.088 16.378 125.41 16.654 124.906 17.206C124.402 17.746 124.15 18.532 124.15 19.564V25H122.53V19.42C122.53 18.436 122.284 17.686 121.792 17.17C121.312 16.642 120.658 16.378 119.83 16.378C118.978 16.378 118.3 16.654 117.796 17.206C117.292 17.746 117.04 18.532 117.04 19.564V25H115.402V15.136H117.04V16.558C117.364 16.042 117.796 15.646 118.336 15.37C118.888 15.094 119.494 14.956 120.154 14.956C120.982 14.956 121.714 15.142 122.35 15.514C122.986 15.886 123.46 16.432 123.772 17.152C124.048 16.456 124.504 15.916 125.14 15.532C125.776 15.148 126.484 14.956 127.264 14.956ZM139.591 13.534C139.279 13.534 139.015 13.426 138.799 13.21C138.583 12.994 138.475 12.73 138.475 12.418C138.475 12.106 138.583 11.842 138.799 11.626C139.015 11.41 139.279 11.302 139.591 11.302C139.891 11.302 140.143 11.41 140.347 11.626C140.563 11.842 140.671 12.106 140.671 12.418C140.671 12.73 140.563 12.994 140.347 13.21C140.143 13.426 139.891 13.534 139.591 13.534ZM140.383 15.136V25H138.745V15.136H140.383ZM146.667 25.162C145.911 25.162 145.233 25.036 144.633 24.784C144.033 24.52 143.559 24.16 143.211 23.704C142.863 23.236 142.671 22.702 142.635 22.102H144.327C144.375 22.594 144.603 22.996 145.011 23.308C145.431 23.62 145.977 23.776 146.649 23.776C147.273 23.776 147.765 23.638 148.125 23.362C148.485 23.086 148.665 22.738 148.665 22.318C148.665 21.886 148.473 21.568 148.089 21.364C147.705 21.148 147.111 20.938 146.307 20.734C145.575 20.542 144.975 20.35 144.507 20.158C144.051 19.954 143.655 19.66 143.319 19.276C142.995 18.88 142.833 18.364 142.833 17.728C142.833 17.224 142.983 16.762 143.283 16.342C143.583 15.922 144.009 15.592 144.561 15.352C145.113 15.1 145.743 14.974 146.451 14.974C147.543 14.974 148.425 15.25 149.097 15.802C149.769 16.354 150.129 17.11 150.177 18.07H148.539C148.503 17.554 148.293 17.14 147.909 16.828C147.537 16.516 147.033 16.36 146.397 16.36C145.809 16.36 145.341 16.486 144.993 16.738C144.645 16.99 144.471 17.32 144.471 17.728C144.471 18.052 144.573 18.322 144.777 18.538C144.993 18.742 145.257 18.91 145.569 19.042C145.893 19.162 146.337 19.3 146.901 19.456C147.609 19.648 148.185 19.84 148.629 20.032C149.073 20.212 149.451 20.488 149.763 20.86C150.087 21.232 150.255 21.718 150.267 22.318C150.267 22.858 150.117 23.344 149.817 23.776C149.517 24.208 149.091 24.55 148.539 24.802C147.999 25.042 147.375 25.162 146.667 25.162ZM160.87 25.162C160.114 25.162 159.436 25.036 158.836 24.784C158.236 24.52 157.762 24.16 157.414 23.704C157.066 23.236 156.874 22.702 156.838 22.102H158.53C158.578 22.594 158.806 22.996 159.214 23.308C159.634 23.62 160.18 23.776 160.852 23.776C161.476 23.776 161.968 23.638 162.328 23.362C162.688 23.086 162.868 22.738 162.868 22.318C162.868 21.886 162.676 21.568 162.292 21.364C161.908 21.148 161.314 20.938 160.51 20.734C159.778 20.542 159.178 20.35 158.71 20.158C158.254 19.954 157.858 19.66 157.522 19.276C157.198 18.88 157.036 18.364 157.036 17.728C157.036 17.224 157.186 16.762 157.486 16.342C157.786 15.922 158.212 15.592 158.764 15.352C159.316 15.1 159.946 14.974 160.654 14.974C161.746 14.974 162.628 15.25 163.3 15.802C163.972 16.354 164.332 17.11 164.38 18.07H162.742C162.706 17.554 162.496 17.14 162.112 16.828C161.74 16.516 161.236 16.36 160.6 16.36C160.012 16.36 159.544 16.486 159.196 16.738C158.848 16.99 158.674 17.32 158.674 17.728C158.674 18.052 158.776 18.322 158.98 18.538C159.196 18.742 159.46 18.91 159.772 19.042C160.096 19.162 160.54 19.3 161.104 19.456C161.812 19.648 162.388 19.84 162.832 20.032C163.276 20.212 163.654 20.488 163.966 20.86C164.29 21.232 164.458 21.718 164.47 22.318C164.47 22.858 164.32 23.344 164.02 23.776C163.72 24.208 163.294 24.55 162.742 24.802C162.202 25.042 161.578 25.162 160.87 25.162ZM167.628 13.534C167.316 13.534 167.052 13.426 166.836 13.21C166.62 12.994 166.512 12.73 166.512 12.418C166.512 12.106 166.62 11.842 166.836 11.626C167.052 11.41 167.316 11.302 167.628 11.302C167.928 11.302 168.18 11.41 168.384 11.626C168.6 11.842 168.708 12.106 168.708 12.418C168.708 12.73 168.6 12.994 168.384 13.21C168.18 13.426 167.928 13.534 167.628 13.534ZM168.42 15.136V25H166.782V15.136H168.42ZM183.074 14.956C183.842 14.956 184.526 15.118 185.126 15.442C185.726 15.754 186.2 16.228 186.548 16.864C186.896 17.5 187.07 18.274 187.07 19.186V25H185.45V19.42C185.45 18.436 185.204 17.686 184.712 17.17C184.232 16.642 183.578 16.378 182.75 16.378C181.898 16.378 181.22 16.654 180.716 17.206C180.212 17.746 179.96 18.532 179.96 19.564V25H178.34V19.42C178.34 18.436 178.094 17.686 177.602 17.17C177.122 16.642 176.468 16.378 175.64 16.378C174.788 16.378 174.11 16.654 173.606 17.206C173.102 17.746 172.85 18.532 172.85 19.564V25H171.212V15.136H172.85V16.558C173.174 16.042 173.606 15.646 174.146 15.37C174.698 15.094 175.304 14.956 175.964 14.956C176.792 14.956 177.524 15.142 178.16 15.514C178.796 15.886 179.27 16.432 179.582 17.152C179.858 16.456 180.314 15.916 180.95 15.532C181.586 15.148 182.294 14.956 183.074 14.956ZM191.395 16.954C191.719 16.39 192.199 15.922 192.835 15.55C193.483 15.166 194.233 14.974 195.085 14.974C195.961 14.974 196.753 15.184 197.461 15.604C198.181 16.024 198.745 16.618 199.153 17.386C199.561 18.142 199.765 19.024 199.765 20.032C199.765 21.028 199.561 21.916 199.153 22.696C198.745 23.476 198.181 24.082 197.461 24.514C196.753 24.946 195.961 25.162 195.085 25.162C194.245 25.162 193.501 24.976 192.853 24.604C192.217 24.22 191.731 23.746 191.395 23.182V29.68H189.757V15.136H191.395V16.954ZM198.091 20.032C198.091 19.288 197.941 18.64 197.641 18.088C197.341 17.536 196.933 17.116 196.417 16.828C195.913 16.54 195.355 16.396 194.743 16.396C194.143 16.396 193.585 16.546 193.069 16.846C192.565 17.134 192.157 17.56 191.845 18.124C191.545 18.676 191.395 19.318 191.395 20.05C191.395 20.794 191.545 21.448 191.845 22.012C192.157 22.564 192.565 22.99 193.069 23.29C193.585 23.578 194.143 23.722 194.743 23.722C195.355 23.722 195.913 23.578 196.417 23.29C196.933 22.99 197.341 22.564 197.641 22.012C197.941 21.448 198.091 20.788 198.091 20.032ZM203.559 11.68V25H201.921V11.68H203.559ZM214.847 15.136L208.907 29.644H207.215L209.159 24.892L205.181 15.136H206.999L210.095 23.128L213.155 15.136H214.847ZM220.68 20.032C220.68 19.024 220.884 18.142 221.292 17.386C221.7 16.618 222.258 16.024 222.966 15.604C223.686 15.184 224.49 14.974 225.378 14.974C226.146 14.974 226.86 15.154 227.52 15.514C228.18 15.862 228.684 16.324 229.032 16.9V11.68H230.688V25H229.032V23.146C228.708 23.734 228.228 24.22 227.592 24.604C226.956 24.976 226.212 25.162 225.36 25.162C224.484 25.162 223.686 24.946 222.966 24.514C222.258 24.082 221.7 23.476 221.292 22.696C220.884 21.916 220.68 21.028 220.68 20.032ZM229.032 20.05C229.032 19.306 228.882 18.658 228.582 18.106C228.282 17.554 227.874 17.134 227.358 16.846C226.854 16.546 226.296 16.396 225.684 16.396C225.072 16.396 224.514 16.54 224.01 16.828C223.506 17.116 223.104 17.536 222.804 18.088C222.504 18.64 222.354 19.288 222.354 20.032C222.354 20.788 222.504 21.448 222.804 22.012C223.104 22.564 223.506 22.99 224.01 23.29C224.514 23.578 225.072 23.722 225.684 23.722C226.296 23.722 226.854 23.578 227.358 23.29C227.874 22.99 228.282 22.564 228.582 22.012C228.882 21.448 229.032 20.794 229.032 20.05ZM242.204 15.136V25H240.566V23.542C240.254 24.046 239.816 24.442 239.252 24.73C238.7 25.006 238.088 25.144 237.416 25.144C236.648 25.144 235.958 24.988 235.346 24.676C234.734 24.352 234.248 23.872 233.888 23.236C233.54 22.6 233.366 21.826 233.366 20.914V15.136H234.986V20.698C234.986 21.67 235.232 22.42 235.724 22.948C236.216 23.464 236.888 23.722 237.74 23.722C238.616 23.722 239.306 23.452 239.81 22.912C240.314 22.372 240.566 21.586 240.566 20.554V15.136H242.204ZM256.832 14.956C257.6 14.956 258.284 15.118 258.884 15.442C259.484 15.754 259.958 16.228 260.306 16.864C260.654 17.5 260.828 18.274 260.828 19.186V25H259.208V19.42C259.208 18.436 258.962 17.686 258.47 17.17C257.99 16.642 257.336 16.378 256.508 16.378C255.656 16.378 254.978 16.654 254.474 17.206C253.97 17.746 253.718 18.532 253.718 19.564V25H252.098V19.42C252.098 18.436 251.852 17.686 251.36 17.17C250.88 16.642 250.226 16.378 249.398 16.378C248.546 16.378 247.868 16.654 247.364 17.206C246.86 17.746 246.608 18.532 246.608 19.564V25H244.97V15.136H246.608V16.558C246.932 16.042 247.364 15.646 247.904 15.37C248.456 15.094 249.062 14.956 249.722 14.956C250.55 14.956 251.282 15.142 251.918 15.514C252.554 15.886 253.028 16.432 253.34 17.152C253.616 16.456 254.072 15.916 254.708 15.532C255.344 15.148 256.052 14.956 256.832 14.956ZM275.377 14.956C276.145 14.956 276.829 15.118 277.429 15.442C278.029 15.754 278.503 16.228 278.851 16.864C279.199 17.5 279.373 18.274 279.373 19.186V25H277.753V19.42C277.753 18.436 277.507 17.686 277.015 17.17C276.535 16.642 275.881 16.378 275.053 16.378C274.201 16.378 273.523 16.654 273.019 17.206C272.515 17.746 272.263 18.532 272.263 19.564V25H270.643V19.42C270.643 18.436 270.397 17.686 269.905 17.17C269.425 16.642 268.771 16.378 267.943 16.378C267.091 16.378 266.413 16.654 265.909 17.206C265.405 17.746 265.153 18.532 265.153 19.564V25H263.515V15.136H265.153V16.558C265.477 16.042 265.909 15.646 266.449 15.37C267.001 15.094 267.607 14.956 268.267 14.956C269.095 14.956 269.827 15.142 270.463 15.514C271.099 15.886 271.573 16.432 271.885 17.152C272.161 16.456 272.617 15.916 273.253 15.532C273.889 15.148 274.597 14.956 275.377 14.956ZM290.556 15.136L284.616 29.644H282.924L284.868 24.892L280.89 15.136H282.708L285.804 23.128L288.864 15.136H290.556ZM298.999 16.486V22.3C298.999 22.78 299.101 23.122 299.305 23.326C299.509 23.518 299.863 23.614 300.367 23.614H301.573V25H300.097C299.185 25 298.501 24.79 298.045 24.37C297.589 23.95 297.361 23.26 297.361 22.3V16.486H296.083V15.136H297.361V12.652H298.999V15.136H301.573V16.486H298.999ZM312.558 19.69C312.558 20.002 312.54 20.332 312.504 20.68H304.62C304.68 21.652 305.01 22.414 305.61 22.966C306.222 23.506 306.96 23.776 307.824 23.776C308.532 23.776 309.12 23.614 309.588 23.29C310.068 22.954 310.404 22.51 310.596 21.958H312.36C312.096 22.906 311.568 23.68 310.776 24.28C309.984 24.868 309 25.162 307.824 25.162C306.888 25.162 306.048 24.952 305.304 24.532C304.572 24.112 303.996 23.518 303.576 22.75C303.156 21.97 302.946 21.07 302.946 20.05C302.946 19.03 303.15 18.136 303.558 17.368C303.966 16.6 304.536 16.012 305.268 15.604C306.012 15.184 306.864 14.974 307.824 14.974C308.76 14.974 309.588 15.178 310.308 15.586C311.028 15.994 311.58 16.558 311.964 17.278C312.36 17.986 312.558 18.79 312.558 19.69ZM310.866 19.348C310.866 18.724 310.728 18.19 310.452 17.746C310.176 17.29 309.798 16.948 309.318 16.72C308.85 16.48 308.328 16.36 307.752 16.36C306.924 16.36 306.216 16.624 305.628 17.152C305.052 17.68 304.722 18.412 304.638 19.348H310.866ZM319.868 25L317.528 21.328L315.278 25H313.568L316.754 20.104L313.568 15.136H315.422L317.762 18.79L319.994 15.136H321.704L318.536 20.014L321.722 25H319.868ZM325.331 16.486V22.3C325.331 22.78 325.433 23.122 325.637 23.326C325.841 23.518 326.195 23.614 326.699 23.614H327.905V25H326.429C325.517 25 324.833 24.79 324.377 24.37C323.921 23.95 323.693 23.26 323.693 22.3V16.486H322.415V15.136H323.693V12.652H325.331V15.136H327.905V16.486H325.331ZM21.688 49.162C20.764 49.162 19.924 48.952 19.168 48.532C18.424 48.112 17.836 47.518 17.404 46.75C16.984 45.97 16.774 45.07 16.774 44.05C16.774 43.042 16.99 42.154 17.422 41.386C17.866 40.606 18.466 40.012 19.222 39.604C19.978 39.184 20.824 38.974 21.76 38.974C22.696 38.974 23.542 39.184 24.298 39.604C25.054 40.012 25.648 40.6 26.08 41.368C26.524 42.136 26.746 43.03 26.746 44.05C26.746 45.07 26.518 45.97 26.062 46.75C25.618 47.518 25.012 48.112 24.244 48.532C23.476 48.952 22.624 49.162 21.688 49.162ZM21.688 47.722C22.276 47.722 22.828 47.584 23.344 47.308C23.86 47.032 24.274 46.618 24.586 46.066C24.91 45.514 25.072 44.842 25.072 44.05C25.072 43.258 24.916 42.586 24.604 42.034C24.292 41.482 23.884 41.074 23.38 40.81C22.876 40.534 22.33 40.396 21.742 40.396C21.142 40.396 20.59 40.534 20.086 40.81C19.594 41.074 19.198 41.482 18.898 42.034C18.598 42.586 18.448 43.258 18.448 44.05C18.448 44.854 18.592 45.532 18.88 46.084C19.18 46.636 19.576 47.05 20.068 47.326C20.56 47.59 21.1 47.722 21.688 47.722ZM32.9137 40.486H30.8437V49H29.2057V40.486H27.9277V39.136H29.2057V38.434C29.2057 37.33 29.4877 36.526 30.0517 36.022C30.6277 35.506 31.5457 35.248 32.8057 35.248V36.616C32.0857 36.616 31.5757 36.76 31.2757 37.048C30.9877 37.324 30.8437 37.786 30.8437 38.434V39.136H32.9137V40.486ZM41.6203 40.486V46.3C41.6203 46.78 41.7223 47.122 41.9263 47.326C42.1303 47.518 42.4843 47.614 42.9883 47.614H44.1943V49H42.7183C41.8063 49 41.1223 48.79 40.6663 48.37C40.2103 47.95 39.9823 47.26 39.9823 46.3V40.486H38.7043V39.136H39.9823V36.652H41.6203V39.136H44.1943V40.486H41.6203ZM51.075 38.956C51.819 38.956 52.491 39.118 53.091 39.442C53.691 39.754 54.159 40.228 54.495 40.864C54.843 41.5 55.017 42.274 55.017 43.186V49H53.397V43.42C53.397 42.436 53.151 41.686 52.659 41.17C52.167 40.642 51.495 40.378 50.643 40.378C49.779 40.378 49.089 40.648 48.573 41.188C48.069 41.728 47.817 42.514 47.817 43.546V49H46.179V35.68H47.817V40.54C48.141 40.036 48.585 39.646 49.149 39.37C49.725 39.094 50.367 38.956 51.075 38.956ZM66.6926 43.69C66.6926 44.002 66.6746 44.332 66.6386 44.68H58.7546C58.8146 45.652 59.1446 46.414 59.7446 46.966C60.3566 47.506 61.0946 47.776 61.9586 47.776C62.6666 47.776 63.2546 47.614 63.7226 47.29C64.2026 46.954 64.5386 46.51 64.7306 45.958H66.4946C66.2306 46.906 65.7026 47.68 64.9106 48.28C64.1186 48.868 63.1346 49.162 61.9586 49.162C61.0226 49.162 60.1826 48.952 59.4386 48.532C58.7066 48.112 58.1306 47.518 57.7106 46.75C57.2906 45.97 57.0806 45.07 57.0806 44.05C57.0806 43.03 57.2846 42.136 57.6926 41.368C58.1006 40.6 58.6706 40.012 59.4026 39.604C60.1466 39.184 60.9986 38.974 61.9586 38.974C62.8946 38.974 63.7226 39.178 64.4426 39.586C65.1626 39.994 65.7146 40.558 66.0986 41.278C66.4946 41.986 66.6926 42.79 66.6926 43.69ZM65.0006 43.348C65.0006 42.724 64.8626 42.19 64.5866 41.746C64.3106 41.29 63.9326 40.948 63.4526 40.72C62.9846 40.48 62.4626 40.36 61.8866 40.36C61.0586 40.36 60.3506 40.624 59.7626 41.152C59.1866 41.68 58.8566 42.412 58.7726 43.348H65.0006ZM75.2916 40.954C75.6156 40.39 76.0956 39.922 76.7316 39.55C77.3796 39.166 78.1296 38.974 78.9816 38.974C79.8576 38.974 80.6496 39.184 81.3576 39.604C82.0776 40.024 82.6416 40.618 83.0496 41.386C83.4576 42.142 83.6616 43.024 83.6616 44.032C83.6616 45.028 83.4576 45.916 83.0496 46.696C82.6416 47.476 82.0776 48.082 81.3576 48.514C80.6496 48.946 79.8576 49.162 78.9816 49.162C78.1416 49.162 77.3976 48.976 76.7496 48.604C76.1136 48.22 75.6276 47.746 75.2916 47.182V53.68H73.6536V39.136H75.2916V40.954ZM81.9876 44.032C81.9876 43.288 81.8376 42.64 81.5376 42.088C81.2376 41.536 80.8296 41.116 80.3136 40.828C79.8096 40.54 79.2516 40.396 78.6396 40.396C78.0396 40.396 77.4816 40.546 76.9656 40.846C76.4616 41.134 76.0536 41.56 75.7416 42.124C75.4416 42.676 75.2916 43.318 75.2916 44.05C75.2916 44.794 75.4416 45.448 75.7416 46.012C76.0536 46.564 76.4616 46.99 76.9656 47.29C77.4816 47.578 78.0396 47.722 78.6396 47.722C79.2516 47.722 79.8096 47.578 80.3136 47.29C80.8296 46.99 81.2376 46.564 81.5376 46.012C81.8376 45.448 81.9876 44.788 81.9876 44.032ZM87.4556 40.738C87.7436 40.174 88.1516 39.736 88.6796 39.424C89.2196 39.112 89.8736 38.956 90.6416 38.956V40.648H90.2096C88.3736 40.648 87.4556 41.644 87.4556 43.636V49H85.8176V39.136H87.4556V40.738ZM93.3785 37.534C93.0665 37.534 92.8025 37.426 92.5865 37.21C92.3705 36.994 92.2625 36.73 92.2625 36.418C92.2625 36.106 92.3705 35.842 92.5865 35.626C92.8025 35.41 93.0665 35.302 93.3785 35.302C93.6785 35.302 93.9305 35.41 94.1345 35.626C94.3505 35.842 94.4585 36.106 94.4585 36.418C94.4585 36.73 94.3505 36.994 94.1345 37.21C93.9305 37.426 93.6785 37.534 93.3785 37.534ZM94.1705 39.136V49H92.5325V39.136H94.1705ZM101.768 38.956C102.968 38.956 103.94 39.322 104.684 40.054C105.428 40.774 105.8 41.818 105.8 43.186V49H104.18V43.42C104.18 42.436 103.934 41.686 103.442 41.17C102.95 40.642 102.278 40.378 101.426 40.378C100.562 40.378 99.8722 40.648 99.3562 41.188C98.8522 41.728 98.6002 42.514 98.6002 43.546V49H96.9622V39.136H98.6002V40.54C98.9242 40.036 99.3622 39.646 99.9142 39.37C100.478 39.094 101.096 38.956 101.768 38.956ZM110.474 40.486V46.3C110.474 46.78 110.576 47.122 110.78 47.326C110.984 47.518 111.338 47.614 111.842 47.614H113.048V49H111.572C110.66 49 109.976 48.79 109.52 48.37C109.064 47.95 108.836 47.26 108.836 46.3V40.486H107.558V39.136H108.836V36.652H110.474V39.136H113.048V40.486H110.474ZM115.878 37.534C115.566 37.534 115.302 37.426 115.086 37.21C114.87 36.994 114.762 36.73 114.762 36.418C114.762 36.106 114.87 35.842 115.086 35.626C115.302 35.41 115.566 35.302 115.878 35.302C116.178 35.302 116.43 35.41 116.634 35.626C116.85 35.842 116.958 36.106 116.958 36.418C116.958 36.73 116.85 36.994 116.634 37.21C116.43 37.426 116.178 37.534 115.878 37.534ZM116.67 39.136V49H115.032V39.136H116.67ZM124.268 38.956C125.468 38.956 126.44 39.322 127.184 40.054C127.928 40.774 128.3 41.818 128.3 43.186V49H126.68V43.42C126.68 42.436 126.434 41.686 125.942 41.17C125.45 40.642 124.778 40.378 123.926 40.378C123.062 40.378 122.372 40.648 121.856 41.188C121.352 41.728 121.1 42.514 121.1 43.546V49H119.462V39.136H121.1V40.54C121.424 40.036 121.862 39.646 122.414 39.37C122.978 39.094 123.596 38.956 124.268 38.956ZM135.044 38.974C135.896 38.974 136.64 39.16 137.276 39.532C137.924 39.904 138.404 40.372 138.716 40.936V39.136H140.372V49.216C140.372 50.116 140.18 50.914 139.796 51.61C139.412 52.318 138.86 52.87 138.14 53.266C137.432 53.662 136.604 53.86 135.656 53.86C134.36 53.86 133.28 53.554 132.416 52.942C131.552 52.33 131.042 51.496 130.886 50.44H132.506C132.686 51.04 133.058 51.52 133.622 51.88C134.186 52.252 134.864 52.438 135.656 52.438C136.556 52.438 137.288 52.156 137.852 51.592C138.428 51.028 138.716 50.236 138.716 49.216V47.146C138.392 47.722 137.912 48.202 137.276 48.586C136.64 48.97 135.896 49.162 135.044 49.162C134.168 49.162 133.37 48.946 132.65 48.514C131.942 48.082 131.384 47.476 130.976 46.696C130.568 45.916 130.364 45.028 130.364 44.032C130.364 43.024 130.568 42.142 130.976 41.386C131.384 40.618 131.942 40.024 132.65 39.604C133.37 39.184 134.168 38.974 135.044 38.974ZM138.716 44.05C138.716 43.306 138.566 42.658 138.266 42.106C137.966 41.554 137.558 41.134 137.042 40.846C136.538 40.546 135.98 40.396 135.368 40.396C134.756 40.396 134.198 40.54 133.694 40.828C133.19 41.116 132.788 41.536 132.488 42.088C132.188 42.64 132.038 43.288 132.038 44.032C132.038 44.788 132.188 45.448 132.488 46.012C132.788 46.564 133.19 46.99 133.694 47.29C134.198 47.578 134.756 47.722 135.368 47.722C135.98 47.722 136.538 47.578 137.042 47.29C137.558 46.99 137.966 46.564 138.266 46.012C138.566 45.448 138.716 44.794 138.716 44.05ZM147.327 44.032C147.327 43.024 147.531 42.142 147.939 41.386C148.347 40.618 148.905 40.024 149.613 39.604C150.333 39.184 151.131 38.974 152.007 38.974C152.871 38.974 153.621 39.16 154.257 39.532C154.893 39.904 155.367 40.372 155.679 40.936V39.136H157.335V49H155.679V47.164C155.355 47.74 154.869 48.22 154.221 48.604C153.585 48.976 152.841 49.162 151.989 49.162C151.113 49.162 150.321 48.946 149.613 48.514C148.905 48.082 148.347 47.476 147.939 46.696C147.531 45.916 147.327 45.028 147.327 44.032ZM155.679 44.05C155.679 43.306 155.529 42.658 155.229 42.106C154.929 41.554 154.521 41.134 154.005 40.846C153.501 40.546 152.943 40.396 152.331 40.396C151.719 40.396 151.161 40.54 150.657 40.828C150.153 41.116 149.751 41.536 149.451 42.088C149.151 42.64 149.001 43.288 149.001 44.032C149.001 44.788 149.151 45.448 149.451 46.012C149.751 46.564 150.153 46.99 150.657 47.29C151.161 47.578 151.719 47.722 152.331 47.722C152.943 47.722 153.501 47.578 154.005 47.29C154.521 46.99 154.929 46.564 155.229 46.012C155.529 45.448 155.679 44.794 155.679 44.05ZM164.909 38.956C166.109 38.956 167.081 39.322 167.825 40.054C168.569 40.774 168.941 41.818 168.941 43.186V49H167.321V43.42C167.321 42.436 167.075 41.686 166.583 41.17C166.091 40.642 165.419 40.378 164.567 40.378C163.703 40.378 163.013 40.648 162.497 41.188C161.993 41.728 161.741 42.514 161.741 43.546V49H160.103V39.136H161.741V40.54C162.065 40.036 162.503 39.646 163.055 39.37C163.619 39.094 164.237 38.956 164.909 38.956ZM171.004 44.032C171.004 43.024 171.208 42.142 171.616 41.386C172.024 40.618 172.582 40.024 173.29 39.604C174.01 39.184 174.814 38.974 175.702 38.974C176.47 38.974 177.184 39.154 177.844 39.514C178.504 39.862 179.008 40.324 179.356 40.9V35.68H181.012V49H179.356V47.146C179.032 47.734 178.552 48.22 177.916 48.604C177.28 48.976 176.536 49.162 175.684 49.162C174.808 49.162 174.01 48.946 173.29 48.514C172.582 48.082 172.024 47.476 171.616 46.696C171.208 45.916 171.004 45.028 171.004 44.032ZM179.356 44.05C179.356 43.306 179.206 42.658 178.906 42.106C178.606 41.554 178.198 41.134 177.682 40.846C177.178 40.546 176.62 40.396 176.008 40.396C175.396 40.396 174.838 40.54 174.334 40.828C173.83 41.116 173.428 41.536 173.128 42.088C172.828 42.64 172.678 43.288 172.678 44.032C172.678 44.788 172.828 45.448 173.128 46.012C173.428 46.564 173.83 46.99 174.334 47.29C174.838 47.578 175.396 47.722 176.008 47.722C176.62 47.722 177.178 47.578 177.682 47.29C178.198 46.99 178.606 46.564 178.906 46.012C179.206 45.448 179.356 44.794 179.356 44.05ZM190.577 40.486V46.3C190.577 46.78 190.679 47.122 190.883 47.326C191.087 47.518 191.441 47.614 191.945 47.614H193.151V49H191.675C190.763 49 190.079 48.79 189.623 48.37C189.167 47.95 188.939 47.26 188.939 46.3V40.486H187.661V39.136H188.939V36.652H190.577V39.136H193.151V40.486H190.577ZM203.632 39.136L197.692 53.644H196L197.944 48.892L193.966 39.136H195.784L198.88 47.128L201.94 39.136H203.632ZM206.917 40.954C207.241 40.39 207.721 39.922 208.357 39.55C209.005 39.166 209.755 38.974 210.607 38.974C211.483 38.974 212.275 39.184 212.983 39.604C213.703 40.024 214.267 40.618 214.675 41.386C215.083 42.142 215.287 43.024 215.287 44.032C215.287 45.028 215.083 45.916 214.675 46.696C214.267 47.476 213.703 48.082 212.983 48.514C212.275 48.946 211.483 49.162 210.607 49.162C209.767 49.162 209.023 48.976 208.375 48.604C207.739 48.22 207.253 47.746 206.917 47.182V53.68H205.279V39.136H206.917V40.954ZM213.613 44.032C213.613 43.288 213.463 42.64 213.163 42.088C212.863 41.536 212.455 41.116 211.939 40.828C211.435 40.54 210.877 40.396 210.265 40.396C209.665 40.396 209.107 40.546 208.591 40.846C208.087 41.134 207.679 41.56 207.367 42.124C207.067 42.676 206.917 43.318 206.917 44.05C206.917 44.794 207.067 45.448 207.367 46.012C207.679 46.564 208.087 46.99 208.591 47.29C209.107 47.578 209.665 47.722 210.265 47.722C210.877 47.722 211.435 47.578 211.939 47.29C212.455 46.99 212.863 46.564 213.163 46.012C213.463 45.448 213.613 44.788 213.613 44.032ZM226.443 43.69C226.443 44.002 226.425 44.332 226.389 44.68H218.505C218.565 45.652 218.895 46.414 219.495 46.966C220.107 47.506 220.845 47.776 221.709 47.776C222.417 47.776 223.005 47.614 223.473 47.29C223.953 46.954 224.289 46.51 224.481 45.958H226.245C225.981 46.906 225.453 47.68 224.661 48.28C223.869 48.868 222.885 49.162 221.709 49.162C220.773 49.162 219.933 48.952 219.189 48.532C218.457 48.112 217.881 47.518 217.461 46.75C217.041 45.97 216.831 45.07 216.831 44.05C216.831 43.03 217.035 42.136 217.443 41.368C217.851 40.6 218.421 40.012 219.153 39.604C219.897 39.184 220.749 38.974 221.709 38.974C222.645 38.974 223.473 39.178 224.193 39.586C224.913 39.994 225.465 40.558 225.849 41.278C226.245 41.986 226.443 42.79 226.443 43.69ZM224.751 43.348C224.751 42.724 224.613 42.19 224.337 41.746C224.061 41.29 223.683 40.948 223.203 40.72C222.735 40.48 222.213 40.36 221.637 40.36C220.809 40.36 220.101 40.624 219.513 41.152C218.937 41.68 218.607 42.412 218.523 43.348H224.751ZM232.097 49.162C231.341 49.162 230.663 49.036 230.063 48.784C229.463 48.52 228.989 48.16 228.641 47.704C228.293 47.236 228.101 46.702 228.065 46.102H229.757C229.805 46.594 230.033 46.996 230.441 47.308C230.861 47.62 231.407 47.776 232.079 47.776C232.703 47.776 233.195 47.638 233.555 47.362C233.915 47.086 234.095 46.738 234.095 46.318C234.095 45.886 233.903 45.568 233.519 45.364C233.135 45.148 232.541 44.938 231.737 44.734C231.005 44.542 230.405 44.35 229.937 44.158C229.481 43.954 229.085 43.66 228.749 43.276C228.425 42.88 228.263 42.364 228.263 41.728C228.263 41.224 228.413 40.762 228.713 40.342C229.013 39.922 229.439 39.592 229.991 39.352C230.543 39.1 231.173 38.974 231.881 38.974C232.973 38.974 233.855 39.25 234.527 39.802C235.199 40.354 235.559 41.11 235.607 42.07H233.969C233.933 41.554 233.723 41.14 233.339 40.828C232.967 40.516 232.463 40.36 231.827 40.36C231.239 40.36 230.771 40.486 230.423 40.738C230.075 40.99 229.901 41.32 229.901 41.728C229.901 42.052 230.003 42.322 230.207 42.538C230.423 42.742 230.687 42.91 230.999 43.042C231.323 43.162 231.767 43.3 232.331 43.456C233.039 43.648 233.615 43.84 234.059 44.032C234.503 44.212 234.881 44.488 235.193 44.86C235.517 45.232 235.685 45.718 235.697 46.318C235.697 46.858 235.547 47.344 235.247 47.776C234.947 48.208 234.521 48.55 233.969 48.802C233.429 49.042 232.805 49.162 232.097 49.162ZM247.009 43.69C247.009 44.002 246.991 44.332 246.955 44.68H239.071C239.131 45.652 239.461 46.414 240.061 46.966C240.673 47.506 241.411 47.776 242.275 47.776C242.983 47.776 243.571 47.614 244.039 47.29C244.519 46.954 244.855 46.51 245.047 45.958H246.811C246.547 46.906 246.019 47.68 245.227 48.28C244.435 48.868 243.451 49.162 242.275 49.162C241.339 49.162 240.499 48.952 239.755 48.532C239.023 48.112 238.447 47.518 238.027 46.75C237.607 45.97 237.397 45.07 237.397 44.05C237.397 43.03 237.601 42.136 238.009 41.368C238.417 40.6 238.987 40.012 239.719 39.604C240.463 39.184 241.315 38.974 242.275 38.974C243.211 38.974 244.039 39.178 244.759 39.586C245.479 39.994 246.031 40.558 246.415 41.278C246.811 41.986 247.009 42.79 247.009 43.69ZM245.317 43.348C245.317 42.724 245.179 42.19 244.903 41.746C244.627 41.29 244.249 40.948 243.769 40.72C243.301 40.48 242.779 40.36 242.203 40.36C241.375 40.36 240.667 40.624 240.079 41.152C239.503 41.68 239.173 42.412 239.089 43.348H245.317ZM251.169 40.486V46.3C251.169 46.78 251.271 47.122 251.475 47.326C251.679 47.518 252.033 47.614 252.537 47.614H253.743V49H252.267C251.355 49 250.671 48.79 250.215 48.37C249.759 47.95 249.531 47.26 249.531 46.3V40.486H248.253V39.136H249.531V36.652H251.169V39.136H253.743V40.486H251.169ZM257.726 40.486V46.3C257.726 46.78 257.828 47.122 258.032 47.326C258.236 47.518 258.59 47.614 259.094 47.614H260.3V49H258.824C257.912 49 257.228 48.79 256.772 48.37C256.316 47.95 256.088 47.26 256.088 46.3V40.486H254.81V39.136H256.088V36.652H257.726V39.136H260.3V40.486H257.726ZM263.13 37.534C262.818 37.534 262.554 37.426 262.338 37.21C262.122 36.994 262.014 36.73 262.014 36.418C262.014 36.106 262.122 35.842 262.338 35.626C262.554 35.41 262.818 35.302 263.13 35.302C263.43 35.302 263.682 35.41 263.886 35.626C264.102 35.842 264.21 36.106 264.21 36.418C264.21 36.73 264.102 36.994 263.886 37.21C263.682 37.426 263.43 37.534 263.13 37.534ZM263.922 39.136V49H262.284V39.136H263.922ZM271.52 38.956C272.72 38.956 273.692 39.322 274.436 40.054C275.18 40.774 275.552 41.818 275.552 43.186V49H273.932V43.42C273.932 42.436 273.686 41.686 273.194 41.17C272.702 40.642 272.03 40.378 271.178 40.378C270.314 40.378 269.624 40.648 269.108 41.188C268.604 41.728 268.352 42.514 268.352 43.546V49H266.714V39.136H268.352V40.54C268.676 40.036 269.114 39.646 269.666 39.37C270.23 39.094 270.848 38.956 271.52 38.956ZM282.296 38.974C283.148 38.974 283.892 39.16 284.528 39.532C285.176 39.904 285.656 40.372 285.968 40.936V39.136H287.624V49.216C287.624 50.116 287.432 50.914 287.048 51.61C286.664 52.318 286.112 52.87 285.392 53.266C284.684 53.662 283.856 53.86 282.908 53.86C281.612 53.86 280.532 53.554 279.668 52.942C278.804 52.33 278.294 51.496 278.138 50.44H279.758C279.938 51.04 280.31 51.52 280.874 51.88C281.438 52.252 282.116 52.438 282.908 52.438C283.808 52.438 284.54 52.156 285.104 51.592C285.68 51.028 285.968 50.236 285.968 49.216V47.146C285.644 47.722 285.164 48.202 284.528 48.586C283.892 48.97 283.148 49.162 282.296 49.162C281.42 49.162 280.622 48.946 279.902 48.514C279.194 48.082 278.636 47.476 278.228 46.696C277.82 45.916 277.616 45.028 277.616 44.032C277.616 43.024 277.82 42.142 278.228 41.386C278.636 40.618 279.194 40.024 279.902 39.604C280.622 39.184 281.42 38.974 282.296 38.974ZM285.968 44.05C285.968 43.306 285.818 42.658 285.518 42.106C285.218 41.554 284.81 41.134 284.294 40.846C283.79 40.546 283.232 40.396 282.62 40.396C282.008 40.396 281.45 40.54 280.946 40.828C280.442 41.116 280.04 41.536 279.74 42.088C279.44 42.64 279.29 43.288 279.29 44.032C279.29 44.788 279.44 45.448 279.74 46.012C280.04 46.564 280.442 46.99 280.946 47.29C281.45 47.578 282.008 47.722 282.62 47.722C283.232 47.722 283.79 47.578 284.294 47.29C284.81 46.99 285.218 46.564 285.518 46.012C285.818 45.448 285.968 44.794 285.968 44.05ZM18.232 61.534C17.92 61.534 17.656 61.426 17.44 61.21C17.224 60.994 17.116 60.73 17.116 60.418C17.116 60.106 17.224 59.842 17.44 59.626C17.656 59.41 17.92 59.302 18.232 59.302C18.532 59.302 18.784 59.41 18.988 59.626C19.204 59.842 19.312 60.106 19.312 60.418C19.312 60.73 19.204 60.994 18.988 61.21C18.784 61.426 18.532 61.534 18.232 61.534ZM19.024 63.136V73H17.386V63.136H19.024ZM26.6217 62.956C27.8217 62.956 28.7937 63.322 29.5377 64.054C30.2817 64.774 30.6537 65.818 30.6537 67.186V73H29.0337V67.42C29.0337 66.436 28.7877 65.686 28.2957 65.17C27.8037 64.642 27.1317 64.378 26.2797 64.378C25.4157 64.378 24.7257 64.648 24.2097 65.188C23.7057 65.728 23.4537 66.514 23.4537 67.546V73H21.8157V63.136H23.4537V64.54C23.7777 64.036 24.2157 63.646 24.7677 63.37C25.3317 63.094 25.9497 62.956 26.6217 62.956ZM32.7174 68.032C32.7174 67.024 32.9214 66.142 33.3294 65.386C33.7374 64.618 34.2954 64.024 35.0034 63.604C35.7234 63.184 36.5274 62.974 37.4154 62.974C38.1834 62.974 38.8974 63.154 39.5574 63.514C40.2174 63.862 40.7214 64.324 41.0694 64.9V59.68H42.7254V73H41.0694V71.146C40.7454 71.734 40.2654 72.22 39.6294 72.604C38.9934 72.976 38.2494 73.162 37.3974 73.162C36.5214 73.162 35.7234 72.946 35.0034 72.514C34.2954 72.082 33.7374 71.476 33.3294 70.696C32.9214 69.916 32.7174 69.028 32.7174 68.032ZM41.0694 68.05C41.0694 67.306 40.9194 66.658 40.6194 66.106C40.3194 65.554 39.9114 65.134 39.3954 64.846C38.8914 64.546 38.3334 64.396 37.7214 64.396C37.1094 64.396 36.5514 64.54 36.0474 64.828C35.5434 65.116 35.1414 65.536 34.8414 66.088C34.5414 66.64 34.3914 67.288 34.3914 68.032C34.3914 68.788 34.5414 69.448 34.8414 70.012C35.1414 70.564 35.5434 70.99 36.0474 71.29C36.5514 71.578 37.1094 71.722 37.7214 71.722C38.3334 71.722 38.8914 71.578 39.3954 71.29C39.9114 70.99 40.3194 70.564 40.6194 70.012C40.9194 69.448 41.0694 68.794 41.0694 68.05ZM54.2414 63.136V73H52.6034V71.542C52.2914 72.046 51.8534 72.442 51.2894 72.73C50.7374 73.006 50.1254 73.144 49.4534 73.144C48.6854 73.144 47.9954 72.988 47.3834 72.676C46.7714 72.352 46.2854 71.872 45.9254 71.236C45.5774 70.6 45.4034 69.826 45.4034 68.914V63.136H47.0234V68.698C47.0234 69.67 47.2694 70.42 47.7614 70.948C48.2534 71.464 48.9254 71.722 49.7774 71.722C50.6534 71.722 51.3434 71.452 51.8474 70.912C52.3514 70.372 52.6034 69.586 52.6034 68.554V63.136H54.2414ZM60.4991 73.162C59.7431 73.162 59.0651 73.036 58.4651 72.784C57.8651 72.52 57.3911 72.16 57.0431 71.704C56.6951 71.236 56.5031 70.702 56.4671 70.102H58.1591C58.2071 70.594 58.4351 70.996 58.8431 71.308C59.2631 71.62 59.8091 71.776 60.4811 71.776C61.1051 71.776 61.5971 71.638 61.9571 71.362C62.3171 71.086 62.4971 70.738 62.4971 70.318C62.4971 69.886 62.3051 69.568 61.9211 69.364C61.5371 69.148 60.9431 68.938 60.1391 68.734C59.4071 68.542 58.8071 68.35 58.3391 68.158C57.8831 67.954 57.4871 67.66 57.1511 67.276C56.8271 66.88 56.6651 66.364 56.6651 65.728C56.6651 65.224 56.8151 64.762 57.1151 64.342C57.4151 63.922 57.8411 63.592 58.3931 63.352C58.9451 63.1 59.5751 62.974 60.2831 62.974C61.3751 62.974 62.2571 63.25 62.9291 63.802C63.6011 64.354 63.9611 65.11 64.0091 66.07H62.3711C62.3351 65.554 62.1251 65.14 61.7411 64.828C61.3691 64.516 60.8651 64.36 60.2291 64.36C59.6411 64.36 59.1731 64.486 58.8251 64.738C58.4771 64.99 58.3031 65.32 58.3031 65.728C58.3031 66.052 58.4051 66.322 58.6091 66.538C58.8251 66.742 59.0891 66.91 59.4011 67.042C59.7251 67.162 60.1691 67.3 60.7331 67.456C61.4411 67.648 62.0171 67.84 62.4611 68.032C62.9051 68.212 63.2831 68.488 63.5951 68.86C63.9191 69.232 64.0871 69.718 64.0991 70.318C64.0991 70.858 63.9491 71.344 63.6491 71.776C63.3491 72.208 62.9231 72.55 62.3711 72.802C61.8311 73.042 61.2071 73.162 60.4991 73.162ZM68.4094 64.486V70.3C68.4094 70.78 68.5114 71.122 68.7154 71.326C68.9194 71.518 69.2734 71.614 69.7774 71.614H70.9834V73H69.5074C68.5954 73 67.9114 72.79 67.4554 72.37C66.9994 71.95 66.7714 71.26 66.7714 70.3V64.486H65.4934V63.136H66.7714V60.652H68.4094V63.136H70.9834V64.486H68.4094ZM74.606 64.738C74.894 64.174 75.302 63.736 75.83 63.424C76.37 63.112 77.024 62.956 77.792 62.956V64.648H77.36C75.524 64.648 74.606 65.644 74.606 67.636V73H72.968V63.136H74.606V64.738ZM88.1789 63.136L82.2389 77.644H80.5469L82.4909 72.892L78.5129 63.136H80.3309L83.4269 71.128L86.4869 63.136H88.1789ZM90.3475 73.108C90.0355 73.108 89.7715 73 89.5555 72.784C89.3395 72.568 89.2315 72.304 89.2315 71.992C89.2315 71.68 89.3395 71.416 89.5555 71.2C89.7715 70.984 90.0355 70.876 90.3475 70.876C90.6475 70.876 90.8995 70.984 91.1035 71.2C91.3195 71.416 91.4275 71.68 91.4275 71.992C91.4275 72.304 91.3195 72.568 91.1035 72.784C90.8995 73 90.6475 73.108 90.3475 73.108ZM100.042 71.668H104.434V73H98.4036V60.454H100.042V71.668ZM110.475 73.162C109.551 73.162 108.711 72.952 107.955 72.532C107.211 72.112 106.623 71.518 106.191 70.75C105.771 69.97 105.561 69.07 105.561 68.05C105.561 67.042 105.777 66.154 106.209 65.386C106.653 64.606 107.253 64.012 108.009 63.604C108.765 63.184 109.611 62.974 110.547 62.974C111.483 62.974 112.329 63.184 113.085 63.604C113.841 64.012 114.435 64.6 114.867 65.368C115.311 66.136 115.533 67.03 115.533 68.05C115.533 69.07 115.305 69.97 114.849 70.75C114.405 71.518 113.799 72.112 113.031 72.532C112.263 72.952 111.411 73.162 110.475 73.162ZM110.475 71.722C111.063 71.722 111.615 71.584 112.131 71.308C112.647 71.032 113.061 70.618 113.373 70.066C113.697 69.514 113.859 68.842 113.859 68.05C113.859 67.258 113.703 66.586 113.391 66.034C113.079 65.482 112.671 65.074 112.167 64.81C111.663 64.534 111.117 64.396 110.529 64.396C109.929 64.396 109.377 64.534 108.873 64.81C108.381 65.074 107.985 65.482 107.685 66.034C107.385 66.586 107.235 67.258 107.235 68.05C107.235 68.854 107.379 69.532 107.667 70.084C107.967 70.636 108.363 71.05 108.855 71.326C109.347 71.59 109.887 71.722 110.475 71.722ZM119.325 64.738C119.613 64.174 120.021 63.736 120.549 63.424C121.089 63.112 121.743 62.956 122.511 62.956V64.648H122.079C120.243 64.648 119.325 65.644 119.325 67.636V73H117.687V63.136H119.325V64.738ZM133.402 67.69C133.402 68.002 133.384 68.332 133.348 68.68H125.464C125.524 69.652 125.854 70.414 126.454 70.966C127.066 71.506 127.804 71.776 128.668 71.776C129.376 71.776 129.964 71.614 130.432 71.29C130.912 70.954 131.248 70.51 131.44 69.958H133.204C132.94 70.906 132.412 71.68 131.62 72.28C130.828 72.868 129.844 73.162 128.668 73.162C127.732 73.162 126.892 72.952 126.148 72.532C125.416 72.112 124.84 71.518 124.42 70.75C124 69.97 123.79 69.07 123.79 68.05C123.79 67.03 123.994 66.136 124.402 65.368C124.81 64.6 125.38 64.012 126.112 63.604C126.856 63.184 127.708 62.974 128.668 62.974C129.604 62.974 130.432 63.178 131.152 63.586C131.872 63.994 132.424 64.558 132.808 65.278C133.204 65.986 133.402 66.79 133.402 67.69ZM131.71 67.348C131.71 66.724 131.572 66.19 131.296 65.746C131.02 65.29 130.642 64.948 130.162 64.72C129.694 64.48 129.172 64.36 128.596 64.36C127.768 64.36 127.06 64.624 126.472 65.152C125.896 65.68 125.566 66.412 125.482 67.348H131.71ZM147.426 62.956C148.194 62.956 148.878 63.118 149.478 63.442C150.078 63.754 150.552 64.228 150.9 64.864C151.248 65.5 151.422 66.274 151.422 67.186V73H149.802V67.42C149.802 66.436 149.556 65.686 149.064 65.17C148.584 64.642 147.93 64.378 147.102 64.378C146.25 64.378 145.572 64.654 145.068 65.206C144.564 65.746 144.312 66.532 144.312 67.564V73H142.692V67.42C142.692 66.436 142.446 65.686 141.954 65.17C141.474 64.642 140.82 64.378 139.992 64.378C139.14 64.378 138.462 64.654 137.958 65.206C137.454 65.746 137.202 66.532 137.202 67.564V73H135.564V63.136H137.202V64.558C137.526 64.042 137.958 63.646 138.498 63.37C139.05 63.094 139.656 62.956 140.316 62.956C141.144 62.956 141.876 63.142 142.512 63.514C143.148 63.886 143.622 64.432 143.934 65.152C144.21 64.456 144.666 63.916 145.302 63.532C145.938 63.148 146.646 62.956 147.426 62.956ZM160.545 60.454V73H158.907V60.454H160.545ZM164.975 64.954C165.299 64.39 165.779 63.922 166.415 63.55C167.063 63.166 167.813 62.974 168.665 62.974C169.541 62.974 170.333 63.184 171.041 63.604C171.761 64.024 172.325 64.618 172.733 65.386C173.141 66.142 173.345 67.024 173.345 68.032C173.345 69.028 173.141 69.916 172.733 70.696C172.325 71.476 171.761 72.082 171.041 72.514C170.333 72.946 169.541 73.162 168.665 73.162C167.825 73.162 167.081 72.976 166.433 72.604C165.797 72.22 165.311 71.746 164.975 71.182V77.68H163.337V63.136H164.975V64.954ZM171.671 68.032C171.671 67.288 171.521 66.64 171.221 66.088C170.921 65.536 170.513 65.116 169.997 64.828C169.493 64.54 168.935 64.396 168.323 64.396C167.723 64.396 167.165 64.546 166.649 64.846C166.145 65.134 165.737 65.56 165.425 66.124C165.125 66.676 164.975 67.318 164.975 68.05C164.975 68.794 165.125 69.448 165.425 70.012C165.737 70.564 166.145 70.99 166.649 71.29C167.165 71.578 167.723 71.722 168.323 71.722C168.935 71.722 169.493 71.578 169.997 71.29C170.513 70.99 170.921 70.564 171.221 70.012C171.521 69.448 171.671 68.788 171.671 68.032ZM178.993 73.162C178.237 73.162 177.559 73.036 176.959 72.784C176.359 72.52 175.885 72.16 175.537 71.704C175.189 71.236 174.997 70.702 174.961 70.102H176.653C176.701 70.594 176.929 70.996 177.337 71.308C177.757 71.62 178.303 71.776 178.975 71.776C179.599 71.776 180.091 71.638 180.451 71.362C180.811 71.086 180.991 70.738 180.991 70.318C180.991 69.886 180.799 69.568 180.415 69.364C180.031 69.148 179.437 68.938 178.633 68.734C177.901 68.542 177.301 68.35 176.833 68.158C176.377 67.954 175.981 67.66 175.645 67.276C175.321 66.88 175.159 66.364 175.159 65.728C175.159 65.224 175.309 64.762 175.609 64.342C175.909 63.922 176.335 63.592 176.887 63.352C177.439 63.1 178.069 62.974 178.777 62.974C179.869 62.974 180.751 63.25 181.423 63.802C182.095 64.354 182.455 65.11 182.503 66.07H180.865C180.829 65.554 180.619 65.14 180.235 64.828C179.863 64.516 179.359 64.36 178.723 64.36C178.135 64.36 177.667 64.486 177.319 64.738C176.971 64.99 176.797 65.32 176.797 65.728C176.797 66.052 176.899 66.322 177.103 66.538C177.319 66.742 177.583 66.91 177.895 67.042C178.219 67.162 178.663 67.3 179.227 67.456C179.935 67.648 180.511 67.84 180.955 68.032C181.399 68.212 181.777 68.488 182.089 68.86C182.413 69.232 182.581 69.718 182.593 70.318C182.593 70.858 182.443 71.344 182.143 71.776C181.843 72.208 181.417 72.55 180.865 72.802C180.325 73.042 179.701 73.162 178.993 73.162ZM193.654 63.136V73H192.016V71.542C191.704 72.046 191.266 72.442 190.702 72.73C190.15 73.006 189.538 73.144 188.866 73.144C188.098 73.144 187.408 72.988 186.796 72.676C186.184 72.352 185.698 71.872 185.338 71.236C184.99 70.6 184.816 69.826 184.816 68.914V63.136H186.436V68.698C186.436 69.67 186.682 70.42 187.174 70.948C187.666 71.464 188.338 71.722 189.19 71.722C190.066 71.722 190.756 71.452 191.26 70.912C191.764 70.372 192.016 69.586 192.016 68.554V63.136H193.654ZM208.281 62.956C209.049 62.956 209.733 63.118 210.333 63.442C210.933 63.754 211.407 64.228 211.755 64.864C212.103 65.5 212.277 66.274 212.277 67.186V73H210.657V67.42C210.657 66.436 210.411 65.686 209.919 65.17C209.439 64.642 208.785 64.378 207.957 64.378C207.105 64.378 206.427 64.654 205.923 65.206C205.419 65.746 205.167 66.532 205.167 67.564V73H203.547V67.42C203.547 66.436 203.301 65.686 202.809 65.17C202.329 64.642 201.675 64.378 200.847 64.378C199.995 64.378 199.317 64.654 198.813 65.206C198.309 65.746 198.057 66.532 198.057 67.564V73H196.419V63.136H198.057V64.558C198.381 64.042 198.813 63.646 199.353 63.37C199.905 63.094 200.511 62.956 201.171 62.956C201.999 62.956 202.731 63.142 203.367 63.514C204.003 63.886 204.477 64.432 204.789 65.152C205.065 64.456 205.521 63.916 206.157 63.532C206.793 63.148 207.501 62.956 208.281 62.956ZM224.659 62.956C225.403 62.956 226.075 63.118 226.675 63.442C227.275 63.754 227.743 64.228 228.079 64.864C228.427 65.5 228.601 66.274 228.601 67.186V73H226.981V67.42C226.981 66.436 226.735 65.686 226.243 65.17C225.751 64.642 225.079 64.378 224.227 64.378C223.363 64.378 222.673 64.648 222.157 65.188C221.653 65.728 221.401 66.514 221.401 67.546V73H219.763V59.68H221.401V64.54C221.725 64.036 222.169 63.646 222.733 63.37C223.309 63.094 223.951 62.956 224.659 62.956ZM230.665 68.032C230.665 67.024 230.869 66.142 231.277 65.386C231.685 64.618 232.243 64.024 232.951 63.604C233.671 63.184 234.469 62.974 235.345 62.974C236.209 62.974 236.959 63.16 237.595 63.532C238.231 63.904 238.705 64.372 239.017 64.936V63.136H240.673V73H239.017V71.164C238.693 71.74 238.207 72.22 237.559 72.604C236.923 72.976 236.179 73.162 235.327 73.162C234.451 73.162 233.659 72.946 232.951 72.514C232.243 72.082 231.685 71.476 231.277 70.696C230.869 69.916 230.665 69.028 230.665 68.032ZM239.017 68.05C239.017 67.306 238.867 66.658 238.567 66.106C238.267 65.554 237.859 65.134 237.343 64.846C236.839 64.546 236.281 64.396 235.669 64.396C235.057 64.396 234.499 64.54 233.995 64.828C233.491 65.116 233.089 65.536 232.789 66.088C232.489 66.64 232.339 67.288 232.339 68.032C232.339 68.788 232.489 69.448 232.789 70.012C233.089 70.564 233.491 70.99 233.995 71.29C234.499 71.578 235.057 71.722 235.669 71.722C236.281 71.722 236.839 71.578 237.343 71.29C237.859 70.99 238.267 70.564 238.567 70.012C238.867 69.448 239.017 68.794 239.017 68.05ZM246.933 73.162C246.177 73.162 245.499 73.036 244.899 72.784C244.299 72.52 243.825 72.16 243.477 71.704C243.129 71.236 242.937 70.702 242.901 70.102H244.593C244.641 70.594 244.869 70.996 245.277 71.308C245.697 71.62 246.243 71.776 246.915 71.776C247.539 71.776 248.031 71.638 248.391 71.362C248.751 71.086 248.931 70.738 248.931 70.318C248.931 69.886 248.739 69.568 248.355 69.364C247.971 69.148 247.377 68.938 246.573 68.734C245.841 68.542 245.241 68.35 244.773 68.158C244.317 67.954 243.921 67.66 243.585 67.276C243.261 66.88 243.099 66.364 243.099 65.728C243.099 65.224 243.249 64.762 243.549 64.342C243.849 63.922 244.275 63.592 244.827 63.352C245.379 63.1 246.009 62.974 246.717 62.974C247.809 62.974 248.691 63.25 249.363 63.802C250.035 64.354 250.395 65.11 250.443 66.07H248.805C248.769 65.554 248.559 65.14 248.175 64.828C247.803 64.516 247.299 64.36 246.663 64.36C246.075 64.36 245.607 64.486 245.259 64.738C244.911 64.99 244.737 65.32 244.737 65.728C244.737 66.052 244.839 66.322 245.043 66.538C245.259 66.742 245.523 66.91 245.835 67.042C246.159 67.162 246.603 67.3 247.167 67.456C247.875 67.648 248.451 67.84 248.895 68.032C249.339 68.212 249.717 68.488 250.029 68.86C250.353 69.232 250.521 69.718 250.533 70.318C250.533 70.858 250.383 71.344 250.083 71.776C249.783 72.208 249.357 72.55 248.805 72.802C248.265 73.042 247.641 73.162 246.933 73.162ZM259.282 64.972C259.618 64.384 260.11 63.904 260.758 63.532C261.406 63.16 262.144 62.974 262.972 62.974C263.86 62.974 264.658 63.184 265.366 63.604C266.074 64.024 266.632 64.618 267.04 65.386C267.448 66.142 267.652 67.024 267.652 68.032C267.652 69.028 267.448 69.916 267.04 70.696C266.632 71.476 266.068 72.082 265.348 72.514C264.64 72.946 263.848 73.162 262.972 73.162C262.12 73.162 261.37 72.976 260.722 72.604C260.086 72.232 259.606 71.758 259.282 71.182V73H257.644V59.68H259.282V64.972ZM265.978 68.032C265.978 67.288 265.828 66.64 265.528 66.088C265.228 65.536 264.82 65.116 264.304 64.828C263.8 64.54 263.242 64.396 262.63 64.396C262.03 64.396 261.472 64.546 260.956 64.846C260.452 65.134 260.044 65.56 259.732 66.124C259.432 66.676 259.282 67.318 259.282 68.05C259.282 68.794 259.432 69.448 259.732 70.012C260.044 70.564 260.452 70.99 260.956 71.29C261.472 71.578 262.03 71.722 262.63 71.722C263.242 71.722 263.8 71.578 264.304 71.29C264.82 70.99 265.228 70.564 265.528 70.012C265.828 69.448 265.978 68.788 265.978 68.032ZM278.808 67.69C278.808 68.002 278.79 68.332 278.754 68.68H270.87C270.93 69.652 271.26 70.414 271.86 70.966C272.472 71.506 273.21 71.776 274.074 71.776C274.782 71.776 275.37 71.614 275.838 71.29C276.318 70.954 276.654 70.51 276.846 69.958H278.61C278.346 70.906 277.818 71.68 277.026 72.28C276.234 72.868 275.25 73.162 274.074 73.162C273.138 73.162 272.298 72.952 271.554 72.532C270.822 72.112 270.246 71.518 269.826 70.75C269.406 69.97 269.196 69.07 269.196 68.05C269.196 67.03 269.4 66.136 269.808 65.368C270.216 64.6 270.786 64.012 271.518 63.604C272.262 63.184 273.114 62.974 274.074 62.974C275.01 62.974 275.838 63.178 276.558 63.586C277.278 63.994 277.83 64.558 278.214 65.278C278.61 65.986 278.808 66.79 278.808 67.69ZM277.116 67.348C277.116 66.724 276.978 66.19 276.702 65.746C276.426 65.29 276.048 64.948 275.568 64.72C275.1 64.48 274.578 64.36 274.002 64.36C273.174 64.36 272.466 64.624 271.878 65.152C271.302 65.68 270.972 66.412 270.888 67.348H277.116ZM289.97 67.69C289.97 68.002 289.952 68.332 289.916 68.68H282.032C282.092 69.652 282.422 70.414 283.022 70.966C283.634 71.506 284.372 71.776 285.236 71.776C285.944 71.776 286.532 71.614 287 71.29C287.48 70.954 287.816 70.51 288.008 69.958H289.772C289.508 70.906 288.98 71.68 288.188 72.28C287.396 72.868 286.412 73.162 285.236 73.162C284.3 73.162 283.46 72.952 282.716 72.532C281.984 72.112 281.408 71.518 280.988 70.75C280.568 69.97 280.358 69.07 280.358 68.05C280.358 67.03 280.562 66.136 280.97 65.368C281.378 64.6 281.948 64.012 282.68 63.604C283.424 63.184 284.276 62.974 285.236 62.974C286.172 62.974 287 63.178 287.72 63.586C288.44 63.994 288.992 64.558 289.376 65.278C289.772 65.986 289.97 66.79 289.97 67.69ZM288.278 67.348C288.278 66.724 288.14 66.19 287.864 65.746C287.588 65.29 287.21 64.948 286.73 64.72C286.262 64.48 285.74 64.36 285.164 64.36C284.336 64.36 283.628 64.624 283.04 65.152C282.464 65.68 282.134 66.412 282.05 67.348H288.278ZM296.938 62.956C298.138 62.956 299.11 63.322 299.854 64.054C300.598 64.774 300.97 65.818 300.97 67.186V73H299.35V67.42C299.35 66.436 299.104 65.686 298.612 65.17C298.12 64.642 297.448 64.378 296.596 64.378C295.732 64.378 295.042 64.648 294.526 65.188C294.022 65.728 293.77 66.514 293.77 67.546V73H292.132V63.136H293.77V64.54C294.094 64.036 294.532 63.646 295.084 63.37C295.648 63.094 296.266 62.956 296.938 62.956ZM310.443 64.486V70.3C310.443 70.78 310.545 71.122 310.749 71.326C310.953 71.518 311.307 71.614 311.811 71.614H313.017V73H311.541C310.629 73 309.945 72.79 309.489 72.37C309.033 71.95 308.805 71.26 308.805 70.3V64.486H307.527V63.136H308.805V60.652H310.443V63.136H313.017V64.486H310.443ZM318.889 73.108C318.577 73.108 318.313 73 318.097 72.784C317.881 72.568 317.773 72.304 317.773 71.992C317.773 71.68 317.881 71.416 318.097 71.2C318.313 70.984 318.577 70.876 318.889 70.876C319.189 70.876 319.441 70.984 319.645 71.2C319.861 71.416 319.969 71.68 319.969 71.992C319.969 72.304 319.861 72.568 319.645 72.784C319.441 73 319.189 73.108 318.889 73.108ZM322.273 73.108C321.961 73.108 321.697 73 321.481 72.784C321.265 72.568 321.157 72.304 321.157 71.992C321.157 71.68 321.265 71.416 321.481 71.2C321.697 70.984 321.961 70.876 322.273 70.876C322.573 70.876 322.825 70.984 323.029 71.2C323.245 71.416 323.353 71.68 323.353 71.992C323.353 72.304 323.245 72.568 323.029 72.784C322.825 73 322.573 73.108 322.273 73.108ZM315.523 73.108C315.211 73.108 314.947 73 314.731 72.784C314.515 72.568 314.407 72.304 314.407 71.992C314.407 71.68 314.515 71.416 314.731 71.2C314.947 70.984 315.211 70.876 315.523 70.876C315.823 70.876 316.075 70.984 316.279 71.2C316.495 71.416 316.603 71.68 316.603 71.992C316.603 72.304 316.495 72.568 316.279 72.784C316.075 73 315.823 73.108 315.523 73.108Z" fill="#562C2C" fill-opacity="0.8"/>
</g>
<rect x="0.5" y="0.5" width="347" height="101" rx="4.5" stroke="#9747FF" stroke-dasharray="10 5"/>
<defs>
<clipPath id="clip0_0_4254">
<rect width="348" height="102" rx="5" fill="white"/>
</clipPath>
</defs>
</svg>
