<svg width="295" height="124" viewBox="0 0 295 124" fill="none" xmlns="http://www.w3.org/2000/svg">
<rect x="0.5" y="0.5" width="294" height="123" rx="4.5" stroke="#9747FF" stroke-dasharray="10 5"/>
<g clip-path="url(#clip0_0_4036)">
<rect x="16" y="16" width="255" height="40" rx="20" fill="white"/>
<rect x="16" y="16" width="255" height="40" rx="20" fill="white"/>
<path d="M33.2784 42V30.3636H37.4261C38.3277 30.3636 39.0758 30.5189 39.6705 30.8295C40.2689 31.1402 40.7159 31.5701 41.0114 32.1193C41.3068 32.6648 41.4545 33.2955 41.4545 34.0114C41.4545 34.7235 41.3049 35.3504 41.0057 35.892C40.7102 36.4299 40.2633 36.8485 39.6648 37.1477C39.0701 37.447 38.322 37.5966 37.4205 37.5966H34.2784V36.0852H37.2614C37.8295 36.0852 38.2917 36.0038 38.6477 35.8409C39.0076 35.678 39.2708 35.4413 39.4375 35.1307C39.6042 34.8201 39.6875 34.447 39.6875 34.0114C39.6875 33.572 39.6023 33.1913 39.4318 32.8693C39.2652 32.5473 39.0019 32.3011 38.642 32.1307C38.286 31.9564 37.8182 31.8693 37.2386 31.8693H35.0341V42H33.2784ZM39.0227 36.75L41.8977 42H39.8977L37.0795 36.75H39.0227ZM47.1065 42.1761C46.2467 42.1761 45.5062 41.9924 44.8849 41.625C44.2675 41.2538 43.7902 40.733 43.4531 40.0625C43.1198 39.3883 42.9531 38.5985 42.9531 37.6932C42.9531 36.7992 43.1198 36.0114 43.4531 35.3295C43.7902 34.6477 44.2599 34.1155 44.8622 33.733C45.4683 33.3504 46.1766 33.1591 46.9872 33.1591C47.4796 33.1591 47.9569 33.2405 48.419 33.4034C48.8812 33.5663 49.2959 33.822 49.6634 34.1705C50.0308 34.5189 50.3205 34.9716 50.5327 35.5284C50.7448 36.0814 50.8509 36.7538 50.8509 37.5455V38.1477H43.9134V36.875H49.1861C49.1861 36.428 49.0952 36.0322 48.9134 35.6875C48.7315 35.339 48.4759 35.0644 48.1463 34.8636C47.8205 34.6629 47.438 34.5625 46.9986 34.5625C46.5213 34.5625 46.1046 34.6799 45.7486 34.9148C45.3963 35.1458 45.1236 35.4489 44.9304 35.8239C44.741 36.1951 44.6463 36.5985 44.6463 37.0341V38.0284C44.6463 38.6117 44.7486 39.108 44.9531 39.517C45.1615 39.9261 45.4512 40.2386 45.8224 40.4545C46.1937 40.6667 46.6274 40.7727 47.1236 40.7727C47.4455 40.7727 47.7391 40.7273 48.0043 40.6364C48.2694 40.5417 48.4986 40.4015 48.6918 40.2159C48.8849 40.0303 49.0327 39.8011 49.1349 39.5284L50.7429 39.8182C50.6141 40.2917 50.383 40.7064 50.0497 41.0625C49.7202 41.4148 49.3054 41.6894 48.8054 41.8864C48.3092 42.0795 47.7429 42.1761 47.1065 42.1761ZM46.2202 32.108L47.5497 29.4886H49.3395L47.5781 32.108H46.2202ZM59.2756 35.4034L57.7358 35.6761C57.6714 35.4792 57.5691 35.2917 57.429 35.1136C57.2926 34.9356 57.107 34.7898 56.8722 34.6761C56.6373 34.5625 56.3438 34.5057 55.9915 34.5057C55.5104 34.5057 55.1089 34.6136 54.7869 34.8295C54.465 35.0417 54.304 35.3163 54.304 35.6534C54.304 35.9451 54.4119 36.1799 54.6278 36.358C54.8438 36.536 55.1922 36.6818 55.6733 36.7955L57.0597 37.1136C57.8627 37.2992 58.4612 37.5852 58.8551 37.9716C59.2491 38.358 59.446 38.8598 59.446 39.4773C59.446 40 59.2945 40.4659 58.9915 40.875C58.6922 41.2803 58.2737 41.5985 57.7358 41.8295C57.2017 42.0606 56.5824 42.1761 55.8778 42.1761C54.9006 42.1761 54.1032 41.9678 53.4858 41.5511C52.8684 41.1307 52.4896 40.5341 52.3494 39.7614L53.9915 39.5114C54.0938 39.9394 54.304 40.2633 54.6222 40.483C54.9403 40.6989 55.3551 40.8068 55.8665 40.8068C56.4233 40.8068 56.8684 40.6913 57.2017 40.4602C57.535 40.2254 57.7017 39.9394 57.7017 39.6023C57.7017 39.3295 57.5994 39.1004 57.3949 38.9148C57.1941 38.7292 56.8854 38.589 56.4688 38.4943L54.9915 38.1705C54.1771 37.9848 53.5748 37.6894 53.1847 37.2841C52.7983 36.8788 52.6051 36.3655 52.6051 35.7443C52.6051 35.2292 52.7491 34.7784 53.0369 34.392C53.3248 34.0057 53.7225 33.7045 54.2301 33.4886C54.7377 33.2689 55.3191 33.1591 55.9744 33.1591C56.9176 33.1591 57.66 33.3636 58.2017 33.7727C58.7434 34.178 59.1013 34.7216 59.2756 35.4034ZM65.0753 42.1761C64.2154 42.1761 63.4749 41.9924 62.8537 41.625C62.2363 41.2538 61.759 40.733 61.4219 40.0625C61.0885 39.3883 60.9219 38.5985 60.9219 37.6932C60.9219 36.7992 61.0885 36.0114 61.4219 35.3295C61.759 34.6477 62.2287 34.1155 62.831 33.733C63.437 33.3504 64.1454 33.1591 64.956 33.1591C65.4484 33.1591 65.9257 33.2405 66.3878 33.4034C66.8499 33.5663 67.2647 33.822 67.6321 34.1705C67.9995 34.5189 68.2893 34.9716 68.5014 35.5284C68.7135 36.0814 68.8196 36.7538 68.8196 37.5455V38.1477H61.8821V36.875H67.1548C67.1548 36.428 67.0639 36.0322 66.8821 35.6875C66.7003 35.339 66.4446 35.0644 66.1151 34.8636C65.7893 34.6629 65.4067 34.5625 64.9673 34.5625C64.4901 34.5625 64.0734 34.6799 63.7173 34.9148C63.3651 35.1458 63.0923 35.4489 62.8991 35.8239C62.7098 36.1951 62.6151 36.5985 62.6151 37.0341V38.0284C62.6151 38.6117 62.7173 39.108 62.9219 39.517C63.1302 39.9261 63.42 40.2386 63.7912 40.4545C64.1624 40.6667 64.5961 40.7727 65.0923 40.7727C65.4143 40.7727 65.7079 40.7273 65.973 40.6364C66.2382 40.5417 66.4673 40.4015 66.6605 40.2159C66.8537 40.0303 67.0014 39.8011 67.1037 39.5284L68.7116 39.8182C68.5829 40.2917 68.3518 40.7064 68.0185 41.0625C67.6889 41.4148 67.2741 41.6894 66.7741 41.8864C66.2779 42.0795 65.7116 42.1761 65.0753 42.1761ZM70.7045 42V33.2727H72.3466V34.6591H72.4375C72.5966 34.1894 72.8769 33.8201 73.2784 33.5511C73.6837 33.2784 74.142 33.142 74.6534 33.142C74.7595 33.142 74.8845 33.1458 75.0284 33.1534C75.1761 33.161 75.2917 33.1705 75.375 33.1818V34.8068C75.3068 34.7879 75.1856 34.767 75.0114 34.7443C74.8371 34.7178 74.6629 34.7045 74.4886 34.7045C74.0871 34.7045 73.7292 34.7898 73.4148 34.9602C73.1042 35.1269 72.858 35.3598 72.6761 35.6591C72.4943 35.9545 72.4034 36.2917 72.4034 36.6705V42H70.7045ZM84.5767 33.2727L81.4119 42H79.5938L76.4233 33.2727H78.2472L80.4574 39.9886H80.5483L82.7528 33.2727H84.5767ZM89.6378 42.1761C88.7779 42.1761 88.0374 41.9924 87.4162 41.625C86.7988 41.2538 86.3215 40.733 85.9844 40.0625C85.651 39.3883 85.4844 38.5985 85.4844 37.6932C85.4844 36.7992 85.651 36.0114 85.9844 35.3295C86.3215 34.6477 86.7912 34.1155 87.3935 33.733C87.9995 33.3504 88.7079 33.1591 89.5185 33.1591C90.0109 33.1591 90.4882 33.2405 90.9503 33.4034C91.4124 33.5663 91.8272 33.822 92.1946 34.1705C92.562 34.5189 92.8518 34.9716 93.0639 35.5284C93.276 36.0814 93.3821 36.7538 93.3821 37.5455V38.1477H86.4446V36.875H91.7173C91.7173 36.428 91.6264 36.0322 91.4446 35.6875C91.2628 35.339 91.0071 35.0644 90.6776 34.8636C90.3518 34.6629 89.9692 34.5625 89.5298 34.5625C89.0526 34.5625 88.6359 34.6799 88.2798 34.9148C87.9276 35.1458 87.6548 35.4489 87.4616 35.8239C87.2723 36.1951 87.1776 36.5985 87.1776 37.0341V38.0284C87.1776 38.6117 87.2798 39.108 87.4844 39.517C87.6927 39.9261 87.9825 40.2386 88.3537 40.4545C88.7249 40.6667 89.1586 40.7727 89.6548 40.7727C89.9768 40.7727 90.2704 40.7273 90.5355 40.6364C90.8007 40.5417 91.0298 40.4015 91.223 40.2159C91.4162 40.0303 91.5639 39.8011 91.6662 39.5284L93.2741 39.8182C93.1454 40.2917 92.9143 40.7064 92.581 41.0625C92.2514 41.4148 91.8366 41.6894 91.3366 41.8864C90.8404 42.0795 90.2741 42.1761 89.6378 42.1761ZM95.0852 42V40.8352L99.8125 34.8295V34.75H95.2386V33.2727H101.932V34.5114L97.3864 40.4432V40.5227H102.091V42H95.0852ZM112.233 42H108.466V30.3636H112.352C113.492 30.3636 114.472 30.5966 115.29 31.0625C116.108 31.5246 116.735 32.1894 117.17 33.0568C117.61 33.9205 117.83 34.9564 117.83 36.1648C117.83 37.3769 117.608 38.4186 117.165 39.2898C116.725 40.161 116.089 40.8314 115.256 41.3011C114.422 41.767 113.415 42 112.233 42ZM110.222 40.4659H112.136C113.023 40.4659 113.759 40.2992 114.347 39.9659C114.934 39.6288 115.373 39.142 115.665 38.5057C115.956 37.8655 116.102 37.0852 116.102 36.1648C116.102 35.2519 115.956 34.4773 115.665 33.8409C115.377 33.2045 114.947 32.7216 114.375 32.392C113.803 32.0625 113.093 31.8977 112.244 31.8977H110.222V40.4659ZM123.638 42.1761C122.778 42.1761 122.037 41.9924 121.416 41.625C120.799 41.2538 120.321 40.733 119.984 40.0625C119.651 39.3883 119.484 38.5985 119.484 37.6932C119.484 36.7992 119.651 36.0114 119.984 35.3295C120.321 34.6477 120.791 34.1155 121.393 33.733C122 33.3504 122.708 33.1591 123.518 33.1591C124.011 33.1591 124.488 33.2405 124.95 33.4034C125.412 33.5663 125.827 33.822 126.195 34.1705C126.562 34.5189 126.852 34.9716 127.064 35.5284C127.276 36.0814 127.382 36.7538 127.382 37.5455V38.1477H120.445V36.875H125.717C125.717 36.428 125.626 36.0322 125.445 35.6875C125.263 35.339 125.007 35.0644 124.678 34.8636C124.352 34.6629 123.969 34.5625 123.53 34.5625C123.053 34.5625 122.636 34.6799 122.28 34.9148C121.928 35.1458 121.655 35.4489 121.462 35.8239C121.272 36.1951 121.178 36.5985 121.178 37.0341V38.0284C121.178 38.6117 121.28 39.108 121.484 39.517C121.693 39.9261 121.982 40.2386 122.354 40.4545C122.725 40.6667 123.159 40.7727 123.655 40.7727C123.977 40.7727 124.27 40.7273 124.536 40.6364C124.801 40.5417 125.03 40.4015 125.223 40.2159C125.416 40.0303 125.564 39.8011 125.666 39.5284L127.274 39.8182C127.145 40.2917 126.914 40.7064 126.581 41.0625C126.251 41.4148 125.837 41.6894 125.337 41.8864C124.84 42.0795 124.274 42.1761 123.638 42.1761ZM122.791 32.108L121.036 29.4886H122.825L124.149 32.108H122.791ZM135.807 35.4034L134.267 35.6761C134.203 35.4792 134.1 35.2917 133.96 35.1136C133.824 34.9356 133.638 34.7898 133.403 34.6761C133.169 34.5625 132.875 34.5057 132.523 34.5057C132.042 34.5057 131.64 34.6136 131.318 34.8295C130.996 35.0417 130.835 35.3163 130.835 35.6534C130.835 35.9451 130.943 36.1799 131.159 36.358C131.375 36.536 131.723 36.6818 132.205 36.7955L133.591 37.1136C134.394 37.2992 134.992 37.5852 135.386 37.9716C135.78 38.358 135.977 38.8598 135.977 39.4773C135.977 40 135.826 40.4659 135.523 40.875C135.223 41.2803 134.805 41.5985 134.267 41.8295C133.733 42.0606 133.114 42.1761 132.409 42.1761C131.432 42.1761 130.634 41.9678 130.017 41.5511C129.4 41.1307 129.021 40.5341 128.881 39.7614L130.523 39.5114C130.625 39.9394 130.835 40.2633 131.153 40.483C131.472 40.6989 131.886 40.8068 132.398 40.8068C132.955 40.8068 133.4 40.6913 133.733 40.4602C134.066 40.2254 134.233 39.9394 134.233 39.6023C134.233 39.3295 134.131 39.1004 133.926 38.9148C133.725 38.7292 133.417 38.589 133 38.4943L131.523 38.1705C130.708 37.9848 130.106 37.6894 129.716 37.2841C129.33 36.8788 129.136 36.3655 129.136 35.7443C129.136 35.2292 129.28 34.7784 129.568 34.392C129.856 34.0057 130.254 33.7045 130.761 33.4886C131.269 33.2689 131.85 33.1591 132.506 33.1591C133.449 33.1591 134.191 33.3636 134.733 33.7727C135.275 34.178 135.633 34.7216 135.807 35.4034ZM143.199 42H141.335L145.523 30.3636H147.551L151.739 42H149.875L146.585 32.4773H146.494L143.199 42ZM143.511 37.4432H149.557V38.9205H143.511V37.4432ZM158.811 38.3807V33.2727H160.516V42H158.845V40.4886H158.754C158.554 40.9545 158.232 41.3428 157.788 41.6534C157.349 41.9602 156.802 42.1136 156.146 42.1136C155.586 42.1136 155.089 41.9905 154.658 41.7443C154.23 41.4943 153.893 41.125 153.646 40.6364C153.404 40.1477 153.283 39.5436 153.283 38.8239V33.2727H154.982V38.6193C154.982 39.214 155.146 39.6875 155.476 40.0398C155.805 40.392 156.233 40.5682 156.76 40.5682C157.078 40.5682 157.394 40.4886 157.709 40.3295C158.027 40.1705 158.29 39.9299 158.499 39.608C158.711 39.286 158.815 38.8769 158.811 38.3807ZM162.798 33.2727H164.497V42.5682C164.497 43.1515 164.391 43.6439 164.179 44.0455C163.971 44.447 163.66 44.7519 163.247 44.9602C162.838 45.1686 162.332 45.2727 161.73 45.2727C161.67 45.2727 161.613 45.2727 161.56 45.2727C161.503 45.2727 161.444 45.2708 161.384 45.267V43.8068C161.437 43.8068 161.484 43.8068 161.526 43.8068C161.563 43.8068 161.607 43.8068 161.656 43.8068C162.058 43.8068 162.348 43.6989 162.526 43.483C162.707 43.2708 162.798 42.9621 162.798 42.5568V33.2727ZM163.639 31.9261C163.344 31.9261 163.09 31.8277 162.878 31.6307C162.67 31.4299 162.565 31.1913 162.565 30.9148C162.565 30.6345 162.67 30.3958 162.878 30.1989C163.09 29.9981 163.344 29.8977 163.639 29.8977C163.935 29.8977 164.187 29.9981 164.395 30.1989C164.607 30.3958 164.713 30.6345 164.713 30.9148C164.713 31.1913 164.607 31.4299 164.395 31.6307C164.187 31.8277 163.935 31.9261 163.639 31.9261ZM170.459 42.1761C169.641 42.1761 168.927 41.9886 168.317 41.6136C167.707 41.2386 167.233 40.714 166.896 40.0398C166.559 39.3655 166.391 38.5777 166.391 37.6761C166.391 36.7708 166.559 35.9792 166.896 35.3011C167.233 34.6231 167.707 34.0966 168.317 33.7216C168.927 33.3466 169.641 33.1591 170.459 33.1591C171.277 33.1591 171.991 33.3466 172.601 33.7216C173.211 34.0966 173.684 34.6231 174.021 35.3011C174.358 35.9792 174.527 36.7708 174.527 37.6761C174.527 38.5777 174.358 39.3655 174.021 40.0398C173.684 40.714 173.211 41.2386 172.601 41.6136C171.991 41.9886 171.277 42.1761 170.459 42.1761ZM170.464 40.75C170.995 40.75 171.434 40.6098 171.783 40.3295C172.131 40.0492 172.389 39.6761 172.555 39.2102C172.726 38.7443 172.811 38.2311 172.811 37.6705C172.811 37.1136 172.726 36.6023 172.555 36.1364C172.389 35.6667 172.131 35.2898 171.783 35.0057C171.434 34.7216 170.995 34.5795 170.464 34.5795C169.93 34.5795 169.487 34.7216 169.135 35.0057C168.786 35.2898 168.527 35.6667 168.357 36.1364C168.19 36.6023 168.107 37.1136 168.107 37.6705C168.107 38.2311 168.19 38.7443 168.357 39.2102C168.527 39.6761 168.786 40.0492 169.135 40.3295C169.487 40.6098 169.93 40.75 170.464 40.75ZM181.952 38.3807V33.2727H183.656V42H181.986V40.4886H181.895C181.694 40.9545 181.372 41.3428 180.929 41.6534C180.49 41.9602 179.942 42.1136 179.287 42.1136C178.726 42.1136 178.23 41.9905 177.798 41.7443C177.37 41.4943 177.033 41.125 176.787 40.6364C176.545 40.1477 176.423 39.5436 176.423 38.8239V33.2727H178.122V38.6193C178.122 39.214 178.287 39.6875 178.616 40.0398C178.946 40.392 179.374 40.5682 179.901 40.5682C180.219 40.5682 180.535 40.4886 180.849 40.3295C181.168 40.1705 181.431 39.9299 181.639 39.608C181.851 39.286 181.955 38.8769 181.952 38.3807ZM185.939 42V33.2727H187.581V34.6591H187.672C187.831 34.1894 188.111 33.8201 188.513 33.5511C188.918 33.2784 189.376 33.142 189.888 33.142C189.994 33.142 190.119 33.1458 190.263 33.1534C190.411 33.161 190.526 33.1705 190.609 33.1818V34.8068C190.541 34.7879 190.42 34.767 190.246 34.7443C190.071 34.7178 189.897 34.7045 189.723 34.7045C189.321 34.7045 188.964 34.7898 188.649 34.9602C188.339 35.1269 188.092 35.3598 187.911 35.6591C187.729 35.9545 187.638 36.2917 187.638 36.6705V42H185.939ZM195.034 42.1705C194.33 42.1705 193.701 41.9905 193.148 41.6307C192.598 41.267 192.167 40.75 191.852 40.0795C191.542 39.4053 191.386 38.5966 191.386 37.6534C191.386 36.7102 191.544 35.9034 191.858 35.233C192.176 34.5625 192.612 34.0492 193.165 33.6932C193.718 33.3371 194.345 33.1591 195.045 33.1591C195.587 33.1591 196.023 33.25 196.352 33.4318C196.686 33.6098 196.943 33.8182 197.125 34.0568C197.311 34.2955 197.455 34.5057 197.557 34.6875H197.659V30.3636H199.358V42H197.699V40.642H197.557C197.455 40.8277 197.307 41.0398 197.114 41.2784C196.924 41.517 196.663 41.7254 196.33 41.9034C195.996 42.0814 195.564 42.1705 195.034 42.1705ZM195.409 40.7216C195.898 40.7216 196.311 40.5928 196.648 40.3352C196.989 40.0739 197.246 39.7121 197.42 39.25C197.598 38.7879 197.688 38.25 197.688 37.6364C197.688 37.0303 197.6 36.5 197.426 36.0455C197.252 35.5909 196.996 35.2367 196.659 34.983C196.322 34.7292 195.905 34.6023 195.409 34.6023C194.898 34.6023 194.472 34.7348 194.131 35C193.79 35.2652 193.532 35.6269 193.358 36.0852C193.188 36.5436 193.102 37.0606 193.102 37.6364C193.102 38.2197 193.189 38.7443 193.364 39.2102C193.538 39.6761 193.795 40.0455 194.136 40.3182C194.481 40.5871 194.905 40.7216 195.409 40.7216ZM203.243 30.3636V31.4545C203.243 31.7765 203.182 32.1155 203.061 32.4716C202.944 32.8239 202.777 33.1629 202.561 33.4886C202.345 33.8144 202.091 34.0947 201.8 34.3295L200.959 33.7273C201.182 33.4015 201.375 33.0549 201.538 32.6875C201.705 32.3201 201.788 31.9148 201.788 31.4716V30.3636H203.243ZM206.669 36.8182V42H204.97V30.3636H206.646V34.6932H206.754C206.959 34.2235 207.271 33.8504 207.692 33.5739C208.112 33.2973 208.661 33.1591 209.339 33.1591C209.938 33.1591 210.461 33.2822 210.908 33.5284C211.358 33.7746 211.707 34.142 211.953 34.6307C212.203 35.1155 212.328 35.7216 212.328 36.4489V42H210.629V36.6534C210.629 36.0133 210.464 35.517 210.135 35.1648C209.805 34.8087 209.347 34.6307 208.76 34.6307C208.358 34.6307 207.999 34.7159 207.68 34.8864C207.366 35.0568 207.118 35.3068 206.936 35.6364C206.758 35.9621 206.669 36.3561 206.669 36.8182ZM220.124 38.3807V33.2727H221.828V42H220.158V40.4886H220.067C219.866 40.9545 219.544 41.3428 219.101 41.6534C218.661 41.9602 218.114 42.1136 217.459 42.1136C216.898 42.1136 216.402 41.9905 215.97 41.7443C215.542 41.4943 215.205 41.125 214.959 40.6364C214.716 40.1477 214.595 39.5436 214.595 38.8239V33.2727H216.294V38.6193C216.294 39.214 216.459 39.6875 216.788 40.0398C217.118 40.392 217.546 40.5682 218.072 40.5682C218.391 40.5682 218.707 40.4886 219.021 40.3295C219.339 40.1705 219.603 39.9299 219.811 39.608C220.023 39.286 220.127 38.8769 220.124 38.3807ZM224.111 42V33.2727H225.81V42H224.111ZM224.969 31.9261C224.673 31.9261 224.42 31.8277 224.207 31.6307C223.999 31.4299 223.895 31.1913 223.895 30.9148C223.895 30.6345 223.999 30.3958 224.207 30.1989C224.42 29.9981 224.673 29.8977 224.969 29.8977C225.264 29.8977 225.516 29.9981 225.724 30.1989C225.937 30.3958 226.043 30.6345 226.043 30.9148C226.043 31.1913 225.937 31.4299 225.724 31.6307C225.516 31.8277 225.264 31.9261 224.969 31.9261Z" fill="#562C2C"/>
<path d="M242.5 41L247.5 36L242.5 31" stroke="#562C2C" stroke-width="1.5" stroke-linecap="round" stroke-linejoin="round"/>
</g>
<rect x="16.5" y="16.5" width="254" height="39" rx="19.5" stroke="#562C2C" stroke-opacity="0.3"/>
<g clip-path="url(#clip1_0_4036)">
<rect x="16" y="68" width="255" height="40" rx="20" fill="white"/>
<rect x="16" y="68" width="255" height="40" rx="20" fill="white"/>
<circle cx="106" cy="118" r="180" fill="#F2542D"/>
<path d="M33.2784 94V82.3636H37.4261C38.3277 82.3636 39.0758 82.5189 39.6705 82.8295C40.2689 83.1402 40.7159 83.5701 41.0114 84.1193C41.3068 84.6648 41.4545 85.2955 41.4545 86.0114C41.4545 86.7235 41.3049 87.3504 41.0057 87.892C40.7102 88.4299 40.2633 88.8485 39.6648 89.1477C39.0701 89.447 38.322 89.5966 37.4205 89.5966H34.2784V88.0852H37.2614C37.8295 88.0852 38.2917 88.0038 38.6477 87.8409C39.0076 87.678 39.2708 87.4413 39.4375 87.1307C39.6042 86.8201 39.6875 86.447 39.6875 86.0114C39.6875 85.572 39.6023 85.1913 39.4318 84.8693C39.2652 84.5473 39.0019 84.3011 38.642 84.1307C38.286 83.9564 37.8182 83.8693 37.2386 83.8693H35.0341V94H33.2784ZM39.0227 88.75L41.8977 94H39.8977L37.0795 88.75H39.0227ZM47.1065 94.1761C46.2467 94.1761 45.5062 93.9924 44.8849 93.625C44.2675 93.2538 43.7902 92.733 43.4531 92.0625C43.1198 91.3883 42.9531 90.5985 42.9531 89.6932C42.9531 88.7992 43.1198 88.0114 43.4531 87.3295C43.7902 86.6477 44.2599 86.1155 44.8622 85.733C45.4683 85.3504 46.1766 85.1591 46.9872 85.1591C47.4796 85.1591 47.9569 85.2405 48.419 85.4034C48.8812 85.5663 49.2959 85.822 49.6634 86.1705C50.0308 86.5189 50.3205 86.9716 50.5327 87.5284C50.7448 88.0814 50.8509 88.7538 50.8509 89.5455V90.1477H43.9134V88.875H49.1861C49.1861 88.428 49.0952 88.0322 48.9134 87.6875C48.7315 87.339 48.4759 87.0644 48.1463 86.8636C47.8205 86.6629 47.438 86.5625 46.9986 86.5625C46.5213 86.5625 46.1046 86.6799 45.7486 86.9148C45.3963 87.1458 45.1236 87.4489 44.9304 87.8239C44.741 88.1951 44.6463 88.5985 44.6463 89.0341V90.0284C44.6463 90.6117 44.7486 91.108 44.9531 91.517C45.1615 91.9261 45.4512 92.2386 45.8224 92.4545C46.1937 92.6667 46.6274 92.7727 47.1236 92.7727C47.4455 92.7727 47.7391 92.7273 48.0043 92.6364C48.2694 92.5417 48.4986 92.4015 48.6918 92.2159C48.8849 92.0303 49.0327 91.8011 49.1349 91.5284L50.7429 91.8182C50.6141 92.2917 50.383 92.7064 50.0497 93.0625C49.7202 93.4148 49.3054 93.6894 48.8054 93.8864C48.3092 94.0795 47.7429 94.1761 47.1065 94.1761ZM46.2202 84.108L47.5497 81.4886H49.3395L47.5781 84.108H46.2202ZM59.2756 87.4034L57.7358 87.6761C57.6714 87.4792 57.5691 87.2917 57.429 87.1136C57.2926 86.9356 57.107 86.7898 56.8722 86.6761C56.6373 86.5625 56.3438 86.5057 55.9915 86.5057C55.5104 86.5057 55.1089 86.6136 54.7869 86.8295C54.465 87.0417 54.304 87.3163 54.304 87.6534C54.304 87.9451 54.4119 88.1799 54.6278 88.358C54.8438 88.536 55.1922 88.6818 55.6733 88.7955L57.0597 89.1136C57.8627 89.2992 58.4612 89.5852 58.8551 89.9716C59.2491 90.358 59.446 90.8598 59.446 91.4773C59.446 92 59.2945 92.4659 58.9915 92.875C58.6922 93.2803 58.2737 93.5985 57.7358 93.8295C57.2017 94.0606 56.5824 94.1761 55.8778 94.1761C54.9006 94.1761 54.1032 93.9678 53.4858 93.5511C52.8684 93.1307 52.4896 92.5341 52.3494 91.7614L53.9915 91.5114C54.0938 91.9394 54.304 92.2633 54.6222 92.483C54.9403 92.6989 55.3551 92.8068 55.8665 92.8068C56.4233 92.8068 56.8684 92.6913 57.2017 92.4602C57.535 92.2254 57.7017 91.9394 57.7017 91.6023C57.7017 91.3295 57.5994 91.1004 57.3949 90.9148C57.1941 90.7292 56.8854 90.589 56.4688 90.4943L54.9915 90.1705C54.1771 89.9848 53.5748 89.6894 53.1847 89.2841C52.7983 88.8788 52.6051 88.3655 52.6051 87.7443C52.6051 87.2292 52.7491 86.7784 53.0369 86.392C53.3248 86.0057 53.7225 85.7045 54.2301 85.4886C54.7377 85.2689 55.3191 85.1591 55.9744 85.1591C56.9176 85.1591 57.66 85.3636 58.2017 85.7727C58.7434 86.178 59.1013 86.7216 59.2756 87.4034ZM65.0753 94.1761C64.2154 94.1761 63.4749 93.9924 62.8537 93.625C62.2363 93.2538 61.759 92.733 61.4219 92.0625C61.0885 91.3883 60.9219 90.5985 60.9219 89.6932C60.9219 88.7992 61.0885 88.0114 61.4219 87.3295C61.759 86.6477 62.2287 86.1155 62.831 85.733C63.437 85.3504 64.1454 85.1591 64.956 85.1591C65.4484 85.1591 65.9257 85.2405 66.3878 85.4034C66.8499 85.5663 67.2647 85.822 67.6321 86.1705C67.9995 86.5189 68.2893 86.9716 68.5014 87.5284C68.7135 88.0814 68.8196 88.7538 68.8196 89.5455V90.1477H61.8821V88.875H67.1548C67.1548 88.428 67.0639 88.0322 66.8821 87.6875C66.7003 87.339 66.4446 87.0644 66.1151 86.8636C65.7893 86.6629 65.4067 86.5625 64.9673 86.5625C64.4901 86.5625 64.0734 86.6799 63.7173 86.9148C63.3651 87.1458 63.0923 87.4489 62.8991 87.8239C62.7098 88.1951 62.6151 88.5985 62.6151 89.0341V90.0284C62.6151 90.6117 62.7173 91.108 62.9219 91.517C63.1302 91.9261 63.42 92.2386 63.7912 92.4545C64.1624 92.6667 64.5961 92.7727 65.0923 92.7727C65.4143 92.7727 65.7079 92.7273 65.973 92.6364C66.2382 92.5417 66.4673 92.4015 66.6605 92.2159C66.8537 92.0303 67.0014 91.8011 67.1037 91.5284L68.7116 91.8182C68.5829 92.2917 68.3518 92.7064 68.0185 93.0625C67.6889 93.4148 67.2741 93.6894 66.7741 93.8864C66.2779 94.0795 65.7116 94.1761 65.0753 94.1761ZM70.7045 94V85.2727H72.3466V86.6591H72.4375C72.5966 86.1894 72.8769 85.8201 73.2784 85.5511C73.6837 85.2784 74.142 85.142 74.6534 85.142C74.7595 85.142 74.8845 85.1458 75.0284 85.1534C75.1761 85.161 75.2917 85.1705 75.375 85.1818V86.8068C75.3068 86.7879 75.1856 86.767 75.0114 86.7443C74.8371 86.7178 74.6629 86.7045 74.4886 86.7045C74.0871 86.7045 73.7292 86.7898 73.4148 86.9602C73.1042 87.1269 72.858 87.3598 72.6761 87.6591C72.4943 87.9545 72.4034 88.2917 72.4034 88.6705V94H70.7045ZM84.5767 85.2727L81.4119 94H79.5938L76.4233 85.2727H78.2472L80.4574 91.9886H80.5483L82.7528 85.2727H84.5767ZM89.6378 94.1761C88.7779 94.1761 88.0374 93.9924 87.4162 93.625C86.7988 93.2538 86.3215 92.733 85.9844 92.0625C85.651 91.3883 85.4844 90.5985 85.4844 89.6932C85.4844 88.7992 85.651 88.0114 85.9844 87.3295C86.3215 86.6477 86.7912 86.1155 87.3935 85.733C87.9995 85.3504 88.7079 85.1591 89.5185 85.1591C90.0109 85.1591 90.4882 85.2405 90.9503 85.4034C91.4124 85.5663 91.8272 85.822 92.1946 86.1705C92.562 86.5189 92.8518 86.9716 93.0639 87.5284C93.276 88.0814 93.3821 88.7538 93.3821 89.5455V90.1477H86.4446V88.875H91.7173C91.7173 88.428 91.6264 88.0322 91.4446 87.6875C91.2628 87.339 91.0071 87.0644 90.6776 86.8636C90.3518 86.6629 89.9692 86.5625 89.5298 86.5625C89.0526 86.5625 88.6359 86.6799 88.2798 86.9148C87.9276 87.1458 87.6548 87.4489 87.4616 87.8239C87.2723 88.1951 87.1776 88.5985 87.1776 89.0341V90.0284C87.1776 90.6117 87.2798 91.108 87.4844 91.517C87.6927 91.9261 87.9825 92.2386 88.3537 92.4545C88.7249 92.6667 89.1586 92.7727 89.6548 92.7727C89.9768 92.7727 90.2704 92.7273 90.5355 92.6364C90.8007 92.5417 91.0298 92.4015 91.223 92.2159C91.4162 92.0303 91.5639 91.8011 91.6662 91.5284L93.2741 91.8182C93.1454 92.2917 92.9143 92.7064 92.581 93.0625C92.2514 93.4148 91.8366 93.6894 91.3366 93.8864C90.8404 94.0795 90.2741 94.1761 89.6378 94.1761ZM95.0852 94V92.8352L99.8125 86.8295V86.75H95.2386V85.2727H101.932V86.5114L97.3864 92.4432V92.5227H102.091V94H95.0852ZM112.233 94H108.466V82.3636H112.352C113.492 82.3636 114.472 82.5966 115.29 83.0625C116.108 83.5246 116.735 84.1894 117.17 85.0568C117.61 85.9205 117.83 86.9564 117.83 88.1648C117.83 89.3769 117.608 90.4186 117.165 91.2898C116.725 92.161 116.089 92.8314 115.256 93.3011C114.422 93.767 113.415 94 112.233 94ZM110.222 92.4659H112.136C113.023 92.4659 113.759 92.2992 114.347 91.9659C114.934 91.6288 115.373 91.142 115.665 90.5057C115.956 89.8655 116.102 89.0852 116.102 88.1648C116.102 87.2519 115.956 86.4773 115.665 85.8409C115.377 85.2045 114.947 84.7216 114.375 84.392C113.803 84.0625 113.093 83.8977 112.244 83.8977H110.222V92.4659ZM123.638 94.1761C122.778 94.1761 122.037 93.9924 121.416 93.625C120.799 93.2538 120.321 92.733 119.984 92.0625C119.651 91.3883 119.484 90.5985 119.484 89.6932C119.484 88.7992 119.651 88.0114 119.984 87.3295C120.321 86.6477 120.791 86.1155 121.393 85.733C122 85.3504 122.708 85.1591 123.518 85.1591C124.011 85.1591 124.488 85.2405 124.95 85.4034C125.412 85.5663 125.827 85.822 126.195 86.1705C126.562 86.5189 126.852 86.9716 127.064 87.5284C127.276 88.0814 127.382 88.7538 127.382 89.5455V90.1477H120.445V88.875H125.717C125.717 88.428 125.626 88.0322 125.445 87.6875C125.263 87.339 125.007 87.0644 124.678 86.8636C124.352 86.6629 123.969 86.5625 123.53 86.5625C123.053 86.5625 122.636 86.6799 122.28 86.9148C121.928 87.1458 121.655 87.4489 121.462 87.8239C121.272 88.1951 121.178 88.5985 121.178 89.0341V90.0284C121.178 90.6117 121.28 91.108 121.484 91.517C121.693 91.9261 121.982 92.2386 122.354 92.4545C122.725 92.6667 123.159 92.7727 123.655 92.7727C123.977 92.7727 124.27 92.7273 124.536 92.6364C124.801 92.5417 125.03 92.4015 125.223 92.2159C125.416 92.0303 125.564 91.8011 125.666 91.5284L127.274 91.8182C127.145 92.2917 126.914 92.7064 126.581 93.0625C126.251 93.4148 125.837 93.6894 125.337 93.8864C124.84 94.0795 124.274 94.1761 123.638 94.1761ZM122.791 84.108L121.036 81.4886H122.825L124.149 84.108H122.791ZM135.807 87.4034L134.267 87.6761C134.203 87.4792 134.1 87.2917 133.96 87.1136C133.824 86.9356 133.638 86.7898 133.403 86.6761C133.169 86.5625 132.875 86.5057 132.523 86.5057C132.042 86.5057 131.64 86.6136 131.318 86.8295C130.996 87.0417 130.835 87.3163 130.835 87.6534C130.835 87.9451 130.943 88.1799 131.159 88.358C131.375 88.536 131.723 88.6818 132.205 88.7955L133.591 89.1136C134.394 89.2992 134.992 89.5852 135.386 89.9716C135.78 90.358 135.977 90.8598 135.977 91.4773C135.977 92 135.826 92.4659 135.523 92.875C135.223 93.2803 134.805 93.5985 134.267 93.8295C133.733 94.0606 133.114 94.1761 132.409 94.1761C131.432 94.1761 130.634 93.9678 130.017 93.5511C129.4 93.1307 129.021 92.5341 128.881 91.7614L130.523 91.5114C130.625 91.9394 130.835 92.2633 131.153 92.483C131.472 92.6989 131.886 92.8068 132.398 92.8068C132.955 92.8068 133.4 92.6913 133.733 92.4602C134.066 92.2254 134.233 91.9394 134.233 91.6023C134.233 91.3295 134.131 91.1004 133.926 90.9148C133.725 90.7292 133.417 90.589 133 90.4943L131.523 90.1705C130.708 89.9848 130.106 89.6894 129.716 89.2841C129.33 88.8788 129.136 88.3655 129.136 87.7443C129.136 87.2292 129.28 86.7784 129.568 86.392C129.856 86.0057 130.254 85.7045 130.761 85.4886C131.269 85.2689 131.85 85.1591 132.506 85.1591C133.449 85.1591 134.191 85.3636 134.733 85.7727C135.275 86.178 135.633 86.7216 135.807 87.4034ZM143.199 94H141.335L145.523 82.3636H147.551L151.739 94H149.875L146.585 84.4773H146.494L143.199 94ZM143.511 89.4432H149.557V90.9205H143.511V89.4432ZM158.811 90.3807V85.2727H160.516V94H158.845V92.4886H158.754C158.554 92.9545 158.232 93.3428 157.788 93.6534C157.349 93.9602 156.802 94.1136 156.146 94.1136C155.586 94.1136 155.089 93.9905 154.658 93.7443C154.23 93.4943 153.893 93.125 153.646 92.6364C153.404 92.1477 153.283 91.5436 153.283 90.8239V85.2727H154.982V90.6193C154.982 91.214 155.146 91.6875 155.476 92.0398C155.805 92.392 156.233 92.5682 156.76 92.5682C157.078 92.5682 157.394 92.4886 157.709 92.3295C158.027 92.1705 158.29 91.9299 158.499 91.608C158.711 91.286 158.815 90.8769 158.811 90.3807ZM162.798 85.2727H164.497V94.5682C164.497 95.1515 164.391 95.6439 164.179 96.0455C163.971 96.447 163.66 96.7519 163.247 96.9602C162.838 97.1686 162.332 97.2727 161.73 97.2727C161.67 97.2727 161.613 97.2727 161.56 97.2727C161.503 97.2727 161.444 97.2708 161.384 97.267V95.8068C161.437 95.8068 161.484 95.8068 161.526 95.8068C161.563 95.8068 161.607 95.8068 161.656 95.8068C162.058 95.8068 162.348 95.6989 162.526 95.483C162.707 95.2708 162.798 94.9621 162.798 94.5568V85.2727ZM163.639 83.9261C163.344 83.9261 163.09 83.8277 162.878 83.6307C162.67 83.4299 162.565 83.1913 162.565 82.9148C162.565 82.6345 162.67 82.3958 162.878 82.1989C163.09 81.9981 163.344 81.8977 163.639 81.8977C163.935 81.8977 164.187 81.9981 164.395 82.1989C164.607 82.3958 164.713 82.6345 164.713 82.9148C164.713 83.1913 164.607 83.4299 164.395 83.6307C164.187 83.8277 163.935 83.9261 163.639 83.9261ZM170.459 94.1761C169.641 94.1761 168.927 93.9886 168.317 93.6136C167.707 93.2386 167.233 92.714 166.896 92.0398C166.559 91.3655 166.391 90.5777 166.391 89.6761C166.391 88.7708 166.559 87.9792 166.896 87.3011C167.233 86.6231 167.707 86.0966 168.317 85.7216C168.927 85.3466 169.641 85.1591 170.459 85.1591C171.277 85.1591 171.991 85.3466 172.601 85.7216C173.211 86.0966 173.684 86.6231 174.021 87.3011C174.358 87.9792 174.527 88.7708 174.527 89.6761C174.527 90.5777 174.358 91.3655 174.021 92.0398C173.684 92.714 173.211 93.2386 172.601 93.6136C171.991 93.9886 171.277 94.1761 170.459 94.1761ZM170.464 92.75C170.995 92.75 171.434 92.6098 171.783 92.3295C172.131 92.0492 172.389 91.6761 172.555 91.2102C172.726 90.7443 172.811 90.2311 172.811 89.6705C172.811 89.1136 172.726 88.6023 172.555 88.1364C172.389 87.6667 172.131 87.2898 171.783 87.0057C171.434 86.7216 170.995 86.5795 170.464 86.5795C169.93 86.5795 169.487 86.7216 169.135 87.0057C168.786 87.2898 168.527 87.6667 168.357 88.1364C168.19 88.6023 168.107 89.1136 168.107 89.6705C168.107 90.2311 168.19 90.7443 168.357 91.2102C168.527 91.6761 168.786 92.0492 169.135 92.3295C169.487 92.6098 169.93 92.75 170.464 92.75ZM181.952 90.3807V85.2727H183.656V94H181.986V92.4886H181.895C181.694 92.9545 181.372 93.3428 180.929 93.6534C180.49 93.9602 179.942 94.1136 179.287 94.1136C178.726 94.1136 178.23 93.9905 177.798 93.7443C177.37 93.4943 177.033 93.125 176.787 92.6364C176.545 92.1477 176.423 91.5436 176.423 90.8239V85.2727H178.122V90.6193C178.122 91.214 178.287 91.6875 178.616 92.0398C178.946 92.392 179.374 92.5682 179.901 92.5682C180.219 92.5682 180.535 92.4886 180.849 92.3295C181.168 92.1705 181.431 91.9299 181.639 91.608C181.851 91.286 181.955 90.8769 181.952 90.3807ZM185.939 94V85.2727H187.581V86.6591H187.672C187.831 86.1894 188.111 85.8201 188.513 85.5511C188.918 85.2784 189.376 85.142 189.888 85.142C189.994 85.142 190.119 85.1458 190.263 85.1534C190.411 85.161 190.526 85.1705 190.609 85.1818V86.8068C190.541 86.7879 190.42 86.767 190.246 86.7443C190.071 86.7178 189.897 86.7045 189.723 86.7045C189.321 86.7045 188.964 86.7898 188.649 86.9602C188.339 87.1269 188.092 87.3598 187.911 87.6591C187.729 87.9545 187.638 88.2917 187.638 88.6705V94H185.939ZM195.034 94.1705C194.33 94.1705 193.701 93.9905 193.148 93.6307C192.598 93.267 192.167 92.75 191.852 92.0795C191.542 91.4053 191.386 90.5966 191.386 89.6534C191.386 88.7102 191.544 87.9034 191.858 87.233C192.176 86.5625 192.612 86.0492 193.165 85.6932C193.718 85.3371 194.345 85.1591 195.045 85.1591C195.587 85.1591 196.023 85.25 196.352 85.4318C196.686 85.6098 196.943 85.8182 197.125 86.0568C197.311 86.2955 197.455 86.5057 197.557 86.6875H197.659V82.3636H199.358V94H197.699V92.642H197.557C197.455 92.8277 197.307 93.0398 197.114 93.2784C196.924 93.517 196.663 93.7254 196.33 93.9034C195.996 94.0814 195.564 94.1705 195.034 94.1705ZM195.409 92.7216C195.898 92.7216 196.311 92.5928 196.648 92.3352C196.989 92.0739 197.246 91.7121 197.42 91.25C197.598 90.7879 197.688 90.25 197.688 89.6364C197.688 89.0303 197.6 88.5 197.426 88.0455C197.252 87.5909 196.996 87.2367 196.659 86.983C196.322 86.7292 195.905 86.6023 195.409 86.6023C194.898 86.6023 194.472 86.7348 194.131 87C193.79 87.2652 193.532 87.6269 193.358 88.0852C193.188 88.5436 193.102 89.0606 193.102 89.6364C193.102 90.2197 193.189 90.7443 193.364 91.2102C193.538 91.6761 193.795 92.0455 194.136 92.3182C194.481 92.5871 194.905 92.7216 195.409 92.7216ZM203.243 82.3636V83.4545C203.243 83.7765 203.182 84.1155 203.061 84.4716C202.944 84.8239 202.777 85.1629 202.561 85.4886C202.345 85.8144 202.091 86.0947 201.8 86.3295L200.959 85.7273C201.182 85.4015 201.375 85.0549 201.538 84.6875C201.705 84.3201 201.788 83.9148 201.788 83.4716V82.3636H203.243ZM206.669 88.8182V94H204.97V82.3636H206.646V86.6932H206.754C206.959 86.2235 207.271 85.8504 207.692 85.5739C208.112 85.2973 208.661 85.1591 209.339 85.1591C209.938 85.1591 210.461 85.2822 210.908 85.5284C211.358 85.7746 211.707 86.142 211.953 86.6307C212.203 87.1155 212.328 87.7216 212.328 88.4489V94H210.629V88.6534C210.629 88.0133 210.464 87.517 210.135 87.1648C209.805 86.8087 209.347 86.6307 208.76 86.6307C208.358 86.6307 207.999 86.7159 207.68 86.8864C207.366 87.0568 207.118 87.3068 206.936 87.6364C206.758 87.9621 206.669 88.3561 206.669 88.8182ZM220.124 90.3807V85.2727H221.828V94H220.158V92.4886H220.067C219.866 92.9545 219.544 93.3428 219.101 93.6534C218.661 93.9602 218.114 94.1136 217.459 94.1136C216.898 94.1136 216.402 93.9905 215.97 93.7443C215.542 93.4943 215.205 93.125 214.959 92.6364C214.716 92.1477 214.595 91.5436 214.595 90.8239V85.2727H216.294V90.6193C216.294 91.214 216.459 91.6875 216.788 92.0398C217.118 92.392 217.546 92.5682 218.072 92.5682C218.391 92.5682 218.707 92.4886 219.021 92.3295C219.339 92.1705 219.603 91.9299 219.811 91.608C220.023 91.286 220.127 90.8769 220.124 90.3807ZM224.111 94V85.2727H225.81V94H224.111ZM224.969 83.9261C224.673 83.9261 224.42 83.8277 224.207 83.6307C223.999 83.4299 223.895 83.1913 223.895 82.9148C223.895 82.6345 223.999 82.3958 224.207 82.1989C224.42 81.9981 224.673 81.8977 224.969 81.8977C225.264 81.8977 225.516 81.9981 225.724 82.1989C225.937 82.3958 226.043 82.6345 226.043 82.9148C226.043 83.1913 225.937 83.4299 225.724 83.6307C225.516 83.8277 225.264 83.9261 224.969 83.9261Z" fill="white"/>
<path d="M242.5 93L247.5 88L242.5 83" stroke="white" stroke-width="1.5" stroke-linecap="round" stroke-linejoin="round"/>
</g>
<rect x="16.5" y="68.5" width="254" height="39" rx="19.5" stroke="#562C2C" stroke-opacity="0.3"/>
<defs>
<clipPath id="clip0_0_4036">
<rect x="16" y="16" width="255" height="40" rx="20" fill="white"/>
</clipPath>
<clipPath id="clip1_0_4036">
<rect x="16" y="68" width="255" height="40" rx="20" fill="white"/>
</clipPath>
</defs>
</svg>
