<svg width="285" height="128" viewBox="0 0 285 128" fill="none" xmlns="http://www.w3.org/2000/svg">
<rect x="0.5" y="0.5" width="284" height="127" rx="4.5" stroke="#9747FF" stroke-dasharray="10 5"/>
<rect x="16" y="16" width="253" height="44" rx="22" fill="#F2542D"/>
<path d="M39.92 44L36.752 38.924H35.294V44H33.242V31.292H37.724C39.176 31.292 40.274 31.646 41.018 32.354C41.774 33.062 42.152 33.998 42.152 35.162C42.152 36.158 41.87 36.974 41.306 37.61C40.754 38.246 39.95 38.654 38.894 38.834L42.224 44H39.92ZM35.294 37.466H37.562C39.218 37.466 40.046 36.734 40.046 35.27C40.046 34.574 39.842 34.034 39.434 33.65C39.038 33.254 38.414 33.056 37.562 33.056H35.294V37.466ZM53.2158 38.564C53.2158 38.9 53.1918 39.194 53.1438 39.446H45.5118C45.5478 40.466 45.8298 41.222 46.3578 41.714C46.8858 42.206 47.5398 42.452 48.3198 42.452C49.0038 42.452 49.5798 42.278 50.0478 41.93C50.5278 41.582 50.8218 41.12 50.9298 40.544H53.1258C52.9938 41.24 52.7178 41.858 52.2978 42.398C51.8778 42.938 51.3318 43.364 50.6598 43.676C49.9878 43.976 49.2378 44.126 48.4098 44.126C47.4498 44.126 46.5978 43.922 45.8538 43.514C45.1218 43.106 44.5458 42.518 44.1258 41.75C43.7058 40.982 43.4958 40.076 43.4958 39.032C43.4958 38 43.7058 37.1 44.1258 36.332C44.5458 35.564 45.1218 34.976 45.8538 34.568C46.5978 34.16 47.4498 33.956 48.4098 33.956C49.3818 33.956 50.2278 34.16 50.9478 34.568C51.6798 34.964 52.2378 35.516 52.6218 36.224C53.0178 36.92 53.2158 37.7 53.2158 38.564ZM51.1458 38.51C51.1698 37.862 51.0558 37.322 50.8038 36.89C50.5638 36.446 50.2278 36.122 49.7958 35.918C49.3758 35.702 48.9138 35.594 48.4098 35.594C47.6058 35.594 46.9338 35.84 46.3938 36.332C45.8538 36.824 45.5598 37.55 45.5118 38.51H51.1458ZM51.2178 31.274L47.2398 33.308V31.868L51.2178 29.672V31.274ZM58.4551 33.956C59.6191 33.956 60.5491 34.256 61.2451 34.856C61.9531 35.444 62.3851 36.236 62.5411 37.232H60.5971C60.5131 36.692 60.2791 36.26 59.8951 35.936C59.5231 35.6 59.0251 35.432 58.4011 35.432C57.8851 35.432 57.4831 35.558 57.1951 35.81C56.9191 36.05 56.7811 36.38 56.7811 36.8C56.7811 37.112 56.8831 37.364 57.0871 37.556C57.2911 37.748 57.5431 37.898 57.8431 38.006C58.1551 38.114 58.5931 38.234 59.1571 38.366C59.9011 38.534 60.5011 38.708 60.9571 38.888C61.4251 39.068 61.8211 39.356 62.1451 39.752C62.4811 40.136 62.6491 40.664 62.6491 41.336C62.6491 42.164 62.3311 42.836 61.6951 43.352C61.0711 43.868 60.2251 44.126 59.1571 44.126C57.9211 44.126 56.9191 43.838 56.1511 43.262C55.3951 42.686 54.9391 41.882 54.7831 40.85H56.7811C56.8411 41.39 57.0811 41.828 57.5011 42.164C57.9211 42.5 58.4731 42.668 59.1571 42.668C59.6491 42.668 60.0331 42.542 60.3091 42.29C60.5971 42.026 60.7411 41.696 60.7411 41.3C60.7411 40.952 60.6331 40.676 60.4171 40.472C60.2011 40.268 59.9311 40.112 59.6071 40.004C59.2831 39.884 58.8391 39.764 58.2751 39.644C57.5551 39.476 56.9671 39.308 56.5111 39.14C56.0671 38.972 55.6831 38.702 55.3591 38.33C55.0471 37.946 54.8911 37.43 54.8911 36.782C54.8911 35.942 55.2031 35.264 55.8271 34.748C56.4631 34.22 57.3391 33.956 58.4551 33.956ZM73.9228 38.564C73.9228 38.9 73.8988 39.194 73.8508 39.446H66.2188C66.2548 40.466 66.5368 41.222 67.0648 41.714C67.5928 42.206 68.2468 42.452 69.0268 42.452C69.7108 42.452 70.2868 42.278 70.7548 41.93C71.2348 41.582 71.5288 41.12 71.6368 40.544H73.8328C73.7008 41.24 73.4248 41.858 73.0048 42.398C72.5848 42.938 72.0388 43.364 71.3668 43.676C70.6948 43.976 69.9448 44.126 69.1168 44.126C68.1568 44.126 67.3048 43.922 66.5608 43.514C65.8288 43.106 65.2528 42.518 64.8328 41.75C64.4128 40.982 64.2028 40.076 64.2028 39.032C64.2028 38 64.4128 37.1 64.8328 36.332C65.2528 35.564 65.8288 34.976 66.5608 34.568C67.3048 34.16 68.1568 33.956 69.1168 33.956C70.0888 33.956 70.9348 34.16 71.6548 34.568C72.3868 34.964 72.9448 35.516 73.3288 36.224C73.7248 36.92 73.9228 37.7 73.9228 38.564ZM71.8528 38.51C71.8768 37.862 71.7628 37.322 71.5108 36.89C71.2708 36.446 70.9348 36.122 70.5028 35.918C70.0828 35.702 69.6208 35.594 69.1168 35.594C68.3128 35.594 67.6408 35.84 67.1008 36.332C66.5608 36.824 66.2668 37.55 66.2188 38.51H71.8528ZM77.9561 36.026C78.2921 35.378 78.7721 34.868 79.3961 34.496C80.0201 34.112 80.7401 33.92 81.5561 33.92V36.152H80.9441C80.0441 36.152 79.3181 36.374 78.7661 36.818C78.2261 37.25 77.9561 37.97 77.9561 38.978V44H75.9041V34.082H77.9561V36.026ZM87.1616 41.876L89.9696 34.082H92.1656L88.3856 44H85.9016L82.1216 34.082H84.3176L87.1616 41.876ZM102.892 38.564C102.892 38.9 102.868 39.194 102.82 39.446H95.1876C95.2236 40.466 95.5056 41.222 96.0336 41.714C96.5616 42.206 97.2156 42.452 97.9956 42.452C98.6796 42.452 99.2556 42.278 99.7236 41.93C100.204 41.582 100.498 41.12 100.606 40.544H102.802C102.67 41.24 102.394 41.858 101.974 42.398C101.554 42.938 101.008 43.364 100.336 43.676C99.6636 43.976 98.9136 44.126 98.0856 44.126C97.1256 44.126 96.2736 43.922 95.5296 43.514C94.7976 43.106 94.2216 42.518 93.8016 41.75C93.3816 40.982 93.1716 40.076 93.1716 39.032C93.1716 38 93.3816 37.1 93.8016 36.332C94.2216 35.564 94.7976 34.976 95.5296 34.568C96.2736 34.16 97.1256 33.956 98.0856 33.956C99.0576 33.956 99.9036 34.16 100.624 34.568C101.356 34.964 101.914 35.516 102.298 36.224C102.694 36.92 102.892 37.7 102.892 38.564ZM100.822 38.51C100.846 37.862 100.732 37.322 100.48 36.89C100.24 36.446 99.9036 36.122 99.4716 35.918C99.0516 35.702 98.5896 35.594 98.0856 35.594C97.2816 35.594 96.6096 35.84 96.0696 36.332C95.5296 36.824 95.2356 37.55 95.1876 38.51H100.822ZM106.349 42.272H111.443V44H104.081V42.362L108.905 35.81H104.207V34.082H111.263V35.72L106.349 42.272ZM130.529 31.49V44H128.459V34.622L124.841 44H123.041L119.405 34.622V44H117.353V31.49H119.837L123.977 41.48L128.045 31.49H130.529ZM136.976 33.956C137.876 33.956 138.644 34.178 139.28 34.622C139.916 35.066 140.366 35.654 140.63 36.386V34.082H142.682V44H140.63V41.696C140.366 42.428 139.916 43.016 139.28 43.46C138.644 43.904 137.876 44.126 136.976 44.126C136.112 44.126 135.338 43.922 134.654 43.514C133.982 43.106 133.454 42.518 133.07 41.75C132.686 40.982 132.494 40.076 132.494 39.032C132.494 38 132.686 37.1 133.07 36.332C133.454 35.564 133.982 34.976 134.654 34.568C135.338 34.16 136.112 33.956 136.976 33.956ZM137.606 35.756C136.694 35.756 135.962 36.05 135.41 36.638C134.87 37.214 134.6 38.012 134.6 39.032C134.6 40.052 134.87 40.856 135.41 41.444C135.962 42.02 136.694 42.308 137.606 42.308C138.182 42.308 138.698 42.176 139.154 41.912C139.61 41.636 139.97 41.252 140.234 40.76C140.498 40.268 140.63 39.692 140.63 39.032C140.63 38.384 140.498 37.814 140.234 37.322C139.97 36.818 139.61 36.434 139.154 36.17C138.698 35.894 138.182 35.756 137.606 35.756ZM144.856 31.202C144.856 30.854 144.976 30.566 145.216 30.338C145.456 30.11 145.774 29.996 146.17 29.996C146.566 29.996 146.884 30.11 147.124 30.338C147.376 30.566 147.502 30.854 147.502 31.202C147.502 31.55 147.376 31.832 147.124 32.048C146.884 32.264 146.566 32.372 146.17 32.372C145.774 32.372 145.456 32.264 145.216 32.048C144.976 31.832 144.856 31.55 144.856 31.202ZM147.196 34.082V44H145.144V34.082H147.196ZM155.224 33.92C156.376 33.92 157.3 34.292 157.996 35.036C158.692 35.78 159.04 36.842 159.04 38.222V44H156.988V38.438C156.988 37.55 156.76 36.866 156.304 36.386C155.848 35.894 155.224 35.648 154.432 35.648C153.616 35.648 152.962 35.912 152.47 36.44C151.978 36.956 151.732 37.718 151.732 38.726V44H149.68V34.082H151.732V36.26C151.996 35.516 152.44 34.94 153.063 34.532C153.688 34.124 154.408 33.92 155.224 33.92ZM166.425 42.218V44H165.165C164.109 44 163.305 43.748 162.753 43.244C162.213 42.728 161.943 41.876 161.943 40.688V35.828H160.521V34.082H161.943V31.616H164.013V34.082H166.407V35.828H164.013V40.724C164.013 41.288 164.115 41.678 164.319 41.894C164.535 42.11 164.907 42.218 165.435 42.218H166.425ZM177.563 38.564C177.563 38.9 177.539 39.194 177.491 39.446H169.859C169.895 40.466 170.177 41.222 170.705 41.714C171.233 42.206 171.887 42.452 172.667 42.452C173.351 42.452 173.927 42.278 174.395 41.93C174.875 41.582 175.169 41.12 175.277 40.544H177.473C177.341 41.24 177.065 41.858 176.645 42.398C176.225 42.938 175.679 43.364 175.007 43.676C174.335 43.976 173.585 44.126 172.757 44.126C171.797 44.126 170.945 43.922 170.201 43.514C169.469 43.106 168.893 42.518 168.473 41.75C168.053 40.982 167.843 40.076 167.843 39.032C167.843 38 168.053 37.1 168.473 36.332C168.893 35.564 169.469 34.976 170.201 34.568C170.945 34.16 171.797 33.956 172.757 33.956C173.729 33.956 174.575 34.16 175.295 34.568C176.027 34.964 176.585 35.516 176.969 36.224C177.365 36.92 177.563 37.7 177.563 38.564ZM175.493 38.51C175.517 37.862 175.403 37.322 175.151 36.89C174.911 36.446 174.575 36.122 174.143 35.918C173.723 35.702 173.261 35.594 172.757 35.594C171.953 35.594 171.281 35.84 170.741 36.332C170.201 36.824 169.907 37.55 169.859 38.51H175.493ZM185.089 33.92C186.241 33.92 187.165 34.292 187.861 35.036C188.557 35.78 188.905 36.842 188.905 38.222V44H186.853V38.438C186.853 37.55 186.625 36.866 186.169 36.386C185.713 35.894 185.089 35.648 184.297 35.648C183.481 35.648 182.827 35.912 182.335 36.44C181.843 36.956 181.597 37.718 181.597 38.726V44H179.545V34.082H181.597V36.26C181.861 35.516 182.305 34.94 182.929 34.532C183.553 34.124 184.273 33.92 185.089 33.92ZM195.283 33.956C196.183 33.956 196.951 34.178 197.587 34.622C198.223 35.066 198.673 35.654 198.937 36.386V34.082H200.989V44H198.937V41.696C198.673 42.428 198.223 43.016 197.587 43.46C196.951 43.904 196.183 44.126 195.283 44.126C194.419 44.126 193.645 43.922 192.961 43.514C192.289 43.106 191.761 42.518 191.377 41.75C190.993 40.982 190.801 40.076 190.801 39.032C190.801 38 190.993 37.1 191.377 36.332C191.761 35.564 192.289 34.976 192.961 34.568C193.645 34.16 194.419 33.956 195.283 33.956ZM195.913 35.756C195.001 35.756 194.269 36.05 193.717 36.638C193.177 37.214 192.907 38.012 192.907 39.032C192.907 40.052 193.177 40.856 193.717 41.444C194.269 42.02 195.001 42.308 195.913 42.308C196.489 42.308 197.005 42.176 197.461 41.912C197.917 41.636 198.277 41.252 198.541 40.76C198.805 40.268 198.937 39.692 198.937 39.032C198.937 38.384 198.805 37.814 198.541 37.322C198.277 36.818 197.917 36.434 197.461 36.17C197.005 35.894 196.489 35.756 195.913 35.756ZM208.995 33.92C210.147 33.92 211.071 34.292 211.767 35.036C212.463 35.78 212.811 36.842 212.811 38.222V44H210.759V38.438C210.759 37.55 210.531 36.866 210.075 36.386C209.619 35.894 208.995 35.648 208.203 35.648C207.387 35.648 206.733 35.912 206.241 36.44C205.749 36.956 205.503 37.718 205.503 38.726V44H203.451V34.082H205.503V36.26C205.767 35.516 206.211 34.94 206.835 34.532C207.459 34.124 208.179 33.92 208.995 33.92ZM220.197 42.218V44H218.937C217.881 44 217.077 43.748 216.525 43.244C215.985 42.728 215.715 41.876 215.715 40.688V35.828H214.293V34.082H215.715V31.616H217.785V34.082H220.179V35.828H217.785V40.724C217.785 41.288 217.887 41.678 218.091 41.894C218.307 42.11 218.679 42.218 219.207 42.218H220.197Z" fill="white"/>
<path d="M247.75 32V41.75C247.75 41.9489 247.671 42.1397 247.531 42.2803C247.39 42.421 247.199 42.5 247 42.5C246.802 42.5 246.611 42.421 246.47 42.2803C246.329 42.1397 246.25 41.9489 246.25 41.75V33.8103L235.531 44.5306C235.39 44.6714 235.199 44.7504 235 44.7504C234.801 44.7504 234.611 44.6714 234.47 44.5306C234.329 44.3899 234.25 44.199 234.25 44C234.25 43.801 234.329 43.6101 234.47 43.4694L245.19 32.75H237.25C237.052 32.75 236.861 32.671 236.72 32.5303C236.579 32.3897 236.5 32.1989 236.5 32C236.5 31.8011 236.579 31.6103 236.72 31.4697C236.861 31.329 237.052 31.25 237.25 31.25H247C247.199 31.25 247.39 31.329 247.531 31.4697C247.671 31.6103 247.75 31.8011 247.75 32Z" fill="white"/>
<rect x="16" y="72" width="262" height="44" rx="22" fill="#CA3E1B"/>
<path d="M39.848 100L36.968 94.996H35.402V100H33.35V87.49H37.67C38.63 87.49 39.44 87.658 40.1 87.994C40.772 88.33 41.27 88.78 41.594 89.344C41.93 89.908 42.098 90.538 42.098 91.234C42.098 92.05 41.858 92.794 41.378 93.466C40.91 94.126 40.184 94.576 39.2 94.816L42.296 100H39.848ZM35.402 93.358H37.67C38.438 93.358 39.014 93.166 39.398 92.782C39.794 92.398 39.992 91.882 39.992 91.234C39.992 90.586 39.8 90.082 39.416 89.722C39.032 89.35 38.45 89.164 37.67 89.164H35.402V93.358ZM53.813 94.798C53.813 95.17 53.789 95.506 53.741 95.806H46.163C46.223 96.598 46.517 97.234 47.045 97.714C47.573 98.194 48.221 98.434 48.989 98.434C50.093 98.434 50.873 97.972 51.329 97.048H53.543C53.243 97.96 52.697 98.71 51.905 99.298C51.125 99.874 50.153 100.162 48.989 100.162C48.041 100.162 47.189 99.952 46.433 99.532C45.689 99.1 45.101 98.5 44.669 97.732C44.249 96.952 44.039 96.052 44.039 95.032C44.039 94.012 44.243 93.118 44.651 92.35C45.071 91.57 45.653 90.97 46.397 90.55C47.153 90.13 48.017 89.92 48.989 89.92C49.925 89.92 50.759 90.124 51.491 90.532C52.223 90.94 52.793 91.516 53.201 92.26C53.609 92.992 53.813 93.838 53.813 94.798ZM51.671 94.15C51.659 93.394 51.389 92.788 50.861 92.332C50.333 91.876 49.679 91.648 48.899 91.648C48.191 91.648 47.585 91.876 47.081 92.332C46.577 92.776 46.277 93.382 46.181 94.15H51.671ZM50.789 87.418L46.811 89.38V87.868L50.789 85.672V87.418ZM59.4324 100.162C58.6524 100.162 57.9504 100.024 57.3264 99.748C56.7144 99.46 56.2284 99.076 55.8684 98.596C55.5084 98.104 55.3164 97.558 55.2924 96.958H57.4164C57.4524 97.378 57.6504 97.732 58.0104 98.02C58.3824 98.296 58.8444 98.434 59.3964 98.434C59.9724 98.434 60.4164 98.326 60.7284 98.11C61.0524 97.882 61.2144 97.594 61.2144 97.246C61.2144 96.874 61.0344 96.598 60.6744 96.418C60.3264 96.238 59.7684 96.04 59.0004 95.824C58.2564 95.62 57.6504 95.422 57.1824 95.23C56.7144 95.038 56.3064 94.744 55.9584 94.348C55.6224 93.952 55.4544 93.43 55.4544 92.782C55.4544 92.254 55.6104 91.774 55.9224 91.342C56.2344 90.898 56.6784 90.55 57.2544 90.298C57.8424 90.046 58.5144 89.92 59.2704 89.92C60.3984 89.92 61.3044 90.208 61.9884 90.784C62.6844 91.348 63.0564 92.122 63.1044 93.106H61.0524C61.0164 92.662 60.8364 92.308 60.5124 92.044C60.1884 91.78 59.7504 91.648 59.1984 91.648C58.6584 91.648 58.2444 91.75 57.9564 91.954C57.6684 92.158 57.5244 92.428 57.5244 92.764C57.5244 93.028 57.6204 93.25 57.8124 93.43C58.0044 93.61 58.2384 93.754 58.5144 93.862C58.7904 93.958 59.1984 94.084 59.7384 94.24C60.4584 94.432 61.0464 94.63 61.5024 94.834C61.9704 95.026 62.3724 95.314 62.7084 95.698C63.0444 96.082 63.2184 96.592 63.2304 97.228C63.2304 97.792 63.0744 98.296 62.7624 98.74C62.4504 99.184 62.0064 99.532 61.4304 99.784C60.8664 100.036 60.2004 100.162 59.4324 100.162ZM74.5377 94.798C74.5377 95.17 74.5137 95.506 74.4657 95.806H66.8877C66.9477 96.598 67.2417 97.234 67.7697 97.714C68.2977 98.194 68.9457 98.434 69.7137 98.434C70.8177 98.434 71.5977 97.972 72.0537 97.048H74.2677C73.9677 97.96 73.4217 98.71 72.6297 99.298C71.8497 99.874 70.8777 100.162 69.7137 100.162C68.7657 100.162 67.9137 99.952 67.1577 99.532C66.4137 99.1 65.8257 98.5 65.3937 97.732C64.9737 96.952 64.7637 96.052 64.7637 95.032C64.7637 94.012 64.9677 93.118 65.3757 92.35C65.7957 91.57 66.3777 90.97 67.1217 90.55C67.8777 90.13 68.7417 89.92 69.7137 89.92C70.6497 89.92 71.4837 90.124 72.2157 90.532C72.9477 90.94 73.5177 91.516 73.9257 92.26C74.3337 92.992 74.5377 93.838 74.5377 94.798ZM72.3957 94.15C72.3837 93.394 72.1137 92.788 71.5857 92.332C71.0577 91.876 70.4037 91.648 69.6237 91.648C68.9157 91.648 68.3097 91.876 67.8057 92.332C67.3017 92.776 67.0017 93.382 66.9057 94.15H72.3957ZM78.609 91.522C78.909 91.018 79.305 90.628 79.797 90.352C80.301 90.064 80.895 89.92 81.579 89.92V92.044H81.057C80.253 92.044 79.641 92.248 79.221 92.656C78.813 93.064 78.609 93.772 78.609 94.78V100H76.557V90.082H78.609V91.522ZM87.2992 98.164L90.1072 90.082H92.2852L88.5052 100H86.0572L82.2952 90.082H84.4912L87.2992 98.164ZM102.926 94.798C102.926 95.17 102.902 95.506 102.854 95.806H95.2763C95.3363 96.598 95.6303 97.234 96.1583 97.714C96.6863 98.194 97.3343 98.434 98.1023 98.434C99.2063 98.434 99.9863 97.972 100.442 97.048H102.656C102.356 97.96 101.81 98.71 101.018 99.298C100.238 99.874 99.2663 100.162 98.1023 100.162C97.1543 100.162 96.3023 99.952 95.5463 99.532C94.8023 99.1 94.2143 98.5 93.7823 97.732C93.3623 96.952 93.1523 96.052 93.1523 95.032C93.1523 94.012 93.3563 93.118 93.7643 92.35C94.1843 91.57 94.7663 90.97 95.5103 90.55C96.2663 90.13 97.1303 89.92 98.1023 89.92C99.0383 89.92 99.8723 90.124 100.604 90.532C101.336 90.94 101.906 91.516 102.314 92.26C102.722 92.992 102.926 93.838 102.926 94.798ZM100.784 94.15C100.772 93.394 100.502 92.788 99.9743 92.332C99.4463 91.876 98.7923 91.648 98.0123 91.648C97.3043 91.648 96.6983 91.876 96.1943 92.332C95.6903 92.776 95.3903 93.382 95.2943 94.15H100.784ZM106.764 98.326H111.264V100H104.388V98.326L108.906 91.756H104.388V90.082H111.264V91.756L106.764 98.326ZM131.27 87.49V100H129.218V91.432L125.402 100H123.98L120.146 91.432V100H118.094V87.49H120.308L124.7 97.3L129.074 87.49H131.27ZM133.283 94.996C133.283 94 133.487 93.118 133.895 92.35C134.315 91.582 134.879 90.988 135.587 90.568C136.307 90.136 137.099 89.92 137.963 89.92C138.743 89.92 139.421 90.076 139.997 90.388C140.585 90.688 141.053 91.066 141.401 91.522V90.082H143.471V100H141.401V98.524C141.053 98.992 140.579 99.382 139.979 99.694C139.379 100.006 138.695 100.162 137.927 100.162C137.075 100.162 136.295 99.946 135.587 99.514C134.879 99.07 134.315 98.458 133.895 97.678C133.487 96.886 133.283 95.992 133.283 94.996ZM141.401 95.032C141.401 94.348 141.257 93.754 140.969 93.25C140.693 92.746 140.327 92.362 139.871 92.098C139.415 91.834 138.923 91.702 138.395 91.702C137.867 91.702 137.375 91.834 136.919 92.098C136.463 92.35 136.091 92.728 135.803 93.232C135.527 93.724 135.389 94.312 135.389 94.996C135.389 95.68 135.527 96.28 135.803 96.796C136.091 97.312 136.463 97.708 136.919 97.984C137.387 98.248 137.879 98.38 138.395 98.38C138.923 98.38 139.415 98.248 139.871 97.984C140.327 97.72 140.693 97.336 140.969 96.832C141.257 96.316 141.401 95.716 141.401 95.032ZM147.21 88.768C146.838 88.768 146.526 88.642 146.274 88.39C146.022 88.138 145.896 87.826 145.896 87.454C145.896 87.082 146.022 86.77 146.274 86.518C146.526 86.266 146.838 86.14 147.21 86.14C147.57 86.14 147.876 86.266 148.128 86.518C148.38 86.77 148.506 87.082 148.506 87.454C148.506 87.826 148.38 88.138 148.128 88.39C147.876 88.642 147.57 88.768 147.21 88.768ZM148.218 90.082V100H146.166V90.082H148.218ZM155.917 89.92C156.697 89.92 157.393 90.082 158.005 90.406C158.629 90.73 159.115 91.21 159.463 91.846C159.811 92.482 159.985 93.25 159.985 94.15V100H157.951V94.456C157.951 93.568 157.729 92.89 157.285 92.422C156.841 91.942 156.235 91.702 155.467 91.702C154.699 91.702 154.087 91.942 153.631 92.422C153.187 92.89 152.965 93.568 152.965 94.456V100H150.913V90.082H152.965V91.216C153.301 90.808 153.727 90.49 154.243 90.262C154.771 90.034 155.329 89.92 155.917 89.92ZM164.996 91.756V97.246C164.996 97.618 165.08 97.888 165.248 98.056C165.428 98.212 165.728 98.29 166.148 98.29H167.408V100H165.788C164.864 100 164.156 99.784 163.664 99.352C163.172 98.92 162.926 98.218 162.926 97.246V91.756H161.756V90.082H162.926V87.616H164.996V90.082H167.408V91.756H164.996ZM178.389 94.798C178.389 95.17 178.365 95.506 178.317 95.806H170.739C170.799 96.598 171.093 97.234 171.621 97.714C172.149 98.194 172.797 98.434 173.565 98.434C174.669 98.434 175.449 97.972 175.905 97.048H178.119C177.819 97.96 177.273 98.71 176.481 99.298C175.701 99.874 174.729 100.162 173.565 100.162C172.617 100.162 171.765 99.952 171.009 99.532C170.265 99.1 169.677 98.5 169.245 97.732C168.825 96.952 168.615 96.052 168.615 95.032C168.615 94.012 168.819 93.118 169.227 92.35C169.647 91.57 170.229 90.97 170.973 90.55C171.729 90.13 172.593 89.92 173.565 89.92C174.501 89.92 175.335 90.124 176.067 90.532C176.799 90.94 177.369 91.516 177.777 92.26C178.185 92.992 178.389 93.838 178.389 94.798ZM176.247 94.15C176.235 93.394 175.965 92.788 175.437 92.332C174.909 91.876 174.255 91.648 173.475 91.648C172.767 91.648 172.161 91.876 171.657 92.332C171.153 92.776 170.853 93.382 170.757 94.15H176.247ZM185.413 89.92C186.193 89.92 186.889 90.082 187.501 90.406C188.125 90.73 188.611 91.21 188.959 91.846C189.307 92.482 189.481 93.25 189.481 94.15V100H187.447V94.456C187.447 93.568 187.225 92.89 186.781 92.422C186.337 91.942 185.731 91.702 184.963 91.702C184.195 91.702 183.583 91.942 183.127 92.422C182.683 92.89 182.461 93.568 182.461 94.456V100H180.409V90.082H182.461V91.216C182.797 90.808 183.223 90.49 183.739 90.262C184.267 90.034 184.825 89.92 185.413 89.92ZM191.414 94.996C191.414 94 191.618 93.118 192.026 92.35C192.446 91.582 193.01 90.988 193.718 90.568C194.438 90.136 195.23 89.92 196.094 89.92C196.874 89.92 197.552 90.076 198.128 90.388C198.716 90.688 199.184 91.066 199.532 91.522V90.082H201.602V100H199.532V98.524C199.184 98.992 198.71 99.382 198.11 99.694C197.51 100.006 196.826 100.162 196.058 100.162C195.206 100.162 194.426 99.946 193.718 99.514C193.01 99.07 192.446 98.458 192.026 97.678C191.618 96.886 191.414 95.992 191.414 94.996ZM199.532 95.032C199.532 94.348 199.388 93.754 199.1 93.25C198.824 92.746 198.458 92.362 198.002 92.098C197.546 91.834 197.054 91.702 196.526 91.702C195.998 91.702 195.506 91.834 195.05 92.098C194.594 92.35 194.222 92.728 193.934 93.232C193.658 93.724 193.52 94.312 193.52 94.996C193.52 95.68 193.658 96.28 193.934 96.796C194.222 97.312 194.594 97.708 195.05 97.984C195.518 98.248 196.01 98.38 196.526 98.38C197.054 98.38 197.546 98.248 198.002 97.984C198.458 97.72 198.824 97.336 199.1 96.832C199.388 96.316 199.532 95.716 199.532 95.032ZM209.301 89.92C210.081 89.92 210.777 90.082 211.389 90.406C212.013 90.73 212.499 91.21 212.847 91.846C213.195 92.482 213.369 93.25 213.369 94.15V100H211.335V94.456C211.335 93.568 211.113 92.89 210.669 92.422C210.225 91.942 209.619 91.702 208.851 91.702C208.083 91.702 207.471 91.942 207.015 92.422C206.571 92.89 206.349 93.568 206.349 94.456V100H204.297V90.082H206.349V91.216C206.685 90.808 207.111 90.49 207.627 90.262C208.155 90.034 208.713 89.92 209.301 89.92ZM228.745 87.49V89.164H225.415V100H223.363V89.164H220.015V87.49H228.745Z" fill="white"/>
<path d="M256.75 88V97.75C256.75 97.9489 256.671 98.1397 256.531 98.2803C256.39 98.421 256.199 98.5 256 98.5C255.802 98.5 255.611 98.421 255.47 98.2803C255.329 98.1397 255.25 97.9489 255.25 97.75V89.8103L244.531 100.531C244.39 100.671 244.199 100.75 244 100.75C243.801 100.75 243.611 100.671 243.47 100.531C243.329 100.39 243.25 100.199 243.25 100C243.25 99.801 243.329 99.6101 243.47 99.4694L254.19 88.75H246.25C246.052 88.75 245.861 88.671 245.72 88.5303C245.579 88.3897 245.5 88.1989 245.5 88C245.5 87.8011 245.579 87.6103 245.72 87.4697C245.861 87.329 246.052 87.25 246.25 87.25H256C256.199 87.25 256.39 87.329 256.531 87.4697C256.671 87.6103 256.75 87.8011 256.75 88Z" fill="white"/>
</svg>
