<svg width="281" height="124" viewBox="0 0 281 124" fill="none" xmlns="http://www.w3.org/2000/svg">
<rect x="0.5" y="0.5" width="280" height="123" rx="4.5" stroke="#9747FF" stroke-dasharray="10 5"/>
<g clip-path="url(#clip0_0_4021)">
<rect x="16" y="16" width="249" height="44" rx="22" fill="white"/>
<rect x="16" y="16" width="222" height="40" rx="20" fill="white"/>
<path d="M39.92 44L36.752 38.924H35.294V44H33.242V31.292H37.724C39.176 31.292 40.274 31.646 41.018 32.354C41.774 33.062 42.152 33.998 42.152 35.162C42.152 36.158 41.87 36.974 41.306 37.61C40.754 38.246 39.95 38.654 38.894 38.834L42.224 44H39.92ZM35.294 37.466H37.562C39.218 37.466 40.046 36.734 40.046 35.27C40.046 34.574 39.842 34.034 39.434 33.65C39.038 33.254 38.414 33.056 37.562 33.056H35.294V37.466ZM53.2158 38.564C53.2158 38.9 53.1918 39.194 53.1438 39.446H45.5118C45.5478 40.466 45.8298 41.222 46.3578 41.714C46.8858 42.206 47.5398 42.452 48.3198 42.452C49.0038 42.452 49.5798 42.278 50.0478 41.93C50.5278 41.582 50.8218 41.12 50.9298 40.544H53.1258C52.9938 41.24 52.7178 41.858 52.2978 42.398C51.8778 42.938 51.3318 43.364 50.6598 43.676C49.9878 43.976 49.2378 44.126 48.4098 44.126C47.4498 44.126 46.5978 43.922 45.8538 43.514C45.1218 43.106 44.5458 42.518 44.1258 41.75C43.7058 40.982 43.4958 40.076 43.4958 39.032C43.4958 38 43.7058 37.1 44.1258 36.332C44.5458 35.564 45.1218 34.976 45.8538 34.568C46.5978 34.16 47.4498 33.956 48.4098 33.956C49.3818 33.956 50.2278 34.16 50.9478 34.568C51.6798 34.964 52.2378 35.516 52.6218 36.224C53.0178 36.92 53.2158 37.7 53.2158 38.564ZM51.1458 38.51C51.1698 37.862 51.0558 37.322 50.8038 36.89C50.5638 36.446 50.2278 36.122 49.7958 35.918C49.3758 35.702 48.9138 35.594 48.4098 35.594C47.6058 35.594 46.9338 35.84 46.3938 36.332C45.8538 36.824 45.5598 37.55 45.5118 38.51H51.1458ZM51.2178 31.274L47.2398 33.308V31.868L51.2178 29.672V31.274ZM58.4551 33.956C59.6191 33.956 60.5491 34.256 61.2451 34.856C61.9531 35.444 62.3851 36.236 62.5411 37.232H60.5971C60.5131 36.692 60.2791 36.26 59.8951 35.936C59.5231 35.6 59.0251 35.432 58.4011 35.432C57.8851 35.432 57.4831 35.558 57.1951 35.81C56.9191 36.05 56.7811 36.38 56.7811 36.8C56.7811 37.112 56.8831 37.364 57.0871 37.556C57.2911 37.748 57.5431 37.898 57.8431 38.006C58.1551 38.114 58.5931 38.234 59.1571 38.366C59.9011 38.534 60.5011 38.708 60.9571 38.888C61.4251 39.068 61.8211 39.356 62.1451 39.752C62.4811 40.136 62.6491 40.664 62.6491 41.336C62.6491 42.164 62.3311 42.836 61.6951 43.352C61.0711 43.868 60.2251 44.126 59.1571 44.126C57.9211 44.126 56.9191 43.838 56.1511 43.262C55.3951 42.686 54.9391 41.882 54.7831 40.85H56.7811C56.8411 41.39 57.0811 41.828 57.5011 42.164C57.9211 42.5 58.4731 42.668 59.1571 42.668C59.6491 42.668 60.0331 42.542 60.3091 42.29C60.5971 42.026 60.7411 41.696 60.7411 41.3C60.7411 40.952 60.6331 40.676 60.4171 40.472C60.2011 40.268 59.9311 40.112 59.6071 40.004C59.2831 39.884 58.8391 39.764 58.2751 39.644C57.5551 39.476 56.9671 39.308 56.5111 39.14C56.0671 38.972 55.6831 38.702 55.3591 38.33C55.0471 37.946 54.8911 37.43 54.8911 36.782C54.8911 35.942 55.2031 35.264 55.8271 34.748C56.4631 34.22 57.3391 33.956 58.4551 33.956ZM73.9228 38.564C73.9228 38.9 73.8988 39.194 73.8508 39.446H66.2188C66.2548 40.466 66.5368 41.222 67.0648 41.714C67.5928 42.206 68.2468 42.452 69.0268 42.452C69.7108 42.452 70.2868 42.278 70.7548 41.93C71.2348 41.582 71.5288 41.12 71.6368 40.544H73.8328C73.7008 41.24 73.4248 41.858 73.0048 42.398C72.5848 42.938 72.0388 43.364 71.3668 43.676C70.6948 43.976 69.9448 44.126 69.1168 44.126C68.1568 44.126 67.3048 43.922 66.5608 43.514C65.8288 43.106 65.2528 42.518 64.8328 41.75C64.4128 40.982 64.2028 40.076 64.2028 39.032C64.2028 38 64.4128 37.1 64.8328 36.332C65.2528 35.564 65.8288 34.976 66.5608 34.568C67.3048 34.16 68.1568 33.956 69.1168 33.956C70.0888 33.956 70.9348 34.16 71.6548 34.568C72.3868 34.964 72.9448 35.516 73.3288 36.224C73.7248 36.92 73.9228 37.7 73.9228 38.564ZM71.8528 38.51C71.8768 37.862 71.7628 37.322 71.5108 36.89C71.2708 36.446 70.9348 36.122 70.5028 35.918C70.0828 35.702 69.6208 35.594 69.1168 35.594C68.3128 35.594 67.6408 35.84 67.1008 36.332C66.5608 36.824 66.2668 37.55 66.2188 38.51H71.8528ZM77.9561 36.026C78.2921 35.378 78.7721 34.868 79.3961 34.496C80.0201 34.112 80.7401 33.92 81.5561 33.92V36.152H80.9441C80.0441 36.152 79.3181 36.374 78.7661 36.818C78.2261 37.25 77.9561 37.97 77.9561 38.978V44H75.9041V34.082H77.9561V36.026ZM87.1616 41.876L89.9696 34.082H92.1656L88.3856 44H85.9016L82.1216 34.082H84.3176L87.1616 41.876ZM102.892 38.564C102.892 38.9 102.868 39.194 102.82 39.446H95.1876C95.2236 40.466 95.5056 41.222 96.0336 41.714C96.5616 42.206 97.2156 42.452 97.9956 42.452C98.6796 42.452 99.2556 42.278 99.7236 41.93C100.204 41.582 100.498 41.12 100.606 40.544H102.802C102.67 41.24 102.394 41.858 101.974 42.398C101.554 42.938 101.008 43.364 100.336 43.676C99.6636 43.976 98.9136 44.126 98.0856 44.126C97.1256 44.126 96.2736 43.922 95.5296 43.514C94.7976 43.106 94.2216 42.518 93.8016 41.75C93.3816 40.982 93.1716 40.076 93.1716 39.032C93.1716 38 93.3816 37.1 93.8016 36.332C94.2216 35.564 94.7976 34.976 95.5296 34.568C96.2736 34.16 97.1256 33.956 98.0856 33.956C99.0576 33.956 99.9036 34.16 100.624 34.568C101.356 34.964 101.914 35.516 102.298 36.224C102.694 36.92 102.892 37.7 102.892 38.564ZM100.822 38.51C100.846 37.862 100.732 37.322 100.48 36.89C100.24 36.446 99.9036 36.122 99.4716 35.918C99.0516 35.702 98.5896 35.594 98.0856 35.594C97.2816 35.594 96.6096 35.84 96.0696 36.332C95.5296 36.824 95.2356 37.55 95.1876 38.51H100.822ZM106.349 42.272H111.443V44H104.081V42.362L108.905 35.81H104.207V34.082H111.263V35.72L106.349 42.272ZM130.529 31.49V44H128.459V34.622L124.841 44H123.041L119.405 34.622V44H117.353V31.49H119.837L123.977 41.48L128.045 31.49H130.529ZM136.976 33.956C137.876 33.956 138.644 34.178 139.28 34.622C139.916 35.066 140.366 35.654 140.63 36.386V34.082H142.682V44H140.63V41.696C140.366 42.428 139.916 43.016 139.28 43.46C138.644 43.904 137.876 44.126 136.976 44.126C136.112 44.126 135.338 43.922 134.654 43.514C133.982 43.106 133.454 42.518 133.07 41.75C132.686 40.982 132.494 40.076 132.494 39.032C132.494 38 132.686 37.1 133.07 36.332C133.454 35.564 133.982 34.976 134.654 34.568C135.338 34.16 136.112 33.956 136.976 33.956ZM137.606 35.756C136.694 35.756 135.962 36.05 135.41 36.638C134.87 37.214 134.6 38.012 134.6 39.032C134.6 40.052 134.87 40.856 135.41 41.444C135.962 42.02 136.694 42.308 137.606 42.308C138.182 42.308 138.698 42.176 139.154 41.912C139.61 41.636 139.97 41.252 140.234 40.76C140.498 40.268 140.63 39.692 140.63 39.032C140.63 38.384 140.498 37.814 140.234 37.322C139.97 36.818 139.61 36.434 139.154 36.17C138.698 35.894 138.182 35.756 137.606 35.756ZM144.856 31.202C144.856 30.854 144.976 30.566 145.216 30.338C145.456 30.11 145.774 29.996 146.17 29.996C146.566 29.996 146.884 30.11 147.124 30.338C147.376 30.566 147.502 30.854 147.502 31.202C147.502 31.55 147.376 31.832 147.124 32.048C146.884 32.264 146.566 32.372 146.17 32.372C145.774 32.372 145.456 32.264 145.216 32.048C144.976 31.832 144.856 31.55 144.856 31.202ZM147.196 34.082V44H145.144V34.082H147.196ZM155.224 33.92C156.376 33.92 157.3 34.292 157.996 35.036C158.692 35.78 159.04 36.842 159.04 38.222V44H156.988V38.438C156.988 37.55 156.76 36.866 156.304 36.386C155.848 35.894 155.224 35.648 154.432 35.648C153.616 35.648 152.962 35.912 152.47 36.44C151.978 36.956 151.732 37.718 151.732 38.726V44H149.68V34.082H151.732V36.26C151.996 35.516 152.44 34.94 153.063 34.532C153.688 34.124 154.408 33.92 155.224 33.92ZM166.425 42.218V44H165.165C164.109 44 163.305 43.748 162.753 43.244C162.213 42.728 161.943 41.876 161.943 40.688V35.828H160.521V34.082H161.943V31.616H164.013V34.082H166.407V35.828H164.013V40.724C164.013 41.288 164.115 41.678 164.319 41.894C164.535 42.11 164.907 42.218 165.435 42.218H166.425ZM177.563 38.564C177.563 38.9 177.539 39.194 177.491 39.446H169.859C169.895 40.466 170.177 41.222 170.705 41.714C171.233 42.206 171.887 42.452 172.667 42.452C173.351 42.452 173.927 42.278 174.395 41.93C174.875 41.582 175.169 41.12 175.277 40.544H177.473C177.341 41.24 177.065 41.858 176.645 42.398C176.225 42.938 175.679 43.364 175.007 43.676C174.335 43.976 173.585 44.126 172.757 44.126C171.797 44.126 170.945 43.922 170.201 43.514C169.469 43.106 168.893 42.518 168.473 41.75C168.053 40.982 167.843 40.076 167.843 39.032C167.843 38 168.053 37.1 168.473 36.332C168.893 35.564 169.469 34.976 170.201 34.568C170.945 34.16 171.797 33.956 172.757 33.956C173.729 33.956 174.575 34.16 175.295 34.568C176.027 34.964 176.585 35.516 176.969 36.224C177.365 36.92 177.563 37.7 177.563 38.564ZM175.493 38.51C175.517 37.862 175.403 37.322 175.151 36.89C174.911 36.446 174.575 36.122 174.143 35.918C173.723 35.702 173.261 35.594 172.757 35.594C171.953 35.594 171.281 35.84 170.741 36.332C170.201 36.824 169.907 37.55 169.859 38.51H175.493ZM185.089 33.92C186.241 33.92 187.165 34.292 187.861 35.036C188.557 35.78 188.905 36.842 188.905 38.222V44H186.853V38.438C186.853 37.55 186.625 36.866 186.169 36.386C185.713 35.894 185.089 35.648 184.297 35.648C183.481 35.648 182.827 35.912 182.335 36.44C181.843 36.956 181.597 37.718 181.597 38.726V44H179.545V34.082H181.597V36.26C181.861 35.516 182.305 34.94 182.929 34.532C183.553 34.124 184.273 33.92 185.089 33.92ZM195.283 33.956C196.183 33.956 196.951 34.178 197.587 34.622C198.223 35.066 198.673 35.654 198.937 36.386V34.082H200.989V44H198.937V41.696C198.673 42.428 198.223 43.016 197.587 43.46C196.951 43.904 196.183 44.126 195.283 44.126C194.419 44.126 193.645 43.922 192.961 43.514C192.289 43.106 191.761 42.518 191.377 41.75C190.993 40.982 190.801 40.076 190.801 39.032C190.801 38 190.993 37.1 191.377 36.332C191.761 35.564 192.289 34.976 192.961 34.568C193.645 34.16 194.419 33.956 195.283 33.956ZM195.913 35.756C195.001 35.756 194.269 36.05 193.717 36.638C193.177 37.214 192.907 38.012 192.907 39.032C192.907 40.052 193.177 40.856 193.717 41.444C194.269 42.02 195.001 42.308 195.913 42.308C196.489 42.308 197.005 42.176 197.461 41.912C197.917 41.636 198.277 41.252 198.541 40.76C198.805 40.268 198.937 39.692 198.937 39.032C198.937 38.384 198.805 37.814 198.541 37.322C198.277 36.818 197.917 36.434 197.461 36.17C197.005 35.894 196.489 35.756 195.913 35.756ZM208.995 33.92C210.147 33.92 211.071 34.292 211.767 35.036C212.463 35.78 212.811 36.842 212.811 38.222V44H210.759V38.438C210.759 37.55 210.531 36.866 210.075 36.386C209.619 35.894 208.995 35.648 208.203 35.648C207.387 35.648 206.733 35.912 206.241 36.44C205.749 36.956 205.503 37.718 205.503 38.726V44H203.451V34.082H205.503V36.26C205.767 35.516 206.211 34.94 206.835 34.532C207.459 34.124 208.179 33.92 208.995 33.92ZM220.197 42.218V44H218.937C217.881 44 217.077 43.748 216.525 43.244C215.985 42.728 215.715 41.876 215.715 40.688V35.828H214.293V34.082H215.715V31.616H217.785V34.082H220.179V35.828H217.785V40.724C217.785 41.288 217.887 41.678 218.091 41.894C218.307 42.11 218.679 42.218 219.207 42.218H220.197Z" fill="#562C2C"/>
<path d="M243.75 32V41.75C243.75 41.9489 243.671 42.1397 243.531 42.2803C243.39 42.421 243.199 42.5 243 42.5C242.802 42.5 242.611 42.421 242.47 42.2803C242.329 42.1397 242.25 41.9489 242.25 41.75V33.8103L231.531 44.5306C231.39 44.6714 231.199 44.7504 231 44.7504C230.801 44.7504 230.611 44.6714 230.47 44.5306C230.329 44.3899 230.25 44.199 230.25 44C230.25 43.801 230.329 43.6101 230.47 43.4694L241.19 32.75H233.25C233.052 32.75 232.861 32.671 232.72 32.5303C232.579 32.3897 232.5 32.1989 232.5 32C232.5 31.8011 232.579 31.6103 232.72 31.4697C232.861 31.329 233.052 31.25 233.25 31.25H243C243.199 31.25 243.39 31.329 243.531 31.4697C243.671 31.6103 243.75 31.8011 243.75 32Z" fill="#0E9594"/>
</g>
<rect x="16.75" y="16.75" width="247.5" height="42.5" rx="21.25" stroke="#562C2C" stroke-opacity="0.3" stroke-width="1.5"/>
<g clip-path="url(#clip1_0_4021)">
<rect x="16" y="68" width="249" height="44" rx="22" fill="white"/>
<rect x="16" y="68" width="222" height="40" rx="20" fill="white"/>
<circle cx="115.5" cy="134.5" r="163.5" fill="#F2542D"/>
<path d="M39.92 96L36.752 90.924H35.294V96H33.242V83.292H37.724C39.176 83.292 40.274 83.646 41.018 84.354C41.774 85.062 42.152 85.998 42.152 87.162C42.152 88.158 41.87 88.974 41.306 89.61C40.754 90.246 39.95 90.654 38.894 90.834L42.224 96H39.92ZM35.294 89.466H37.562C39.218 89.466 40.046 88.734 40.046 87.27C40.046 86.574 39.842 86.034 39.434 85.65C39.038 85.254 38.414 85.056 37.562 85.056H35.294V89.466ZM53.2158 90.564C53.2158 90.9 53.1918 91.194 53.1438 91.446H45.5118C45.5478 92.466 45.8298 93.222 46.3578 93.714C46.8858 94.206 47.5398 94.452 48.3198 94.452C49.0038 94.452 49.5798 94.278 50.0478 93.93C50.5278 93.582 50.8218 93.12 50.9298 92.544H53.1258C52.9938 93.24 52.7178 93.858 52.2978 94.398C51.8778 94.938 51.3318 95.364 50.6598 95.676C49.9878 95.976 49.2378 96.126 48.4098 96.126C47.4498 96.126 46.5978 95.922 45.8538 95.514C45.1218 95.106 44.5458 94.518 44.1258 93.75C43.7058 92.982 43.4958 92.076 43.4958 91.032C43.4958 90 43.7058 89.1 44.1258 88.332C44.5458 87.564 45.1218 86.976 45.8538 86.568C46.5978 86.16 47.4498 85.956 48.4098 85.956C49.3818 85.956 50.2278 86.16 50.9478 86.568C51.6798 86.964 52.2378 87.516 52.6218 88.224C53.0178 88.92 53.2158 89.7 53.2158 90.564ZM51.1458 90.51C51.1698 89.862 51.0558 89.322 50.8038 88.89C50.5638 88.446 50.2278 88.122 49.7958 87.918C49.3758 87.702 48.9138 87.594 48.4098 87.594C47.6058 87.594 46.9338 87.84 46.3938 88.332C45.8538 88.824 45.5598 89.55 45.5118 90.51H51.1458ZM51.2178 83.274L47.2398 85.308V83.868L51.2178 81.672V83.274ZM58.4551 85.956C59.6191 85.956 60.5491 86.256 61.2451 86.856C61.9531 87.444 62.3851 88.236 62.5411 89.232H60.5971C60.5131 88.692 60.2791 88.26 59.8951 87.936C59.5231 87.6 59.0251 87.432 58.4011 87.432C57.8851 87.432 57.4831 87.558 57.1951 87.81C56.9191 88.05 56.7811 88.38 56.7811 88.8C56.7811 89.112 56.8831 89.364 57.0871 89.556C57.2911 89.748 57.5431 89.898 57.8431 90.006C58.1551 90.114 58.5931 90.234 59.1571 90.366C59.9011 90.534 60.5011 90.708 60.9571 90.888C61.4251 91.068 61.8211 91.356 62.1451 91.752C62.4811 92.136 62.6491 92.664 62.6491 93.336C62.6491 94.164 62.3311 94.836 61.6951 95.352C61.0711 95.868 60.2251 96.126 59.1571 96.126C57.9211 96.126 56.9191 95.838 56.1511 95.262C55.3951 94.686 54.9391 93.882 54.7831 92.85H56.7811C56.8411 93.39 57.0811 93.828 57.5011 94.164C57.9211 94.5 58.4731 94.668 59.1571 94.668C59.6491 94.668 60.0331 94.542 60.3091 94.29C60.5971 94.026 60.7411 93.696 60.7411 93.3C60.7411 92.952 60.6331 92.676 60.4171 92.472C60.2011 92.268 59.9311 92.112 59.6071 92.004C59.2831 91.884 58.8391 91.764 58.2751 91.644C57.5551 91.476 56.9671 91.308 56.5111 91.14C56.0671 90.972 55.6831 90.702 55.3591 90.33C55.0471 89.946 54.8911 89.43 54.8911 88.782C54.8911 87.942 55.2031 87.264 55.8271 86.748C56.4631 86.22 57.3391 85.956 58.4551 85.956ZM73.9228 90.564C73.9228 90.9 73.8988 91.194 73.8508 91.446H66.2188C66.2548 92.466 66.5368 93.222 67.0648 93.714C67.5928 94.206 68.2468 94.452 69.0268 94.452C69.7108 94.452 70.2868 94.278 70.7548 93.93C71.2348 93.582 71.5288 93.12 71.6368 92.544H73.8328C73.7008 93.24 73.4248 93.858 73.0048 94.398C72.5848 94.938 72.0388 95.364 71.3668 95.676C70.6948 95.976 69.9448 96.126 69.1168 96.126C68.1568 96.126 67.3048 95.922 66.5608 95.514C65.8288 95.106 65.2528 94.518 64.8328 93.75C64.4128 92.982 64.2028 92.076 64.2028 91.032C64.2028 90 64.4128 89.1 64.8328 88.332C65.2528 87.564 65.8288 86.976 66.5608 86.568C67.3048 86.16 68.1568 85.956 69.1168 85.956C70.0888 85.956 70.9348 86.16 71.6548 86.568C72.3868 86.964 72.9448 87.516 73.3288 88.224C73.7248 88.92 73.9228 89.7 73.9228 90.564ZM71.8528 90.51C71.8768 89.862 71.7628 89.322 71.5108 88.89C71.2708 88.446 70.9348 88.122 70.5028 87.918C70.0828 87.702 69.6208 87.594 69.1168 87.594C68.3128 87.594 67.6408 87.84 67.1008 88.332C66.5608 88.824 66.2668 89.55 66.2188 90.51H71.8528ZM77.9561 88.026C78.2921 87.378 78.7721 86.868 79.3961 86.496C80.0201 86.112 80.7401 85.92 81.5561 85.92V88.152H80.9441C80.0441 88.152 79.3181 88.374 78.7661 88.818C78.2261 89.25 77.9561 89.97 77.9561 90.978V96H75.9041V86.082H77.9561V88.026ZM87.1616 93.876L89.9696 86.082H92.1656L88.3856 96H85.9016L82.1216 86.082H84.3176L87.1616 93.876ZM102.892 90.564C102.892 90.9 102.868 91.194 102.82 91.446H95.1876C95.2236 92.466 95.5056 93.222 96.0336 93.714C96.5616 94.206 97.2156 94.452 97.9956 94.452C98.6796 94.452 99.2556 94.278 99.7236 93.93C100.204 93.582 100.498 93.12 100.606 92.544H102.802C102.67 93.24 102.394 93.858 101.974 94.398C101.554 94.938 101.008 95.364 100.336 95.676C99.6636 95.976 98.9136 96.126 98.0856 96.126C97.1256 96.126 96.2736 95.922 95.5296 95.514C94.7976 95.106 94.2216 94.518 93.8016 93.75C93.3816 92.982 93.1716 92.076 93.1716 91.032C93.1716 90 93.3816 89.1 93.8016 88.332C94.2216 87.564 94.7976 86.976 95.5296 86.568C96.2736 86.16 97.1256 85.956 98.0856 85.956C99.0576 85.956 99.9036 86.16 100.624 86.568C101.356 86.964 101.914 87.516 102.298 88.224C102.694 88.92 102.892 89.7 102.892 90.564ZM100.822 90.51C100.846 89.862 100.732 89.322 100.48 88.89C100.24 88.446 99.9036 88.122 99.4716 87.918C99.0516 87.702 98.5896 87.594 98.0856 87.594C97.2816 87.594 96.6096 87.84 96.0696 88.332C95.5296 88.824 95.2356 89.55 95.1876 90.51H100.822ZM106.349 94.272H111.443V96H104.081V94.362L108.905 87.81H104.207V86.082H111.263V87.72L106.349 94.272ZM130.529 83.49V96H128.459V86.622L124.841 96H123.041L119.405 86.622V96H117.353V83.49H119.837L123.977 93.48L128.045 83.49H130.529ZM136.976 85.956C137.876 85.956 138.644 86.178 139.28 86.622C139.916 87.066 140.366 87.654 140.63 88.386V86.082H142.682V96H140.63V93.696C140.366 94.428 139.916 95.016 139.28 95.46C138.644 95.904 137.876 96.126 136.976 96.126C136.112 96.126 135.338 95.922 134.654 95.514C133.982 95.106 133.454 94.518 133.07 93.75C132.686 92.982 132.494 92.076 132.494 91.032C132.494 90 132.686 89.1 133.07 88.332C133.454 87.564 133.982 86.976 134.654 86.568C135.338 86.16 136.112 85.956 136.976 85.956ZM137.606 87.756C136.694 87.756 135.962 88.05 135.41 88.638C134.87 89.214 134.6 90.012 134.6 91.032C134.6 92.052 134.87 92.856 135.41 93.444C135.962 94.02 136.694 94.308 137.606 94.308C138.182 94.308 138.698 94.176 139.154 93.912C139.61 93.636 139.97 93.252 140.234 92.76C140.498 92.268 140.63 91.692 140.63 91.032C140.63 90.384 140.498 89.814 140.234 89.322C139.97 88.818 139.61 88.434 139.154 88.17C138.698 87.894 138.182 87.756 137.606 87.756ZM144.856 83.202C144.856 82.854 144.976 82.566 145.216 82.338C145.456 82.11 145.774 81.996 146.17 81.996C146.566 81.996 146.884 82.11 147.124 82.338C147.376 82.566 147.502 82.854 147.502 83.202C147.502 83.55 147.376 83.832 147.124 84.048C146.884 84.264 146.566 84.372 146.17 84.372C145.774 84.372 145.456 84.264 145.216 84.048C144.976 83.832 144.856 83.55 144.856 83.202ZM147.196 86.082V96H145.144V86.082H147.196ZM155.224 85.92C156.376 85.92 157.3 86.292 157.996 87.036C158.692 87.78 159.04 88.842 159.04 90.222V96H156.988V90.438C156.988 89.55 156.76 88.866 156.304 88.386C155.848 87.894 155.224 87.648 154.432 87.648C153.616 87.648 152.962 87.912 152.47 88.44C151.978 88.956 151.732 89.718 151.732 90.726V96H149.68V86.082H151.732V88.26C151.996 87.516 152.44 86.94 153.063 86.532C153.688 86.124 154.408 85.92 155.224 85.92ZM166.425 94.218V96H165.165C164.109 96 163.305 95.748 162.753 95.244C162.213 94.728 161.943 93.876 161.943 92.688V87.828H160.521V86.082H161.943V83.616H164.013V86.082H166.407V87.828H164.013V92.724C164.013 93.288 164.115 93.678 164.319 93.894C164.535 94.11 164.907 94.218 165.435 94.218H166.425ZM177.563 90.564C177.563 90.9 177.539 91.194 177.491 91.446H169.859C169.895 92.466 170.177 93.222 170.705 93.714C171.233 94.206 171.887 94.452 172.667 94.452C173.351 94.452 173.927 94.278 174.395 93.93C174.875 93.582 175.169 93.12 175.277 92.544H177.473C177.341 93.24 177.065 93.858 176.645 94.398C176.225 94.938 175.679 95.364 175.007 95.676C174.335 95.976 173.585 96.126 172.757 96.126C171.797 96.126 170.945 95.922 170.201 95.514C169.469 95.106 168.893 94.518 168.473 93.75C168.053 92.982 167.843 92.076 167.843 91.032C167.843 90 168.053 89.1 168.473 88.332C168.893 87.564 169.469 86.976 170.201 86.568C170.945 86.16 171.797 85.956 172.757 85.956C173.729 85.956 174.575 86.16 175.295 86.568C176.027 86.964 176.585 87.516 176.969 88.224C177.365 88.92 177.563 89.7 177.563 90.564ZM175.493 90.51C175.517 89.862 175.403 89.322 175.151 88.89C174.911 88.446 174.575 88.122 174.143 87.918C173.723 87.702 173.261 87.594 172.757 87.594C171.953 87.594 171.281 87.84 170.741 88.332C170.201 88.824 169.907 89.55 169.859 90.51H175.493ZM185.089 85.92C186.241 85.92 187.165 86.292 187.861 87.036C188.557 87.78 188.905 88.842 188.905 90.222V96H186.853V90.438C186.853 89.55 186.625 88.866 186.169 88.386C185.713 87.894 185.089 87.648 184.297 87.648C183.481 87.648 182.827 87.912 182.335 88.44C181.843 88.956 181.597 89.718 181.597 90.726V96H179.545V86.082H181.597V88.26C181.861 87.516 182.305 86.94 182.929 86.532C183.553 86.124 184.273 85.92 185.089 85.92ZM195.283 85.956C196.183 85.956 196.951 86.178 197.587 86.622C198.223 87.066 198.673 87.654 198.937 88.386V86.082H200.989V96H198.937V93.696C198.673 94.428 198.223 95.016 197.587 95.46C196.951 95.904 196.183 96.126 195.283 96.126C194.419 96.126 193.645 95.922 192.961 95.514C192.289 95.106 191.761 94.518 191.377 93.75C190.993 92.982 190.801 92.076 190.801 91.032C190.801 90 190.993 89.1 191.377 88.332C191.761 87.564 192.289 86.976 192.961 86.568C193.645 86.16 194.419 85.956 195.283 85.956ZM195.913 87.756C195.001 87.756 194.269 88.05 193.717 88.638C193.177 89.214 192.907 90.012 192.907 91.032C192.907 92.052 193.177 92.856 193.717 93.444C194.269 94.02 195.001 94.308 195.913 94.308C196.489 94.308 197.005 94.176 197.461 93.912C197.917 93.636 198.277 93.252 198.541 92.76C198.805 92.268 198.937 91.692 198.937 91.032C198.937 90.384 198.805 89.814 198.541 89.322C198.277 88.818 197.917 88.434 197.461 88.17C197.005 87.894 196.489 87.756 195.913 87.756ZM208.995 85.92C210.147 85.92 211.071 86.292 211.767 87.036C212.463 87.78 212.811 88.842 212.811 90.222V96H210.759V90.438C210.759 89.55 210.531 88.866 210.075 88.386C209.619 87.894 208.995 87.648 208.203 87.648C207.387 87.648 206.733 87.912 206.241 88.44C205.749 88.956 205.503 89.718 205.503 90.726V96H203.451V86.082H205.503V88.26C205.767 87.516 206.211 86.94 206.835 86.532C207.459 86.124 208.179 85.92 208.995 85.92ZM220.197 94.218V96H218.937C217.881 96 217.077 95.748 216.525 95.244C215.985 94.728 215.715 93.876 215.715 92.688V87.828H214.293V86.082H215.715V83.616H217.785V86.082H220.179V87.828H217.785V92.724C217.785 93.288 217.887 93.678 218.091 93.894C218.307 94.11 218.679 94.218 219.207 94.218H220.197Z" fill="white"/>
<path d="M243.75 84V93.75C243.75 93.9489 243.671 94.1397 243.531 94.2803C243.39 94.421 243.199 94.5 243 94.5C242.802 94.5 242.611 94.421 242.47 94.2803C242.329 94.1397 242.25 93.9489 242.25 93.75V85.8103L231.531 96.5306C231.39 96.6714 231.199 96.7504 231 96.7504C230.801 96.7504 230.611 96.6714 230.47 96.5306C230.329 96.3899 230.25 96.199 230.25 96C230.25 95.801 230.329 95.6101 230.47 95.4694L241.19 84.75H233.25C233.052 84.75 232.861 84.671 232.72 84.5303C232.579 84.3897 232.5 84.1989 232.5 84C232.5 83.8011 232.579 83.6103 232.72 83.4697C232.861 83.329 233.052 83.25 233.25 83.25H243C243.199 83.25 243.39 83.329 243.531 83.4697C243.671 83.6103 243.75 83.8011 243.75 84Z" fill="white"/>
</g>
<rect x="16.75" y="68.75" width="247.5" height="42.5" rx="21.25" stroke="#562C2C" stroke-opacity="0.3" stroke-width="1.5"/>
<defs>
<clipPath id="clip0_0_4021">
<rect x="16" y="16" width="249" height="44" rx="22" fill="white"/>
</clipPath>
<clipPath id="clip1_0_4021">
<rect x="16" y="68" width="249" height="44" rx="22" fill="white"/>
</clipPath>
</defs>
</svg>
