<svg width="232" height="144" viewBox="0 0 232 144" fill="none" xmlns="http://www.w3.org/2000/svg">
<rect x="0.5" y="0.5" width="231" height="143" rx="4.5" stroke="#9747FF" stroke-dasharray="10 5"/>
<rect x="16" y="16" width="200" height="48" rx="24" fill="white"/>
<rect x="16.5" y="16.5" width="199" height="47" rx="23.5" stroke="#562C2C" stroke-opacity="0.3"/>
<path d="M85.412 33.166C86.972 33.166 88.268 33.562 89.3 34.354C90.332 35.146 91.028 36.22 91.388 37.576H89.21C88.91 36.808 88.43 36.202 87.77 35.758C87.122 35.302 86.324 35.074 85.376 35.074C84.62 35.074 83.942 35.26 83.342 35.632C82.754 36.004 82.286 36.538 81.938 37.234C81.602 37.918 81.434 38.722 81.434 39.646C81.434 40.558 81.602 41.362 81.938 42.058C82.286 42.742 82.754 43.27 83.342 43.642C83.942 44.014 84.62 44.2 85.376 44.2C86.324 44.2 87.122 43.978 87.77 43.534C88.43 43.078 88.91 42.472 89.21 41.716H91.388C91.028 43.072 90.332 44.146 89.3 44.938C88.268 45.718 86.972 46.108 85.412 46.108C84.212 46.108 83.15 45.838 82.226 45.298C81.302 44.746 80.588 43.984 80.084 43.012C79.58 42.028 79.328 40.906 79.328 39.646C79.328 38.386 79.58 37.27 80.084 36.298C80.588 35.314 81.302 34.546 82.226 33.994C83.15 33.442 84.212 33.166 85.412 33.166ZM95.4874 32.68V46H93.4354V32.68H95.4874ZM107.187 40.564C107.187 40.9 107.163 41.194 107.115 41.446H99.4825C99.5185 42.466 99.8005 43.222 100.329 43.714C100.857 44.206 101.511 44.452 102.291 44.452C102.975 44.452 103.551 44.278 104.019 43.93C104.499 43.582 104.793 43.12 104.901 42.544H107.097C106.965 43.24 106.689 43.858 106.269 44.398C105.849 44.938 105.303 45.364 104.631 45.676C103.959 45.976 103.209 46.126 102.381 46.126C101.421 46.126 100.569 45.922 99.8245 45.514C99.0925 45.106 98.5165 44.518 98.0965 43.75C97.6765 42.982 97.4665 42.076 97.4665 41.032C97.4665 40 97.6765 39.1 98.0965 38.332C98.5165 37.564 99.0925 36.976 99.8245 36.568C100.569 36.16 101.421 35.956 102.381 35.956C103.353 35.956 104.199 36.16 104.919 36.568C105.651 36.964 106.209 37.516 106.593 38.224C106.989 38.92 107.187 39.7 107.187 40.564ZM105.117 40.51C105.141 39.862 105.027 39.322 104.775 38.89C104.535 38.446 104.199 38.122 103.767 37.918C103.347 37.702 102.885 37.594 102.381 37.594C101.577 37.594 100.905 37.84 100.365 38.332C99.8245 38.824 99.5305 39.55 99.4825 40.51H105.117ZM113.146 35.956C114.046 35.956 114.814 36.178 115.45 36.622C116.086 37.066 116.536 37.654 116.8 38.386V36.082H118.852V46H116.8V43.696C116.536 44.428 116.086 45.016 115.45 45.46C114.814 45.904 114.046 46.126 113.146 46.126C112.282 46.126 111.508 45.922 110.824 45.514C110.152 45.106 109.624 44.518 109.24 43.75C108.856 42.982 108.664 42.076 108.664 41.032C108.664 40 108.856 39.1 109.24 38.332C109.624 37.564 110.152 36.976 110.824 36.568C111.508 36.16 112.282 35.956 113.146 35.956ZM113.776 37.756C112.864 37.756 112.132 38.05 111.58 38.638C111.04 39.214 110.77 40.012 110.77 41.032C110.77 42.052 111.04 42.856 111.58 43.444C112.132 44.02 112.864 44.308 113.776 44.308C114.352 44.308 114.868 44.176 115.324 43.912C115.78 43.636 116.14 43.252 116.404 42.76C116.668 42.268 116.8 41.692 116.8 41.032C116.8 40.384 116.668 39.814 116.404 39.322C116.14 38.818 115.78 38.434 115.324 38.17C114.868 37.894 114.352 37.756 113.776 37.756ZM123.366 38.026C123.702 37.378 124.182 36.868 124.806 36.496C125.43 36.112 126.15 35.92 126.966 35.92V38.152H126.354C125.454 38.152 124.728 38.374 124.176 38.818C123.636 39.25 123.366 39.97 123.366 40.978V46H121.314V36.082H123.366V38.026ZM140.3 43.246H134.936L133.964 46H131.768L136.448 33.49H138.806L143.468 46H141.272L140.3 43.246ZM139.724 41.662L137.618 35.722L135.512 41.662H139.724ZM147.044 32.68V46H144.992V32.68H147.044ZM151.579 32.68V46H149.527V32.68H151.579Z" fill="#562C2C"/>
<rect x="16" y="80" width="200" height="48" rx="24" fill="#FFEDE8"/>
<rect x="16.5" y="80.5" width="199" height="47" rx="23.5" stroke="#562C2C" stroke-opacity="0.3"/>
<path d="M85.412 97.166C86.972 97.166 88.268 97.562 89.3 98.354C90.332 99.146 91.028 100.22 91.388 101.576H89.21C88.91 100.808 88.43 100.202 87.77 99.758C87.122 99.302 86.324 99.074 85.376 99.074C84.62 99.074 83.942 99.26 83.342 99.632C82.754 100.004 82.286 100.538 81.938 101.234C81.602 101.918 81.434 102.722 81.434 103.646C81.434 104.558 81.602 105.362 81.938 106.058C82.286 106.742 82.754 107.27 83.342 107.642C83.942 108.014 84.62 108.2 85.376 108.2C86.324 108.2 87.122 107.978 87.77 107.534C88.43 107.078 88.91 106.472 89.21 105.716H91.388C91.028 107.072 90.332 108.146 89.3 108.938C88.268 109.718 86.972 110.108 85.412 110.108C84.212 110.108 83.15 109.838 82.226 109.298C81.302 108.746 80.588 107.984 80.084 107.012C79.58 106.028 79.328 104.906 79.328 103.646C79.328 102.386 79.58 101.27 80.084 100.298C80.588 99.314 81.302 98.546 82.226 97.994C83.15 97.442 84.212 97.166 85.412 97.166ZM95.4874 96.68V110H93.4354V96.68H95.4874ZM107.187 104.564C107.187 104.9 107.163 105.194 107.115 105.446H99.4825C99.5185 106.466 99.8005 107.222 100.329 107.714C100.857 108.206 101.511 108.452 102.291 108.452C102.975 108.452 103.551 108.278 104.019 107.93C104.499 107.582 104.793 107.12 104.901 106.544H107.097C106.965 107.24 106.689 107.858 106.269 108.398C105.849 108.938 105.303 109.364 104.631 109.676C103.959 109.976 103.209 110.126 102.381 110.126C101.421 110.126 100.569 109.922 99.8245 109.514C99.0925 109.106 98.5165 108.518 98.0965 107.75C97.6765 106.982 97.4665 106.076 97.4665 105.032C97.4665 104 97.6765 103.1 98.0965 102.332C98.5165 101.564 99.0925 100.976 99.8245 100.568C100.569 100.16 101.421 99.956 102.381 99.956C103.353 99.956 104.199 100.16 104.919 100.568C105.651 100.964 106.209 101.516 106.593 102.224C106.989 102.92 107.187 103.7 107.187 104.564ZM105.117 104.51C105.141 103.862 105.027 103.322 104.775 102.89C104.535 102.446 104.199 102.122 103.767 101.918C103.347 101.702 102.885 101.594 102.381 101.594C101.577 101.594 100.905 101.84 100.365 102.332C99.8245 102.824 99.5305 103.55 99.4825 104.51H105.117ZM113.146 99.956C114.046 99.956 114.814 100.178 115.45 100.622C116.086 101.066 116.536 101.654 116.8 102.386V100.082H118.852V110H116.8V107.696C116.536 108.428 116.086 109.016 115.45 109.46C114.814 109.904 114.046 110.126 113.146 110.126C112.282 110.126 111.508 109.922 110.824 109.514C110.152 109.106 109.624 108.518 109.24 107.75C108.856 106.982 108.664 106.076 108.664 105.032C108.664 104 108.856 103.1 109.24 102.332C109.624 101.564 110.152 100.976 110.824 100.568C111.508 100.16 112.282 99.956 113.146 99.956ZM113.776 101.756C112.864 101.756 112.132 102.05 111.58 102.638C111.04 103.214 110.77 104.012 110.77 105.032C110.77 106.052 111.04 106.856 111.58 107.444C112.132 108.02 112.864 108.308 113.776 108.308C114.352 108.308 114.868 108.176 115.324 107.912C115.78 107.636 116.14 107.252 116.404 106.76C116.668 106.268 116.8 105.692 116.8 105.032C116.8 104.384 116.668 103.814 116.404 103.322C116.14 102.818 115.78 102.434 115.324 102.17C114.868 101.894 114.352 101.756 113.776 101.756ZM123.366 102.026C123.702 101.378 124.182 100.868 124.806 100.496C125.43 100.112 126.15 99.92 126.966 99.92V102.152H126.354C125.454 102.152 124.728 102.374 124.176 102.818C123.636 103.25 123.366 103.97 123.366 104.978V110H121.314V100.082H123.366V102.026ZM140.3 107.246H134.936L133.964 110H131.768L136.448 97.49H138.806L143.468 110H141.272L140.3 107.246ZM139.724 105.662L137.618 99.722L135.512 105.662H139.724ZM147.044 96.68V110H144.992V96.68H147.044ZM151.579 96.68V110H149.527V96.68H151.579Z" fill="#562C2C"/>
</svg>
