<svg width="260" height="112" viewBox="0 0 260 112" fill="none" xmlns="http://www.w3.org/2000/svg">
<rect x="0.5" y="0.5" width="259" height="111" rx="4.5" stroke="#9747FF" stroke-dasharray="10 5"/>
<g clip-path="url(#clip0_0_4204)">
<path d="M24.8 38L21.28 32.36H19.66V38H17.38V23.88H22.36C23.9733 23.88 25.1933 24.2733 26.02 25.06C26.86 25.8467 27.28 26.8867 27.28 28.18C27.28 29.2867 26.9667 30.1933 26.34 30.9C25.7267 31.6067 24.8333 32.06 23.66 32.26L27.36 38H24.8ZM19.66 30.74H22.18C24.02 30.74 24.94 29.9267 24.94 28.3C24.94 27.5267 24.7133 26.9267 24.26 26.5C23.82 26.06 23.1267 25.84 22.18 25.84H19.66V30.74ZM39.5731 31.96C39.5731 32.3333 39.5465 32.66 39.4931 32.94H31.0131C31.0531 34.0733 31.3665 34.9133 31.9531 35.46C32.5398 36.0067 33.2665 36.28 34.1331 36.28C34.8931 36.28 35.5331 36.0867 36.0531 35.7C36.5865 35.3133 36.9131 34.8 37.0331 34.16H39.4731C39.3265 34.9333 39.0198 35.62 38.5531 36.22C38.0865 36.82 37.4798 37.2933 36.7331 37.64C35.9865 37.9733 35.1531 38.14 34.2331 38.14C33.1665 38.14 32.2198 37.9133 31.3931 37.46C30.5798 37.0067 29.9398 36.3533 29.4731 35.5C29.0065 34.6467 28.7731 33.64 28.7731 32.48C28.7731 31.3333 29.0065 30.3333 29.4731 29.48C29.9398 28.6267 30.5798 27.9733 31.3931 27.52C32.2198 27.0667 33.1665 26.84 34.2331 26.84C35.3131 26.84 36.2531 27.0667 37.0531 27.52C37.8665 27.96 38.4865 28.5733 38.9131 29.36C39.3531 30.1333 39.5731 31 39.5731 31.96ZM37.2731 31.9C37.2998 31.18 37.1731 30.58 36.8931 30.1C36.6265 29.6067 36.2531 29.2467 35.7731 29.02C35.3065 28.78 34.7931 28.66 34.2331 28.66C33.3398 28.66 32.5931 28.9333 31.9931 29.48C31.3931 30.0267 31.0665 30.8333 31.0131 31.9H37.2731ZM37.3531 23.86L32.9331 26.12V24.52L37.3531 22.08V23.86ZM45.3945 26.84C46.6879 26.84 47.7212 27.1733 48.4945 27.84C49.2812 28.4933 49.7612 29.3733 49.9345 30.48H47.7745C47.6812 29.88 47.4212 29.4 46.9945 29.04C46.5812 28.6667 46.0279 28.48 45.3345 28.48C44.7612 28.48 44.3145 28.62 43.9945 28.9C43.6879 29.1667 43.5345 29.5333 43.5345 30C43.5345 30.3467 43.6479 30.6267 43.8745 30.84C44.1012 31.0533 44.3812 31.22 44.7145 31.34C45.0612 31.46 45.5479 31.5933 46.1745 31.74C47.0012 31.9267 47.6679 32.12 48.1745 32.32C48.6945 32.52 49.1345 32.84 49.4945 33.28C49.8679 33.7067 50.0545 34.2933 50.0545 35.04C50.0545 35.96 49.7012 36.7067 48.9945 37.28C48.3012 37.8533 47.3612 38.14 46.1745 38.14C44.8012 38.14 43.6879 37.82 42.8345 37.18C41.9945 36.54 41.4879 35.6467 41.3145 34.5H43.5345C43.6012 35.1 43.8679 35.5867 44.3345 35.96C44.8012 36.3333 45.4145 36.52 46.1745 36.52C46.7212 36.52 47.1479 36.38 47.4545 36.1C47.7745 35.8067 47.9345 35.44 47.9345 35C47.9345 34.6133 47.8145 34.3067 47.5745 34.08C47.3345 33.8533 47.0345 33.68 46.6745 33.56C46.3145 33.4267 45.8212 33.2933 45.1945 33.16C44.3945 32.9733 43.7412 32.7867 43.2345 32.6C42.7412 32.4133 42.3145 32.1133 41.9545 31.7C41.6079 31.2733 41.4345 30.7 41.4345 29.98C41.4345 29.0467 41.7812 28.2933 42.4745 27.72C43.1812 27.1333 44.1545 26.84 45.3945 26.84ZM62.5809 31.96C62.5809 32.3333 62.5543 32.66 62.5009 32.94H54.0209C54.0609 34.0733 54.3743 34.9133 54.9609 35.46C55.5476 36.0067 56.2743 36.28 57.1409 36.28C57.9009 36.28 58.5409 36.0867 59.0609 35.7C59.5943 35.3133 59.9209 34.8 60.0409 34.16H62.4809C62.3343 34.9333 62.0276 35.62 61.5609 36.22C61.0943 36.82 60.4876 37.2933 59.7409 37.64C58.9943 37.9733 58.1609 38.14 57.2409 38.14C56.1743 38.14 55.2276 37.9133 54.4009 37.46C53.5876 37.0067 52.9476 36.3533 52.4809 35.5C52.0143 34.6467 51.7809 33.64 51.7809 32.48C51.7809 31.3333 52.0143 30.3333 52.4809 29.48C52.9476 28.6267 53.5876 27.9733 54.4009 27.52C55.2276 27.0667 56.1743 26.84 57.2409 26.84C58.3209 26.84 59.2609 27.0667 60.0609 27.52C60.8743 27.96 61.4943 28.5733 61.9209 29.36C62.3609 30.1333 62.5809 31 62.5809 31.96ZM60.2809 31.9C60.3076 31.18 60.1809 30.58 59.9009 30.1C59.6343 29.6067 59.2609 29.2467 58.7809 29.02C58.3143 28.78 57.8009 28.66 57.2409 28.66C56.3476 28.66 55.6009 28.9333 55.0009 29.48C54.4009 30.0267 54.0743 30.8333 54.0209 31.9H60.2809ZM67.0623 29.14C67.4357 28.42 67.969 27.8533 68.6623 27.44C69.3557 27.0133 70.1557 26.8 71.0623 26.8V29.28H70.3823C69.3823 29.28 68.5757 29.5267 67.9623 30.02C67.3623 30.5 67.0623 31.3 67.0623 32.42V38H64.7823V26.98H67.0623V29.14ZM77.2906 35.64L80.4106 26.98H82.8506L78.6506 38H75.8906L71.6906 26.98H74.1306L77.2906 35.64ZM94.7684 31.96C94.7684 32.3333 94.7418 32.66 94.6884 32.94H86.2084C86.2484 34.0733 86.5618 34.9133 87.1484 35.46C87.7351 36.0067 88.4618 36.28 89.3284 36.28C90.0884 36.28 90.7284 36.0867 91.2484 35.7C91.7818 35.3133 92.1084 34.8 92.2284 34.16H94.6684C94.5218 34.9333 94.2151 35.62 93.7484 36.22C93.2818 36.82 92.6751 37.2933 91.9284 37.64C91.1818 37.9733 90.3484 38.14 89.4284 38.14C88.3618 38.14 87.4151 37.9133 86.5884 37.46C85.7751 37.0067 85.1351 36.3533 84.6684 35.5C84.2018 34.6467 83.9684 33.64 83.9684 32.48C83.9684 31.3333 84.2018 30.3333 84.6684 29.48C85.1351 28.6267 85.7751 27.9733 86.5884 27.52C87.4151 27.0667 88.3618 26.84 89.4284 26.84C90.5084 26.84 91.4484 27.0667 92.2484 27.52C93.0618 27.96 93.6818 28.5733 94.1084 29.36C94.5484 30.1333 94.7684 31 94.7684 31.96ZM92.4684 31.9C92.4951 31.18 92.3684 30.58 92.0884 30.1C91.8218 29.6067 91.4484 29.2467 90.9684 29.02C90.5018 28.78 89.9884 28.66 89.4284 28.66C88.5351 28.66 87.7884 28.9333 87.1884 29.48C86.5884 30.0267 86.2618 30.8333 86.2084 31.9H92.4684ZM98.6098 36.08H104.27V38H96.0898V36.18L101.45 28.9H96.2298V26.98H104.07V28.8L98.6098 36.08ZM112.257 23.88L116.317 35.56L120.397 23.88H122.877L117.777 38H114.857L109.777 23.88H112.257ZM129.608 26.84C130.674 26.84 131.634 27.0667 132.488 27.52C133.341 27.9733 134.008 28.6267 134.487 29.48C134.968 30.3333 135.208 31.3333 135.208 32.48C135.208 33.64 134.968 34.6467 134.487 35.5C134.008 36.3533 133.341 37.0067 132.488 37.46C131.634 37.9133 130.674 38.14 129.608 38.14C128.541 38.14 127.581 37.9133 126.728 37.46C125.888 37.0067 125.221 36.3533 124.728 35.5C124.248 34.6333 124.008 33.6267 124.008 32.48C124.008 31.3333 124.248 30.3333 124.728 29.48C125.221 28.6267 125.888 27.9733 126.728 27.52C127.581 27.0667 128.541 26.84 129.608 26.84ZM129.608 28.82C129.021 28.82 128.481 28.9533 127.988 29.22C127.494 29.4867 127.094 29.9 126.788 30.46C126.494 31.0067 126.348 31.68 126.348 32.48C126.348 33.2933 126.494 33.9733 126.788 34.52C127.094 35.0667 127.494 35.4733 127.988 35.74C128.481 36.0067 129.021 36.14 129.608 36.14C130.194 36.14 130.734 36.0067 131.228 35.74C131.721 35.4733 132.114 35.0667 132.408 34.52C132.714 33.9733 132.868 33.2933 132.868 32.48C132.868 31.68 132.714 31.0067 132.408 30.46C132.114 29.9 131.721 29.4867 131.228 29.22C130.734 28.9533 130.194 28.82 129.608 28.82ZM142.94 36.02V38H141.54C140.366 38 139.473 37.72 138.86 37.16C138.26 36.5867 137.96 35.64 137.96 34.32V28.92H136.38V26.98H137.96V24.24H140.26V26.98H142.92V28.92H140.26V34.36C140.26 34.9867 140.373 35.42 140.6 35.66C140.84 35.9 141.253 36.02 141.84 36.02H142.94ZM147.355 29.14C147.729 28.42 148.262 27.8533 148.955 27.44C149.649 27.0133 150.449 26.8 151.355 26.8V29.28H150.675C149.675 29.28 148.869 29.5267 148.255 30.02C147.655 30.5 147.355 31.3 147.355 32.42V38H145.075V26.98H147.355V29.14ZM163.304 31.96C163.304 32.3333 163.277 32.66 163.224 32.94H154.744C154.784 34.0733 155.097 34.9133 155.684 35.46C156.27 36.0067 156.997 36.28 157.864 36.28C158.624 36.28 159.264 36.0867 159.784 35.7C160.317 35.3133 160.644 34.8 160.764 34.16H163.204C163.057 34.9333 162.75 35.62 162.284 36.22C161.817 36.82 161.21 37.2933 160.464 37.64C159.717 37.9733 158.884 38.14 157.964 38.14C156.897 38.14 155.95 37.9133 155.124 37.46C154.31 37.0067 153.67 36.3533 153.204 35.5C152.737 34.6467 152.504 33.64 152.504 32.48C152.504 31.3333 152.737 30.3333 153.204 29.48C153.67 28.6267 154.31 27.9733 155.124 27.52C155.95 27.0667 156.897 26.84 157.964 26.84C159.044 26.84 159.984 27.0667 160.784 27.52C161.597 27.96 162.217 28.5733 162.644 29.36C163.084 30.1333 163.304 31 163.304 31.96ZM161.004 31.9C161.03 31.18 160.904 30.58 160.624 30.1C160.357 29.6067 159.984 29.2467 159.504 29.02C159.037 28.78 158.524 28.66 157.964 28.66C157.07 28.66 156.324 28.9333 155.724 29.48C155.124 30.0267 154.797 30.8333 154.744 31.9H161.004ZM179.473 34.24C179.473 34.9333 179.306 35.58 178.973 36.18C178.639 36.7667 178.133 37.24 177.453 37.6C176.773 37.96 175.939 38.14 174.953 38.14C173.993 38.14 173.133 37.9733 172.373 37.64C171.613 37.2933 171.006 36.8133 170.553 36.2C170.099 35.5867 169.839 34.88 169.773 34.08H172.213C172.279 34.6933 172.539 35.22 172.993 35.66C173.459 36.1 174.079 36.32 174.853 36.32C175.546 36.32 176.079 36.1333 176.453 35.76C176.839 35.3867 177.033 34.9067 177.033 34.32C177.033 33.8133 176.893 33.4 176.613 33.08C176.333 32.7467 175.986 32.4867 175.573 32.3C175.159 32.1133 174.593 31.9 173.873 31.66C172.993 31.38 172.273 31.1 171.713 30.82C171.166 30.54 170.699 30.1333 170.313 29.6C169.926 29.0667 169.733 28.3667 169.733 27.5C169.733 26.74 169.919 26.0733 170.293 25.5C170.666 24.9267 171.199 24.4867 171.893 24.18C172.586 23.86 173.386 23.7 174.293 23.7C175.733 23.7 176.873 24.0467 177.713 24.74C178.566 25.4333 179.053 26.34 179.173 27.46H176.713C176.619 26.9267 176.366 26.4733 175.953 26.1C175.553 25.7133 174.999 25.52 174.293 25.52C173.653 25.52 173.139 25.6867 172.753 26.02C172.366 26.34 172.173 26.8067 172.173 27.42C172.173 27.9 172.306 28.3 172.573 28.62C172.839 28.9267 173.173 29.1733 173.573 29.36C173.986 29.5333 174.546 29.74 175.253 29.98C176.146 30.26 176.873 30.5467 177.433 30.84C178.006 31.12 178.486 31.5333 178.873 32.08C179.273 32.6267 179.473 33.3467 179.473 34.24ZM191.995 31.96C191.995 32.3333 191.968 32.66 191.915 32.94H183.435C183.475 34.0733 183.788 34.9133 184.375 35.46C184.962 36.0067 185.688 36.28 186.555 36.28C187.315 36.28 187.955 36.0867 188.475 35.7C189.008 35.3133 189.335 34.8 189.455 34.16H191.895C191.748 34.9333 191.442 35.62 190.975 36.22C190.508 36.82 189.902 37.2933 189.155 37.64C188.408 37.9733 187.575 38.14 186.655 38.14C185.588 38.14 184.642 37.9133 183.815 37.46C183.002 37.0067 182.362 36.3533 181.895 35.5C181.428 34.6467 181.195 33.64 181.195 32.48C181.195 31.3333 181.428 30.3333 181.895 29.48C182.362 28.6267 183.002 27.9733 183.815 27.52C184.642 27.0667 185.588 26.84 186.655 26.84C187.735 26.84 188.675 27.0667 189.475 27.52C190.288 27.96 190.908 28.5733 191.335 29.36C191.775 30.1333 191.995 31 191.995 31.96ZM189.695 31.9C189.722 31.18 189.595 30.58 189.315 30.1C189.048 29.6067 188.675 29.2467 188.195 29.02C187.728 28.78 187.215 28.66 186.655 28.66C185.762 28.66 185.015 28.9333 184.415 29.48C183.815 30.0267 183.488 30.8333 183.435 31.9H189.695ZM189.775 23.86L185.355 26.12V24.52L189.775 22.08V23.86ZM195.436 25.08C194.996 25.08 194.636 24.96 194.356 24.72C194.09 24.48 193.956 24.1667 193.956 23.78C193.956 23.3933 194.09 23.0733 194.356 22.82C194.636 22.5667 194.996 22.44 195.436 22.44C195.876 22.44 196.23 22.5667 196.496 22.82C196.763 23.0733 196.896 23.3933 196.896 23.78C196.896 24.1667 196.763 24.48 196.496 24.72C196.23 24.96 195.876 25.08 195.436 25.08ZM192.236 41.24H193.016C193.456 41.24 193.776 41.14 193.976 40.94C194.19 40.7533 194.296 40.4267 194.296 39.96V26.98H196.596V39.98C196.596 42.1533 195.503 43.24 193.316 43.24H192.236V41.24ZM204.354 26.84C205.42 26.84 206.38 27.0667 207.234 27.52C208.087 27.9733 208.754 28.6267 209.234 29.48C209.714 30.3333 209.954 31.3333 209.954 32.48C209.954 33.64 209.714 34.6467 209.234 35.5C208.754 36.3533 208.087 37.0067 207.234 37.46C206.38 37.9133 205.42 38.14 204.354 38.14C203.287 38.14 202.327 37.9133 201.474 37.46C200.634 37.0067 199.967 36.3533 199.474 35.5C198.994 34.6333 198.754 33.6267 198.754 32.48C198.754 31.3333 198.994 30.3333 199.474 29.48C199.967 28.6267 200.634 27.9733 201.474 27.52C202.327 27.0667 203.287 26.84 204.354 26.84ZM204.354 28.82C203.767 28.82 203.227 28.9533 202.734 29.22C202.24 29.4867 201.84 29.9 201.534 30.46C201.24 31.0067 201.094 31.68 201.094 32.48C201.094 33.2933 201.24 33.9733 201.534 34.52C201.84 35.0667 202.24 35.4733 202.734 35.74C203.227 36.0067 203.767 36.14 204.354 36.14C204.94 36.14 205.48 36.0067 205.974 35.74C206.467 35.4733 206.86 35.0667 207.154 34.52C207.46 33.9733 207.614 33.2933 207.614 32.48C207.614 31.68 207.46 31.0067 207.154 30.46C206.86 29.9 206.467 29.4867 205.974 29.22C205.48 28.9533 204.94 28.82 204.354 28.82ZM222.306 26.98V38H220.006V35.6C219.726 36.4133 219.239 37.0467 218.546 37.5C217.852 37.94 217.046 38.16 216.126 38.16C214.846 38.16 213.819 37.7467 213.046 36.92C212.272 36.0933 211.886 34.9133 211.886 33.38V26.98H214.166V33.14C214.166 34.14 214.419 34.9133 214.926 35.46C215.432 35.9933 216.126 36.26 217.006 36.26C217.912 36.26 218.639 35.9667 219.186 35.38C219.732 34.7933 220.006 33.94 220.006 32.82V26.98H222.306ZM227.316 29.14C227.69 28.42 228.223 27.8533 228.916 27.44C229.61 27.0133 230.41 26.8 231.316 26.8V29.28H230.636C229.636 29.28 228.83 29.5267 228.216 30.02C227.616 30.5 227.316 31.3 227.316 32.42V38H225.036V26.98H227.316V29.14Z" fill="white" fill-opacity="0.9"/>
</g>
<g clip-path="url(#clip1_0_4204)">
<path d="M24.8 86L21.28 80.36H19.66V86H17.38V71.88H22.36C23.9733 71.88 25.1933 72.2733 26.02 73.06C26.86 73.8467 27.28 74.8867 27.28 76.18C27.28 77.2867 26.9667 78.1933 26.34 78.9C25.7267 79.6067 24.8333 80.06 23.66 80.26L27.36 86H24.8ZM19.66 78.74H22.18C24.02 78.74 24.94 77.9267 24.94 76.3C24.94 75.5267 24.7133 74.9267 24.26 74.5C23.82 74.06 23.1267 73.84 22.18 73.84H19.66V78.74ZM39.5731 79.96C39.5731 80.3333 39.5465 80.66 39.4931 80.94H31.0131C31.0531 82.0733 31.3665 82.9133 31.9531 83.46C32.5398 84.0067 33.2665 84.28 34.1331 84.28C34.8931 84.28 35.5331 84.0867 36.0531 83.7C36.5865 83.3133 36.9131 82.8 37.0331 82.16H39.4731C39.3265 82.9333 39.0198 83.62 38.5531 84.22C38.0865 84.82 37.4798 85.2933 36.7331 85.64C35.9865 85.9733 35.1531 86.14 34.2331 86.14C33.1665 86.14 32.2198 85.9133 31.3931 85.46C30.5798 85.0067 29.9398 84.3533 29.4731 83.5C29.0065 82.6467 28.7731 81.64 28.7731 80.48C28.7731 79.3333 29.0065 78.3333 29.4731 77.48C29.9398 76.6267 30.5798 75.9733 31.3931 75.52C32.2198 75.0667 33.1665 74.84 34.2331 74.84C35.3131 74.84 36.2531 75.0667 37.0531 75.52C37.8665 75.96 38.4865 76.5733 38.9131 77.36C39.3531 78.1333 39.5731 79 39.5731 79.96ZM37.2731 79.9C37.2998 79.18 37.1731 78.58 36.8931 78.1C36.6265 77.6067 36.2531 77.2467 35.7731 77.02C35.3065 76.78 34.7931 76.66 34.2331 76.66C33.3398 76.66 32.5931 76.9333 31.9931 77.48C31.3931 78.0267 31.0665 78.8333 31.0131 79.9H37.2731ZM37.3531 71.86L32.9331 74.12V72.52L37.3531 70.08V71.86ZM45.3945 74.84C46.6879 74.84 47.7212 75.1733 48.4945 75.84C49.2812 76.4933 49.7612 77.3733 49.9345 78.48H47.7745C47.6812 77.88 47.4212 77.4 46.9945 77.04C46.5812 76.6667 46.0279 76.48 45.3345 76.48C44.7612 76.48 44.3145 76.62 43.9945 76.9C43.6879 77.1667 43.5345 77.5333 43.5345 78C43.5345 78.3467 43.6479 78.6267 43.8745 78.84C44.1012 79.0533 44.3812 79.22 44.7145 79.34C45.0612 79.46 45.5479 79.5933 46.1745 79.74C47.0012 79.9267 47.6679 80.12 48.1745 80.32C48.6945 80.52 49.1345 80.84 49.4945 81.28C49.8679 81.7067 50.0545 82.2933 50.0545 83.04C50.0545 83.96 49.7012 84.7067 48.9945 85.28C48.3012 85.8533 47.3612 86.14 46.1745 86.14C44.8012 86.14 43.6879 85.82 42.8345 85.18C41.9945 84.54 41.4879 83.6467 41.3145 82.5H43.5345C43.6012 83.1 43.8679 83.5867 44.3345 83.96C44.8012 84.3333 45.4145 84.52 46.1745 84.52C46.7212 84.52 47.1479 84.38 47.4545 84.1C47.7745 83.8067 47.9345 83.44 47.9345 83C47.9345 82.6133 47.8145 82.3067 47.5745 82.08C47.3345 81.8533 47.0345 81.68 46.6745 81.56C46.3145 81.4267 45.8212 81.2933 45.1945 81.16C44.3945 80.9733 43.7412 80.7867 43.2345 80.6C42.7412 80.4133 42.3145 80.1133 41.9545 79.7C41.6079 79.2733 41.4345 78.7 41.4345 77.98C41.4345 77.0467 41.7812 76.2933 42.4745 75.72C43.1812 75.1333 44.1545 74.84 45.3945 74.84ZM62.5809 79.96C62.5809 80.3333 62.5543 80.66 62.5009 80.94H54.0209C54.0609 82.0733 54.3743 82.9133 54.9609 83.46C55.5476 84.0067 56.2743 84.28 57.1409 84.28C57.9009 84.28 58.5409 84.0867 59.0609 83.7C59.5943 83.3133 59.9209 82.8 60.0409 82.16H62.4809C62.3343 82.9333 62.0276 83.62 61.5609 84.22C61.0943 84.82 60.4876 85.2933 59.7409 85.64C58.9943 85.9733 58.1609 86.14 57.2409 86.14C56.1743 86.14 55.2276 85.9133 54.4009 85.46C53.5876 85.0067 52.9476 84.3533 52.4809 83.5C52.0143 82.6467 51.7809 81.64 51.7809 80.48C51.7809 79.3333 52.0143 78.3333 52.4809 77.48C52.9476 76.6267 53.5876 75.9733 54.4009 75.52C55.2276 75.0667 56.1743 74.84 57.2409 74.84C58.3209 74.84 59.2609 75.0667 60.0609 75.52C60.8743 75.96 61.4943 76.5733 61.9209 77.36C62.3609 78.1333 62.5809 79 62.5809 79.96ZM60.2809 79.9C60.3076 79.18 60.1809 78.58 59.9009 78.1C59.6343 77.6067 59.2609 77.2467 58.7809 77.02C58.3143 76.78 57.8009 76.66 57.2409 76.66C56.3476 76.66 55.6009 76.9333 55.0009 77.48C54.4009 78.0267 54.0743 78.8333 54.0209 79.9H60.2809ZM67.0623 77.14C67.4357 76.42 67.969 75.8533 68.6623 75.44C69.3557 75.0133 70.1557 74.8 71.0623 74.8V77.28H70.3823C69.3823 77.28 68.5757 77.5267 67.9623 78.02C67.3623 78.5 67.0623 79.3 67.0623 80.42V86H64.7823V74.98H67.0623V77.14ZM77.2906 83.64L80.4106 74.98H82.8506L78.6506 86H75.8906L71.6906 74.98H74.1306L77.2906 83.64ZM94.7684 79.96C94.7684 80.3333 94.7418 80.66 94.6884 80.94H86.2084C86.2484 82.0733 86.5618 82.9133 87.1484 83.46C87.7351 84.0067 88.4618 84.28 89.3284 84.28C90.0884 84.28 90.7284 84.0867 91.2484 83.7C91.7818 83.3133 92.1084 82.8 92.2284 82.16H94.6684C94.5218 82.9333 94.2151 83.62 93.7484 84.22C93.2818 84.82 92.6751 85.2933 91.9284 85.64C91.1818 85.9733 90.3484 86.14 89.4284 86.14C88.3618 86.14 87.4151 85.9133 86.5884 85.46C85.7751 85.0067 85.1351 84.3533 84.6684 83.5C84.2018 82.6467 83.9684 81.64 83.9684 80.48C83.9684 79.3333 84.2018 78.3333 84.6684 77.48C85.1351 76.6267 85.7751 75.9733 86.5884 75.52C87.4151 75.0667 88.3618 74.84 89.4284 74.84C90.5084 74.84 91.4484 75.0667 92.2484 75.52C93.0618 75.96 93.6818 76.5733 94.1084 77.36C94.5484 78.1333 94.7684 79 94.7684 79.96ZM92.4684 79.9C92.4951 79.18 92.3684 78.58 92.0884 78.1C91.8218 77.6067 91.4484 77.2467 90.9684 77.02C90.5018 76.78 89.9884 76.66 89.4284 76.66C88.5351 76.66 87.7884 76.9333 87.1884 77.48C86.5884 78.0267 86.2618 78.8333 86.2084 79.9H92.4684ZM98.6098 84.08H104.27V86H96.0898V84.18L101.45 76.9H96.2298V74.98H104.07V76.8L98.6098 84.08ZM112.257 71.88L116.317 83.56L120.397 71.88H122.877L117.777 86H114.857L109.777 71.88H112.257ZM129.608 74.84C130.674 74.84 131.634 75.0667 132.488 75.52C133.341 75.9733 134.008 76.6267 134.487 77.48C134.968 78.3333 135.208 79.3333 135.208 80.48C135.208 81.64 134.968 82.6467 134.487 83.5C134.008 84.3533 133.341 85.0067 132.488 85.46C131.634 85.9133 130.674 86.14 129.608 86.14C128.541 86.14 127.581 85.9133 126.728 85.46C125.888 85.0067 125.221 84.3533 124.728 83.5C124.248 82.6333 124.008 81.6267 124.008 80.48C124.008 79.3333 124.248 78.3333 124.728 77.48C125.221 76.6267 125.888 75.9733 126.728 75.52C127.581 75.0667 128.541 74.84 129.608 74.84ZM129.608 76.82C129.021 76.82 128.481 76.9533 127.988 77.22C127.494 77.4867 127.094 77.9 126.788 78.46C126.494 79.0067 126.348 79.68 126.348 80.48C126.348 81.2933 126.494 81.9733 126.788 82.52C127.094 83.0667 127.494 83.4733 127.988 83.74C128.481 84.0067 129.021 84.14 129.608 84.14C130.194 84.14 130.734 84.0067 131.228 83.74C131.721 83.4733 132.114 83.0667 132.408 82.52C132.714 81.9733 132.868 81.2933 132.868 80.48C132.868 79.68 132.714 79.0067 132.408 78.46C132.114 77.9 131.721 77.4867 131.228 77.22C130.734 76.9533 130.194 76.82 129.608 76.82ZM142.94 84.02V86H141.54C140.366 86 139.473 85.72 138.86 85.16C138.26 84.5867 137.96 83.64 137.96 82.32V76.92H136.38V74.98H137.96V72.24H140.26V74.98H142.92V76.92H140.26V82.36C140.26 82.9867 140.373 83.42 140.6 83.66C140.84 83.9 141.253 84.02 141.84 84.02H142.94ZM147.355 77.14C147.729 76.42 148.262 75.8533 148.955 75.44C149.649 75.0133 150.449 74.8 151.355 74.8V77.28H150.675C149.675 77.28 148.869 77.5267 148.255 78.02C147.655 78.5 147.355 79.3 147.355 80.42V86H145.075V74.98H147.355V77.14ZM163.304 79.96C163.304 80.3333 163.277 80.66 163.224 80.94H154.744C154.784 82.0733 155.097 82.9133 155.684 83.46C156.27 84.0067 156.997 84.28 157.864 84.28C158.624 84.28 159.264 84.0867 159.784 83.7C160.317 83.3133 160.644 82.8 160.764 82.16H163.204C163.057 82.9333 162.75 83.62 162.284 84.22C161.817 84.82 161.21 85.2933 160.464 85.64C159.717 85.9733 158.884 86.14 157.964 86.14C156.897 86.14 155.95 85.9133 155.124 85.46C154.31 85.0067 153.67 84.3533 153.204 83.5C152.737 82.6467 152.504 81.64 152.504 80.48C152.504 79.3333 152.737 78.3333 153.204 77.48C153.67 76.6267 154.31 75.9733 155.124 75.52C155.95 75.0667 156.897 74.84 157.964 74.84C159.044 74.84 159.984 75.0667 160.784 75.52C161.597 75.96 162.217 76.5733 162.644 77.36C163.084 78.1333 163.304 79 163.304 79.96ZM161.004 79.9C161.03 79.18 160.904 78.58 160.624 78.1C160.357 77.6067 159.984 77.2467 159.504 77.02C159.037 76.78 158.524 76.66 157.964 76.66C157.07 76.66 156.324 76.9333 155.724 77.48C155.124 78.0267 154.797 78.8333 154.744 79.9H161.004ZM179.473 82.24C179.473 82.9333 179.306 83.58 178.973 84.18C178.639 84.7667 178.133 85.24 177.453 85.6C176.773 85.96 175.939 86.14 174.953 86.14C173.993 86.14 173.133 85.9733 172.373 85.64C171.613 85.2933 171.006 84.8133 170.553 84.2C170.099 83.5867 169.839 82.88 169.773 82.08H172.213C172.279 82.6933 172.539 83.22 172.993 83.66C173.459 84.1 174.079 84.32 174.853 84.32C175.546 84.32 176.079 84.1333 176.453 83.76C176.839 83.3867 177.033 82.9067 177.033 82.32C177.033 81.8133 176.893 81.4 176.613 81.08C176.333 80.7467 175.986 80.4867 175.573 80.3C175.159 80.1133 174.593 79.9 173.873 79.66C172.993 79.38 172.273 79.1 171.713 78.82C171.166 78.54 170.699 78.1333 170.313 77.6C169.926 77.0667 169.733 76.3667 169.733 75.5C169.733 74.74 169.919 74.0733 170.293 73.5C170.666 72.9267 171.199 72.4867 171.893 72.18C172.586 71.86 173.386 71.7 174.293 71.7C175.733 71.7 176.873 72.0467 177.713 72.74C178.566 73.4333 179.053 74.34 179.173 75.46H176.713C176.619 74.9267 176.366 74.4733 175.953 74.1C175.553 73.7133 174.999 73.52 174.293 73.52C173.653 73.52 173.139 73.6867 172.753 74.02C172.366 74.34 172.173 74.8067 172.173 75.42C172.173 75.9 172.306 76.3 172.573 76.62C172.839 76.9267 173.173 77.1733 173.573 77.36C173.986 77.5333 174.546 77.74 175.253 77.98C176.146 78.26 176.873 78.5467 177.433 78.84C178.006 79.12 178.486 79.5333 178.873 80.08C179.273 80.6267 179.473 81.3467 179.473 82.24ZM191.995 79.96C191.995 80.3333 191.968 80.66 191.915 80.94H183.435C183.475 82.0733 183.788 82.9133 184.375 83.46C184.962 84.0067 185.688 84.28 186.555 84.28C187.315 84.28 187.955 84.0867 188.475 83.7C189.008 83.3133 189.335 82.8 189.455 82.16H191.895C191.748 82.9333 191.442 83.62 190.975 84.22C190.508 84.82 189.902 85.2933 189.155 85.64C188.408 85.9733 187.575 86.14 186.655 86.14C185.588 86.14 184.642 85.9133 183.815 85.46C183.002 85.0067 182.362 84.3533 181.895 83.5C181.428 82.6467 181.195 81.64 181.195 80.48C181.195 79.3333 181.428 78.3333 181.895 77.48C182.362 76.6267 183.002 75.9733 183.815 75.52C184.642 75.0667 185.588 74.84 186.655 74.84C187.735 74.84 188.675 75.0667 189.475 75.52C190.288 75.96 190.908 76.5733 191.335 77.36C191.775 78.1333 191.995 79 191.995 79.96ZM189.695 79.9C189.722 79.18 189.595 78.58 189.315 78.1C189.048 77.6067 188.675 77.2467 188.195 77.02C187.728 76.78 187.215 76.66 186.655 76.66C185.762 76.66 185.015 76.9333 184.415 77.48C183.815 78.0267 183.488 78.8333 183.435 79.9H189.695ZM189.775 71.86L185.355 74.12V72.52L189.775 70.08V71.86ZM195.436 73.08C194.996 73.08 194.636 72.96 194.356 72.72C194.09 72.48 193.956 72.1667 193.956 71.78C193.956 71.3933 194.09 71.0733 194.356 70.82C194.636 70.5667 194.996 70.44 195.436 70.44C195.876 70.44 196.23 70.5667 196.496 70.82C196.763 71.0733 196.896 71.3933 196.896 71.78C196.896 72.1667 196.763 72.48 196.496 72.72C196.23 72.96 195.876 73.08 195.436 73.08ZM192.236 89.24H193.016C193.456 89.24 193.776 89.14 193.976 88.94C194.19 88.7533 194.296 88.4267 194.296 87.96V74.98H196.596V87.98C196.596 90.1533 195.503 91.24 193.316 91.24H192.236V89.24ZM204.354 74.84C205.42 74.84 206.38 75.0667 207.234 75.52C208.087 75.9733 208.754 76.6267 209.234 77.48C209.714 78.3333 209.954 79.3333 209.954 80.48C209.954 81.64 209.714 82.6467 209.234 83.5C208.754 84.3533 208.087 85.0067 207.234 85.46C206.38 85.9133 205.42 86.14 204.354 86.14C203.287 86.14 202.327 85.9133 201.474 85.46C200.634 85.0067 199.967 84.3533 199.474 83.5C198.994 82.6333 198.754 81.6267 198.754 80.48C198.754 79.3333 198.994 78.3333 199.474 77.48C199.967 76.6267 200.634 75.9733 201.474 75.52C202.327 75.0667 203.287 74.84 204.354 74.84ZM204.354 76.82C203.767 76.82 203.227 76.9533 202.734 77.22C202.24 77.4867 201.84 77.9 201.534 78.46C201.24 79.0067 201.094 79.68 201.094 80.48C201.094 81.2933 201.24 81.9733 201.534 82.52C201.84 83.0667 202.24 83.4733 202.734 83.74C203.227 84.0067 203.767 84.14 204.354 84.14C204.94 84.14 205.48 84.0067 205.974 83.74C206.467 83.4733 206.86 83.0667 207.154 82.52C207.46 81.9733 207.614 81.2933 207.614 80.48C207.614 79.68 207.46 79.0067 207.154 78.46C206.86 77.9 206.467 77.4867 205.974 77.22C205.48 76.9533 204.94 76.82 204.354 76.82ZM222.306 74.98V86H220.006V83.6C219.726 84.4133 219.239 85.0467 218.546 85.5C217.852 85.94 217.046 86.16 216.126 86.16C214.846 86.16 213.819 85.7467 213.046 84.92C212.272 84.0933 211.886 82.9133 211.886 81.38V74.98H214.166V81.14C214.166 82.14 214.419 82.9133 214.926 83.46C215.432 83.9933 216.126 84.26 217.006 84.26C217.912 84.26 218.639 83.9667 219.186 83.38C219.732 82.7933 220.006 81.94 220.006 80.82V74.98H222.306ZM227.316 77.14C227.69 76.42 228.223 75.8533 228.916 75.44C229.61 75.0133 230.41 74.8 231.316 74.8V77.28H230.636C229.636 77.28 228.83 77.5267 228.216 78.02C227.616 78.5 227.316 79.3 227.316 80.42V86H225.036V74.98H227.316V77.14Z" fill="#F2542D"/>
<line x1="16" y1="95.5" x2="232" y2="95.5" stroke="#F2542D"/>
</g>
<defs>
<clipPath id="clip0_0_4204">
<rect width="216" height="32" fill="white" transform="translate(16 16)"/>
</clipPath>
<clipPath id="clip1_0_4204">
<rect width="216" height="32" fill="white" transform="translate(16 64)"/>
</clipPath>
</defs>
</svg>
